<?xml version="1.0" encoding="utf-8"?>
<svg version="1.1" xmlns:xlink="http://www.w3.org/1999/xlink" width="23px" height="6px" xmlns="http://www.w3.org/2000/svg">
  <g transform="matrix(1 0 0 1 -426 -245 )">
    <path d="M 22.5732421875001 0.197916666666657  C 22.8577473958333 0.329861111111114  23 0.486111111111114  23 0.666666666666657  C 23 0.847222222222229  22.8577473958333 1.00347222222223  22.5732421875001 1.13541666666666  L 12.5107421875 5.80208333333334  C 12.2262369791666 5.93402777777777  11.8893229166666 6  11.5 6  C 11.1106770833334 6  10.7737630208334 5.93402777777777  10.4892578125 5.80208333333334  L 0.426757812499905 1.13541666666666  C 0.142252604166716 1.00347222222223  0 0.847222222222229  0 0.666666666666657  C 0 0.486111111111114  0.142252604166716 0.329861111111114  0.426757812499905 0.197916666666657  C 0.711263020833336 0.0659722222222285  1.04817708333334 0  1.43749999999991 0  L 21.5625000000001 0  C 21.9518229166667 0  22.2887369791667 0.0659722222222285  22.5732421875001 0.197916666666657  Z " fill-rule="nonzero" fill="#cccccc" stroke="none" transform="matrix(1 0 0 1 426 245 )" />
  </g>
</svg>