<?xml version="1.0" encoding="utf-8"?>
<svg version="1.1" xmlns:xlink="http://www.w3.org/1999/xlink" width="16px" height="15px" xmlns="http://www.w3.org/2000/svg">
  <g transform="matrix(1 0 0 1 -714 -466 )">
    <path d="M 3.72462739531583 11.5056818181818  C 4.14856872486397 11.9034090909091  4.36053938963804 12.3863636363636  4.36053938963804 12.9545454545455  C 4.36053938963804 13.5227272727273  4.14856872486397 14.0056818181818  3.72462739531583 14.4034090909091  C 3.30068606576768 14.8011363636364  2.78590016560208 15  2.18026969481902 15  C 1.57463922403596 15  1.05985332387036 14.8011363636364  0.635911994322214 14.4034090909091  C 0.211970664774071 14.0056818181818  0 13.5227272727273  0 12.9545454545455  C 0 12.3863636363636  0.211970664774071 11.9034090909091  0.635911994322214 11.5056818181818  C 1.05985332387036 11.1079545454545  1.57463922403596 10.9090909090909  2.18026969481902 10.9090909090909  C 2.78590016560208 10.9090909090909  3.30068606576768 11.1079545454545  3.72462739531583 11.5056818181818  Z M 9.26046841731725 11.0049715909091  C 9.77146912704045 12.0419034090909  10.0761769576532 13.1285511363636  10.1745919091554 14.2649147727273  C 10.189732670925 14.4637784090909  10.1253844334043 14.6342329545455  9.98154719659333 14.7762784090909  C 9.84528034066714 14.9254261363636  9.66737638987462 15  9.44783534421576 15  L 7.91483321504613 15  C 7.72557369292643 15  7.56281050390348 14.94140625  7.42654364797729 14.82421875  C 7.2902767920511 14.70703125  7.21457298320322 14.5596590909091  7.19943222143364 14.3821022727273  C 7.0328838419683 12.7556818181818  6.33451620534658 11.3654119318182  5.10432931156849 10.2112926136364  C 3.87414241779039 9.05717329545454  2.39224035959309 8.40198863636363  0.658623136976579 8.24573863636364  C 0.469363614856873 8.23153409090909  0.312278211497516 8.16051136363636  0.18736692689851 8.03267045454546  C 0.0624556422995032 7.90482954545454  0 7.75213068181818  0 7.57457386363636  L 0 6.13636363636364  C 0 5.93039772727273  0.0794889992902768 5.76349431818182  0.23846699787083 5.63565340909091  C 0.367163472912231 5.51491477272727  0.529926661935179 5.45454545454546  0.726756564939674 5.45454545454546  L 0.783534421575586 5.45454545454546  C 1.99479536314171 5.546875  3.15306363851431 5.83274147727273  4.2583392476934 6.31214488636364  C 5.36361485687249 6.79154829545454  6.34397918145257 7.43607954545454  7.19943222143364 8.24573863636364  C 8.0624556422995 9.04829545454545  8.74946770759404 9.96803977272727  9.26046841731725 11.0049715909091  Z M 14.6259758694109 8.94353693181818  C 15.4360066240833 10.64453125  15.8902294771706 12.4254261363636  15.9886444286728 14.2862215909091  C 16.0037851904424 14.4779829545455  15.9356517624793 14.6448863636364  15.7842441447835 14.7869318181818  C 15.6479772888573 14.9289772727273  15.4738585285072 15  15.2618878637331 15  L 13.6380411639461 15  C 13.4412112609416 15  13.272770286255 14.9378551136364  13.1327182398864 14.8135653409091  C 12.9926661935179 14.6892755681818  12.9188549798912 14.5383522727273  12.9112845990064 14.3607954545455  C 12.8204400283889 12.8338068181818  12.4381357937071 11.3831676136364  11.764371894961 10.0088778409091  C 11.0906079962148 8.63458806818182  10.2143364088006 7.44140625  9.13555713271824 6.42933238636364  C 8.05677785663591 5.41725852272727  6.78495386799148 4.59517045454545  5.32008516678495 3.96306818181818  C 3.85521646557842 3.33096590909091  2.30896616986042 2.96875  0.681334279630944 2.87642045454545  C 0.492074757511237 2.86931818181818  0.331204163709487 2.80007102272727  0.198722498225692 2.66867897727273  C 0.0662408327418973 2.53728693181818  0 2.3828125  0 2.20525568181818  L 0 0.681818181818181  C 0 0.482954545454544  0.0757038088478827 0.319602272727273  0.227111426543648 0.191761363636364  C 0.363378282469837 0.0639204545454547  0.529926661935179 0  0.726756564939674 0  L 0.760823278921221 0  C 2.74426307073575 0.0923295454545431  4.6425360775964 0.518465909090907  6.45564229950319 1.27840909090909  C 8.26874852140998 2.03835227272727  9.87934705464869 3.08238636363636  11.2874378992193 4.41051136363636  C 12.7030991246747 5.73153409090909  13.8159451147386 7.24254261363636  14.6259758694109 8.94353693181818  Z " fill-rule="nonzero" fill="#000000" stroke="none" transform="matrix(1 0 0 1 714 466 )" />
  </g>
</svg>