<?xml version="1.0" encoding="utf-8"?>
<svg version="1.1" xmlns:xlink="http://www.w3.org/1999/xlink" width="25px" height="32px" xmlns="http://www.w3.org/2000/svg">
  <defs>
    <filter x="505px" y="208px" width="25px" height="32px" filterUnits="userSpaceOnUse" id="filter118">
      <feOffset dx="1" dy="1" in="SourceAlpha" result="shadowOffsetInner" />
      <feGaussianBlur stdDeviation="2.5" in="shadowOffsetInner" result="shadowGaussian" />
      <feComposite in2="shadowGaussian" operator="atop" in="SourceAlpha" result="shadowComposite" />
      <feColorMatrix type="matrix" values="0 0 0 0 0  0 0 0 0 0  0 0 0 0 0  0 0 0 0.698039215686274 0  " in="shadowComposite" />
    </filter>
    <g id="widget119">
      <path d="M 516.5 232.971856067567  C 513.7 227.867296041579  509.5 224.804560025987  509.5 219.7  C 509.5 217.025714285714  510.9 212.5  516.5 212.5  C 522.1 212.5  523.5 217.025714285714  523.5 219.7  C 523.5 224.804560025987  519.3 227.867296041579  516.5 232.971856067567  Z " fill-rule="nonzero" fill="#009dd9" stroke="none" />
      <path d="M 516.5 234  C 513.5 228.5  509 225.2  509 219.7  C 509 216.84  510.5 212  516.5 212  C 522.5 212  524 216.84  524 219.7  C 524 225.2  519.5 228.5  516.5 234  Z M 516.5 231.943712135133  C 519.1 227.234592083159  523 224.409120051974  523 219.7  C 523 217.211428571429  521.7 213  516.5 213  C 511.3 213  510 217.211428571429  510 219.7  C 510 224.409120051974  513.9 227.234592083159  516.5 231.943712135133  Z " fill-rule="nonzero" fill="#ffffff" stroke="none" />
    </g>
  </defs>
  <g transform="matrix(1 0 0 1 -505 -208 )">
    <use xlink:href="#widget119" filter="url(#filter118)" />
    <use xlink:href="#widget119" />
  </g>
</svg>