<?xml version="1.0" encoding="utf-8"?>
<svg version="1.1" xmlns:xlink="http://www.w3.org/1999/xlink" width="158px" height="126px" xmlns="http://www.w3.org/2000/svg">
  <g transform="matrix(1 0 0 1 -222 -112 )">
    <path d="M 48.0583333333333 25.59375  C 51.1305555555556 28.65625  52.6666666666667 32.375  52.6666666666667 36.75  C 52.6666666666667 41.125  51.1305555555556 44.84375  48.0583333333333 47.90625  C 44.9861111111111 50.96875  41.2555555555556 52.5  36.8666666666667 52.5  C 32.4777777777778 52.5  28.7472222222222 50.96875  25.675 47.90625  C 22.6027777777778 44.84375  21.0666666666667 41.125  21.0666666666667 36.75  C 21.0666666666667 32.375  22.6027777777778 28.65625  25.675 25.59375  C 28.7472222222222 22.53125  32.4777777777778 21  36.8666666666667 21  C 41.2555555555556 21  44.9861111111111 22.53125  48.0583333333333 25.59375  Z M 102.7 34.125  L 137 68.25  L 137 105  L 21 105  L 21 89.25  L 47.4 63  L 60.5666666666667 76.125  L 102.7 34.125  Z M 146.684895833333 11.279296875  C 146.163715277778 10.759765625  145.546527777778 10.5  144.833333333333 11  L 13.1666666666667 11  C 12.4534722222222 10.5  11.8362847222222 10.759765625  11.3151041666667 11.279296875  C 10.7939236111111 11.798828125  10.5333333333334 12.4140625  11 13.125  L 11 112.875  C 10.5333333333334 113.5859375  10.7939236111111 114.201171875  11.3151041666667 114.720703125  C 11.8362847222222 115.240234375  12.4534722222222 115.5  13.1666666666667 115  L 144.833333333333 115  C 145.546527777778 115.5  146.163715277778 115.240234375  146.684895833333 114.720703125  C 147.206076388889 114.201171875  147.466666666667 113.5859375  147 112.875  L 147 13.125  C 147.466666666667 12.4140625  147.206076388889 11.798828125  146.684895833333 11.279296875  Z M 154.132291666667 3.85546875  C 156.710763888889 6.42578125  158 9.515625  158 13.125  L 158 112.875  C 158 116.484375  156.710763888889 119.57421875  154.132291666667 122.14453125  C 151.553819444444 124.71484375  148.454166666667 126  144.833333333333 126  L 13.1666666666667 126  C 9.54583333333335 126  6.44618055555554 124.71484375  3.86770833333333 122.14453125  C 1.28923611111111 119.57421875  0 116.484375  0 112.875  L 0 13.125  C 0 9.515625  1.28923611111111 6.42578125  3.86770833333333 3.85546875  C 6.44618055555554 1.28515624999999  9.54583333333335 0  13.1666666666667 0  L 144.833333333333 0  C 148.454166666667 0  151.553819444444 1.28515624999999  154.132291666667 3.85546875  Z " fill-rule="nonzero" fill="#cccccc" stroke="none" transform="matrix(1 0 0 1 222 112 )" />
  </g>
</svg>