<?xml version="1.0" encoding="utf-8"?>
<svg version="1.1" xmlns:xlink="http://www.w3.org/1999/xlink" width="21px" height="20px" xmlns="http://www.w3.org/2000/svg">
  <g transform="matrix(1 0 0 1 -723 -165 )">
    <path d="M 11.885579064588 16.8088942307692  C 11.9596325167038 16.7327724358974  11.9966592427617 16.6386217948718  11.9966592427617 16.5264423076923  L 11.9966592427617 14.2427884615385  C 11.9966592427617 14.130608974359  11.9596325167038 14.0364583333333  11.885579064588 13.9603365384615  C 11.8115256124722 13.8842147435897  11.7238307349666 13.8461538461538  11.6224944320713 13.8461538461538  L 9.37750556792873 13.8461538461538  C 9.27616926503341 13.8461538461538  9.18847438752784 13.8842147435897  9.11442093541203 13.9603365384615  C 9.04036748329621 14.0364583333333  9.00334075723831 14.130608974359  9.00334075723831 14.2427884615385  L 9.00334075723831 16.5264423076923  C 9.00334075723831 16.6386217948718  9.04036748329621 16.7327724358974  9.11442093541203 16.8088942307692  C 9.18847438752784 16.885016025641  9.27616926503341 16.9230769230769  9.37750556792873 16.9230769230769  L 11.6224944320713 16.9230769230769  C 11.7238307349666 16.9230769230769  11.8115256124722 16.885016025641  11.885579064588 16.8088942307692  Z M 11.8505011135857 12.2295673076923  C 11.9245545657016 12.177483974359  11.9654788418708 12.1113782051282  11.9732739420935 12.03125  L 12.1837416481069 6.51442307692308  C 12.1837416481069 6.41826923076923  12.1447661469933 6.34214743589743  12.0668151447661 6.28605769230769  C 11.9654788418708 6.19791666666667  11.8719376391982 6.15384615384615  11.7861915367483 6.15384615384615  L 9.21380846325167 6.15384615384615  C 9.12806236080178 6.15384615384615  9.03452115812918 6.19791666666667  8.93318485523385 6.28605769230769  C 8.85523385300668 6.34214743589743  8.8162583518931 6.42628205128205  8.8162583518931 6.53846153846154  L 9.01503340757238 12.03125  C 9.01503340757238 12.1113782051282  9.05400890868597 12.177483974359  9.13195991091314 12.2295673076923  C 9.20991091314031 12.2816506410256  9.30345211581292 12.3076923076923  9.41258351893096 12.3076923076923  L 11.575723830735 12.3076923076923  C 11.684855233853 12.3076923076923  11.7764476614699 12.2816506410256  11.8505011135857 12.2295673076923  Z M 11.2600222717149 0.216346153846154  C 11.4938752783964 0.360576923076923  11.6770601336303 0.556891025641024  11.8095768374165 0.805288461538463  L 20.7895322939866 17.7283653846154  C 21.0623608017817 18.2331730769231  21.054565701559 18.7379807692308  20.7661469933185 19.2427884615385  C 20.6336302895323 19.4751602564103  20.4523942093541 19.6594551282051  20.222438752784 19.7956730769231  C 19.9924832962138 19.931891025641  19.7449888641425 20  19.4799554565702 20  L 1.52004454342984 20  C 1.25501113585746 20  1.00751670378619 19.931891025641  0.777561247216036 19.7956730769231  C 0.54760579064588 19.6594551282051  0.366369710467706 19.4751602564103  0.233853006681514 19.2427884615385  C -0.0545657015590201 18.7379807692308  -0.0623608017817372 18.2331730769231  0.210467706013363 17.7283653846154  L 9.19042316258352 0.805288461538463  C 9.32293986636971 0.556891025641024  9.50612472160356 0.360576923076923  9.73997772828508 0.216346153846154  C 9.97383073496659 0.0721153846153855  10.2271714922049 0  10.5 0  C 10.7728285077951 0  11.0261692650334 0.0721153846153855  11.2600222717149 0.216346153846154  Z " fill-rule="nonzero" fill="#000000" stroke="none" transform="matrix(1 0 0 1 723 165 )" />
  </g>
</svg>