<?xml version="1.0" encoding="utf-8"?>
<svg version="1.1" xmlns:xlink="http://www.w3.org/1999/xlink" width="10px" height="15px" xmlns="http://www.w3.org/2000/svg">
  <g transform="matrix(1 0 0 1 -723 -489 )">
    <path d="M 2.32789212207239 11.5056818181818  C 2.59285545303998 11.9034090909091  2.72533711852378 12.3863636363636  2.72533711852378 12.9545454545455  C 2.72533711852378 13.5227272727273  2.59285545303998 14.0056818181818  2.32789212207239 14.4034090909091  C 2.0629287911048 14.8011363636364  1.7411876035013 15  1.36266855926189 15  C 0.984149515022475 15  0.662408327418973 14.8011363636364  0.397444996451384 14.4034090909091  C 0.132481665483795 14.0056818181818  0 13.5227272727273  0 12.9545454545455  C 0 12.3863636363636  0.132481665483795 11.9034090909091  0.397444996451384 11.5056818181818  C 0.662408327418973 11.1079545454545  0.984149515022475 10.9090909090909  1.36266855926189 10.9090909090909  C 1.7411876035013 10.9090909090909  2.0629287911048 11.1079545454545  2.32789212207239 11.5056818181818  Z M 5.78779276082328 11.0049715909091  C 6.10716820440028 12.0419034090909  6.29761059853324 13.1285511363636  6.35911994322214 14.2649147727273  C 6.36858291932813 14.4637784090909  6.32836527087769 14.6342329545455  6.23846699787083 14.7762784090909  C 6.15330021291696 14.9254261363636  6.04211024367164 15  5.90489709013485 15  L 4.94677075940383 15  C 4.82848355807902 15  4.72675656493967 14.94140625  4.64158977998581 14.82421875  C 4.55642299503194 14.70703125  4.50910811450201 14.5596590909091  4.49964513839603 14.3821022727273  C 4.39555240123019 12.7556818181818  3.95907262834161 11.3654119318182  3.19020581973031 10.2112926136364  C 2.421339011119 9.05717329545454  1.49515022474568 8.40198863636363  0.411639460610362 8.24573863636364  C 0.293352259285545 8.23153409090909  0.195173882185948 8.16051136363636  0.117104329311569 8.03267045454546  C 0.0390347764371895 7.90482954545454  0 7.75213068181818  0 7.57457386363636  L 0 6.13636363636364  C 0 5.93039772727273  0.049680624556423 5.76349431818182  0.149041873669269 5.63565340909091  C 0.229477170570144 5.51491477272727  0.331204163709487 5.45454545454546  0.454222853087296 5.45454545454546  L 0.489709013484741 5.45454545454546  C 1.24674710196357 5.546875  1.97066477407145 5.83274147727273  2.66146202980837 6.31214488636364  C 3.3522592855453 6.79154829545454  3.96498698840785 7.43607954545454  4.49964513839603 8.24573863636364  C 5.03903477643719 9.04829545454545  5.46841731724627 9.96803977272727  5.78779276082328 11.0049715909091  Z M 9.14123491838183 8.94353693181818  C 9.64750414005205 10.64453125  9.93139342323161 12.4254261363636  9.99290276792051 14.2862215909091  C 10.0023657440265 14.4779829545455  9.95978235154956 14.6448863636364  9.86515259048971 14.7869318181818  C 9.77998580553584 14.9289772727273  9.67116158031701 15  9.53867991483321 15  L 8.52377572746629 15  C 8.40075703808848 15  8.29548142890939 14.9378551136364  8.20794889992903 14.8135653409091  C 8.12041637094866 14.6892755681818  8.07428436243199 14.5383522727273  8.06955287437899 14.3607954545455  C 8.01277501774308 12.8338068181818  7.77383487106695 11.3831676136364  7.3527324343506 10.0088778409091  C 6.93162999763426 8.63458806818182  6.38396025550036 7.44140625  5.7097232079489 6.42933238636364  C 5.03548616039745 5.41725852272727  4.24059616749468 4.59517045454545  3.3250532292406 3.96306818181818  C 2.40951029098651 3.33096590909091  1.44310385616276 2.96875  0.42583392476934 2.87642045454545  C 0.307546723444523 2.86931818181818  0.207002602318429 2.80007102272727  0.124201561391057 2.66867897727273  C 0.0414005204636858 2.53728693181818  0 2.3828125  0 2.20525568181818  L 0 0.681818181818181  C 0 0.482954545454544  0.0473148805299267 0.319602272727273  0.14194464158978 0.191761363636364  C 0.227111426543648 0.0639204545454547  0.331204163709487 0  0.454222853087296 0  L 0.475514549325763 0  C 1.71516441920984 0.0923295454545431  2.90158504849775 0.518465909090907  4.0347764371895 1.27840909090909  C 5.16796782588124 2.03835227272727  6.17459190915543 3.08238636363636  7.05464868701207 4.41051136363636  C 7.93943695292169 5.73153409090909  8.63496569671162 7.24254261363636  9.14123491838183 8.94353693181818  Z " fill-rule="nonzero" fill="#000000" stroke="none" transform="matrix(1 0 0 1 723 489 )" />
  </g>
</svg>