<?xml version="1.0" encoding="utf-8"?>
<svg version="1.1" xmlns:xlink="http://www.w3.org/1999/xlink" width="18px" height="18px" xmlns="http://www.w3.org/2000/svg">
  <g transform="matrix(1 0 0 1 -947 -467 )">
    <path d="M 13.9453125 13.9453125  C 15.3151041666667 12.5755208333333  16 10.9270833333333  16 9  C 16 7.07291666666667  15.3151041666667 5.42447916666667  13.9453125 4.0546875  C 12.5755208333333 2.68489583333333  10.9270833333333 2  9 2  C 7.07291666666667 2  5.42447916666667 2.68489583333333  4.0546875 4.0546875  C 2.68489583333333 5.42447916666667  2 7.07291666666667  2 9  C 2 10.9270833333333  2.68489583333333 12.5755208333333  4.0546875 13.9453125  C 5.42447916666667 15.3151041666667  7.07291666666667 16  9 16  C 10.9270833333333 16  12.5755208333333 15.3151041666667  13.9453125 13.9453125  Z M 17.2890625 5.5078125  C 17.7630208333333 6.6171875  18 7.78125  18 9  C 18 10.21875  17.7630208333333 11.3828125  17.2890625 12.4921875  C 16.8151041666667 13.6015625  16.1744791666667 14.5598958333333  15.3671875 15.3671875  C 14.5598958333333 16.1744791666667  13.6015625 16.8151041666667  12.4921875 17.2890625  C 11.3828125 17.7630208333333  10.21875 18  9 18  C 7.78125 18  6.6171875 17.7630208333333  5.5078125 17.2890625  C 4.3984375 16.8151041666667  3.44010416666667 16.1744791666667  2.6328125 15.3671875  C 1.82552083333333 14.5598958333333  1.18489583333333 13.6015625  0.7109375 12.4921875  C 0.236979166666667 11.3828125  0 10.21875  0 9  C 0 7.78125  0.236979166666667 6.6171875  0.7109375 5.5078125  C 1.18489583333333 4.3984375  1.82552083333333 3.44010416666666  2.6328125 2.6328125  C 3.44010416666667 1.82552083333333  4.3984375 1.18489583333333  5.5078125 0.7109375  C 6.6171875 0.236979166666663  7.78125 0  9 0  C 10.21875 0  11.3828125 0.236979166666663  12.4921875 0.7109375  C 13.6015625 1.18489583333333  14.5598958333333 1.82552083333333  15.3671875 2.6328125  C 16.1744791666667 3.44010416666666  16.8151041666667 4.3984375  17.2890625 5.5078125  Z " fill-rule="nonzero" fill="#000000" stroke="none" transform="matrix(1 0 0 1 947 467 )" />
  </g>
</svg>