<?xml version="1.0" encoding="utf-8"?>
<svg version="1.1" xmlns:xlink="http://www.w3.org/1999/xlink" width="36px" height="20px" xmlns="http://www.w3.org/2000/svg">
  <g transform="matrix(1 0 0 1 -431 -404 )">
    <path d="M 3 7.14285714285712  L 3 18.5714285714286  L 33 18.5714285714286  L 33 7.14285714285712  L 3 7.14285714285712  Z M 10.8822115384617 5.25669642857144  C 11.0120192307693 5.18973214285715  11.0769230769231 5.10416666666666  11.0769230769231 4.99999999999999  L 11.0769230769231 1.78571428571428  C 11.0769230769231 1.68154761904761  11.0120192307693 1.59598214285714  10.8822115384617 1.52901785714288  C 10.7524038461538 1.46205357142857  10.5865384615386 1.42857142857142  10.3846153846152 1.42857142857142  L 9 1.42857142857142  C 8.79807692307691 1.42857142857142  8.63221153846166 1.46205357142857  8.50240384615381 1.52901785714288  C 8.37259615384619 1.59598214285714  8.30769230769238 1.68154761904761  8.30769230769238 1.78571428571428  L 8.30769230769238 4.99999999999999  C 8.30769230769238 5.10416666666666  8.37259615384619 5.18973214285715  8.50240384615381 5.25669642857144  C 8.63221153846166 5.32366071428573  8.79807692307691 5.35714285714284  9 5.35714285714284  L 10.3846153846152 5.35714285714284  C 10.5865384615386 5.35714285714284  10.7524038461538 5.32366071428573  10.8822115384617 5.25669642857144  Z M 27.4975961538462 5.25669642857144  C 27.6274038461538 5.18973214285715  27.6923076923076 5.10416666666666  27.6923076923076 4.99999999999999  L 27.6923076923076 1.78571428571428  C 27.6923076923076 1.68154761904761  27.6274038461538 1.59598214285714  27.4975961538462 1.52901785714288  C 27.3677884615383 1.46205357142857  27.2019230769231 1.42857142857142  27 1.42857142857142  L 25.6153846153848 1.42857142857142  C 25.4134615384614 1.42857142857142  25.2475961538462 1.46205357142857  25.1177884615383 1.52901785714288  C 24.9879807692307 1.59598214285714  24.9230769230769 1.68154761904761  24.9230769230769 1.78571428571428  L 24.9230769230769 4.99999999999999  C 24.9230769230769 5.10416666666666  24.9879807692307 5.18973214285715  25.1177884615383 5.25669642857144  C 25.2475961538462 5.32366071428573  25.4134615384614 5.35714285714284  25.6153846153848 5.35714285714284  L 27 5.35714285714284  C 27.2019230769231 5.35714285714284  27.3677884615383 5.32366071428573  27.4975961538462 5.25669642857144  Z M 35.1778846153848 3.28124999999999  C 35.7259615384617 3.56398809523811  36 3.89880952380954  36 4.2857142857143  L 36 18.5714285714286  C 36 18.9583333333333  35.7259615384617 19.2931547619048  35.1778846153848 19.5758928571429  C 34.6298076923078 19.8586309523809  33.9807692307691 20  33.2307692307693 20  L 2.76923076923072 20  C 2.01923076923094 20  1.37019230769215 19.8586309523809  0.822115384615245 19.5758928571429  C 0.274038461538339 19.2931547619048  0 18.9583333333333  0 18.5714285714286  L 0 4.2857142857143  C 0 3.89880952380954  0.274038461538339 3.56398809523811  0.822115384615245 3.28124999999999  C 1.37019230769215 2.99851190476191  2.01923076923094 2.85714285714288  2.76923076923072 2.85714285714288  L 5.53846153846166 2.85714285714288  L 5.53846153846166 1.78571428571428  C 5.53846153846166 1.29464285714285  5.87740384615381 0.874255952380948  6.55528846153834 0.524553571428574  C 7.23317307692309 0.174851190476201  8.04807692307691 0  9 0  L 10.3846153846152 0  C 11.3365384615383 0  12.1514423076924 0.174851190476201  12.8293269230769 0.524553571428574  C 13.5072115384617 0.874255952380948  13.8461538461538 1.29464285714285  13.8461538461538 1.78571428571428  L 13.8461538461538 2.85714285714288  L 22.1538461538462 2.85714285714288  L 22.1538461538462 1.78571428571428  C 22.1538461538462 1.29464285714285  22.4927884615386 0.874255952380948  23.1706730769231 0.524553571428574  C 23.8485576923076 0.174851190476201  24.6634615384617 0  25.6153846153848 0  L 27 0  C 27.9519230769231 0  28.7668269230769 0.174851190476201  29.4447115384617 0.524553571428574  C 30.1225961538462 0.874255952380948  30.4615384615383 1.29464285714285  30.4615384615383 1.78571428571428  L 30.4615384615383 2.85714285714288  L 33.2307692307693 2.85714285714288  C 33.9807692307691 2.85714285714288  34.6298076923078 2.99851190476191  35.1778846153848 3.28124999999999  Z " fill-rule="nonzero" fill="#cccccc" stroke="none" transform="matrix(1 0 0 1 431 404 )" />
  </g>
</svg>