<?xml version="1.0" encoding="utf-8"?>
<svg version="1.1" xmlns:xlink="http://www.w3.org/1999/xlink" width="9px" height="6px" xmlns="http://www.w3.org/2000/svg">
  <g transform="matrix(1 0 0 1 -294 -234 )">
    <path d="M 8.83300781250004 0.197916666666657  C 8.94433593749998 0.329861111111114  9 0.486111111111114  9 0.666666666666657  C 9 0.847222222222229  8.94433593749998 1.00347222222223  8.83300781250004 1.13541666666666  L 4.8955078125 5.80208333333334  C 4.78417968749996 5.93402777777777  4.65234374999996 6  4.5 6  C 4.34765625000004 6  4.21582031250004 5.93402777777777  4.1044921875 5.80208333333334  L 0.166992187499963 1.13541666666666  C 0.0556640625000192 1.00347222222223  0 0.847222222222229  0 0.666666666666657  C 0 0.486111111111114  0.0556640625000192 0.329861111111114  0.166992187499963 0.197916666666657  C 0.278320312500001 0.0659722222222285  0.410156250000002 0  0.562499999999964 0  L 8.43750000000004 0  C 8.58984375 0  8.7216796875 0.0659722222222285  8.83300781250004 0.197916666666657  Z " fill-rule="nonzero" fill="#cccccc" stroke="none" transform="matrix(1 0 0 1 294 234 )" />
  </g>
</svg>