<?xml version="1.0" encoding="utf-8"?>
<svg version="1.1" xmlns:xlink="http://www.w3.org/1999/xlink" width="34px" height="34px" xmlns="http://www.w3.org/2000/svg">
  <g transform="matrix(1 0 0 1 -548 -80 )">
    <path d="M 28.0234375 17.9739583333333  C 28.2890625 17.7083333333333  28.421875 17.3763020833333  28.421875 16.9778645833333  C 28.421875 16.5794270833333  28.2890625 16.2473958333333  28.0234375 15.9817708333333  L 20.0104166666666 7.96875  L 17.99609375 5.95442708333334  C 17.73046875 5.68880208333334  17.3984375 5.55598958333334  17 5.55598958333334  C 16.6015625 5.55598958333334  16.26953125 5.68880208333334  16.00390625 5.95442708333334  L 13.9895833333334 7.96875  L 5.9765625 15.9817708333333  C 5.7109375 16.2473958333333  5.578125 16.5794270833333  5.578125 16.9778645833333  C 5.578125 17.3763020833333  5.7109375 17.7083333333333  5.9765625 17.9739583333333  L 7.99088541666663 19.98828125  C 8.25651041666663 20.25390625  8.58854166666663 20.38671875  8.98697916666663 20.38671875  C 9.38541666666663 20.38671875  9.71744791666663 20.25390625  9.98307291666663 19.98828125  L 14.1666666666666 15.8046875  L 14.1666666666666 26.9166666666667  C 14.1666666666666 27.3003472222222  14.3068576388889 27.6323784722222  14.5872395833334 27.9127604166667  C 14.8676215277778 28.1931423611111  15.1996527777778 28.3333333333333  15.5833333333334 28.3333333333333  L 18.4166666666666 28.3333333333333  C 18.8003472222222 28.3333333333333  19.1323784722222 28.1931423611111  19.4127604166666 27.9127604166667  C 19.6931423611111 27.6323784722222  19.8333333333334 27.3003472222222  19.8333333333334 26.9166666666667  L 19.8333333333334 15.8046875  L 24.0169270833334 19.98828125  C 24.2973090277778 20.2686631944444  24.6293402777778 20.4088541666667  25.0130208333334 20.4088541666667  C 25.3967013888889 20.4088541666667  25.7287326388889 20.2686631944444  26.0091145833334 19.98828125  L 28.0234375 17.9739583333333  Z M 31.7200520833334 8.466796875  C 33.2400173611111 11.0713975694445  34 13.9157986111111  34 17  C 34 20.0842013888889  33.2400173611111 22.9286024305555  31.7200520833334 25.533203125  C 30.2000868055555 28.1378038194445  28.1378038194445 30.2000868055555  25.533203125 31.7200520833333  C 22.9286024305555 33.2400173611111  20.0842013888889 34  17 34  C 13.9157986111111 34  11.0713975694445 33.2400173611111  8.466796875 31.7200520833333  C 5.86219618055554 30.2000868055555  3.79991319444446 28.1378038194445  2.27994791666663 25.533203125  C 0.759982638888857 22.9286024305555  0 20.0842013888889  0 17  C 0 13.9157986111111  0.759982638888857 11.0713975694445  2.27994791666663 8.466796875  C 3.79991319444446 5.86219618055554  5.86219618055554 3.79991319444446  8.466796875 2.27994791666666  C 11.0713975694445 0.759982638888886  13.9157986111111 0  17 0  C 20.0842013888889 0  22.9286024305555 0.759982638888886  25.533203125 2.27994791666666  C 28.1378038194445 3.79991319444446  30.2000868055555 5.86219618055554  31.7200520833334 8.466796875  Z " fill-rule="nonzero" fill="#666666" stroke="none" transform="matrix(1 0 0 1 548 80 )" />
  </g>
</svg>