<?xml version="1.0" encoding="utf-8"?>
<svg version="1.1" xmlns:xlink="http://www.w3.org/1999/xlink" width="33px" height="34px" xmlns="http://www.w3.org/2000/svg">
  <g transform="matrix(1 0 0 1 -754 -138 )">
    <path d="M 32.1705163043478 15.0359435173299  C 32.7235054347826 15.5451433461703  33 16.1998288403936  33 17  C 33 17.785622593068  32.7235054347826 18.4475823705606  32.1705163043478 18.9858793324775  L 17.5760869565217 33.1925545571245  C 16.9932065217391 33.7308515190415  16.313179347826 34  15.5360054347826 34  C 14.7737771739131 34  14.1012228260869 33.7308515190415  13.5183423913044 33.1925545571245  L 11.8369565217391 31.5558408215661  C 11.2690217391305 31.0029952931108  10.985054347826 30.3410355156183  10.985054347826 29.5699614890886  C 10.985054347826 28.7988874625588  11.2690217391305 28.1369276850663  11.8369565217391 27.584082156611  L 18.405570652174 21  L 2.62296195652175 21  C 1.84578804347825 21.1899871630295  1.21433423913049 20.9172015404365  0.728600543478251 20.3716302952503  C 0.242866847826008 19.8260590500642  0 19.1677364142063  0 18.3966623876765  L 0 15.6033376123235  C 0 14.8322635857938  0.242866847826008 14.1739409499358  0.728600543478251 13.6283697047497  C 1.21433423913049 13.0827984595635  1.84578804347825 12.8100128369705  2.62296195652175 13  L 18.405570652174 13  L 11.8369565217391 6.39409499358152  C 11.2690217391305 5.87034659820281  10.985054347826 5.21566110397947  10.985054347826 4.4300385109114  C 10.985054347826 3.64441591784339  11.2690217391305 2.98973042362002  11.8369565217391 2.46598202824134  L 13.5183423913044 0.82926829268294  C 14.0862771739131 0.276422764227647  14.7588315217391 0  15.5360054347826 0  C 16.328125 0  17.0081521739131 0.276422764227647  17.5760869565217 0.82926829268294  L 32.1705163043478 15.0359435173299  Z " fill-rule="nonzero" fill="#666666" stroke="none" transform="matrix(1 0 0 1 754 138 )" />
  </g>
</svg>