<?xml version="1.0" encoding="utf-8"?>
<svg version="1.1" xmlns:xlink="http://www.w3.org/1999/xlink" width="34px" height="34px" xmlns="http://www.w3.org/2000/svg">
  <g transform="matrix(1 0 0 1 -752 -328 )">
    <path d="M 26.49609375 19.4127604166666  C 26.7764756944445 19.1323784722222  26.9166666666667 18.8003472222222  26.9166666666667 18.4166666666666  L 26.9166666666667 15.5833333333334  C 26.9166666666667 15.1996527777778  26.7764756944445 14.8676215277778  26.49609375 14.5872395833334  C 26.2157118055555 14.3068576388889  25.8836805555555 14.1666666666666  25.5 14.1666666666666  L 8.5 14.1666666666666  C 8.11631944444446 14.1666666666666  7.78428819444446 14.3068576388889  7.50390625 14.5872395833334  C 7.22352430555554 14.8676215277778  7.08333333333326 15.1996527777778  7.08333333333326 15.5833333333334  L 7.08333333333326 18.4166666666666  C 7.08333333333326 18.8003472222222  7.22352430555554 19.1323784722222  7.50390625 19.4127604166666  C 7.78428819444446 19.6931423611111  8.11631944444446 19.8333333333334  8.5 19.8333333333334  L 25.5 19.8333333333334  C 25.8836805555555 19.8333333333334  26.2157118055555 19.6931423611111  26.49609375 19.4127604166666  Z M 31.7200520833333 8.466796875  C 33.2400173611111 11.0713975694445  34 13.9157986111111  34 17  C 34 20.0842013888889  33.2400173611111 22.9286024305555  31.7200520833333 25.533203125  C 30.2000868055555 28.1378038194445  28.1378038194445 30.2000868055555  25.533203125 31.7200520833334  C 22.9286024305555 33.2400173611111  20.0842013888889 34  17 34  C 13.9157986111111 34  11.0713975694445 33.2400173611111  8.466796875 31.7200520833334  C 5.86219618055554 30.2000868055555  3.79991319444446 28.1378038194445  2.27994791666674 25.533203125  C 0.759982638888914 22.9286024305555  0 20.0842013888889  0 17  C 0 13.9157986111111  0.759982638888914 11.0713975694445  2.27994791666674 8.466796875  C 3.79991319444446 5.86219618055554  5.86219618055554 3.79991319444446  8.466796875 2.27994791666663  C 11.0713975694445 0.759982638888857  13.9157986111111 0  17 0  C 20.0842013888889 0  22.9286024305555 0.759982638888857  25.533203125 2.27994791666663  C 28.1378038194445 3.79991319444446  30.2000868055555 5.86219618055554  31.7200520833333 8.466796875  Z " fill-rule="nonzero" fill="#666666" stroke="none" transform="matrix(1 0 0 1 752 328 )" />
  </g>
</svg>