<?xml version="1.0" encoding="utf-8"?>
<svg version="1.1" xmlns:xlink="http://www.w3.org/1999/xlink" width="33px" height="34px" xmlns="http://www.w3.org/2000/svg">
  <g transform="matrix(1 0 0 1 -684 -138 )">
    <path d="M 32.2713994565217 13.6283697047497  C 32.757133152174 14.1739409499358  33 14.8322635857938  33 15.6033376123235  L 33 18.3966623876765  C 33 19.1677364142063  32.757133152174 19.8260590500642  32.2713994565217 20.3716302952503  C 31.7856657608696 20.9172015404365  31.1542119565217 21.1899871630295  30.3770380434783 21  L 14.594429347826 21  L 21.1630434782609 27.6059050064185  C 21.7309782608696 28.1296534017972  22.014945652174 28.7843388960205  22.014945652174 29.5699614890886  C 22.014945652174 30.3555840821566  21.7309782608696 31.01026957638  21.1630434782609 31.5340179717587  L 19.4816576086956 33.1925545571245  C 18.9286684782609 33.7308515190415  18.2561141304348 34  17.4639945652174 34  C 16.686820652174 34  16.0067934782609 33.7308515190415  15.4239130434783 33.1925545571245  L 0.829483695652243 18.9640564826701  C 0.276494565217376 18.4257595207531  0 17.7710740265298  0 17  C 0 16.2434745400085  0.276494565217376 15.581514762516  0.829483695652243 15.0141206675225  L 15.4239130434783 0.82926829268294  C 15.9918478260869 0.276422764227647  16.671875 0  17.4639945652174 0  C 18.2411684782609 0  18.9137228260869 0.276422764227647  19.4816576086956 0.82926829268294  L 21.1630434782609 2.44415917843389  C 21.7309782608696 2.99700470688916  22.014945652174 3.6589644843817  22.014945652174 4.4300385109114  C 22.014945652174 5.20111253744116  21.7309782608696 5.86307231493367  21.1630434782609 6.41591784338894  L 14.594429347826 13  L 30.3770380434783 13  C 31.1542119565217 12.8100128369705  31.7856657608696 13.0827984595635  32.2713994565217 13.6283697047497  Z " fill-rule="nonzero" fill="#666666" stroke="none" transform="matrix(1 0 0 1 684 138 )" />
  </g>
</svg>