<?xml version="1.0" encoding="utf-8"?>
<svg version="1.1" xmlns:xlink="http://www.w3.org/1999/xlink" width="19px" height="34px" xmlns="http://www.w3.org/2000/svg">
  <g transform="matrix(1 0 0 1 -691 -655 )">
    <path d="M 18.3732638888888 0.630859375  C 18.7910879629629 1.05143229166674  19 1.54947916666674  19 2.125  L 19 31.875  C 19 32.4505208333333  18.7910879629629 32.9485677083333  18.3732638888888 33.369140625  C 17.9554398148148 33.7897135416667  17.4606481481482 34  16.8888888888888 34  C 16.3171296296296 34  15.8223379629629 33.7897135416667  15.4045138888888 33.369140625  L 0.6267361111112 18.494140625  C 0.208912037037067 18.0735677083333  0 17.5755208333333  0 17  C 0 16.4244791666667  0.208912037037067 15.9264322916667  0.6267361111112 15.505859375  L 15.4045138888888 0.630859375  C 15.8223379629629 0.210286458333258  16.3171296296296 0  16.8888888888888 0  C 17.4606481481482 0  17.9554398148148 0.210286458333258  18.3732638888888 0.630859375  Z " fill-rule="nonzero" fill="#666666" stroke="none" transform="matrix(1 0 0 1 691 655 )" />
  </g>
</svg>