<?xml version="1.0" encoding="utf-8"?>
<svg version="1.1" xmlns:xlink="http://www.w3.org/1999/xlink" width="34px" height="19px" xmlns="http://www.w3.org/2000/svg">
  <g transform="matrix(1 0 0 1 -616 -662 )">
    <path d="M 33.369140625 0.6267361111112  C 33.7897135416667 1.04456018518522  34 1.53935185185185  34 2.1111111111112  C 34 2.68287037037044  33.7897135416667 3.17766203703707  33.369140625 3.5954861111112  L 18.494140625 18.3732638888888  C 18.0735677083333 18.7910879629629  17.5755208333333 19  17 19  C 16.4244791666667 19  15.9264322916667 18.7910879629629  15.505859375 18.3732638888888  L 0.630859375 3.5954861111112  C 0.210286458333258 3.17766203703707  0 2.68287037037044  0 2.1111111111112  C 0 1.53935185185185  0.210286458333258 1.04456018518522  0.630859375 0.6267361111112  C 1.05143229166674 0.208912037037067  1.54947916666674 0  2.125 0  L 31.875 0  C 32.4505208333333 0  32.9485677083333 0.208912037037067  33.369140625 0.6267361111112  Z " fill-rule="nonzero" fill="#666666" stroke="none" transform="matrix(1 0 0 1 616 662 )" />
  </g>
</svg>