<?xml version="1.0" encoding="utf-8"?>
<svg version="1.1" xmlns:xlink="http://www.w3.org/1999/xlink" width="34px" height="34px" xmlns="http://www.w3.org/2000/svg">
  <g transform="matrix(1 0 0 1 -409 -138 )">
    <path d="M 19.125 28.4661458333333  C 19.5086805555555 28.4661458333333  19.8407118055555 28.3259548611111  20.12109375 28.0455729166667  L 22.37890625 25.7877604166667  C 22.6592881944445 25.5073784722222  22.7994791666666 25.1753472222222  22.7994791666666 24.7916666666667  C 22.7994791666666 24.4079861111111  22.6592881944445 24.0759548611111  22.37890625 23.7955729166667  L 15.5833333333334 17  L 22.37890625 10.2044270833333  C 22.6592881944445 9.92404513888889  22.7994791666666 9.59201388888889  22.7994791666666 9.20833333333331  C 22.7994791666666 8.82465277777777  22.6592881944445 8.49262152777777  22.37890625 8.21223958333331  L 20.12109375 5.95442708333331  C 19.8407118055555 5.67404513888889  19.5086805555555 5.53385416666669  19.125 5.53385416666669  C 18.7413194444445 5.53385416666669  18.4092881944445 5.67404513888889  18.12890625 5.95442708333331  L 8.07942708333337 16.00390625  C 7.79904513888886 16.2842881944444  7.65885416666663 16.6163194444444  7.65885416666663 17  C 7.65885416666663 17.3836805555555  7.79904513888886 17.7157118055555  8.07942708333337 17.99609375  L 18.12890625 28.0455729166667  C 18.4092881944445 28.3259548611111  18.7413194444445 28.4661458333333  19.125 28.4661458333333  Z M 31.7200520833334 8.466796875  C 33.2400173611111 11.0713975694444  34 13.9157986111111  34 17  C 34 20.0842013888889  33.2400173611111 22.9286024305556  31.7200520833334 25.533203125  C 30.2000868055555 28.1378038194445  28.1378038194445 30.2000868055555  25.533203125 31.7200520833334  C 22.9286024305555 33.2400173611111  20.0842013888889 34  17 34  C 13.9157986111111 34  11.0713975694445 33.2400173611111  8.466796875 31.7200520833334  C 5.86219618055554 30.2000868055555  3.79991319444446 28.1378038194445  2.27994791666663 25.533203125  C 0.759982638888857 22.9286024305556  0 20.0842013888889  0 17  C 0 13.9157986111111  0.759982638888857 11.0713975694444  2.27994791666663 8.466796875  C 3.79991319444446 5.86219618055557  5.86219618055554 3.79991319444443  8.466796875 2.27994791666669  C 11.0713975694445 0.759982638888886  13.9157986111111 0  17 0  C 20.0842013888889 0  22.9286024305555 0.759982638888886  25.533203125 2.27994791666669  C 28.1378038194445 3.79991319444443  30.2000868055555 5.86219618055557  31.7200520833334 8.466796875  Z " fill-rule="nonzero" fill="#666666" stroke="none" transform="matrix(1 0 0 1 409 138 )" />
  </g>
</svg>