<?xml version="1.0" encoding="utf-8"?>
<svg version="1.1" xmlns:xlink="http://www.w3.org/1999/xlink" width="34px" height="30px" xmlns="http://www.w3.org/2000/svg">
  <g transform="matrix(1 0 0 1 -684 -530 )">
    <path d="M 28.0044642857142 16.09375  C 30.3824404761905 13.6458333333333  31.5714285714287 11.328125  31.5714285714287 9.140625  C 31.5714285714287 8.0859375  31.4354538690477 7.15494791666674  31.1635044642858 6.34765625  C 30.8915550595239 5.54036458333326  30.543712797619 4.89908854166674  30.1199776785713 4.423828125  C 29.6962425595239 3.94856770833326  29.1808035714287 3.56119791666674  28.5736607142858 3.26171875  C 27.9665178571429 2.96223958333326  27.3720238095239 2.76041666666674  26.7901785714287 2.65625  C 26.2083333333333 2.55208333333326  25.5885416666667 2.5  24.9308035714287 2.5  C 24.2730654761905 2.5  23.5647321428571 2.666015625  22.8058035714287 2.998046875  C 22.046875 3.330078125  21.3480282738095 3.74674479166674  20.7092633928571 4.248046875  C 20.0704985119048 4.74934895833326  19.5234375 5.21809895833326  19.0680803571429 5.654296875  C 18.6127232142858 6.09049479166674  18.2332589285713 6.49088541666674  17.9296875 6.85546875  C 17.7020089285713 7.14192708333326  17.3921130952381 7.28515625  17 7.28515625  C 16.6078869047619 7.28515625  16.2979910714287 7.14192708333326  16.0703125 6.85546875  C 15.7667410714287 6.49088541666674  15.3872767857142 6.09049479166674  14.9319196428571 5.654296875  C 14.4765625 5.21809895833326  13.9295014880952 4.74934895833326  13.2907366071429 4.248046875  C 12.6519717261905 3.74674479166674  11.953125 3.330078125  11.1941964285713 2.998046875  C 10.4352678571429 2.666015625  9.72693452380952 2.5  9.06919642857133 2.5  C 8.41145833333326 2.5  7.79166666666674 2.55208333333326  7.20982142857133 2.65625  C 6.62797619047615 2.76041666666674  6.03348214285711 2.96223958333326  5.42633928571422 3.26171875  C 4.81919642857133 3.56119791666674  4.30375744047615 3.94856770833326  3.88002232142867 4.423828125  C 3.45628720238096 4.89908854166674  3.10844494047615 5.54036458333326  2.83649553571422 6.34765625  C 2.56454613095229 7.15494791666674  2.42857142857133 8.0859375  2.42857142857133 9.140625  C 2.42857142857133 11.328125  3.61123511904771 13.6393229166667  5.9765625 16.07421875  L 17 27.01171875  L 28.0044642857142 16.09375  Z M 31.5904017857142 2.421875  C 33.1968005952381 4.03645833333326  34 6.27604166666674  34 9.140625  C 34 12.0182291666667  32.5517113095239 14.9479166666667  29.6551339285713 17.9296875  L 17.8348214285713 29.6484375  C 17.6071428571429 29.8828125  17.328869047619 30  17 30  C 16.671130952381 30  16.3928571428571 29.8828125  16.1651785714287 29.6484375  L 4.32589285714289 17.890625  C 4.19940476190482 17.7864583333333  4.02548363095229 17.6171875  3.80412946428578 17.3828125  C 3.58277529761904 17.1484375  3.23177083333326 16.7220052083333  2.75111607142867 16.103515625  C 2.27046130952385 15.4850260416667  1.84040178571422 14.8502604166667  1.4609375 14.19921875  C 1.08147321428578 13.5481770833333  0.743117559523853 12.7604166666667  0.445870535714221 11.8359375  C 0.148623511904816 10.9114583333333  0 10.0130208333333  0 9.140625  C 0 6.27604166666674  0.803199404761926 4.03645833333326  2.40959821428578 2.421875  C 4.01599702380952 0.807291666666742  6.23586309523807 0  9.06919642857133 0  C 9.85342261904771 0  10.6534598214287 0.139973958333258  11.4693080357142 0.419921875  C 12.28515625 0.699869791666742  13.0440848214287 1.07747395833326  13.74609375 1.552734375  C 14.4481026785713 2.02799479166674  15.0520833333333 2.47395833333326  15.5580357142858 2.890625  C 16.0639880952381 3.30729166666674  16.5446428571429 3.75  17 4.21875  C 17.4553571428571 3.75  17.9360119047619 3.30729166666674  18.4419642857142 2.890625  C 18.9479166666667 2.47395833333326  19.5518973214287 2.02799479166674  20.25390625 1.552734375  C 20.9559151785713 1.07747395833326  21.71484375 0.699869791666742  22.5306919642858 0.419921875  C 23.3465401785713 0.139973958333258  24.1465773809523 0  24.9308035714287 0  C 27.7641369047619 0  29.9840029761905 0.807291666666742  31.5904017857142 2.421875  Z " fill-rule="nonzero" fill="#666666" stroke="none" transform="matrix(1 0 0 1 684 530 )" />
  </g>
</svg>