<?xml version="1.0" encoding="utf-8"?>
<svg version="1.1" xmlns:xlink="http://www.w3.org/1999/xlink" width="34px" height="34px" xmlns="http://www.w3.org/2000/svg">
  <g transform="matrix(1 0 0 1 -684 -80 )">
    <path d="M 25.2897135416667 14.376953125  C 25.4299045138889 14.5171440972222  25.5 14.6831597222222  25.5 14.875  L 25.5 19.125  C 25.5 19.3168402777778  25.4299045138889 19.4828559027778  25.2897135416667 19.623046875  C 25.1495225694445 19.7632378472222  24.9835069444445 19.8333333333333  24.7916666666667 19.8333333333333  L 17 19.8333333333333  L 17 24.0833333333333  C 17 24.2899305555555  16.93359375 24.4596354166667  16.80078125 24.5924479166667  C 16.66796875 24.7252604166667  16.4982638888889 24.7916666666667  16.2916666666667 24.7916666666667  C 16.1145833333333 24.7916666666667  15.9375 24.7178819444444  15.7604166666667 24.5703125  L 8.69921875 17.5091145833333  C 8.56640625 17.3763020833333  8.5 17.2065972222222  8.5 17  C 8.5 16.7934027777778  8.56640625 16.6236979166667  8.69921875 16.4908854166667  L 15.7825520833333 9.40755208333334  C 15.9153645833333 9.27473958333334  16.0850694444445 9.20833333333334  16.2916666666667 9.20833333333334  C 16.4835069444445 9.20833333333334  16.6495225694445 9.27842881944446  16.7897135416667 9.41861979166666  C 16.9299045138889 9.55881076388889  17 9.72482638888889  17 9.91666666666666  L 17 14.1666666666667  L 24.7916666666667 14.1666666666667  C 24.9835069444445 14.1666666666667  25.1495225694445 14.2367621527778  25.2897135416667 14.376953125  Z M 27.42578125 23.04296875  C 28.5030381944445 21.1983506944444  29.0416666666667 19.1840277777778  29.0416666666667 17  C 29.0416666666667 14.8159722222222  28.5030381944445 12.8016493055555  27.42578125 10.95703125  C 26.3485243055555 9.11241319444446  24.8875868055555 7.65147569444446  23.04296875 6.57421875  C 21.1983506944445 5.49696180555554  19.1840277777777 4.95833333333334  17 4.95833333333334  C 14.8159722222223 4.95833333333334  12.8016493055555 5.49696180555554  10.95703125 6.57421875  C 9.11241319444446 7.65147569444446  7.65147569444446 9.11241319444446  6.57421875 10.95703125  C 5.49696180555554 12.8016493055555  4.95833333333326 14.8159722222222  4.95833333333326 17  C 4.95833333333326 19.1840277777778  5.49696180555554 21.1983506944444  6.57421875 23.04296875  C 7.65147569444446 24.8875868055555  9.11241319444446 26.3485243055555  10.95703125 27.42578125  C 12.8016493055555 28.5030381944445  14.8159722222223 29.0416666666667  17 29.0416666666667  C 19.1840277777777 29.0416666666667  21.1983506944445 28.5030381944445  23.04296875 27.42578125  C 24.8875868055555 26.3485243055555  26.3485243055555 24.8875868055555  27.42578125 23.04296875  Z M 31.7200520833333 8.466796875  C 33.2400173611111 11.0713975694445  34 13.9157986111111  34 17  C 34 20.0842013888889  33.2400173611111 22.9286024305555  31.7200520833333 25.533203125  C 30.2000868055555 28.1378038194445  28.1378038194445 30.2000868055555  25.533203125 31.7200520833333  C 22.9286024305555 33.2400173611111  20.0842013888889 34  17 34  C 13.9157986111111 34  11.0713975694445 33.2400173611111  8.466796875 31.7200520833333  C 5.86219618055554 30.2000868055555  3.79991319444446 28.1378038194445  2.27994791666674 25.533203125  C 0.759982638888914 22.9286024305555  0 20.0842013888889  0 17  C 0 13.9157986111111  0.759982638888914 11.0713975694445  2.27994791666674 8.466796875  C 3.79991319444446 5.86219618055554  5.86219618055554 3.79991319444446  8.466796875 2.27994791666666  C 11.0713975694445 0.759982638888886  13.9157986111111 0  17 0  C 20.0842013888889 0  22.9286024305555 0.759982638888886  25.533203125 2.27994791666666  C 28.1378038194445 3.79991319444446  30.2000868055555 5.86219618055554  31.7200520833333 8.466796875  Z " fill-rule="nonzero" fill="#666666" stroke="none" transform="matrix(1 0 0 1 684 80 )" />
  </g>
</svg>