<?xml version="1.0" encoding="utf-8"?>
<svg version="1.1" xmlns:xlink="http://www.w3.org/1999/xlink" width="34px" height="26px" xmlns="http://www.w3.org/2000/svg">
  <g transform="matrix(1 0 0 1 -340 -266 )">
    <path d="M 33.3858064516129 3.58922558922563  C 33.7952688172043 3.99775533108868  34 4.49382716049382  34 5.07744107744105  C 34 5.66105499438828  33.7952688172043 6.15712682379348  33.3858064516129 6.56565656565658  L 17.5045161290323 22.4107744107744  L 14.5212903225806 25.3872053872054  C 14.1118279569893 25.7957351290685  13.614623655914 26  13.0296774193548 26  C 12.4447311827957 26  11.9475268817204 25.7957351290685  11.5380645161291 25.3872053872054  L 8.55483870967743 22.4107744107744  L 0.614193548387107 14.4882154882155  C 0.204731182795683 14.0796857463524  0 13.5836139169472  0 13  C 0 12.4163860830528  0.204731182795683 11.9203142536476  0.614193548387107 11.5117845117845  L 3.59741935483873 8.53535353535352  C 4.0068817204301 8.12682379349047  4.50408602150537 7.92255892255895  5.08903225806449 7.92255892255895  C 5.67397849462367 7.92255892255895  6.17118279569894 8.12682379349047  6.58064516129031 8.53535353535352  L 13.0296774193548 14.9915824915825  L 27.4193548387096 0.61279461279463  C 27.8288172043011 0.204264870931524  28.3260215053764 0  28.9109677419355 0  C 29.4959139784946 0  29.9931182795699 0.204264870931524  30.4025806451613 0.61279461279463  L 33.3858064516129 3.58922558922563  Z " fill-rule="nonzero" fill="#666666" stroke="none" transform="matrix(1 0 0 1 340 266 )" />
  </g>
</svg>