<?xml version="1.0" encoding="utf-8"?>
<svg version="1.1" xmlns:xlink="http://www.w3.org/1999/xlink" width="34px" height="34px" xmlns="http://www.w3.org/2000/svg">
  <g transform="matrix(1 0 0 1 -548 -138 )">
    <path d="M 24.7916666666666 22.7994791666667  C 25.1753472222222 22.7994791666667  25.5073784722222 22.6592881944444  25.7877604166666 22.37890625  L 28.0455729166666 20.12109375  C 28.3259548611111 19.8407118055555  28.4661458333334 19.5086805555555  28.4661458333334 19.125  C 28.4661458333334 18.7413194444444  28.3259548611111 18.4092881944444  28.0455729166666 18.12890625  L 17.99609375 8.07942708333331  C 17.7157118055555 7.79904513888889  17.3836805555555 7.65885416666669  17 7.65885416666669  C 16.6163194444445 7.65885416666669  16.2842881944445 7.79904513888889  16.00390625 8.07942708333331  L 5.95442708333337 18.12890625  C 5.67404513888886 18.4092881944444  5.53385416666663 18.7413194444444  5.53385416666663 19.125  C 5.53385416666663 19.5086805555555  5.67404513888886 19.8407118055555  5.95442708333337 20.12109375  L 8.21223958333337 22.37890625  C 8.49262152777777 22.6592881944444  8.82465277777777 22.7994791666667  9.20833333333337 22.7994791666667  C 9.59201388888886 22.7994791666667  9.92404513888886 22.6592881944444  10.2044270833334 22.37890625  L 17 15.5833333333333  L 23.7955729166666 22.37890625  C 24.0759548611111 22.6592881944444  24.4079861111111 22.7994791666667  24.7916666666666 22.7994791666667  Z M 31.7200520833334 8.466796875  C 33.2400173611111 11.0713975694444  34 13.9157986111111  34 17  C 34 20.0842013888889  33.2400173611111 22.9286024305556  31.7200520833334 25.533203125  C 30.2000868055555 28.1378038194445  28.1378038194445 30.2000868055555  25.533203125 31.7200520833334  C 22.9286024305555 33.2400173611111  20.0842013888889 34  17 34  C 13.9157986111111 34  11.0713975694445 33.2400173611111  8.466796875 31.7200520833334  C 5.86219618055554 30.2000868055555  3.79991319444446 28.1378038194445  2.27994791666663 25.533203125  C 0.759982638888857 22.9286024305556  0 20.0842013888889  0 17  C 0 13.9157986111111  0.759982638888857 11.0713975694444  2.27994791666663 8.466796875  C 3.79991319444446 5.86219618055557  5.86219618055554 3.79991319444443  8.466796875 2.27994791666669  C 11.0713975694445 0.759982638888886  13.9157986111111 0  17 0  C 20.0842013888889 0  22.9286024305555 0.759982638888886  25.533203125 2.27994791666669  C 28.1378038194445 3.79991319444443  30.2000868055555 5.86219618055557  31.7200520833334 8.466796875  Z " fill-rule="nonzero" fill="#666666" stroke="none" transform="matrix(1 0 0 1 548 138 )" />
  </g>
</svg>