<?xml version="1.0" encoding="utf-8"?>
<svg version="1.1" xmlns:xlink="http://www.w3.org/1999/xlink" width="34px" height="32px" xmlns="http://www.w3.org/2000/svg">
  <g transform="matrix(1 0 0 1 -684 -396 )">
    <path d="M 19.2457846249129 26.8942307692307  C 19.3658124951615 26.7724358974359  19.4258264302856 26.6217948717949  19.4258264302856 26.4423076923077  L 19.4258264302856 22.7884615384615  C 19.4258264302856 22.6089743589744  19.3658124951615 22.4583333333333  19.2457846249129 22.3365384615385  C 19.1257567546644 22.2147435897435  18.9836184872648 22.1538461538462  18.8193698227143 22.1538461538462  L 15.1806301772857 22.1538461538462  C 15.0163815127352 22.1538461538462  14.8742432453356 22.2147435897435  14.7542153750871 22.3365384615385  C 14.6341875048385 22.4583333333333  14.5741735697144 22.6089743589744  14.5741735697144 22.7884615384615  L 14.5741735697144 26.4423076923077  C 14.5741735697144 26.6217948717949  14.6341875048385 26.7724358974359  14.7542153750871 26.8942307692307  C 14.8742432453356 27.0160256410256  15.0163815127352 27.0769230769231  15.1806301772857 27.0769230769231  L 18.8193698227143 27.0769230769231  C 18.9836184872648 27.0769230769231  19.1257567546644 27.0160256410256  19.2457846249129 26.8942307692307  Z M 19.188929317953 19.5673076923077  C 19.3089571882016 19.4839743589743  19.3752883796547 19.3782051282051  19.3879228923124 19.25  L 19.7290547340714 10.4230769230769  C 19.7290547340714 10.2692307692308  19.6658821707828 10.1474358974359  19.5395370442053 10.0576923076923  C 19.3752883796547 9.91666666666669  19.2236742277619 9.84615384615387  19.0846945885268 9.84615384615387  L 14.9153054114732 9.84615384615387  C 14.7763257722381 9.84615384615387  14.6247116203453 9.91666666666669  14.4604629557947 10.0576923076923  C 14.3341178292172 10.1474358974359  14.2709452659286 10.2820512820513  14.2709452659286 10.4615384615385  L 14.5931253387009 19.25  C 14.5931253387009 19.3782051282051  14.6562979019896 19.4839743589743  14.782643028567 19.5673076923077  C 14.9089881551443 19.650641025641  15.0606023070372 19.6923076923077  15.2374854842455 19.6923076923077  L 18.7435627467678 19.6923076923077  C 18.9204459239761 19.6923076923077  19.0689014477046 19.650641025641  19.188929317953 19.5673076923077  Z M 18.2318649841295 0.346153846153868  C 18.6109003638616 0.576923076923094  18.9078114113185 0.891025641025635  19.1225981265 1.28846153846155  L 33.6775567082141 28.3653846153846  C 34.1197646512348 29.1730769230769  34.1071301385771 29.9807692307693  33.6396531702409 30.7884615384615  C 33.4248664550593 31.1602564102565  33.1311140357669 31.4551282051282  32.7583959123636 31.6730769230769  C 32.3856777889604 31.8910256410256  31.9845320120772 32  31.554958581714 32  L 2.4450414182859 32  C 2.01546798792277 32  1.61432221103963 31.8910256410256  1.24160408763636 31.6730769230769  C 0.868885964233079 31.4551282051282  0.575133544940745 31.1602564102565  0.360346829759126 30.7884615384615  C -0.107130138577077 29.9807692307693  -0.119764651234846 29.1730769230769  0.322443291785933 28.3653846153846  L 14.8774018735 1.28846153846155  C 15.0921885886815 0.891025641025635  15.3890996361384 0.576923076923094  15.7681350158705 0.346153846153868  C 16.1471703956027 0.115384615384585  16.5577920569792 0  17 0  C 17.4422079430208 0  17.8528296043973 0.115384615384585  18.2318649841295 0.346153846153868  Z " fill-rule="nonzero" fill="#666666" stroke="none" transform="matrix(1 0 0 1 684 396 )" />
  </g>
</svg>