<?xml version="1.0" encoding="utf-8"?>
<svg version="1.1" xmlns:xlink="http://www.w3.org/1999/xlink" width="34px" height="30px" xmlns="http://www.w3.org/2000/svg">
  <g transform="matrix(1 0 0 1 -684 -819 )">
    <path d="M 22.9386160714287 25.625  C 24.1402529761905 25.2083333333333  25.1964285714287 25  26.1071428571429 25  L 26.7142857142858 25  L 26.7142857142858 12.5  L 26.1071428571429 12.5  C 25.6644345238095 12.5  25.237537202381 12.421875  24.8264508928571 12.265625  C 24.4153645833333 12.109375  24.0200892857142 11.8684895833333  23.640625 11.54296875  C 23.2611607142858 11.2174479166667  22.9449404761905 10.91796875  22.6919642857142 10.64453125  C 22.4389880952381 10.37109375  22.1290922619048 10.01953125  21.7622767857142 9.58984375  C 21.7369791666667 9.55078125  21.71484375 9.521484375  21.6958705357142 9.501953125  C 21.6768973214287 9.482421875  21.651599702381 9.453125  21.6199776785713 9.4140625  C 21.5883556547619 9.375  21.5598958333333 9.34244791666674  21.5345982142858 9.31640625  C 20.6238839285713 8.26171875  19.9155505952381 7.31770833333326  19.4095982142858 6.484375  C 19.2325148809523 6.19791666666674  18.9921875 5.75520833333326  18.6886160714287 5.15625  C 18.6759672619048 5.1171875  18.6095610119048 4.970703125  18.4893973214287 4.716796875  C 18.3692336309523 4.462890625  18.2522321428571 4.228515625  18.1383928571429 4.013671875  C 18.0245535714287 3.798828125  17.8980654761905 3.56770833333326  17.7589285714287 3.3203125  C 17.6197916666667 3.07291666666674  17.4838169642858 2.87434895833326  17.3510044642858 2.724609375  C 17.2181919642858 2.57486979166674  17.1011904761905 2.5  17 2.5  C 16.1019345238095 2.5  15.3714657738095 2.69856770833326  14.80859375 3.095703125  C 14.2457217261905 3.49283854166674  13.9642857142858 4.12760416666674  13.9642857142858 5  C 13.9642857142858 5.55989583333326  14.0591517857142 6.11002604166674  14.2488839285713 6.650390625  C 14.4386160714287 7.19075520833326  14.6473214285713 7.63346354166674  14.875 7.978515625  C 15.1026785714287 8.32356770833326  15.3113839285713 8.681640625  15.5011160714287 9.052734375  C 15.6908482142858 9.423828125  15.7857142857142 9.73958333333326  15.7857142857142 10  L 4.85714285714289 10  C 4.22470238095229 10  3.66183035714289 10.2506510416667  3.16852678571422 10.751953125  C 2.67522321428578 11.2532552083333  2.42857142857133 11.8359375  2.42857142857133 12.5  C 2.42857142857133 13.1770833333333  2.66889880952385 13.7630208333333  3.14955357142867 14.2578125  C 3.63020833333326 14.7526041666667  4.19940476190482 15  4.85714285714289 15  L 11.1372767857142 15  C 10.9475446428571 15.2213541666667  10.7894345238095 15.5305989583333  10.6629464285713 15.927734375  C 10.5364583333333 16.3248697916667  10.4732142857142 16.6861979166667  10.4732142857142 17.01171875  C 10.4732142857142 17.91015625  10.8084077380952 18.6848958333333  11.4787946428571 19.3359375  C 11.2511160714287 19.7526041666667  11.1372767857142 20.2018229166667  11.1372767857142 20.68359375  C 11.1372767857142 21.1653645833333  11.2479538690477 21.6438802083333  11.4693080357142 22.119140625  C 11.690662202381 22.5944010416667  11.9910714285713 22.9361979166667  12.3705357142858 23.14453125  C 12.3199404761905 23.45703125  12.2946428571429 23.8216145833333  12.2946428571429 24.23828125  C 12.2946428571429 25.3450520833333  12.6013764880952 26.1653645833333  13.21484375 26.69921875  C 13.8283110119048 27.2330729166667  14.6852678571429 27.5  15.7857142857142 27.5  C 16.8482142857142 27.5  18.0055803571429 27.2916666666667  19.2578125 26.875  C 20.5100446428571 26.4583333333333  21.7369791666667 26.0416666666667  22.9386160714287 25.625  Z M 31.2109375 24.62890625  C 31.4512648809523 24.3815104166667  31.5714285714287 24.0885416666667  31.5714285714287 23.75  C 31.5714285714287 23.4114583333333  31.4512648809523 23.1184895833333  31.2109375 22.87109375  C 30.9706101190477 22.6236979166667  30.6860119047619 22.5  30.3571428571429 22.5  C 30.0282738095239 22.5  29.7436755952381 22.6236979166667  29.5033482142858 22.87109375  C 29.2630208333333 23.1184895833333  29.1428571428571 23.4114583333333  29.1428571428571 23.75  C 29.1428571428571 24.0885416666667  29.2630208333333 24.3815104166667  29.5033482142858 24.62890625  C 29.7436755952381 24.8763020833333  30.0282738095239 25  30.3571428571429 25  C 30.6860119047619 25  30.9706101190477 24.8763020833333  31.2109375 24.62890625  Z M 33.2885044642858 10.732421875  C 33.7628348214287 11.220703125  34 11.8098958333333  34 12.5  L 34 25  C 34 25.6901041666667  33.7628348214287 26.279296875  33.2885044642858 26.767578125  C 32.8141741071429 27.255859375  32.2418154761904 27.5  31.5714285714287 27.5  L 26.1071428571429 27.5  C 25.3608630952381 27.5  23.9505208333333 27.8841145833333  21.8761160714287 28.65234375  C 19.4728422619048 29.55078125  17.468005952381 30  15.8616071428571 30  C 14.0654761904761 30  12.6108630952381 29.4954427083333  11.4977678571429 28.486328125  C 10.3846726190477 27.4772135416667  9.83444940476193 26.0611979166667  9.84709821428578 24.23828125  L 9.86607142857133 24.140625  C 9.09449404761904 23.1510416666667  8.70870535714289 21.9921875  8.70870535714289 20.6640625  C 8.70870535714289 20.3776041666667  8.72767857142867 20.09765625  8.765625 19.82421875  C 8.34821428571422 19.08203125  8.11421130952385 18.3072916666667  8.06361607142867 17.5  L 4.85714285714289 17.5  C 3.52901785714289 17.5  2.38746279761904 17.0052083333333  1.43247767857133 16.015625  C 0.477492559523853 15.0260416666667  0 13.84765625  0 12.48046875  C 0 11.1393229166667  0.480654761904816 9.97395833333326  1.44196428571422 8.984375  C 2.40327380952385 7.99479166666674  3.54166666666674 7.5  4.85714285714289 7.5  L 11.953125 7.5  C 11.6748511904761 6.71875  11.5357142857142 5.88541666666674  11.5357142857142 5  C 11.5357142857142 3.41145833333326  12.0511532738095 2.18098958333326  13.08203125 1.30859375  C 14.1129092261905 0.436197916666742  15.4188988095239 0  17 0  C 17.4806547619048 0  17.9202008928571 0.113932291666742  18.3186383928571 0.341796875  C 18.7170758928571 0.569661458333258  19.0649181547619 0.891927083333258  19.3621651785713 1.30859375  C 19.659412202381 1.72526041666674  19.9155505952381 2.13541666666674  20.1305803571429 2.5390625  C 20.3456101190477 2.94270833333326  20.5796130952381 3.41145833333326  20.8325892857142 3.9453125  C 21.0855654761905 4.47916666666674  21.2942708333333 4.8828125  21.4587053571429 5.15625  C 21.9014136904761 5.87239583333326  22.5338541666667 6.71223958333326  23.3560267857142 7.67578125  C 23.3813244047619 7.71484375  23.4698660714287 7.82552083333326  23.6216517857142 8.0078125  C 23.7734375 8.19010416666674  23.8936011904761 8.330078125  23.9821428571429 8.427734375  C 24.0706845238095 8.525390625  24.2003348214287 8.66536458333326  24.37109375 8.84765625  C 24.5418526785713 9.02994791666674  24.6936383928571 9.17643229166674  24.8264508928571 9.287109375  C 24.9592633928571 9.39778645833326  25.1015625 9.51497395833326  25.2533482142858 9.638671875  C 25.4051339285713 9.76236979166674  25.5537574404761 9.853515625  25.69921875 9.912109375  C 25.8446800595239 9.970703125  25.9806547619048 10  26.1071428571429 10  L 31.5714285714287 10  C 32.2418154761904 10  32.8141741071429 10.244140625  33.2885044642858 10.732421875  Z " fill-rule="nonzero" fill="#666666" stroke="none" transform="matrix(1 0 0 1 684 819 )" />
  </g>
</svg>