<?xml version="1.0" encoding="utf-8"?>
<svg version="1.1" xmlns:xlink="http://www.w3.org/1999/xlink" width="34px" height="34px" xmlns="http://www.w3.org/2000/svg">
  <g transform="matrix(1 0 0 1 -752 -261 )">
    <path d="M 24.50390625 20.5416666666666  C 24.50390625 20.7335069444445  24.4301215277777 20.9032118055555  24.2825520833333 21.05078125  L 21.05078125 24.2825520833334  C 20.9032118055555 24.4301215277778  20.7335069444445 24.50390625  20.5416666666667 24.50390625  C 20.3498263888889 24.50390625  20.1801215277777 24.4301215277778  20.0325520833333 24.2825520833334  L 17 21.25  L 13.9674479166667 24.2825520833334  C 13.8198784722223 24.4301215277778  13.6501736111111 24.50390625  13.4583333333333 24.50390625  C 13.2664930555555 24.50390625  13.0967881944445 24.4301215277778  12.94921875 24.2825520833334  L 9.71744791666674 21.05078125  C 9.56987847222229 20.9032118055555  9.49609375 20.7335069444445  9.49609375 20.5416666666666  C 9.49609375 20.3498263888889  9.56987847222229 20.1801215277778  9.71744791666674 20.0325520833334  L 12.75 17  L 9.71744791666674 13.9674479166666  C 9.56987847222229 13.8198784722222  9.49609375 13.6501736111111  9.49609375 13.4583333333334  C 9.49609375 13.2664930555555  9.56987847222229 13.0967881944445  9.71744791666674 12.94921875  L 12.94921875 9.71744791666663  C 13.0967881944445 9.56987847222223  13.2664930555555 9.49609375  13.4583333333333 9.49609375  C 13.6501736111111 9.49609375  13.8198784722223 9.56987847222223  13.9674479166667 9.71744791666663  L 17 12.75  L 20.0325520833333 9.71744791666663  C 20.1801215277777 9.56987847222223  20.3498263888889 9.49609375  20.5416666666667 9.49609375  C 20.7335069444445 9.49609375  20.9032118055555 9.56987847222223  21.05078125 9.71744791666663  L 24.2825520833333 12.94921875  C 24.4301215277777 13.0967881944445  24.50390625 13.2664930555555  24.50390625 13.4583333333334  C 24.50390625 13.6501736111111  24.4301215277777 13.8198784722222  24.2825520833333 13.9674479166666  L 21.25 17  L 24.2825520833333 20.0325520833334  C 24.4301215277777 20.1801215277778  24.50390625 20.3498263888889  24.50390625 20.5416666666666  Z M 27.42578125 23.04296875  C 28.5030381944445 21.1983506944445  29.0416666666667 19.1840277777778  29.0416666666667 17  C 29.0416666666667 14.8159722222222  28.5030381944445 12.8016493055555  27.42578125 10.95703125  C 26.3485243055555 9.11241319444446  24.8875868055555 7.65147569444446  23.04296875 6.57421875  C 21.1983506944445 5.49696180555554  19.1840277777777 4.95833333333337  17 4.95833333333337  C 14.8159722222223 4.95833333333337  12.8016493055555 5.49696180555554  10.95703125 6.57421875  C 9.11241319444446 7.65147569444446  7.65147569444446 9.11241319444446  6.57421875 10.95703125  C 5.49696180555554 12.8016493055555  4.95833333333326 14.8159722222222  4.95833333333326 17  C 4.95833333333326 19.1840277777778  5.49696180555554 21.1983506944445  6.57421875 23.04296875  C 7.65147569444446 24.8875868055555  9.11241319444446 26.3485243055555  10.95703125 27.42578125  C 12.8016493055555 28.5030381944445  14.8159722222223 29.0416666666666  17 29.0416666666666  C 19.1840277777777 29.0416666666666  21.1983506944445 28.5030381944445  23.04296875 27.42578125  C 24.8875868055555 26.3485243055555  26.3485243055555 24.8875868055555  27.42578125 23.04296875  Z M 31.7200520833333 8.466796875  C 33.2400173611111 11.0713975694445  34 13.9157986111111  34 17  C 34 20.0842013888889  33.2400173611111 22.9286024305555  31.7200520833333 25.533203125  C 30.2000868055555 28.1378038194445  28.1378038194445 30.2000868055555  25.533203125 31.7200520833334  C 22.9286024305555 33.2400173611111  20.0842013888889 34  17 34  C 13.9157986111111 34  11.0713975694445 33.2400173611111  8.466796875 31.7200520833334  C 5.86219618055554 30.2000868055555  3.79991319444446 28.1378038194445  2.27994791666674 25.533203125  C 0.759982638888914 22.9286024305555  0 20.0842013888889  0 17  C 0 13.9157986111111  0.759982638888914 11.0713975694445  2.27994791666674 8.466796875  C 3.79991319444446 5.86219618055554  5.86219618055554 3.79991319444446  8.466796875 2.27994791666663  C 11.0713975694445 0.759982638888857  13.9157986111111 0  17 0  C 20.0842013888889 0  22.9286024305555 0.759982638888857  25.533203125 2.27994791666663  C 28.1378038194445 3.79991319444446  30.2000868055555 5.86219618055554  31.7200520833333 8.466796875  Z " fill-rule="nonzero" fill="#666666" stroke="none" transform="matrix(1 0 0 1 752 261 )" />
  </g>
</svg>