<?xml version="1.0" encoding="utf-8"?>
<svg version="1.1" xmlns:xlink="http://www.w3.org/1999/xlink" width="34px" height="25px" xmlns="http://www.w3.org/2000/svg">
  <g transform="matrix(1 0 0 1 -340 -883 )">
    <path d="M 18.6099796334012 23.6827956989247  C 17.7674813306178 24.5609318996416  17.2308214528174 25  17 25  C 16.7691785471826 25  16.2325186693822 24.5609318996416  15.3900203665988 23.6827956989247  C 14.5475220638153 22.8046594982079  14.1262729124236 22.2461170848268  14.1262729124236 22.0071684587814  C 14.1262729124236 21.6248506571087  14.4869314324508 21.3022700119474  15.2082484725051 21.0394265232975  C 15.9295655125594 20.7765830346475  16.5268160217244 20.6451612903226  17 20.6451612903226  C 17.4731839782756 20.6451612903226  18.0704344874406 20.7765830346475  18.7917515274949 21.0394265232975  C 19.5130685675492 21.3022700119474  19.8737270875764 21.6248506571087  19.8737270875764 22.0071684587814  C 19.8737270875764 22.2461170848268  19.4524779361847 22.8046594982079  18.6099796334012 23.6827956989247  Z M 23.2927698574338 18.7992831541219  C 22.4214188730482 19.6953405017921  21.8818737270876 20.1433691756273  21.6741344195519 20.1433691756273  C 21.6510522742702 20.1433691756273  21.4202308214528 19.9940262843488  20.9816700610998 19.6953405017921  C 20.5431093007468 19.3966547192354  19.9573998642227 19.0979689366786  19.2245417515275 18.7992831541219  C 18.4916836388323 18.5005973715652  17.7501697216565 18.3512544802867  17 18.3512544802867  C 16.2498302783435 18.3512544802867  15.5083163611677 18.5005973715652  14.7754582484725 18.7992831541219  C 14.0426001357773 19.0979689366786  13.4597759674135 19.3966547192354  13.0269857433809 19.6953405017921  C 12.5941955193483 19.9940262843488  12.3604887983707 20.1433691756273  12.3258655804481 20.1433691756273  C 12.1181262729124 20.1433691756273  11.5785811269518 19.6953405017921  10.7072301425662 18.7992831541219  C 9.8358791581806 17.9032258064516  9.40020366598776 17.347670250896  9.40020366598776 17.1326164874553  C 9.40020366598776 16.9772998805257  9.45790902919214 16.8399044205496  9.57331975560083 16.7204301075269  C 10.4735234215886 15.8004778972521  11.6045485403938 15.0776583034648  12.9663951120163 14.5519713261649  C 14.3282416836389 14.0262843488649  15.6727766463001 13.763440860215  17 13.763440860215  C 18.3272233536999 13.763440860215  19.6717583163611 14.0262843488649  21.0336048879837 14.5519713261649  C 22.3954514596062 15.0776583034648  23.5264765784114 15.8004778972521  24.4266802443992 16.7204301075269  C 24.5420909708079 16.8399044205496  24.5997963340122 16.9772998805257  24.5997963340122 17.1326164874553  C 24.5997963340122 17.347670250896  24.1641208418194 17.9032258064516  23.2927698574338 18.7992831541219  Z M 27.9928716904276 13.9247311827958  C 27.1272912423626 14.820788530466  26.5964019008825 15.2688172043011  26.4002036659878 15.2688172043011  C 26.2732518669383 15.2688172043011  26.1405295315682 15.2210274790921  26.0020366598778 15.1254480286739  C 24.4324507807196 13.8709677419355  22.9782756279701 12.9480286738352  21.6395112016293 12.3566308243727  C 20.3007467752885 11.7652329749104  18.7542430414121 11.4695340501792  17 11.4695340501792  C 16.0190088255262 11.4695340501792  15.0351323828921 11.6009557945042  14.0483706720977 11.8637992831542  C 13.0616089613035 12.1266427718041  12.2017990495587 12.4432497013141  11.4689409368635 12.8136200716847  C 10.7360828241684 13.183990442055  10.081126951799 13.5543608124253  9.50407331975561 13.9247311827958  C 8.92701968771212 14.2951015531661  8.47114731839781 14.6117084826761  8.13645621181263 14.8745519713262  C 7.80176510522745 15.1373954599761  7.62287847929395 15.2688172043011  7.59979633401224 15.2688172043011  C 7.40359809911746 15.2688172043011  6.87270875763744 14.820788530466  6.00712830957229 13.9247311827958  C 5.14154786150715 13.0286738351255  4.70875763747455 12.4731182795699  4.70875763747455 12.258064516129  C 4.70875763747455 12.1146953405017  4.76646300067887 11.9832735961768  4.88187372708757 11.8637992831542  C 6.40529531568228 10.2867383512545  8.25186693822133 9.06212664277177  10.4215885947047 8.18996415770607  C 12.591310251188 7.31780167264037  14.7841140529532 6.88172043010752  17 6.88172043010752  C 19.2158859470468 6.88172043010752  21.408689748812 7.31780167264037  23.5784114052953 8.18996415770607  C 25.7481330617787 9.06212664277177  27.5947046843177 10.2867383512545  29.1181262729124 11.8637992831542  C 29.2335369993211 11.9832735961768  29.2912423625255 12.1146953405017  29.2912423625255 12.258064516129  C 29.2912423625255 12.4731182795699  28.8584521384929 13.0286738351255  27.9928716904276 13.9247311827958  Z M 32.6929735234216 9.06810035842295  C 31.821622539036 9.96415770609315  31.2878479293958 10.4121863799284  31.091649694501 10.4121863799284  C 30.9646978954514 10.4121863799284  30.8377460964019 10.3584229390681  30.7107942973523 10.2508960573476  C 28.6449422946368 8.37514934289129  26.5011880515954 6.96236559139777  24.2795315682281 6.01254480286741  C 22.0578750848608 5.06272401433694  19.6313645621181 4.58781362007176  17 4.58781362007176  C 14.3686354378819 4.58781362007176  11.9421249151392 5.06272401433694  9.72046843177191 6.01254480286741  C 7.49881194840464 6.96236559139777  5.35505770536321 8.37514934289129  3.28920570264768 10.2508960573476  C 3.16225390359807 10.3584229390681  3.03530210454858 10.4121863799284  2.90835030549897 10.4121863799284  C 2.71215207060419 10.4121863799284  2.17837746096404 9.96415770609315  1.30702647657841 9.06810035842295  C 0.435675492192786 8.17204301075265  0 7.61648745519722  0 7.40143369175633  C 0 7.24611708482666  0.0577053632043771 7.10872162485066  0.173116089613018 6.98924731182797  C 2.33129667345554 4.76702508960568  4.8991853360489 3.04659498207889  7.8767820773931 1.82795698924724  C 10.8543788187373 0.609318996415709  13.8954514596062 0  17 0  C 20.1045485403938 0  23.1456211812627 0.609318996415709  26.1232179226069 1.82795698924724  C 29.1008146639512 3.04659498207889  31.6687033265445 4.76702508960568  33.826883910387 6.98924731182797  C 33.9422946367957 7.10872162485066  34 7.24611708482666  34 7.40143369175633  C 34 7.61648745519722  33.5643245078072 8.17204301075265  32.6929735234216 9.06810035842295  Z " fill-rule="nonzero" fill="#666666" stroke="none" transform="matrix(1 0 0 1 340 883 )" />
  </g>
</svg>