<?xml version="1.0" encoding="utf-8"?>
<svg version="1.1" xmlns:xlink="http://www.w3.org/1999/xlink" width="34px" height="30px" xmlns="http://www.w3.org/2000/svg">
  <g transform="matrix(1 0 0 1 -617 -940 )">
    <path d="M 13.3963541666666 13.6388221153845  C 14.3939236111111 12.6231971153845  15.5951388888889 12.1153846153845  17 12.1153846153845  C 18.4048611111111 12.1153846153845  19.6060763888889 12.6231971153845  20.6036458333334 13.6388221153845  C 21.6012152777778 14.6544471153845  22.1 15.8774038461538  22.1 17.3076923076922  C 22.1 18.7379807692307  21.6012152777778 19.9609375  20.6036458333334 20.9765625  C 19.6060763888889 21.9921875  18.4048611111111 22.5  17 22.5  C 15.5951388888889 22.5  14.3939236111111 21.9921875  13.3963541666666 20.9765625  C 12.3987847222222 19.9609375  11.9 18.7379807692307  11.9 17.3076923076922  C 11.9 15.8774038461538  12.3987847222222 14.6544471153845  13.3963541666666 13.6388221153845  Z M 25.5 4.61538461538453  L 29.4666666666667 4.61538461538453  C 30.7180555555555 4.61538461538453  31.7864583333333 5.06610576923072  32.671875 5.96754807692309  C 33.5572916666667 6.86899038461547  34 7.95673076923072  34 9.23076923076928  L 34 25.3846153846155  C 34 26.6586538461538  33.5572916666667 27.7463942307693  32.671875 28.6478365384614  C 31.7864583333333 29.5492788461538  30.7180555555555 30  29.4666666666667 30  L 4.53333333333342 30  C 3.28194444444455 30  2.21354166666674 29.5492788461538  1.328125 28.6478365384614  C 0.442708333333258 27.7463942307693  0 26.6586538461538  0 25.3846153846155  L 0 9.23076923076928  C 0 7.95673076923072  0.442708333333258 6.86899038461547  1.328125 5.96754807692309  C 2.21354166666674 5.06610576923072  3.28194444444455 4.61538461538453  4.53333333333342 4.61538461538453  L 8.5 4.61538461538453  L 9.40312499999993 2.16346153846143  C 9.62743055555552 1.57451923076928  10.0376736111111 1.06670673076928  10.6338541666667 0.640024038461434  C 11.2300347222223 0.213341346153811  11.8409722222223 0  12.4666666666666 0  L 21.5333333333334 0  C 22.1590277777777 0  22.7699652777777 0.213341346153811  23.3661458333333 0.640024038461434  C 23.9623263888889 1.06670673076928  24.3725694444445 1.57451923076928  24.5968750000001 2.16346153846143  L 25.5 4.61538461538453  Z M 11.3953124999999 23.0138221153845  C 12.9477430555555 24.5943509615386  14.8159722222223 25.3846153846155  17 25.3846153846155  C 19.1840277777777 25.3846153846155  21.0522569444445 24.5943509615386  22.6046875000001 23.0138221153845  C 24.1571180555555 21.4332932692307  24.9333333333334 19.53125  24.9333333333334 17.3076923076922  C 24.9333333333334 15.0841346153845  24.1571180555555 13.1820913461538  22.6046875000001 11.6015625  C 21.0522569444445 10.0210336538462  19.1840277777777 9.23076923076928  17 9.23076923076928  C 14.8159722222223 9.23076923076928  12.9477430555555 10.0210336538462  11.3953124999999 11.6015625  C 9.84288194444446 13.1820913461538  9.06666666666661 15.0841346153845  9.06666666666661 17.3076923076922  C 9.06666666666661 19.53125  9.84288194444446 21.4332932692307  11.3953124999999 23.0138221153845  Z " fill-rule="nonzero" fill="#666666" stroke="none" transform="matrix(1 0 0 1 617 940 )" />
  </g>
</svg>