<?xml version="1.0" encoding="utf-8"?>
<svg version="1.1" xmlns:xlink="http://www.w3.org/1999/xlink" width="34px" height="27px" xmlns="http://www.w3.org/2000/svg">
  <g transform="matrix(1 0 0 1 -340 -942 )">
    <path d="M 6.57421875 18.9172585227275  C 7.04854910714283 18.4378551136365  7.28571428571428 17.859375  7.28571428571428 17.181818181818  C 7.28571428571428 16.5042613636365  7.04854910714283 15.92578125  6.57421875 15.446377840909  C 6.09988839285717 14.966974431818  5.52752976190476 14.7272727272725  4.85714285714283 14.7272727272725  C 4.18675595238096 14.7272727272725  3.61439732142856 14.966974431818  3.14006696428572 15.446377840909  C 2.66573660714283 15.92578125  2.42857142857144 16.5042613636365  2.42857142857144 17.181818181818  C 2.42857142857144 17.859375  2.66573660714283 18.4378551136365  3.14006696428572 18.9172585227275  C 3.61439732142856 19.396661931818  4.18675595238096 19.6363636363635  4.85714285714283 19.6363636363635  C 5.52752976190476 19.6363636363635  6.09988839285717 19.396661931818  6.57421875 18.9172585227275  Z M 10.2170758928572 10.326349431818  C 10.69140625 9.84694602272748  10.9285714285714 9.26846590909099  10.9285714285714 8.59090909090901  C 10.9285714285714 7.91335227272748  10.69140625 7.33487215909099  10.2170758928572 6.85546875  C 9.74274553571428 6.37606534090901  9.17038690476193 6.13636363636351  8.5 6.13636363636351  C 7.82961309523807 6.13636363636351  7.25725446428572 6.37606534090901  6.78292410714283 6.85546875  C 6.30859375 7.33487215909099  6.07142857142856 7.91335227272748  6.07142857142856 8.59090909090901  C 6.07142857142856 9.26846590909099  6.30859375 9.84694602272748  6.78292410714283 10.326349431818  C 7.25725446428572 10.805752840909  7.82961309523807 11.0454545454545  8.5 11.0454545454545  C 9.17038690476193 11.0454545454545  9.74274553571428 10.805752840909  10.2170758928572 10.326349431818  Z M 20.4151785714286 19.559659090909  C 20.1369047619048 18.830965909091  19.6815476190476 18.2492897727275  19.0491071428571 17.814630681818  L 20.9654017857143 10.489346590909  C 21.0412946428571 10.1569602272725  20.9938616071429 9.84694602272748  20.8231026785714 9.55930397727252  C 20.65234375 9.27166193181802  20.4088541666667 9.08309659090901  20.0926339285714 8.9936079545455  C 19.7764136904762 8.90411931818198  19.4728422619048 8.94566761363649  19.1819196428571 9.11825284090901  C 18.8909970238095 9.29083806818198  18.7012648809524 9.54332386363649  18.6127232142857 9.87571022727252  L 16.6964285714286 17.200994318182  C 15.9375 17.2649147727275  15.2607886904762 17.54296875  14.6662946428572 18.03515625  C 14.0718005952381 18.52734375  13.6733630952381 19.1569602272725  13.4709821428572 19.924005681818  C 13.218005952381 20.908380681818  13.344494047619 21.841619318182  13.8504464285714 22.723721590909  C 14.3563988095238 23.6058238636365  15.0963541666667 24.174715909091  16.0703125 24.4303977272725  C 17.0442708333333 24.6860795454545  17.9676339285714 24.5582386363635  18.8404017857143 24.046875  C 19.7131696428571 23.5355113636365  20.2760416666667 22.7876420454545  20.5290178571429 21.8032670454545  C 20.7313988095238 21.036221590909  20.6934523809524 20.2883522727275  20.4151785714286 19.559659090909  Z M 30.8599330357143 18.9172585227275  C 31.3342633928571 18.4378551136365  31.5714285714286 17.859375  31.5714285714286 17.181818181818  C 31.5714285714286 16.5042613636365  31.3342633928571 15.92578125  30.8599330357143 15.446377840909  C 30.3856026785714 14.966974431818  29.813244047619 14.7272727272725  29.1428571428571 14.7272727272725  C 28.4724702380952 14.7272727272725  27.9001116071429 14.966974431818  27.42578125 15.446377840909  C 26.9514508928571 15.92578125  26.7142857142857 16.5042613636365  26.7142857142857 17.181818181818  C 26.7142857142857 17.859375  26.9514508928571 18.4378551136365  27.42578125 18.9172585227275  C 27.9001116071429 19.396661931818  28.4724702380952 19.6363636363635  29.1428571428571 19.6363636363635  C 29.813244047619 19.6363636363635  30.3856026785714 19.396661931818  30.8599330357143 18.9172585227275  Z M 18.7170758928571 6.64453125  C 19.19140625 6.16512784090901  19.4285714285714 5.58664772727252  19.4285714285714 4.90909090909099  C 19.4285714285714 4.23153409090901  19.19140625 3.65305397727252  18.7170758928571 3.17365056818198  C 18.2427455357143 2.69424715909099  17.6703869047619 2.4545454545455  17 2.4545454545455  C 16.3296130952381 2.4545454545455  15.7572544642857 2.69424715909099  15.2829241071428 3.17365056818198  C 14.80859375 3.65305397727252  14.5714285714286 4.23153409090901  14.5714285714286 4.90909090909099  C 14.5714285714286 5.58664772727252  14.80859375 6.16512784090901  15.2829241071428 6.64453125  C 15.7572544642857 7.12393465909099  16.3296130952381 7.36363636363649  17 7.36363636363649  C 17.6703869047619 7.36363636363649  18.2427455357143 7.12393465909099  18.7170758928571 6.64453125  Z M 27.2170758928571 10.326349431818  C 27.69140625 9.84694602272748  27.9285714285714 9.26846590909099  27.9285714285714 8.59090909090901  C 27.9285714285714 7.91335227272748  27.69140625 7.33487215909099  27.2170758928571 6.85546875  C 26.7427455357143 6.37606534090901  26.1703869047619 6.13636363636351  25.5 6.13636363636351  C 24.8296130952381 6.13636363636351  24.2572544642857 6.37606534090901  23.7829241071429 6.85546875  C 23.30859375 7.33487215909099  23.0714285714286 7.91335227272748  23.0714285714286 8.59090909090901  C 23.0714285714286 9.26846590909099  23.30859375 9.84694602272748  23.7829241071429 10.326349431818  C 24.2572544642857 10.805752840909  24.8296130952381 11.0454545454545  25.5 11.0454545454545  C 26.1703869047619 11.0454545454545  26.7427455357143 10.805752840909  27.2170758928571 10.326349431818  Z M 32.6529017857143 10.5085227272725  C 33.5509672619048 12.630681818182  34 14.8551136363635  34 17.181818181818  C 34 20.518465909091  33.1082589285714 23.6058238636365  31.3247767857143 26.4438920454545  C 31.0844494047619 26.814630681818  30.742931547619 27  30.3002232142857 27  L 3.69977678571428 27  C 3.25706845238096 27  2.91555059523807 26.814630681818  2.67522321428572 26.4438920454545  C 0.891741071428555 23.6186079545455  0 20.53125  0 17.181818181818  C 0 14.8551136363635  0.449032738095241 12.630681818182  1.34709821428572 10.5085227272725  C 2.2451636904762 8.38636363636351  3.453125 6.55823863636351  4.97098214285717 5.02414772727252  C 6.48883928571428 3.49005681818198  8.29761904761904 2.26917613636351  10.3973214285714 1.36150568181802  C 12.4970238095238 0.453835227272521  14.6979166666667 0  17 0  C 19.3020833333333 0  21.5029761904762 0.453835227272521  23.6026785714286 1.36150568181802  C 25.702380952381 2.26917613636351  27.5111607142857 3.49005681818198  29.0290178571429 5.02414772727252  C 30.546875 6.55823863636351  31.7548363095239 8.38636363636351  32.6529017857143 10.5085227272725  Z " fill-rule="nonzero" fill="#666666" stroke="none" transform="matrix(1 0 0 1 340 942 )" />
  </g>
</svg>