<?xml version="1.0" encoding="utf-8"?>
<svg version="1.1" xmlns:xlink="http://www.w3.org/1999/xlink" width="23px" height="34px" xmlns="http://www.w3.org/2000/svg">
  <g transform="matrix(1 0 0 1 -759 -587 )">
    <path d="M 6.0419921875 16.0057704304429  L 21.9892578125 0.319037221875647  C 22.2737630208333 0.0391800097040687  22.5133463541667 -0.0565606155125806  22.7080078125 0.0318153462259261  C 22.9026692708333 0.120191307964319  23 0.3558605392667  23 0.738823040133184  L 23 33.2611769598668  C 23 33.6441394607333  22.9026692708333 33.8798086920357  22.7080078125 33.9681846537741  C 22.5133463541667 34.0565606155126  22.2737630208333 33.9608199902959  21.9892578125 33.6809627781244  L 6.0419921875 17.9942295695571  C 5.9072265625 17.8616656269494  5.80989583333326 17.7217370208637  6 17.5744437512997  L 6 32.5541692659597  C 5.75 32.937131766826  5.60774739583326 33.2685416233451  5.3232421875 33.5483988355167  C 5.03873697916674 33.8282560476883  4.70182291666674 33.9681846537741  4.3125 33.9681846537741  L 1.4375 33.9681846537741  C 1.04817708333326 33.9681846537741  0.711263020833258 33.8282560476883  0.4267578125 33.5483988355167  C 0.142252604166742 33.2685416233451  0 32.937131766826  0 32.5541692659597  L 0 1.44583073404033  C 0 1.06286823317396  0.142252604166742 0.731458376654928  0.4267578125 0.45160116448335  C 0.711263020833258 0.171743952311658  1.04817708333326 0.0318153462259261  1.4375 0.0318153462259261  L 4.3125 0.0318153462259261  C 4.70182291666674 0.0318153462259261  5.03873697916674 0.171743952311658  5.3232421875 0.45160116448335  C 5.60774739583326 0.731458376654928  5.75 1.06286823317396  6 1.44583073404033  L 6 16.4255562487003  C 5.80989583333326 16.2635336521799  5.9072265625 16.1236050460941  6.0419921875 16.0057704304429  Z " fill-rule="nonzero" fill="#666666" stroke="none" transform="matrix(1 0 0 1 759 587 )" />
  </g>
</svg>