<?xml version="1.0" encoding="utf-8"?>
<svg version="1.1" xmlns:xlink="http://www.w3.org/1999/xlink" width="34px" height="28px" xmlns="http://www.w3.org/2000/svg">
  <g transform="matrix(1 0 0 1 -752 -657 )">
    <path d="M 13.8341836734694 25.6046875000001  C 13.8197278911565 25.6848958333334  13.8341836734694 25.7833333333333  13.8775510204082 25.9  C 13.8775510204082 25.9583333333334  13.8847789115646 26.1041666666666  13.8992346938776 26.3375  C 13.9136904761905 26.5708333333333  13.9173044217687 26.7640625  13.9100765306123 26.9171875000001  C 13.9028486394558 27.0703125  13.8811649659864 27.2416666666667  13.8450255102041 27.43125  C 13.8088860544218 27.6208333333333  13.7366071428571 27.7630208333334  13.6281887755102 27.8578125  C 13.5197704081633 27.9526041666667  13.3715986394558 28  13.1836734693877 28  L 6.24489795918373 28  C 4.52465986394554 28  3.05378401360542 27.3838541666667  1.83227040816325 26.1515625000001  C 0.610756802721085 24.9192708333334  0 23.4354166666667  0 21.6999999999999  L 0 6.30000000000007  C 0 4.5645833333333  0.610756802721085 3.08072916666663  1.83227040816325 1.84843749999993  C 3.05378401360542 0.616145833333348  4.52465986394554 0  6.24489795918373 0  L 13.1836734693877 0  C 13.3715986394558 0  13.5342261904761 0.0692708333333485  13.6715561224489 0.207812499999932  C 13.8088860544218 0.346354166666629  13.8775510204082 0.510416666666629  13.8775510204082 0.699999999999932  C 13.8775510204082 0.758333333333326  13.8847789115646 0.904166666666697  13.8992346938776 1.13749999999993  C 13.9136904761905 1.37083333333328  13.9173044217687 1.56406249999998  13.9100765306123 1.71718750000002  C 13.9028486394558 1.87031250000007  13.8811649659864 2.04166666666663  13.8450255102041 2.23124999999993  C 13.8088860544218 2.42083333333335  13.7366071428571 2.56302083333333  13.6281887755102 2.65781249999998  C 13.5197704081633 2.75260416666663  13.3715986394558 2.80000000000007  13.1836734693877 2.80000000000007  L 6.24489795918373 2.80000000000007  C 5.2908163265306 2.80000000000007  4.47406462585036 3.1427083333333  3.79464285714289 3.828125  C 3.11522108843542 4.5135416666667  2.77551020408157 5.33749999999998  3 6.30000000000007  L 3 21.6999999999999  C 2.77551020408157 22.6625  3.11522108843542 23.4864583333333  3.79464285714289 24.171875  C 4.47406462585036 24.8572916666667  5.2908163265306 25.1999999999999  6.24489795918373 25.1999999999999  L 12.4897959183673 25.1999999999999  L 12.7283163265306 25.1999999999999  L 13.0102040816327 25.1999999999999  C 13.0102040816327 25.1999999999999  13.093324829932 25.2072916666667  13.2595663265306 25.2218750000001  C 13.4258078231293 25.2364583333333  13.5089285714287 25.2583333333333  13.5089285714287 25.2875  C 13.5089285714287 25.3166666666667  13.5667517006804 25.3567708333334  13.6823979591837 25.4078125  C 13.7980442176871 25.4588541666667  13.8486394557823 25.5244791666667  13.8341836734694 25.6046875000001  Z M 33.5880102040816 13.015625  C 33.8626700680272 13.2927083333333  34 13.6208333333333  34 14  C 34 14.3791666666667  33.8626700680272 14.7072916666667  33.5880102040816 14.984375  L 21.7920918367347 26.884375  C 21.5174319727892 27.1614583333334  21.1921768707483 27.3000000000001  20.8163265306123 27.3000000000001  C 20.4404761904761 27.3000000000001  20.1152210884354 27.1614583333334  19.8405612244898 26.884375  C 19.5659013605442 26.6072916666667  19.4285714285713 26.2791666666667  19.4285714285713 25.9  L 19.4285714285713 19.6  L 9.71428571428578 19.6  C 9.33843537414964 19.6  9.0131802721088 19.4614583333333  8.73852040816325 19.1843749999999  C 8.46386054421771 18.9072916666667  8.32653061224494 18.5791666666667  8.32653061224494 18.1999999999999  L 8.32653061224494 9.80000000000007  C 8.32653061224494 9.42083333333335  8.46386054421771 9.09270833333335  8.73852040816325 8.81562500000007  C 9.0131802721088 8.53854166666667  9.33843537414964 8.39999999999998  9.71428571428578 8.39999999999998  L 19.4285714285713 8.39999999999998  L 19.4285714285713 2.10000000000002  C 19.4285714285713 1.7208333333333  19.5659013605442 1.3927083333333  19.8405612244898 1.11562500000002  C 20.1152210884354 0.838541666666629  20.4404761904761 0.699999999999932  20.8163265306123 0.699999999999932  C 21.1921768707483 0.699999999999932  21.5174319727892 0.838541666666629  21.7920918367347 1.11562500000002  L 33.5880102040816 13.015625  Z " fill-rule="nonzero" fill="#666666" stroke="none" transform="matrix(1 0 0 1 752 657 )" />
  </g>
</svg>