<?xml version="1.0" encoding="utf-8"?>
<svg version="1.1" xmlns:xlink="http://www.w3.org/1999/xlink" width="34px" height="29px" xmlns="http://www.w3.org/2000/svg">
  <g transform="matrix(1 0 0 1 -478 -766 )">
    <path d="M 33.5794270833334 23.6304687500001  C 33.8598090277778 23.9174479166667  34 24.2572916666667  34 24.6500000000001  L 34 27.55  C 34 27.9427083333334  33.8598090277778 28.2825520833334  33.5794270833334 28.56953125  C 33.2990451388889 28.8565104166667  32.9670138888889 29  32.5833333333334 29  L 1.41666666666663 29  C 1.03298611111114 29  0.700954861111143 28.8565104166667  0.420572916666629 28.56953125  C 0.140190972222229 28.2825520833334  0 27.9427083333334  0 27.55  L 0 24.6500000000001  C 0 24.2572916666667  0.140190972222229 23.9174479166667  0.420572916666629 23.6304687500001  C 0.700954861111143 23.3434895833333  1.03298611111114 23.2  1.41666666666663 23  L 32.5833333333334 23  C 32.9670138888889 23.2  33.2990451388889 23.3434895833333  33.5794270833334 23.6304687500001  Z M 33.5794270833334 12.03046875  C 33.8598090277778 12.3174479166667  34 12.6572916666667  34 13.05  L 34 15.95  C 34 16.3427083333333  33.8598090277778 16.6825520833333  33.5794270833334 16.96953125  C 33.2990451388889 17.2565104166666  32.9670138888889 17.4000000000001  32.5833333333334 17  L 1.41666666666663 17  C 1.03298611111114 17.4000000000001  0.700954861111143 17.2565104166666  0.420572916666629 16.96953125  C 0.140190972222229 16.6825520833333  0 16.3427083333333  0 15.95  L 0 13.05  C 0 12.6572916666667  0.140190972222229 12.3174479166667  0.420572916666629 12.03046875  C 0.700954861111143 11.7434895833334  1.03298611111114 11.5999999999999  1.41666666666663 12  L 32.5833333333334 12  C 32.9670138888889 11.5999999999999  33.2990451388889 11.7434895833334  33.5794270833334 12.03046875  Z M 33.5794270833334 0.430468750000045  C 33.8598090277778 0.717447916666629  34 1.05729166666663  34 1.45000000000005  L 34 4.34999999999991  C 34 4.74270833333333  33.8598090277778 5.08255208333333  33.5794270833334 5.36953124999991  C 33.2990451388889 5.65651041666672  32.9670138888889 5.79999999999995  32.5833333333334 6  L 1.41666666666663 6  C 1.03298611111114 5.79999999999995  0.700954861111143 5.65651041666672  0.420572916666629 5.36953124999991  C 0.140190972222229 5.08255208333333  0 4.74270833333333  0 4.34999999999991  L 0 1.45000000000005  C 0 1.05729166666663  0.140190972222229 0.717447916666629  0.420572916666629 0.430468750000045  C 0.700954861111143 0.143489583333348  1.03298611111114 0  1.41666666666663 0  L 32.5833333333334 0  C 32.9670138888889 0  33.2990451388889 0.143489583333348  33.5794270833334 0.430468750000045  Z " fill-rule="nonzero" fill="#666666" stroke="none" transform="matrix(1 0 0 1 478 766 )" />
  </g>
</svg>