<?xml version="1.0" encoding="utf-8"?>
<svg version="1.1" xmlns:xlink="http://www.w3.org/1999/xlink" width="34px" height="20px" xmlns="http://www.w3.org/2000/svg">
  <g transform="matrix(1 0 0 1 -340 -205 )">
    <path d="M 33.6593186372746 2.06185567010311  C 33.8864395457582 2.29095074455898  34 2.55441008018329  34 2.85223367697597  C 34 3.1500572737686  33.8864395457582 3.4135166093929  33.6593186372746 3.64261168384877  L 17.7835671342685 19.6563573883162  C 17.5564462257849 19.885452462772  17.2952571810287 20  17 20  C 16.7047428189713 20  16.4435537742151 19.885452462772  16.2164328657315 19.6563573883162  L 0.340681362725434 3.64261168384877  C 0.113560454241792 3.4135166093929  0 3.1500572737686  0 2.85223367697597  C 0 2.55441008018329  0.113560454241792 2.29095074455898  0.340681362725434 2.06185567010311  L 2.04408817635272 0.343642611683833  C 2.27120908483636 0.114547537227963  2.53239812959254 0  2.82765531062125 0  C 3.12291249164997 0  3.38410153640615 0.114547537227963  3.61122244488979 0.343642611683833  L 17 13.8487972508591  L 30.3887775551102 0.343642611683833  C 30.6158984635939 0.114547537227963  30.87708750835 0  31.1723446893787 0  C 31.4676018704075 0  31.7287909151637 0.114547537227963  31.9559118236473 0.343642611683833  L 33.6593186372746 2.06185567010311  Z " fill-rule="nonzero" fill="#666666" stroke="none" transform="matrix(1 0 0 1 340 205 )" />
  </g>
</svg>