<?xml version="1.0" encoding="utf-8"?>
<svg version="1.1" xmlns:xlink="http://www.w3.org/1999/xlink" width="20px" height="34px" xmlns="http://www.w3.org/2000/svg">
  <g transform="matrix(1 0 0 1 -485 -198 )">
    <path d="M 19.6563573883162 16.2164328657315  C 19.885452462772 16.4435537742151  20 16.7047428189713  20 17  C 20 17.2952571810287  19.885452462772 17.5564462257849  19.6563573883162 17.7835671342685  L 3.64261168384883 33.6593186372746  C 3.4135166093929 33.8864395457582  3.15005727376865 34  2.85223367697597 34  C 2.55441008018323 34  2.29095074455898 33.8864395457582  2.06185567010306 33.6593186372746  L 0.343642611683833 31.9559118236473  C 0.114547537227963 31.7287909151637  0 31.4676018704075  0 31.1723446893787  C 0 30.87708750835  0.114547537227963 30.6158984635939  0.343642611683833 30.3887775551102  L 13.8487972508591 17  L 0.343642611683833 3.61122244488979  C 0.114547537227963 3.38410153640615  0 3.12291249164997  0 2.82765531062125  C 0 2.53239812959254  0.114547537227963 2.2712090848363  0.343642611683833 2.04408817635272  L 2.06185567010306 0.340681362725434  C 2.29095074455898 0.113560454241792  2.55441008018323 0  2.85223367697597 0  C 3.15005727376865 0  3.4135166093929 0.113560454241792  3.64261168384883 0.340681362725434  L 19.6563573883162 16.2164328657315  Z " fill-rule="nonzero" fill="#666666" stroke="none" transform="matrix(1 0 0 1 485 198 )" />
  </g>
</svg>