<?xml version="1.0" encoding="utf-8"?>
<svg version="1.1" xmlns:xlink="http://www.w3.org/1999/xlink" width="32px" height="34px" xmlns="http://www.w3.org/2000/svg">
  <g transform="matrix(1 0 0 1 -754 -395 )">
    <path d="M 2.46153846153845 26.1071428571429  L 2.46153846153845 31.5714285714286  L 8 31.5714285714286  L 8 26.1071428571429  L 2.46153846153845 26.1071428571429  Z M 9.23076923076917 26.1071428571429  L 9.23076923076917 31.5714285714286  L 15.3846153846154 31.5714285714286  L 15.3846153846154 26.1071428571429  L 9.23076923076917 26.1071428571429  Z M 2.46153846153845 18.8214285714286  L 2.46153846153845 24.8928571428571  L 8 24.8928571428571  L 8 18.8214285714286  L 2.46153846153845 18.8214285714286  Z M 9.23076923076917 18.8214285714286  L 9.23076923076917 24.8928571428571  L 15.3846153846154 24.8928571428571  L 15.3846153846154 18.8214285714286  L 9.23076923076917 18.8214285714286  Z M 2.46153846153845 12.1428571428571  L 2.46153846153845 17.6071428571429  L 8 17.6071428571429  L 8 12.1428571428571  L 2.46153846153845 12.1428571428571  Z M 16.6153846153846 26.1071428571429  L 16.6153846153846 31.5714285714286  L 22.7692307692308 31.5714285714286  L 22.7692307692308 26.1071428571429  L 16.6153846153846 26.1071428571429  Z M 9.23076923076917 12.1428571428571  L 9.23076923076917 17.6071428571429  L 15.3846153846154 17.6071428571429  L 15.3846153846154 12.1428571428571  L 9.23076923076917 12.1428571428571  Z M 24 26.1071428571429  L 24 31.5714285714286  L 29.5384615384615 31.5714285714286  L 29.5384615384615 26.1071428571429  L 24 26.1071428571429  Z M 16.6153846153846 18.8214285714286  L 16.6153846153846 24.8928571428571  L 22.7692307692308 24.8928571428571  L 22.7692307692308 18.8214285714286  L 16.6153846153846 18.8214285714286  Z M 9.66346153846155 8.92689732142856  C 9.78525641025635 8.80673363095241  9.84615384615381 8.66443452380952  9.84615384615381 8.5  L 9.84615384615381 3.03571428571433  C 9.84615384615381 2.87127976190476  9.78525641025635 2.72898065476193  9.66346153846155 2.60881696428567  C 9.54166666666663 2.48865327380952  9.39743589743591 2.42857142857144  9.23076923076917 2.42857142857144  L 8 2.42857142857144  C 7.83333333333337 2.42857142857144  7.68910256410254 2.48865327380952  7.56730769230774 2.60881696428567  C 7.44551282051282 2.72898065476193  7.38461538461536 2.87127976190476  7.38461538461536 3.03571428571433  L 7.38461538461536 8.5  C 7.38461538461536 8.66443452380952  7.44551282051282 8.80673363095241  7.56730769230774 8.92689732142856  C 7.68910256410254 9.04706101190476  7.83333333333337 9.10714285714289  8 9.10714285714289  L 9.23076923076917 9.10714285714289  C 9.39743589743591 9.10714285714289  9.54166666666663 9.04706101190476  9.66346153846155 8.92689732142856  Z M 24 18.8214285714286  L 24 24.8928571428571  L 29.5384615384615 24.8928571428571  L 29.5384615384615 18.8214285714286  L 24 18.8214285714286  Z M 16.6153846153846 12.1428571428571  L 16.6153846153846 17.6071428571429  L 22.7692307692308 17.6071428571429  L 22.7692307692308 12.1428571428571  L 16.6153846153846 12.1428571428571  Z M 24 12.1428571428571  L 24 17.6071428571429  L 29.5384615384615 17.6071428571429  L 29.5384615384615 12.1428571428571  L 24 12.1428571428571  Z M 24.4326923076923 8.92689732142856  C 24.5544871794872 8.80673363095241  24.6153846153846 8.66443452380952  24.6153846153846 8.5  L 24.6153846153846 3.03571428571433  C 24.6153846153846 2.87127976190476  24.5544871794872 2.72898065476193  24.4326923076923 2.60881696428567  C 24.3108974358975 2.48865327380952  24.1666666666666 2.42857142857144  24 2.42857142857144  L 22.7692307692308 2.42857142857144  C 22.6025641025641 2.42857142857144  22.4583333333334 2.48865327380952  22.3365384615385 2.60881696428567  C 22.2147435897436 2.72898065476193  22.1538461538462 2.87127976190476  22.1538461538462 3.03571428571433  L 22.1538461538462 8.5  C 22.1538461538462 8.66443452380952  22.2147435897436 8.80673363095241  22.3365384615385 8.92689732142856  C 22.4583333333334 9.04706101190476  22.6025641025641 9.10714285714289  22.7692307692308 9.10714285714289  L 24 9.10714285714289  C 24.1666666666666 9.10714285714289  24.3108974358975 9.04706101190476  24.4326923076923 8.92689732142856  Z M 31.2692307692308 5.578125  C 31.7564102564103 6.05877976190476  32 6.62797619047615  32 7.28571428571433  L 32 31.5714285714286  C 32 32.2291666666666  31.7564102564103 32.7983630952381  31.2692307692308 33.2790178571429  C 30.7820512820514 33.7596726190476  30.2051282051282 34  29.5384615384615 34  L 2.46153846153845 34  C 1.79487179487171 34  1.21794871794873 33.7596726190476  0.73076923076917 33.2790178571429  C 0.243589743589723 32.7983630952381  0 32.2291666666666  0 31.5714285714286  L 0 7.28571428571433  C 0 6.62797619047615  0.243589743589723 6.05877976190476  0.73076923076917 5.578125  C 1.21794871794873 5.09747023809524  1.79487179487171 4.85714285714289  2.46153846153845 4.85714285714289  L 4.92307692307691 4.85714285714289  L 4.92307692307691 3.03571428571433  C 4.92307692307691 2.20089285714289  5.22435897435889 1.48623511904759  5.82692307692309 0.891741071428555  C 6.42948717948718 0.297247023809518  7.15384615384619 0  8 0  L 9.23076923076917 0  C 10.0769230769231 0  10.801282051282 0.297247023809518  11.4038461538462 0.891741071428555  C 12.0064102564103 1.48623511904759  12.3076923076923 2.20089285714289  12.3076923076923 3.03571428571433  L 12.3076923076923 4.85714285714289  L 19.6923076923077 4.85714285714289  L 19.6923076923077 3.03571428571433  C 19.6923076923077 2.20089285714289  19.9935897435897 1.48623511904759  20.5961538461538 0.891741071428555  C 21.198717948718 0.297247023809518  21.9230769230769 0  22.7692307692308 0  L 24 0  C 24.8461538461538 0  25.5705128205128 0.297247023809518  26.1730769230769 0.891741071428555  C 26.7756410256411 1.48623511904759  27.0769230769231 2.20089285714289  27.0769230769231 3.03571428571433  L 27.0769230769231 4.85714285714289  L 29.5384615384615 4.85714285714289  C 30.2051282051282 4.85714285714289  30.7820512820514 5.09747023809524  31.2692307692308 5.578125  Z " fill-rule="nonzero" fill="#666666" stroke="none" transform="matrix(1 0 0 1 754 395 )" />
  </g>
</svg>