<?xml version="1.0" encoding="utf-8"?>
<svg version="1.1" xmlns:xlink="http://www.w3.org/1999/xlink" width="32px" height="34px" xmlns="http://www.w3.org/2000/svg">
  <g transform="matrix(1 0 0 1 -618 -461 )">
    <path d="M 16 32.4821428571429  C 16.2051282051282 32.4821428571429  16.3076923076923 32.3809523809523  16.3076923076923 32.1785714285713  C 16.3076923076923 31.9761904761905  16.2051282051282 31.875  16 31.875  C 15.2435897435897 31.875  14.5929487179487 31.606212797619  14.0480769230769 31.0686383928571  C 13.5032051282051 30.5310639880952  13.2307692307692 29.8891369047619  13.2307692307692 29.1428571428571  C 13.2307692307692 28.9404761904761  13.1282051282051 28.8392857142858  12.9230769230769 28.8392857142858  C 12.7179487179487 28.8392857142858  12.6153846153846 28.9404761904761  12.6153846153846 29.1428571428571  C 12.6153846153846 30.0662202380952  12.9455128205128 30.8536086309523  13.6057692307692 31.5050223214287  C 14.2660256410256 32.1564360119048  15.0641025641025 32.4821428571429  16 32.4821428571429  Z M 8.61538461538464 10.9285714285713  C 8.61538461538464 17.6577380952381  6.91025641025635 22.9196428571429  3.5 26.7142857142858  L 28.5 26.7142857142858  C 25.0897435897436 22.9196428571429  23.3846153846154 17.6577380952381  23.3846153846154 10.9285714285713  C 23.3846153846154 10.2834821428571  23.2307692307692 9.61941964285711  22.9230769230769 8.93638392857144  C 22.6153846153846 8.25334821428567  22.1730769230769 7.60193452380952  21.5961538461538 6.98214285714289  C 21.0192307692308 6.36235119047615  20.2403846153846 5.85323660714289  19.2596153846154 5.45479910714289  C 18.2788461538462 5.05636160714289  17.1923076923077 4.85714285714289  16 4.85714285714289  C 14.8076923076923 4.85714285714289  13.7211538461538 5.05636160714289  12.7403846153846 5.45479910714289  C 11.7596153846154 5.85323660714289  10.9807692307692 6.36235119047615  10.4038461538462 6.98214285714289  C 9.82692307692309 7.60193452380952  9.38461538461536 8.25334821428567  9.07692307692309 8.93638392857144  C 8.76923076923083 9.61941964285711  8.61538461538464 10.2834821428571  8.61538461538464 10.9285714285713  Z M 30.25 25.0446428571429  C 30.7756410256411 25.6264880952381  31.3589743589744 26.1830357142858  32 26.7142857142858  C 32 27.3720238095239  31.7564102564103 27.9412202380952  31.2692307692308 28.421875  C 30.7820512820514 28.9025297619048  30.2051282051282 29.1428571428571  29.5384615384615 29.1428571428571  L 20.9230769230769 29.1428571428571  C 20.9230769230769 30.483630952381  20.4423076923077 31.6283482142858  19.4807692307692 32.5770089285713  C 18.5192307692308 33.5256696428571  17.3589743589744 34  16 34  C 14.6410256410256 34  13.4807692307692 33.5256696428571  12.5192307692308 32.5770089285713  C 11.5576923076923 31.6283482142858  11.0769230769231 30.483630952381  11.0769230769231 29.1428571428571  L 2.46153846153845 29.1428571428571  C 1.79487179487171 29.1428571428571  1.21794871794873 28.9025297619048  0.73076923076917 28.421875  C 0.243589743589723 27.9412202380952  0 27.3720238095239  0 26.7142857142858  C 0.641025641025635 26.1830357142858  1.22435897435889 25.6264880952381  1.75 25.0446428571429  C 2.27564102564111 24.4627976190477  2.82051282051282 23.70703125  3.38461538461536 22.77734375  C 3.94871794871801 21.84765625  4.42628205128199 20.8452380952381  4.81730769230774 19.7700892857142  C 5.20833333333337 18.6949404761905  5.52884615384619 17.3921130952381  5.77884615384619 15.8616071428571  C 6.02884615384619 14.3311011904761  6.15384615384619 12.686755952381  6.15384615384619 10.9285714285713  C 6.15384615384619 9.00595238095241  6.90384615384619 7.21930803571433  8.40384615384619 5.56863839285711  C 9.90384615384619 3.91796875  11.8717948717949 2.91555059523807  14.3076923076923 2.56138392857144  C 14.2051282051283 2.32105654761904  14.1538461538462 2.07440476190482  14.1538461538462 1.82142857142856  C 14.1538461538462 1.31547619047615  14.3333333333334 0.885416666666629  14.6923076923077 0.53125  C 15.051282051282 0.177083333333371  15.4871794871794 0  16 0  C 16.5128205128206 0  16.948717948718 0.177083333333371  17.3076923076923 0.53125  C 17.6666666666666 0.885416666666629  17.8461538461538 1.31547619047615  17.8461538461538 1.82142857142856  C 17.8461538461538 2.07440476190482  17.7948717948718 2.32105654761904  17.6923076923077 2.56138392857144  C 20.1282051282051 2.91555059523807  22.0961538461538 3.91796875  23.5961538461538 5.56863839285711  C 25.0961538461538 7.21930803571433  25.8461538461538 9.00595238095241  25.8461538461538 10.9285714285713  C 25.8461538461538 12.686755952381  25.9711538461538 14.3311011904761  26.2211538461538 15.8616071428571  C 26.4711538461538 17.3921130952381  26.7916666666666 18.6949404761905  27.1826923076923 19.7700892857142  C 27.573717948718 20.8452380952381  28.051282051282 21.84765625  28.6153846153846 22.77734375  C 29.1794871794872 23.70703125  29.7243589743589 24.4627976190477  30.25 25.0446428571429  Z " fill-rule="nonzero" fill="#666666" stroke="none" transform="matrix(1 0 0 1 618 461 )" />
  </g>
</svg>