<?xml version="1.0" encoding="utf-8"?>
<svg version="1.1" xmlns:xlink="http://www.w3.org/1999/xlink" width="34px" height="34px" xmlns="http://www.w3.org/2000/svg">
  <g transform="matrix(1 0 0 1 -617 -395 )">
    <path d="M 8.466796875 2.27994791666663  C 11.0713975694445 0.759982638888857  13.9157986111111 0  17 0  C 20.0842013888889 0  22.9286024305555 0.759982638888857  25.533203125 2.27994791666663  C 28.1378038194445 3.79991319444446  30.2000868055555 5.86219618055554  31.7200520833333 8.466796875  C 33.2400173611111 11.0713975694445  34 13.9157986111111  34 17  C 34 20.0842013888889  33.2400173611111 22.9286024305555  31.7200520833333 25.533203125  C 30.2000868055555 28.1378038194445  28.1378038194445 30.2000868055555  25.533203125 31.7200520833334  C 22.9286024305555 33.2400173611111  20.0842013888889 34  17 34  C 13.9157986111111 34  11.0713975694445 33.2400173611111  8.466796875 31.7200520833334  C 5.86219618055554 30.2000868055555  3.79991319444446 28.1378038194445  2.27994791666674 25.533203125  C 0.759982638888914 22.9286024305555  0 20.0842013888889  0 17  C 0 13.9157986111111  0.759982638888914 11.0713975694445  2.27994791666674 8.466796875  C 3.79991319444446 5.86219618055554  5.86219618055554 3.79991319444446  8.466796875 2.27994791666663  Z M 19.6341145833333 28.123046875  C 19.7669270833333 27.9828559027778  19.8333333333333 27.8094618055555  19.8333333333333 27.6028645833334  L 19.8333333333333 23.3971354166666  C 19.8333333333333 23.1905381944445  19.7669270833333 23.0171440972222  19.6341145833333 22.876953125  C 19.5013020833333 22.7367621527778  19.3389756944445 22.6666666666666  19.1471354166667 22.6666666666666  L 14.8971354166667 22.6666666666666  C 14.7052951388889 22.6666666666666  14.5355902777777 22.7404513888889  14.3880208333333 22.8880208333334  C 14.2404513888889 23.0355902777778  14.1666666666667 23.2052951388889  14.1666666666667 23.3971354166666  L 14.1666666666667 27.6028645833334  C 14.1666666666667 27.7947048611111  14.2404513888889 27.9644097222222  14.3880208333333 28.1119791666666  C 14.5355902777777 28.2595486111111  14.7052951388889 28.3333333333334  14.8971354166667 28.3333333333334  L 19.1471354166667 28.3333333333334  C 19.3389756944445 28.3333333333334  19.5013020833333 28.2632378472222  19.6341145833333 28.123046875  Z M 19.556640625 20.3756510416666  C 19.6968315972223 20.2649739583334  19.7743055555555 20.1358506944445  19.7890625 19.98828125  L 20.1875 6.2421875  C 20.1875 6.06510416666663  20.1137152777777 5.93229166666663  19.9661458333333 5.84375  C 19.8185763888889 5.72569444444446  19.6414930555555 5.66666666666663  19.4348958333333 5.66666666666663  L 14.5651041666667 5.66666666666663  C 14.3585069444445 5.66666666666663  14.1814236111111 5.72569444444446  14.0338541666667 5.84375  C 13.8862847222223 5.93229166666663  13.8125 6.06510416666663  13.8125 6.2421875  L 14.1888020833333 19.98828125  C 14.1888020833333 20.1358506944445  14.2625868055555 20.2649739583334  14.41015625 20.3756510416666  C 14.5577256944445 20.486328125  14.7348090277777 20.5416666666666  14.94140625 20.5416666666666  L 19.0364583333333 20.5416666666666  C 19.2430555555555 20.5416666666666  19.4164496527777 20.486328125  19.556640625 20.3756510416666  Z " fill-rule="nonzero" fill="#666666" stroke="none" transform="matrix(1 0 0 1 617 395 )" />
  </g>
</svg>