<?xml version="1.0" encoding="utf-8"?>
<svg version="1.1" xmlns:xlink="http://www.w3.org/1999/xlink" width="34px" height="22px" xmlns="http://www.w3.org/2000/svg">
  <g transform="matrix(1 0 0 1 -617 -204 )">
    <path d="M 34 4.87826086956522  C 34 5.2537842190016  33.8664185277089 5.57616747181964  33.5992555831265 5.84541062801935  L 17.9491315136477 21.5961352657005  C 17.6819685690654 21.8653784219002  17.3655913978495 22  17 22  C 16.6344086021505 22  16.3180314309346 21.8653784219002  16.0508684863523 21.5961352657005  L 0.400744416873522 5.84541062801935  C 0.133581472291098 5.57616747181964  0 5.2537842190016  0 4.87826086956522  C 0 4.50273752012885  0.133581472291098 4.1803542673108  0.400744416873522 3.9111111111111  L 3.90198511166261 0.403864734299532  C 4.16914805624481 0.134621578099825  4.4855252274607 0  4.85111662531017 0  C 5.21670802315964 0  5.53308519437553 0.134621578099825  5.80024813895784 0.403864734299532  L 17 11.6908212560386  L 28.1997518610422 0.403864734299532  C 28.4669148056245 0.134621578099825  28.7832919768404 0  29.1488833746898 0  C 29.5144747725393 0  29.8308519437552 0.134621578099825  30.0980148883374 0.403864734299532  L 33.5992555831265 3.9111111111111  C 33.8664185277089 4.1803542673108  34 4.50273752012885  34 4.87826086956522  Z " fill-rule="nonzero" fill="#666666" stroke="none" transform="matrix(1 0 0 1 617 204 )" />
  </g>
</svg>