<?xml version="1.0" encoding="utf-8"?>
<svg version="1.1" xmlns:xlink="http://www.w3.org/1999/xlink" width="22px" height="34px" xmlns="http://www.w3.org/2000/svg">
  <g transform="matrix(1 0 0 1 -690 -198 )">
    <path d="M 22 4.85111662531017  C 22 5.21670802315964  21.8655083655084 5.53308519437553  21.5965250965252 5.80024813895784  L 10.3204633204633 17  L 21.5965250965252 28.1997518610422  C 21.8655083655084 28.4669148056245  22 28.7832919768404  22 29.1488833746898  C 22 29.5144747725393  21.8655083655084 29.8308519437552  21.5965250965252 30.0980148883374  L 18.0714285714286 33.5992555831265  C 17.8024453024453 33.8664185277088  17.4839124839125 34  17.1158301158301 34  C 16.7477477477478 34  16.4292149292149 33.8664185277088  16.1602316602317 33.5992555831265  L 0.40347490347483 17.9491315136477  C 0.13449163449161 17.6819685690654  0 17.3655913978495  0 17  C 0 16.6344086021505  0.13449163449161 16.3180314309346  0.40347490347483 16.0508684863523  L 16.1602316602317 0.400744416873465  C 16.4292149292149 0.133581472291155  16.7477477477478 0  17.1158301158301 0  C 17.4839124839125 0  17.8024453024453 0.133581472291155  18.0714285714286 0.400744416873465  L 21.5965250965252 3.90198511166255  C 21.8655083655084 4.16914805624481  22 4.4855252274607  22 4.85111662531017  Z " fill-rule="nonzero" fill="#666666" stroke="none" transform="matrix(1 0 0 1 690 198 )" />
  </g>
</svg>