<?xml version="1.0" encoding="utf-8"?>
<svg version="1.1" xmlns:xlink="http://www.w3.org/1999/xlink" width="34px" height="34px" xmlns="http://www.w3.org/2000/svg">
  <g transform="matrix(1 0 0 1 -617 -261 )">
    <path d="M 33.1986531986532 25.4141414141414  C 33.732884399551 25.9483726150393  34 26.5970819304152  34 27.3602693602694  C 34 28.1234567901234  33.732884399551 28.7721661054994  33.1986531986532 29.3063973063973  L 29.3063973063973 33.1986531986532  C 28.7721661054994 33.7328843995511  28.1234567901234 34  27.3602693602694 34  C 26.5970819304152 34  25.9483726150393 33.7328843995511  25.4141414141415 33.1986531986532  L 17 24.7845117845118  L 8.58585858585855 33.1986531986532  C 8.05162738496074 33.7328843995511  7.40291806958476 34  6.6397306397306 34  C 5.87654320987656 34  5.22783389450058 33.7328843995511  4.69360269360266 33.1986531986532  L 0.801346801346767 29.3063973063973  C 0.26711560044896 28.7721661054994  0 28.1234567901234  0 27.3602693602694  C 0 26.5970819304152  0.26711560044896 25.9483726150393  0.801346801346767 25.4141414141414  L 9.21548821548822 17  L 0.801346801346767 8.5858585858586  C 0.26711560044896 8.05162738496074  0 7.40291806958476  0 6.6397306397306  C 0 5.87654320987656  0.26711560044896 5.22783389450058  0.801346801346767 4.69360269360266  L 4.69360269360266 0.801346801346824  C 5.22783389450058 0.267115600448903  5.87654320987656 0  6.6397306397306 0  C 7.40291806958476 0  8.05162738496074 0.267115600448903  8.58585858585855 0.801346801346824  L 17 9.21548821548822  L 25.4141414141415 0.801346801346824  C 25.9483726150393 0.267115600448903  26.5970819304152 0  27.3602693602694 0  C 28.1234567901234 0  28.7721661054994 0.267115600448903  29.3063973063973 0.801346801346824  L 33.1986531986532 4.69360269360266  C 33.732884399551 5.22783389450058  34 5.87654320987656  34 6.6397306397306  C 34 7.40291806958476  33.732884399551 8.05162738496074  33.1986531986532 8.5858585858586  L 24.7845117845118 17  L 33.1986531986532 25.4141414141414  Z " fill-rule="nonzero" fill="#666666" stroke="none" transform="matrix(1 0 0 1 617 261 )" />
  </g>
</svg>