<?xml version="1.0" encoding="utf-8"?>
<svg version="1.1" xmlns:xlink="http://www.w3.org/1999/xlink" width="34px" height="27px" xmlns="http://www.w3.org/2000/svg">
  <g transform="matrix(1 0 0 1 -752 -767 )">
    <path d="M 6.22321428571422 20.7102272727273  C 6.93154761904771 21.4261363636363  7.28571428571422 22.2954545454545  7.28571428571422 23.3181818181818  C 7.28571428571422 24.340909090909  6.93154761904771 25.2102272727273  6.22321428571422 25.9261363636363  C 5.51488095238096 26.6420454545455  4.65476190476193 27  3.64285714285711 27  C 2.63095238095229 27  1.77083333333326 26.6420454545455  1.0625 25.9261363636363  C 0.354166666666742 25.2102272727273  0 24.340909090909  0 23.3181818181818  C 0 22.2954545454545  0.354166666666742 21.4261363636363  1.0625 20.7102272727273  C 1.77083333333326 19.9943181818182  2.63095238095229 19.6363636363637  3.64285714285711 19.6363636363637  C 4.65476190476193 19.6363636363637  5.51488095238096 19.9943181818182  6.22321428571422 20.7102272727273  Z M 6.22321428571422 10.8920454545455  C 6.93154761904771 11.6079545454545  7.28571428571422 12.4772727272727  7.28571428571422 13.5  C 7.28571428571422 14.5227272727273  6.93154761904771 15.3920454545455  6.22321428571422 16.1079545454545  C 5.51488095238096 16.8238636363637  4.65476190476193 17.1818181818182  3.64285714285711 17.1818181818182  C 2.63095238095229 17.1818181818182  1.77083333333326 16.8238636363637  1.0625 16.1079545454545  C 0.354166666666742 15.3920454545455  0 14.5227272727273  0 13.5  C 0 12.4772727272727  0.354166666666742 11.6079545454545  1.0625 10.8920454545455  C 1.77083333333326 10.1761363636363  2.63095238095229 9.81818181818176  3.64285714285711 9.81818181818176  C 4.65476190476193 9.81818181818176  5.51488095238096 10.1761363636363  6.22321428571422 10.8920454545455  Z M 33.8197544642858 21.045809659091  C 33.9399181547619 21.1672585227273  34 21.3110795454545  34 21.4772727272727  L 34 25.159090909091  C 34 25.325284090909  33.9399181547619 25.4691051136363  33.8197544642858 25.5905539772727  C 33.6995907738096 25.712002840909  33.5572916666667 25.7727272727273  33.3928571428571 25.7727272727273  L 10.3214285714287 25.7727272727273  C 10.156994047619 25.7727272727273  10.0146949404761 25.712002840909  9.89453125 25.5905539772727  C 9.77436755952385 25.4691051136363  9.71428571428578 25.325284090909  9.71428571428578 25.159090909091  L 9.71428571428578 21.4772727272727  C 9.71428571428578 21.3110795454545  9.77436755952385 21.1672585227273  9.89453125 21.045809659091  C 10.0146949404761 20.9243607954545  10.156994047619 20.8636363636363  10.3214285714287 20.8636363636363  L 33.3928571428571 20.8636363636363  C 33.5572916666667 20.8636363636363  33.6995907738096 20.9243607954545  33.8197544642858 21.045809659091  Z M 6.22321428571422 1.07386363636374  C 6.93154761904771 1.78977272727275  7.28571428571422 2.65909090909099  7.28571428571422 3.68181818181824  C 7.28571428571422 4.7045454545455  6.93154761904771 5.57386363636374  6.22321428571422 6.28977272727275  C 5.51488095238096 7.00568181818176  4.65476190476193 7.36363636363626  3.64285714285711 7.36363636363626  C 2.63095238095229 7.36363636363626  1.77083333333326 7.00568181818176  1.0625 6.28977272727275  C 0.354166666666742 5.57386363636374  0 4.7045454545455  0 3.68181818181824  C 0 2.65909090909099  0.354166666666742 1.78977272727275  1.0625 1.07386363636374  C 1.77083333333326 0.357954545454504  2.63095238095229 0  3.64285714285711 0  C 4.65476190476193 0  5.51488095238096 0.357954545454504  6.22321428571422 1.07386363636374  Z M 33.8197544642858 11.227627840909  C 33.9399181547619 11.3490767045455  34 11.4928977272727  34 11.659090909091  L 34 15.340909090909  C 34 15.5071022727273  33.9399181547619 15.6509232954545  33.8197544642858 15.772372159091  C 33.6995907738096 15.8938210227273  33.5572916666667 15.9545454545455  33.3928571428571 16  L 10.3214285714287 16  C 10.156994047619 15.9545454545455  10.0146949404761 15.8938210227273  9.89453125 15.772372159091  C 9.77436755952385 15.6509232954545  9.71428571428578 15.5071022727273  9.71428571428578 15.340909090909  L 9.71428571428578 11.659090909091  C 9.71428571428578 11.4928977272727  9.77436755952385 11.3490767045455  9.89453125 11.227627840909  C 10.0146949404761 11.1061789772727  10.156994047619 11.0454545454545  10.3214285714287 11  L 33.3928571428571 11  C 33.5572916666667 11.0454545454545  33.6995907738096 11.1061789772727  33.8197544642858 11.227627840909  Z M 33.8197544642858 1.40944602272725  C 33.9399181547619 1.53089488636374  34 1.67471590909099  34 1.84090909090901  L 34 5.52272727272725  C 34 5.6889204545455  33.9399181547619 5.83274147727275  33.8197544642858 5.95419034090901  C 33.6995907738096 6.0756392045455  33.5572916666667 6.13636363636374  33.3928571428571 6.13636363636374  L 10.3214285714287 6.13636363636374  C 10.156994047619 6.13636363636374  10.0146949404761 6.0756392045455  9.89453125 5.95419034090901  C 9.77436755952385 5.83274147727275  9.71428571428578 5.6889204545455  9.71428571428578 5.52272727272725  L 9.71428571428578 1.84090909090901  C 9.71428571428578 1.67471590909099  9.77436755952385 1.53089488636374  9.89453125 1.40944602272725  C 10.0146949404761 1.28799715909099  10.156994047619 1.22727272727275  10.3214285714287 1.22727272727275  L 33.3928571428571 1.22727272727275  C 33.5572916666667 1.22727272727275  33.6995907738096 1.28799715909099  33.8197544642858 1.40944602272725  Z " fill-rule="nonzero" fill="#666666" stroke="none" transform="matrix(1 0 0 1 752 767 )" />
  </g>
</svg>