<?xml version="1.0" encoding="utf-8"?>
<svg version="1.1" xmlns:xlink="http://www.w3.org/1999/xlink" width="34px" height="27px" xmlns="http://www.w3.org/2000/svg">
  <g transform="matrix(1 0 0 1 -684 -767 )">
    <path d="M 4.67689732142867 22.2730823863637  C 4.79706101190482 22.39453125  4.85714285714289 22.5383522727273  4.85714285714289 22.7045454545455  L 4.85714285714289 26.3863636363637  C 4.85714285714289 26.5525568181818  4.79706101190482 26.696377840909  4.67689732142867 26.8178267045455  C 4.55673363095229 26.9392755681818  4.41443452380952 27  4.25 27  L 0.60714285714289 27  C 0.442708333333258 27  0.300409226190482 26.9392755681818  0.180245535714221 26.8178267045455  C 0.0600818452380736 26.696377840909  0 26.5525568181818  0 26.3863636363637  L 0 22.7045454545455  C 0 22.5383522727273  0.0600818452380736 22.39453125  0.180245535714221 22.2730823863637  C 0.300409226190482 22.1516335227273  0.442708333333258 22.090909090909  0.60714285714289 22.090909090909  L 4.25 22.090909090909  C 4.41443452380952 22.090909090909  4.55673363095229 22.1516335227273  4.67689732142867 22.2730823863637  Z M 4.67689732142867 14.9094460227273  C 4.79706101190482 15.0308948863637  4.85714285714289 15.174715909091  4.85714285714289 15.340909090909  L 4.85714285714289 19.0227272727273  C 4.85714285714289 19.1889204545455  4.79706101190482 19.3327414772727  4.67689732142867 19.454190340909  C 4.55673363095229 19.5756392045455  4.41443452380952 19.6363636363637  4.25 19.6363636363637  L 0.60714285714289 19.6363636363637  C 0.442708333333258 19.6363636363637  0.300409226190482 19.5756392045455  0.180245535714221 19.454190340909  C 0.0600818452380736 19.3327414772727  0 19.1889204545455  0 19.0227272727273  L 0 15.340909090909  C 0 15.174715909091  0.0600818452380736 15.0308948863637  0.180245535714221 14.9094460227273  C 0.300409226190482 14.787997159091  0.442708333333258 14.7272727272727  0.60714285714289 14.7272727272727  L 4.25 14.7272727272727  C 4.41443452380952 14.7272727272727  4.55673363095229 14.787997159091  4.67689732142867 14.9094460227273  Z M 4.67689732142867 7.54580965909099  C 4.79706101190482 7.66725852272725  4.85714285714289 7.8110795454545  4.85714285714289 7.97727272727275  L 4.85714285714289 11.659090909091  C 4.85714285714289 11.825284090909  4.79706101190482 11.9691051136363  4.67689732142867 12.0905539772727  C 4.55673363095229 12.212002840909  4.41443452380952 12.2727272727273  4.25 12.2727272727273  L 0.60714285714289 12.2727272727273  C 0.442708333333258 12.2727272727273  0.300409226190482 12.212002840909  0.180245535714221 12.0905539772727  C 0.0600818452380736 11.9691051136363  0 11.825284090909  0 11.659090909091  L 0 7.97727272727275  C 0 7.8110795454545  0.0600818452380736 7.66725852272725  0.180245535714221 7.54580965909099  C 0.300409226190482 7.42436079545451  0.442708333333258 7.36363636363626  0.60714285714289 7.36363636363626  L 4.25 7.36363636363626  C 4.41443452380952 7.36363636363626  4.55673363095229 7.42436079545451  4.67689732142867 7.54580965909099  Z M 33.8197544642858 22.2730823863637  C 33.9399181547619 22.39453125  34 22.5383522727273  34 22.7045454545455  L 34 26.3863636363637  C 34 26.5525568181818  33.9399181547619 26.696377840909  33.8197544642858 26.8178267045455  C 33.6995907738096 26.9392755681818  33.5572916666667 27  33.3928571428571 27  L 7.89285714285711 27  C 7.72842261904771 27  7.58612351190482 26.9392755681818  7.46595982142867 26.8178267045455  C 7.34579613095229 26.696377840909  7.28571428571422 26.5525568181818  7.28571428571422 26.3863636363637  L 7.28571428571422 22.7045454545455  C 7.28571428571422 22.5383522727273  7.34579613095229 22.39453125  7.46595982142867 22.2730823863637  C 7.58612351190482 22.1516335227273  7.72842261904771 22.090909090909  7.89285714285711 22  L 33.3928571428571 22  C 33.5572916666667 22.090909090909  33.6995907738096 22.1516335227273  33.8197544642858 22.2730823863637  Z M 4.67689732142867 0.182173295454504  C 4.79706101190482 0.303622159090992  4.85714285714289 0.447443181818244  4.85714285714289 0.61363636363626  L 4.85714285714289 4.2954545454545  C 4.85714285714289 4.46164772727275  4.79706101190482 4.60546875  4.67689732142867 4.72691761363626  C 4.55673363095229 4.84836647727275  4.41443452380952 4.90909090909099  4.25 4.90909090909099  L 0.60714285714289 4.90909090909099  C 0.442708333333258 4.90909090909099  0.300409226190482 4.84836647727275  0.180245535714221 4.72691761363626  C 0.0600818452380736 4.60546875  0 4.46164772727275  0 4.2954545454545  L 0 0.61363636363626  C 0 0.447443181818244  0.0600818452380736 0.303622159090992  0.180245535714221 0.182173295454504  C 0.300409226190482 0.0607244318182438  0.442708333333258 0  0.60714285714289 0  L 4.25 0  C 4.41443452380952 0  4.55673363095229 0.0607244318182438  4.67689732142867 0.182173295454504  Z M 33.8197544642858 14.9094460227273  C 33.9399181547619 15.0308948863637  34 15.174715909091  34 15.340909090909  L 34 19.0227272727273  C 34 19.1889204545455  33.9399181547619 19.3327414772727  33.8197544642858 19.454190340909  C 33.6995907738096 19.5756392045455  33.5572916666667 19.6363636363637  33.3928571428571 19.6363636363637  L 7.89285714285711 19.6363636363637  C 7.72842261904771 19.6363636363637  7.58612351190482 19.5756392045455  7.46595982142867 19.454190340909  C 7.34579613095229 19.3327414772727  7.28571428571422 19.1889204545455  7.28571428571422 19.0227272727273  L 7.28571428571422 15.340909090909  C 7.28571428571422 15.174715909091  7.34579613095229 15.0308948863637  7.46595982142867 14.9094460227273  C 7.58612351190482 14.787997159091  7.72842261904771 14.7272727272727  7.89285714285711 14.7272727272727  L 33.3928571428571 14.7272727272727  C 33.5572916666667 14.7272727272727  33.6995907738096 14.787997159091  33.8197544642858 14.9094460227273  Z M 33.8197544642858 7.54580965909099  C 33.9399181547619 7.66725852272725  34 7.8110795454545  34 7.97727272727275  L 34 11.659090909091  C 34 11.825284090909  33.9399181547619 11.9691051136363  33.8197544642858 12.0905539772727  C 33.6995907738096 12.212002840909  33.5572916666667 12.2727272727273  33.3928571428571 12.2727272727273  L 7.89285714285711 12.2727272727273  C 7.72842261904771 12.2727272727273  7.58612351190482 12.212002840909  7.46595982142867 12.0905539772727  C 7.34579613095229 11.9691051136363  7.28571428571422 11.825284090909  7.28571428571422 11.659090909091  L 7.28571428571422 7.97727272727275  C 7.28571428571422 7.8110795454545  7.34579613095229 7.66725852272725  7.46595982142867 7.54580965909099  C 7.58612351190482 7.42436079545451  7.72842261904771 7.36363636363626  7.89285714285711 7.36363636363626  L 33.3928571428571 7.36363636363626  C 33.5572916666667 7.36363636363626  33.6995907738096 7.42436079545451  33.8197544642858 7.54580965909099  Z M 33.8197544642858 0.182173295454504  C 33.9399181547619 0.303622159090992  34 0.447443181818244  34 0.61363636363626  L 34 4.2954545454545  C 34 4.46164772727275  33.9399181547619 4.60546875  33.8197544642858 4.72691761363626  C 33.6995907738096 4.84836647727275  33.5572916666667 4.90909090909099  33.3928571428571 5  L 7.89285714285711 5  C 7.72842261904771 4.90909090909099  7.58612351190482 4.84836647727275  7.46595982142867 4.72691761363626  C 7.34579613095229 4.60546875  7.28571428571422 4.46164772727275  7.28571428571422 4.2954545454545  L 7.28571428571422 0.61363636363626  C 7.28571428571422 0.447443181818244  7.34579613095229 0.303622159090992  7.46595982142867 0.182173295454504  C 7.58612351190482 0.0607244318182438  7.72842261904771 0  7.89285714285711 0  L 33.3928571428571 0  C 33.5572916666667 0  33.6995907738096 0.0607244318182438  33.8197544642858 0.182173295454504  Z " fill-rule="nonzero" fill="#666666" stroke="none" transform="matrix(1 0 0 1 684 767 )" />
  </g>
</svg>