<?xml version="1.0" encoding="utf-8"?>
<svg version="1.1" xmlns:xlink="http://www.w3.org/1999/xlink" width="34px" height="34px" xmlns="http://www.w3.org/2000/svg">
  <g transform="matrix(1 0 0 1 -548 -328 )">
    <path d="M 27.9127604166666 19.4127604166666  C 28.1931423611111 19.1323784722222  28.3333333333334 18.8003472222222  28.3333333333334 18.4166666666666  L 28.3333333333334 15.5833333333334  C 28.3333333333334 15.1996527777778  28.1931423611111 14.8676215277778  27.9127604166666 14.5872395833334  C 27.6323784722222 14.3068576388889  27.3003472222222 14.1666666666666  26.9166666666666 14.1666666666666  L 19.8333333333334 14.1666666666666  L 19.8333333333334 7.08333333333337  C 19.8333333333334 6.69965277777777  19.6931423611111 6.36762152777777  19.4127604166666 6.08723958333337  C 19.1323784722222 5.80685763888886  18.8003472222222 5.66666666666663  18.4166666666666 5.66666666666663  L 15.5833333333334 5.66666666666663  C 15.1996527777778 5.66666666666663  14.8676215277778 5.80685763888886  14.5872395833334 6.08723958333337  C 14.3068576388889 6.36762152777777  14.1666666666666 6.69965277777777  14.1666666666666 7.08333333333337  L 14.1666666666666 14.1666666666666  L 7.08333333333337 14.1666666666666  C 6.69965277777777 14.1666666666666  6.36762152777777 14.3068576388889  6.08723958333337 14.5872395833334  C 5.80685763888886 14.8676215277778  5.66666666666663 15.1996527777778  5.66666666666663 15.5833333333334  L 5.66666666666663 18.4166666666666  C 5.66666666666663 18.8003472222222  5.80685763888886 19.1323784722222  6.08723958333337 19.4127604166666  C 6.36762152777777 19.6931423611111  6.69965277777777 19.8333333333334  7.08333333333337 19.8333333333334  L 14.1666666666666 19.8333333333334  L 14.1666666666666 26.9166666666666  C 14.1666666666666 27.3003472222222  14.3068576388889 27.6323784722222  14.5872395833334 27.9127604166666  C 14.8676215277778 28.1931423611111  15.1996527777778 28.3333333333334  15.5833333333334 28.3333333333334  L 18.4166666666666 28.3333333333334  C 18.8003472222222 28.3333333333334  19.1323784722222 28.1931423611111  19.4127604166666 27.9127604166666  C 19.6931423611111 27.6323784722222  19.8333333333334 27.3003472222222  19.8333333333334 26.9166666666666  L 19.8333333333334 19.8333333333334  L 26.9166666666666 19.8333333333334  C 27.3003472222222 19.8333333333334  27.6323784722222 19.6931423611111  27.9127604166666 19.4127604166666  Z M 32.1295572916666 1.87044270833337  C 33.3765190972222 3.11740451388886  34 4.61892361111109  34 6.375  L 34 27.625  C 34 29.3810763888889  33.3765190972222 30.8825954861111  32.1295572916666 32.1295572916666  C 30.8825954861111 33.3765190972222  29.3810763888889 34  27.625 34  L 6.375 34  C 4.61892361111114 34  3.11740451388886 33.3765190972222  1.87044270833337 32.1295572916666  C 0.623480902777771 30.8825954861111  0 29.3810763888889  0 27.625  L 0 6.375  C 0 4.61892361111109  0.623480902777771 3.11740451388886  1.87044270833337 1.87044270833337  C 3.11740451388886 0.623480902777771  4.61892361111114 0  6.375 0  L 27.625 0  C 29.3810763888889 0  30.8825954861111 0.623480902777771  32.1295572916666 1.87044270833337  Z " fill-rule="nonzero" fill="#666666" stroke="none" transform="matrix(1 0 0 1 548 328 )" />
  </g>
</svg>