<?xml version="1.0" encoding="utf-8"?>
<svg version="1.1" xmlns:xlink="http://www.w3.org/1999/xlink" width="22px" height="34px" xmlns="http://www.w3.org/2000/svg">
  <g transform="matrix(1 0 0 1 -340 -461 )">
    <path d="M 21.4557291666667 0.53125  C 21.8185763888889 0.885416666666629  22 1.30482456140351  22 1.78947368421052  L 22 32.2105263157895  C 22 32.6951754385965  21.8185763888889 33.1145833333333  21.4557291666667 33.46875  C 21.0928819444445 33.8229166666667  20.6631944444445 34  20.1666666666667 34  C 19.6701388888889 34  19.2404513888889 33.8229166666667  18.8776041666667 33.46875  L 9.33854166666669 24.1578947368421  L 1.83333333333331 24.1578947368421  C 1.33680555555554 24.1578947368421  0.907118055555543 23.9808114035088  0.544270833333314 23.6266447368421  C 0.181423611111086 23.2724780701755  0 22.8530701754386  0 22.3684210526316  L 0 11.6315789473684  C 0 11.1469298245614  0.181423611111086 10.7275219298245  0.544270833333314 10.3733552631579  C 0.907118055555543 10.0191885964912  1.33680555555554 9.84210526315792  1.83333333333331 9.84210526315792  L 9.33854166666669 9.84210526315792  L 18.8776041666667 0.53125  C 19.2404513888889 0.177083333333371  19.6701388888889 0  20.1666666666667 0  C 20.6631944444445 0  21.0928819444445 0.177083333333371  21.4557291666667 0.53125  Z " fill-rule="nonzero" fill="#666666" stroke="none" transform="matrix(1 0 0 1 340 461 )" />
  </g>
</svg>