<?xml version="1.0" encoding="utf-8"?>
<svg version="1.1" xmlns:xlink="http://www.w3.org/1999/xlink" width="34px" height="33px" xmlns="http://www.w3.org/2000/svg">
  <g transform="matrix(1 0 0 1 -340 -817 )">
    <path d="M 24.703125 28.9659735349717  L 23.2319711538461 20.2117202268431  L 29.484375 14.0359168241966  L 20.8617788461539 12.7466918714555  L 17 4.80340264650283  L 13.1382211538461 12.7466918714555  L 4.515625 14.0359168241966  L 10.7680288461539 20.2117202268431  L 9.27644230769232 28.9659735349717  L 17 24.82797731569  L 24.703125 28.9659735349717  Z M 32.8557692307692 11.8317580340264  C 33.6185897435897 11.9565217391304  34 12.2753623188406  34 12.7882797731569  C 34 13.0932577189666  33.8229166666666 13.4259609325773  33.46875 13.7863894139887  L 26.0516826923077 21.1474480151228  L 27.8088942307692 31.5444234404537  C 27.8225160256411 31.6414618777567  27.8293269230769 31.7800882167612  27.8293269230769 31.9603024574669  C 27.8293269230769 32.6534341524889  27.5500801282051 33  26.9915865384615 33  C 26.7327724358975 33  26.4603365384615 32.9168241965974  26.1742788461539 32.750472589792  L 17 27.8431001890359  L 7.82572115384613 32.750472589792  C 7.52604166666669 32.9168241965974  7.25360576923077 33  7.00841346153845 33  C 6.72235576923077 33  6.5078125 32.8994959042218  6.36478365384613 32.6984877126654  C 6.22175480769232 32.4974795211091  6.15024038461536 32.2514177693762  6.15024038461536 31.9603024574669  C 6.15024038461536 31.8771266540642  6.16386217948718 31.7385003150598  6.19110576923077 31.5444234404537  L 7.94831730769232 21.1474480151228  L 0.510817307692321 13.7863894139887  C 0.170272435897402 13.4120982986768  0 13.0793950850662  0 12.7882797731569  C 0 12.2753623188406  0.381410256410277 11.9565217391304  1.14423076923077 11.8317580340264  L 11.4014423076923 10.3137996219282  L 15.9987980769231 0.852551984877095  C 16.2576121794872 0.284183994959108  16.5913461538461 0  17 0  C 17.4086538461539 0  17.7423878205128 0.284183994959108  18.0012019230769 0.852551984877095  L 22.5985576923077 10.3137996219282  L 32.8557692307692 11.8317580340264  Z " fill-rule="nonzero" fill="#666666" stroke="none" transform="matrix(1 0 0 1 340 817 )" />
  </g>
</svg>