<?xml version="1.0" encoding="utf-8"?>
<svg version="1.1" xmlns:xlink="http://www.w3.org/1999/xlink" width="34px" height="28px" xmlns="http://www.w3.org/2000/svg">
  <g transform="matrix(1 0 0 1 -478 -531 )">
    <path d="M 9.2138671875 7.79736211031172  C 9.49055989583337 7.52318145483616  9.62890625 7.15667466027173  9.62890625 6.69784172661866  C 9.62890625 6.23900879296571  9.49055989583337 5.86970423661069  9.2138671875 5.58992805755395  C 8.93717447916663 5.31015187849721  8.57194010416663 5.17026378896878  8.1181640625 5.17026378896878  C 7.64225260416663 5.17026378896878  7.2216796875 5.3129496402878  6.8564453125 5.5983213429256  C 6.4912109375 5.88369304556352  6.30859375 6.25019984012783  6.30859375 6.69784172661866  C 6.30859375 7.13429256594725  6.4912109375 7.4952038369305  6.8564453125 7.7805755395683  C 7.2216796875 8.06594724220622  7.64225260416663 8.20863309352512  8.1181640625 8.20863309352512  C 8.57194010416663 8.20863309352512  8.93717447916663 8.07154276578729  9.2138671875 7.79736211031172  Z M 21.54052734375 16.0647482014388  C 21.82275390625 15.8185451638689  21.9638671875 15.5331734612309  21.9638671875 15.2086330935251  C 21.9638671875 14.8952837729815  21.82275390625 14.6155075939249  21.54052734375 14.3693045563549  C 21.25830078125 14.1231015187849  20.8958333333334 14  20.453125 14  C 20.154296875 14  19.88037109375 14.1258992805755  19.63134765625 14.3776978417267  C 19.38232421875 14.6294964028778  19.2578125 14.9064748201439  19.2578125 15.2086330935251  C 19.2578125 15.5219824140688  19.38232421875 15.804556354916  19.63134765625 16.0563549160671  C 19.88037109375 16.3081534772182  20.154296875 16.4340527577938  20.453125 16.4340527577938  C 20.8958333333334 16.4340527577938  21.25830078125 16.3109512390088  21.54052734375 16.0647482014388  Z M 17.63916015625 7.79736211031172  C 17.9103190104166 7.52318145483616  18.0458984375 7.15667466027173  18.0458984375 6.69784172661866  C 18.0458984375 6.23900879296571  17.9103190104166 5.86970423661069  17.63916015625 5.58992805755395  C 17.3680013020834 5.31015187849721  17.0055338541666 5.17026378896878  16.5517578125 5.17026378896878  C 16.0758463541666 5.17026378896878  15.6552734375 5.3129496402878  15.2900390625 5.5983213429256  C 14.9248046875 5.88369304556352  14.7421875 6.25019984012783  14.7421875 6.69784172661866  C 14.7421875 7.13429256594725  14.9248046875 7.4952038369305  15.2900390625 7.7805755395683  C 15.6552734375 8.06594724220622  16.0758463541666 8.20863309352512  16.5517578125 8.20863309352512  C 17.0055338541666 8.20863309352512  17.3680013020834 8.07154276578729  17.63916015625 7.79736211031172  Z M 28.15625 16.0647482014388  C 28.4440104166666 15.8185451638689  28.587890625 15.5331734612309  28.587890625 15.2086330935251  C 28.587890625 14.8952837729815  28.4440104166666 14.6155075939249  28.15625 14.3693045563549  C 27.8684895833334 14.1231015187849  27.5087890625 14  27.0771484375 14  C 26.7783203125 14  26.50439453125 14.1258992805755  26.25537109375 14.3776978417267  C 26.00634765625 14.6294964028778  25.8818359375 14.9064748201439  25.8818359375 15.2086330935251  C 25.8818359375 15.5219824140688  26.00634765625 15.804556354916  26.25537109375 16.0563549160671  C 26.50439453125 16.3081534772182  26.7783203125 16.4340527577938  27.0771484375 16.4340527577938  C 27.5087890625 16.4340527577938  27.8684895833334 16.3109512390088  28.15625 16.0647482014388  Z M 21.90576171875 4.17146282973624  C 23.0734049479166 5.47521982414071  23.8287760416666 6.93285371702632  24.171875 8.5443645083933  C 23.8287760416666 8.4996003197441  23.44140625 8.47721822541962  23.009765625 8.47721822541962  C 21.1393229166666 8.47721822541962  19.4182942708334 8.90807354116703  17.8466796875 9.76978417266184  C 16.2750651041666 10.6314948041567  15.0382486979166 11.7981614708234  14.13623046875 13.2697841726618  C 13.2342122395834 14.7414068745004  12.783203125 16.3501199040768  12.783203125 18.0959232613909  C 12.783203125 18.968824940048  12.9104817708334 19.8193445243804  13.1650390625 20.6474820143885  C 12.7776692708334 20.6810551558752  12.4013671875 20.6978417266187  12.0361328125 20.6978417266187  C 11.7483723958334 20.6978417266187  11.4716796875 20.689448441247  11.2060546875 20.6726618705036  C 10.9404296875 20.6558752997602  10.6360677083334 20.6195043964829  10.29296875 20.5635491606715  C 9.94986979166663 20.5075939248601  9.70361328125 20.4684252597922  9.55419921875 20.4460431654677  C 9.40478515625 20.423661071143  9.10319010416663 20.3649080735412  8.6494140625 20.2697841726618  C 8.19563802083337 20.1746602717826  7.9189453125 20.1159072741807  7.8193359375 20.0935251798561  L 3.619140625 22.2254196642685  L 4.814453125 18.5659472422062  C 1.60481770833337 16.2941646682655  0 13.5523581135092  0 10.3405275779377  C 0 8.44924060751396  0.53955078125 6.70903277378102  1.61865234375 5.11990407673852  C 2.69775390625 3.53077537969625  4.15869140625 2.28017585931252  6.00146484375 1.36810551558756  C 7.84423828125 0.456035171862595  9.85579427083337 0  12.0361328125 0  C 13.9840494791666 0  15.8240559895834 0.369304556354905  17.55615234375 1.10791366906483  C 19.2882486979166 1.84652278177464  20.7381184895834 2.86770583533166  21.90576171875 4.17146282973624  Z M 32.58056640625 13.5383693045563  C 33.52685546875 14.8980815347721  34 16.3725019984013  34 17.9616306954437  C 34 19.2709832134292  33.6209309895834 20.5215827338129  32.86279296875 21.7134292565947  C 32.1046549479166 22.9052757793764  31.078125 23.9880095923261  29.783203125 24.9616306954437  L 30.6962890625 28  L 27.392578125 26.1702637889688  C 25.732421875 26.5843325339729  24.5260416666666 26.7913669064749  23.7734375 26.7913669064749  C 21.9029947916666 26.7913669064749  20.1819661458334 26.3968824940048  18.6103515625 25.6079136690648  C 17.0387369791666 24.8189448441248  15.8019205729166 23.7474020783374  14.89990234375 22.3932853717026  C 13.9978841145834 21.0391686650679  13.546875 19.5619504396483  13.546875 17.9616306954437  C 13.546875 16.361310951239  13.9978841145834 14.8840927258194  14.89990234375 13.5299760191847  C 15.8019205729166 12.17585931255  17.0387369791666 11.1043165467626  18.6103515625 10.3153477218225  C 20.1819661458334 9.52637889688242  21.9029947916666 9.13189448441244  23.7734375 9.13189448441244  C 25.5553385416666 9.13189448441244  27.2320963541666 9.52637889688242  28.8037109375 10.3153477218225  C 30.3753255208334 11.1043165467626  31.63427734375 12.1786570743405  32.58056640625 13.5383693045563  Z " fill-rule="nonzero" fill="#666666" stroke="none" transform="matrix(1 0 0 1 478 531 )" />
  </g>
</svg>