<?xml version="1.0" encoding="utf-8"?>
<svg version="1.1" xmlns:xlink="http://www.w3.org/1999/xlink" width="34px" height="34px" xmlns="http://www.w3.org/2000/svg">
  <g transform="matrix(1 0 0 1 -752 -80 )">
    <path d="M 25.30078125 16.4908854166667  C 25.43359375 16.6236979166667  25.5 16.7934027777778  25.5 17  C 25.5 17.2065972222222  25.43359375 17.3763020833333  25.30078125 17.5091145833333  L 18.2174479166667 24.5924479166667  C 18.0846354166667 24.7252604166667  17.9149305555555 24.7916666666667  17.7083333333333 24.7916666666667  C 17.5164930555555 24.7916666666667  17.3504774305555 24.7215711805555  17.2102864583333 24.5813802083333  C 17.0700954861111 24.4411892361111  17 24.2751736111111  17 24.0833333333333  L 17 19.8333333333333  L 9.20833333333326 19.8333333333333  C 9.01649305555554 19.8333333333333  8.85047743055554 19.7632378472222  8.71028645833326 19.623046875  C 8.57009548611109 19.4828559027778  8.5 19.3168402777778  8.5 19.125  L 8.5 14.875  C 8.5 14.6831597222222  8.57009548611109 14.5171440972222  8.71028645833326 14.376953125  C 8.85047743055554 14.2367621527778  9.01649305555554 14.1666666666667  9.20833333333326 14.1666666666667  L 17 14.1666666666667  L 17 9.91666666666666  C 17 9.71006944444446  17.06640625 9.54036458333334  17.19921875 9.40755208333334  C 17.33203125 9.27473958333334  17.5017361111111 9.20833333333334  17.7083333333333 9.20833333333334  C 17.8854166666667 9.20833333333334  18.0625 9.28211805555554  18.2395833333333 9.4296875  L 25.30078125 16.4908854166667  Z M 27.42578125 23.04296875  C 28.5030381944445 21.1983506944444  29.0416666666667 19.1840277777778  29.0416666666667 17  C 29.0416666666667 14.8159722222222  28.5030381944445 12.8016493055555  27.42578125 10.95703125  C 26.3485243055555 9.11241319444446  24.8875868055555 7.65147569444446  23.04296875 6.57421875  C 21.1983506944445 5.49696180555554  19.1840277777777 4.95833333333334  17 4.95833333333334  C 14.8159722222223 4.95833333333334  12.8016493055555 5.49696180555554  10.95703125 6.57421875  C 9.11241319444446 7.65147569444446  7.65147569444446 9.11241319444446  6.57421875 10.95703125  C 5.49696180555554 12.8016493055555  4.95833333333326 14.8159722222222  4.95833333333326 17  C 4.95833333333326 19.1840277777778  5.49696180555554 21.1983506944444  6.57421875 23.04296875  C 7.65147569444446 24.8875868055555  9.11241319444446 26.3485243055555  10.95703125 27.42578125  C 12.8016493055555 28.5030381944445  14.8159722222223 29.0416666666667  17 29.0416666666667  C 19.1840277777777 29.0416666666667  21.1983506944445 28.5030381944445  23.04296875 27.42578125  C 24.8875868055555 26.3485243055555  26.3485243055555 24.8875868055555  27.42578125 23.04296875  Z M 31.7200520833333 8.466796875  C 33.2400173611111 11.0713975694445  34 13.9157986111111  34 17  C 34 20.0842013888889  33.2400173611111 22.9286024305555  31.7200520833333 25.533203125  C 30.2000868055555 28.1378038194445  28.1378038194445 30.2000868055555  25.533203125 31.7200520833333  C 22.9286024305555 33.2400173611111  20.0842013888889 34  17 34  C 13.9157986111111 34  11.0713975694445 33.2400173611111  8.466796875 31.7200520833333  C 5.86219618055554 30.2000868055555  3.79991319444446 28.1378038194445  2.27994791666674 25.533203125  C 0.759982638888914 22.9286024305555  0 20.0842013888889  0 17  C 0 13.9157986111111  0.759982638888914 11.0713975694445  2.27994791666674 8.466796875  C 3.79991319444446 5.86219618055554  5.86219618055554 3.79991319444446  8.466796875 2.27994791666666  C 11.0713975694445 0.759982638888886  13.9157986111111 0  17 0  C 20.0842013888889 0  22.9286024305555 0.759982638888886  25.533203125 2.27994791666666  C 28.1378038194445 3.79991319444446  30.2000868055555 5.86219618055554  31.7200520833333 8.466796875  Z " fill-rule="nonzero" fill="#666666" stroke="none" transform="matrix(1 0 0 1 752 80 )" />
  </g>
</svg>