<?xml version="1.0" encoding="utf-8"?>
<svg version="1.1" xmlns:xlink="http://www.w3.org/1999/xlink" width="34px" height="34px" xmlns="http://www.w3.org/2000/svg">
  <g transform="matrix(1 0 0 1 -548 -261 )">
    <path d="M 14.1666666666666 26.3411458333334  C 14.5503472222222 26.3411458333334  14.8823784722222 26.2009548611111  15.1627604166666 25.9205729166666  L 28.75390625 12.3294270833334  C 29.0342881944445 12.0490451388889  29.1744791666666 11.7170138888889  29.1744791666666 11.3333333333334  C 29.1744791666666 10.9496527777778  29.0342881944445 10.6176215277778  28.75390625 10.3372395833334  L 26.49609375 8.07942708333337  C 26.2157118055555 7.79904513888886  25.8836805555555 7.65885416666663  25.5 7.65885416666663  C 25.1163194444445 7.65885416666663  24.7842881944445 7.79904513888886  24.50390625 8.07942708333337  L 14.1666666666666 18.4166666666666  L 9.49609375 13.74609375  C 9.21571180555554 13.4657118055555  8.88368055555554 13.3255208333334  8.5 13.3255208333334  C 8.11631944444446 13.3255208333334  7.78428819444446 13.4657118055555  7.50390625 13.74609375  L 5.24609375 16.00390625  C 4.96571180555554 16.2842881944445  4.82552083333337 16.6163194444445  4.82552083333337 17  C 4.82552083333337 17.3836805555555  4.96571180555554 17.7157118055555  5.24609375 17.99609375  L 13.1705729166666 25.9205729166666  C 13.4509548611111 26.2009548611111  13.7829861111111 26.3411458333334  14.1666666666666 26.3411458333334  Z M 32.1295572916666 1.87044270833337  C 33.3765190972222 3.11740451388886  34 4.61892361111109  34 6.375  L 34 27.625  C 34 29.3810763888889  33.3765190972222 30.8825954861111  32.1295572916666 32.1295572916666  C 30.8825954861111 33.3765190972222  29.3810763888889 34  27.625 34  L 6.375 34  C 4.61892361111114 34  3.11740451388886 33.3765190972222  1.87044270833337 32.1295572916666  C 0.623480902777771 30.8825954861111  0 29.3810763888889  0 27.625  L 0 6.375  C 0 4.61892361111109  0.623480902777771 3.11740451388886  1.87044270833337 1.87044270833337  C 3.11740451388886 0.623480902777771  4.61892361111114 0  6.375 0  L 27.625 0  C 29.3810763888889 0  30.8825954861111 0.623480902777771  32.1295572916666 1.87044270833337  Z " fill-rule="nonzero" fill="#666666" stroke="none" transform="matrix(1 0 0 1 548 261 )" />
  </g>
</svg>