<?xml version="1.0" encoding="utf-8"?>
<svg version="1.1" xmlns:xlink="http://www.w3.org/1999/xlink" width="34px" height="34px" xmlns="http://www.w3.org/2000/svg">
  <g transform="matrix(1 0 0 1 -478 -261 )">
    <path d="M 28.0234375 14.41015625  C 28.2890625 14.14453125  28.421875 13.8125  28.421875 13.4140625  C 28.421875 13.0008680555555  28.2890625 12.6614583333334  28.0234375 12.3958333333334  L 26.0091145833334 10.4036458333334  C 25.7287326388889 10.1232638888889  25.3967013888889 9.98307291666663  25.0130208333334 9.98307291666663  C 24.6293402777778 9.98307291666663  24.2973090277778 10.1232638888889  24.0169270833334 10.4036458333334  L 14.9856770833334 19.4127604166666  L 9.98307291666663 14.41015625  C 9.70269097222223 14.1297743055555  9.37065972222223 13.9895833333334  8.98697916666663 13.9895833333334  C 8.60329861111114 13.9895833333334  8.27126736111114 14.1297743055555  7.99088541666663 14.41015625  L 5.9765625 16.40234375  C 5.7109375 16.66796875  5.578125 17.0073784722222  5.578125 17.4205729166666  C 5.578125 17.8190104166666  5.7109375 18.1510416666666  5.9765625 18.4166666666666  L 13.9895833333334 26.4296875  C 14.2699652777778 26.7100694444445  14.6019965277778 26.8502604166666  14.9856770833334 26.8502604166666  C 15.3841145833334 26.8502604166666  15.7235243055555 26.7100694444445  16.00390625 26.4296875  L 28.0234375 14.41015625  Z M 31.7200520833334 8.466796875  C 33.2400173611111 11.0713975694445  34 13.9157986111111  34 17  C 34 20.0842013888889  33.2400173611111 22.9286024305555  31.7200520833334 25.533203125  C 30.2000868055555 28.1378038194445  28.1378038194445 30.2000868055555  25.533203125 31.7200520833334  C 22.9286024305555 33.2400173611111  20.0842013888889 34  17 34  C 13.9157986111111 34  11.0713975694445 33.2400173611111  8.466796875 31.7200520833334  C 5.86219618055554 30.2000868055555  3.79991319444446 28.1378038194445  2.27994791666663 25.533203125  C 0.759982638888857 22.9286024305555  0 20.0842013888889  0 17  C 0 13.9157986111111  0.759982638888857 11.0713975694445  2.27994791666663 8.466796875  C 3.79991319444446 5.86219618055554  5.86219618055554 3.79991319444446  8.466796875 2.27994791666663  C 11.0713975694445 0.759982638888857  13.9157986111111 0  17 0  C 20.0842013888889 0  22.9286024305555 0.759982638888857  25.533203125 2.27994791666663  C 28.1378038194445 3.79991319444446  30.2000868055555 5.86219618055554  31.7200520833334 8.466796875  Z " fill-rule="nonzero" fill="#666666" stroke="none" transform="matrix(1 0 0 1 478 261 )" />
  </g>
</svg>