<?xml version="1.0" encoding="utf-8"?>
<svg version="1.1" xmlns:xlink="http://www.w3.org/1999/xlink" width="24px" height="34px" xmlns="http://www.w3.org/2000/svg">
  <g transform="matrix(1 0 0 1 -832 -393 )">
    <path d="M 23.6041666666666 13.4651442307692  C 23.8680555555555 13.7239583333334  24 14.0304487179487  24 14.3846153846154  L 24 17  C 24 20.0104166666666  22.9756944444445 22.6292067307692  20.9270833333334 24.8563701923077  C 18.8784722222222 27.0835336538462  16.3472222222222 28.3605769230769  13.3333333333334 28.6875  L 13.3333333333334 31.3846153846154  L 18.6666666666666 31.3846153846154  C 19.0277777777778 31.3846153846154  19.3402777777778 31.5140224358975  19.6041666666666 31.7728365384615  C 19.8680555555555 32.0316506410256  20 32.338141025641  20 32.6923076923077  C 20 33.0464743589744  19.8680555555555 33.3529647435897  19.6041666666666 33.6117788461538  C 19.3402777777778 33.8705929487179  19.0277777777778 34  18.6666666666666 34  L 5.33333333333337 34  C 4.97222222222217 34  4.65972222222217 33.8705929487179  4.39583333333337 33.6117788461538  C 4.13194444444446 33.3529647435897  4 33.0464743589744  4 32.6923076923077  C 4 32.338141025641  4.13194444444446 32.0316506410256  4.39583333333337 31.7728365384615  C 4.65972222222217 31.5140224358975  4.97222222222217 31.3846153846154  5.33333333333337 31.3846153846154  L 10.6666666666666 31.3846153846154  L 10.6666666666666 28.6875  C 7.65277777777783 28.3605769230769  5.12152777777783 27.0835336538462  3.07291666666663 24.8563701923077  C 1.02430555555554 22.6292067307692  0 20.0104166666666  0 17  L 0 14.3846153846154  C 0 14.0304487179487  0.131944444444457 13.7239583333334  0.395833333333371 13.4651442307692  C 0.659722222222172 13.2063301282051  0.972222222222172 13.0769230769231  1.33333333333337 13.0769230769231  C 1.69444444444446 13.0769230769231  2.00694444444446 13.2063301282051  2.27083333333337 13.4651442307692  C 2.53472222222217 13.7239583333334  2.66666666666663 14.0304487179487  2.66666666666663 14.3846153846154  L 2.66666666666663 17  C 2.66666666666663 19.520032051282  3.57986111111109 21.6756810897436  5.40625 23.4669471153846  C 7.23263888888891 25.2582131410256  9.43055555555554 26.1538461538462  12 26.1538461538462  C 14.5694444444445 26.1538461538462  16.7673611111111 25.2582131410256  18.59375 23.4669471153846  C 20.4201388888889 21.6756810897436  21.3333333333334 19.520032051282  21.3333333333334 17  L 21.3333333333334 14.3846153846154  C 21.3333333333334 14.0304487179487  21.4652777777778 13.7239583333334  21.7291666666666 13.4651442307692  C 21.9930555555555 13.2063301282051  22.3055555555555 13.0769230769231  22.6666666666666 13.0769230769231  C 23.0277777777778 13.0769230769231  23.3402777777778 13.2063301282051  23.6041666666666 13.4651442307692  Z M 16.7083333333334 1.92067307692309  C 18.0138888888889 3.20112179487182  18.6666666666666 4.74038461538458  18.6666666666666 6.53846153846155  L 18.6666666666666 17  C 18.6666666666666 18.7980769230769  18.0138888888889 20.3373397435897  16.7083333333334 21.6177884615385  C 15.4027777777778 22.8982371794872  13.8333333333334 23.5384615384615  12 23.5384615384615  C 10.1666666666666 23.5384615384615  8.59722222222217 22.8982371794872  7.29166666666663 21.6177884615385  C 5.98611111111109 20.3373397435897  5.33333333333337 18.7980769230769  5.33333333333337 17  L 5.33333333333337 6.53846153846155  C 5.33333333333337 4.74038461538458  5.98611111111109 3.20112179487182  7.29166666666663 1.92067307692309  C 8.59722222222217 0.640224358974365  10.1666666666666 0  12 0  C 13.8333333333334 0  15.4027777777778 0.640224358974365  16.7083333333334 1.92067307692309  Z " fill-rule="nonzero" fill="#666666" stroke="none" transform="matrix(1 0 0 1 832 393 )" />
  </g>
</svg>