<?xml version="1.0" encoding="utf-8"?>
<svg version="1.1" xmlns:xlink="http://www.w3.org/1999/xlink" width="34px" height="34px" xmlns="http://www.w3.org/2000/svg">
  <g transform="matrix(1 0 0 1 -478 -328 )">
    <path d="M 26.49609375 19.4127604166666  C 26.7764756944445 19.1323784722222  26.9166666666666 18.8003472222222  26.9166666666666 18.4166666666666  L 26.9166666666666 15.5833333333334  C 26.9166666666666 15.1996527777778  26.7764756944445 14.8676215277778  26.49609375 14.5872395833334  C 26.2157118055555 14.3068576388889  25.8836805555555 14.1666666666666  25.5 14.1666666666666  L 19.8333333333334 14.1666666666666  L 19.8333333333334 8.5  C 19.8333333333334 8.11631944444446  19.6931423611111 7.78428819444446  19.4127604166666 7.50390625  C 19.1323784722222 7.22352430555554  18.8003472222222 7.08333333333337  18.4166666666666 7.08333333333337  L 15.5833333333334 7.08333333333337  C 15.1996527777778 7.08333333333337  14.8676215277778 7.22352430555554  14.5872395833334 7.50390625  C 14.3068576388889 7.78428819444446  14.1666666666666 8.11631944444446  14.1666666666666 8.5  L 14.1666666666666 14.1666666666666  L 8.5 14.1666666666666  C 8.11631944444446 14.1666666666666  7.78428819444446 14.3068576388889  7.50390625 14.5872395833334  C 7.22352430555554 14.8676215277778  7.08333333333337 15.1996527777778  7.08333333333337 15.5833333333334  L 7.08333333333337 18.4166666666666  C 7.08333333333337 18.8003472222222  7.22352430555554 19.1323784722222  7.50390625 19.4127604166666  C 7.78428819444446 19.6931423611111  8.11631944444446 19.8333333333334  8.5 19.8333333333334  L 14.1666666666666 19.8333333333334  L 14.1666666666666 25.5  C 14.1666666666666 25.8836805555555  14.3068576388889 26.2157118055555  14.5872395833334 26.49609375  C 14.8676215277778 26.7764756944445  15.1996527777778 26.9166666666666  15.5833333333334 26.9166666666666  L 18.4166666666666 26.9166666666666  C 18.8003472222222 26.9166666666666  19.1323784722222 26.7764756944445  19.4127604166666 26.49609375  C 19.6931423611111 26.2157118055555  19.8333333333334 25.8836805555555  19.8333333333334 25.5  L 19.8333333333334 19.8333333333334  L 25.5 19.8333333333334  C 25.8836805555555 19.8333333333334  26.2157118055555 19.6931423611111  26.49609375 19.4127604166666  Z M 31.7200520833334 8.466796875  C 33.2400173611111 11.0713975694445  34 13.9157986111111  34 17  C 34 20.0842013888889  33.2400173611111 22.9286024305555  31.7200520833334 25.533203125  C 30.2000868055555 28.1378038194445  28.1378038194445 30.2000868055555  25.533203125 31.7200520833334  C 22.9286024305555 33.2400173611111  20.0842013888889 34  17 34  C 13.9157986111111 34  11.0713975694445 33.2400173611111  8.466796875 31.7200520833334  C 5.86219618055554 30.2000868055555  3.79991319444446 28.1378038194445  2.27994791666663 25.533203125  C 0.759982638888857 22.9286024305555  0 20.0842013888889  0 17  C 0 13.9157986111111  0.759982638888857 11.0713975694445  2.27994791666663 8.466796875  C 3.79991319444446 5.86219618055554  5.86219618055554 3.79991319444446  8.466796875 2.27994791666663  C 11.0713975694445 0.759982638888857  13.9157986111111 0  17 0  C 20.0842013888889 0  22.9286024305555 0.759982638888857  25.533203125 2.27994791666663  C 28.1378038194445 3.79991319444446  30.2000868055555 5.86219618055554  31.7200520833334 8.466796875  Z " fill-rule="nonzero" fill="#666666" stroke="none" transform="matrix(1 0 0 1 478 328 )" />
  </g>
</svg>