<?xml version="1.0" encoding="utf-8"?>
<svg version="1.1" xmlns:xlink="http://www.w3.org/1999/xlink" width="34px" height="27px" xmlns="http://www.w3.org/2000/svg">
  <g transform="matrix(1 0 0 1 -821 -767 )">
    <path d="M 9.18303571428578 20.1732954545455  C 9.53720238095229 20.53125  9.71428571428578 20.965909090909  9.71428571428578 21.4772727272727  L 9.71428571428578 25.159090909091  C 9.71428571428578 25.6704545454545  9.53720238095229 26.1051136363637  9.18303571428578 26.4630681818182  C 8.82886904761904 26.8210227272727  8.39880952380952 27  7.89285714285711 27  L 1.82142857142867 27  C 1.31547619047615 27  0.885416666666742 26.8210227272727  0.53125 26.4630681818182  C 0.177083333333258 26.1051136363637  0 25.6704545454545  0 25.159090909091  L 0 21.4772727272727  C 0 20.965909090909  0.177083333333258 20.53125  0.53125 20.1732954545455  C 0.885416666666742 19.815340909091  1.31547619047615 19.6363636363637  1.82142857142867 19.6363636363637  L 7.89285714285711 19.6363636363637  C 8.39880952380952 19.6363636363637  8.82886904761904 19.815340909091  9.18303571428578 20.1732954545455  Z M 9.18303571428578 10.3551136363637  C 9.53720238095229 10.7130681818182  9.71428571428578 11.1477272727273  9.71428571428578 11.659090909091  L 9.71428571428578 15.340909090909  C 9.71428571428578 15.8522727272727  9.53720238095229 16.2869318181818  9.18303571428578 16.6448863636363  C 8.82886904761904 17.002840909091  8.39880952380952 17.1818181818182  7.89285714285711 17.1818181818182  L 1.82142857142867 17.1818181818182  C 1.31547619047615 17.1818181818182  0.885416666666742 17.002840909091  0.53125 16.6448863636363  C 0.177083333333258 16.2869318181818  0 15.8522727272727  0 15.340909090909  L 0 11.659090909091  C 0 11.1477272727273  0.177083333333258 10.7130681818182  0.53125 10.3551136363637  C 0.885416666666742 9.99715909090901  1.31547619047615 9.81818181818176  1.82142857142867 9.81818181818176  L 7.89285714285711 9.81818181818176  C 8.39880952380952 9.81818181818176  8.82886904761904 9.99715909090901  9.18303571428578 10.3551136363637  Z M 33.46875 20.1732954545455  C 33.8229166666667 20.53125  34 20.965909090909  34 21.4772727272727  L 34 25.159090909091  C 34 25.6704545454545  33.8229166666667 26.1051136363637  33.46875 26.4630681818182  C 33.1145833333333 26.8210227272727  32.6845238095239 27  32.1785714285713 27  L 13.9642857142858 27  C 13.4583333333333 27  13.0282738095239 26.8210227272727  12.6741071428571 26.4630681818182  C 12.3199404761905 26.1051136363637  12.1428571428571 25.6704545454545  12.1428571428571 25.159090909091  L 12.1428571428571 21.4772727272727  C 12.1428571428571 20.965909090909  12.3199404761905 20.53125  12.6741071428571 20.1732954545455  C 13.0282738095239 19.815340909091  13.4583333333333 19.6363636363637  13.9642857142858 19.6363636363637  L 32.1785714285713 19.6363636363637  C 32.6845238095239 19.6363636363637  33.1145833333333 19.815340909091  33.46875 20.1732954545455  Z M 9.18303571428578 0.536931818181756  C 9.53720238095229 0.89488636363626  9.71428571428578 1.3295454545455  9.71428571428578 1.84090909090901  L 9.71428571428578 5.52272727272725  C 9.71428571428578 6.03409090909099  9.53720238095229 6.46875  9.18303571428578 6.8267045454545  C 8.82886904761904 7.18465909090901  8.39880952380952 7.36363636363626  7.89285714285711 7.36363636363626  L 1.82142857142867 7.36363636363626  C 1.31547619047615 7.36363636363626  0.885416666666742 7.18465909090901  0.53125 6.8267045454545  C 0.177083333333258 6.46875  0 6.03409090909099  0 5.52272727272725  L 0 1.84090909090901  C 0 1.3295454545455  0.177083333333258 0.89488636363626  0.53125 0.536931818181756  C 0.885416666666742 0.178977272727252  1.31547619047615 0  1.82142857142867 0  L 7.89285714285711 0  C 8.39880952380952 0  8.82886904761904 0.178977272727252  9.18303571428578 0.536931818181756  Z M 33.46875 10.3551136363637  C 33.8229166666667 10.7130681818182  34 11.1477272727273  34 11.659090909091  L 34 15.340909090909  C 34 15.8522727272727  33.8229166666667 16.2869318181818  33.46875 16.6448863636363  C 33.1145833333333 17.002840909091  32.6845238095239 17.1818181818182  32.1785714285713 17  L 13.9642857142858 17  C 13.4583333333333 17.1818181818182  13.0282738095239 17.002840909091  12.6741071428571 16.6448863636363  C 12.3199404761905 16.2869318181818  12.1428571428571 15.8522727272727  12.1428571428571 15.340909090909  L 12.1428571428571 11.659090909091  C 12.1428571428571 11.1477272727273  12.3199404761905 10.7130681818182  12.6741071428571 10.3551136363637  C 13.0282738095239 9.99715909090901  13.4583333333333 9.81818181818176  13.9642857142858 10  L 32.1785714285713 10  C 32.6845238095239 9.81818181818176  33.1145833333333 9.99715909090901  33.46875 10.3551136363637  Z M 33.46875 0.536931818181756  C 33.8229166666667 0.89488636363626  34 1.3295454545455  34 1.84090909090901  L 34 5.52272727272725  C 34 6.03409090909099  33.8229166666667 6.46875  33.46875 6.8267045454545  C 33.1145833333333 7.18465909090901  32.6845238095239 7.36363636363626  32.1785714285713 7.36363636363626  L 13.9642857142858 7.36363636363626  C 13.4583333333333 7.36363636363626  13.0282738095239 7.18465909090901  12.6741071428571 6.8267045454545  C 12.3199404761905 6.46875  12.1428571428571 6.03409090909099  12.1428571428571 5.52272727272725  L 12.1428571428571 1.84090909090901  C 12.1428571428571 1.3295454545455  12.3199404761905 0.89488636363626  12.6741071428571 0.536931818181756  C 13.0282738095239 0.178977272727252  13.4583333333333 0  13.9642857142858 0  L 32.1785714285713 0  C 32.6845238095239 0  33.1145833333333 0.178977272727252  33.46875 0.536931818181756  Z " fill-rule="nonzero" fill="#666666" stroke="none" transform="matrix(1 0 0 1 821 767 )" />
  </g>
</svg>