<?xml version="1.0" encoding="utf-8"?>
<svg version="1.1" xmlns:xlink="http://www.w3.org/1999/xlink" width="34px" height="30px" xmlns="http://www.w3.org/2000/svg">
  <g transform="matrix(1 0 0 1 -478 -709 )">
    <path d="M 31.7232142857143 6.21945724013619  C 33.2410714285714 8.1396455037052  34 10.2323252553575  34 12.4974964950931  C 34 14.7626677348288  33.2410714285714 16.855347486481  31.7232142857143 18.77553575005  C 30.2053571428571 20.695724013619  28.1436011904761 22.2123472862006  25.5379464285714 23.3254055677949  C 22.9322916666666 24.4384638493891  20.0863095238095 24.9949929901862  17 24.9949929901862  C 16.1145833333334 24.9949929901862  15.1975446428571 24.9429200881234  14.2488839285714 24.8387742839975  C 11.7444196428571 27.1169637492488  8.83519345238096 28.6921690366512  5.52120535714289 29.5643901462047  C 4.90141369047615 29.7466453034248  4.18043154761904 29.8898457840977  3.35825892857144 29.9939915882235  C 3.14322916666663 30.020028039255  2.95033482142856 29.9614460244342  2.77957589285711 29.8182455437612  C 2.60881696428567 29.6750450630882  2.49813988095241 29.4862807931103  2.44754464285711 29.2519527338274  L 2.44754464285711 29.2324253955537  C 2.40959821428567 29.1803524934908  2.40643601190476 29.1022431403966  2.43805803571433 28.9980973362707  C 2.46968005952385 28.8939515321449  2.48232886904759 28.8288604045663  2.47600446428567 28.8028239535348  C 2.46968005952385 28.7767875025035  2.49813988095241 28.7149509313037  2.56138392857144 28.6173142399358  L 2.67522321428567 28.4415681954736  C 2.67522321428567 28.4415681954736  2.71949404761904 28.3862407370318  2.80803571428567 28.2755858201481  C 2.89657738095241 28.1649309032645  2.94717261904759 28.1063488884438  2.95982142857144 28.0998397756858  C 3.04836309523807 27.9956939715601  3.24441964285711 27.7711295814139  3.54799107142856 27.4261466052474  C 3.8515625 27.0811636290806  4.06975446428567 26.833817344282  4.20256696428567 26.6841077508511  C 4.33537946428567 26.5343981574202  4.53143601190476 26.2772882034849  4.79073660714289 25.9127778890446  C 5.05003720238096 25.5482675746044  5.25558035714289 25.2163028239535  5.40736607142856 24.9168836370919  C 5.55915178571433 24.6174644502303  5.72991071428567 24.2334267975165  5.91964285714289 23.7647706789504  C 6.109375 23.2961145603845  6.27380952380952 22.801421990787  6.41294642857144 22.2806929701582  C 4.42708333333337 21.1220708992589  2.86179315476193 19.6900660925296  1.71707589285711 17.9846785499699  C 0.572358630952408 16.2792910074103  0 14.4502303224514  0 12.4974964950931  C 0 10.8051271780492  0.449032738095241 9.18761265772082  1.34709821428567 7.64495293410766  C 2.24516369047615 6.10229321049474  3.453125 4.77117965151206  4.97098214285711 3.65161225715997  C 6.48883928571433 2.53204486280788  8.29761904761904 1.6435509713599  10.3973214285714 0.986130582815917  C 12.4970238095239 0.328710194271935  14.6979166666666 0  17 0  C 20.0863095238095 0  22.9322916666666 0.556529140797124  25.5379464285714 1.66958742239137  C 28.1436011904761 2.78264570398551  30.2053571428571 4.29926897656719  31.7232142857143 6.21945724013619  Z " fill-rule="nonzero" fill="#666666" stroke="none" transform="matrix(1 0 0 1 478 709 )" />
  </g>
</svg>