<?xml version="1.0" encoding="utf-8"?>
<svg version="1.1" xmlns:xlink="http://www.w3.org/1999/xlink" width="34px" height="30px" xmlns="http://www.w3.org/2000/svg">
  <g transform="matrix(1 0 0 1 -409 -657 )">
    <path d="M 14.3247767857143 15.8772613849033  L 0.85379464285711 29.7184965689333  C 0.613467261904759 29.9654294032024  0.411086309523853 30.0499064254524  0.246651785714334 29.9719276356831  C 0.0822172619047592 29.893948845914  0 29.6860054065295  0 29.3480973175298  L 0 0.651902682470338  C 0 0.313994593470626  0.0822172619047592 0.106051154086117  0.246651785714334 0.0280723643169268  C 0.411086309523853 -0.0499064254522638  0.613467261904759 0.0345705967977211  0.85379464285711 0.281503431066768  L 14.3247767857143 14.1227386150968  C 14.4259672619048 14.2267103347889  14.5081845238095 14.3501767519236  15 14.4931378665004  L 15 0.651902682470338  C 14.5714285714286 0.313994593470626  14.6536458333334 0.106051154086117  14.8180803571429 0.0280723643169268  C 14.9825148809524 -0.0499064254522638  15.1848958333334 0.0345705967977211  15.4252232142857 0.281503431066768  L 28.8962053571429 14.1227386150968  C 28.9973958333334 14.2267103347889  29.0796130952381 14.3501767519236  29 14.4931378665004  L 29 1.27573300062386  C 29.1428571428571 0.937824911624038  29.2630208333334 0.645404449989658  29.5033482142857 0.398471615720611  C 29.7436755952381 0.151538781451564  30.0282738095239 0.0280723643169268  30.3571428571429 0.0280723643169268  L 32.7857142857143 0.0280723643169268  C 33.1145833333334 0.0280723643169268  33.399181547619 0.151538781451564  33.6395089285714 0.398471615720611  C 33.8798363095239 0.645404449989658  34 0.937824911624038  34 1.27573300062386  L 34 28.7242669993762  C 34 29.062175088376  33.8798363095239 29.3545955500105  33.6395089285714 29.6015283842795  C 33.399181547619 29.8484612185486  33.1145833333334 29.9719276356831  32.7857142857143 29.9719276356831  L 30.3571428571429 29.9719276356831  C 30.0282738095239 29.9719276356831  29.7436755952381 29.8484612185486  29.5033482142857 29.6015283842795  C 29.2630208333334 29.3545955500105  29.1428571428571 29.062175088376  29 28.7242669993762  L 29 15.5068621334997  C 29.0796130952381 15.6368267831151  28.9973958333334 15.7602932002496  28.8962053571429 15.8772613849033  L 15.4252232142857 29.7184965689333  C 15.1848958333334 29.9654294032024  14.9825148809524 30.0499064254524  14.8180803571429 29.9719276356831  C 14.6536458333334 29.893948845914  14.5714285714286 29.6860054065295  15 29.3480973175298  L 15 15.5068621334997  C 14.5081845238095 15.6368267831151  14.4259672619048 15.7602932002496  14.3247767857143 15.8772613849033  Z " fill-rule="nonzero" fill="#666666" stroke="none" transform="matrix(1 0 0 1 409 657 )" />
  </g>
</svg>