<?xml version="1.0" encoding="utf-8"?>
<svg version="1.1" xmlns:xlink="http://www.w3.org/1999/xlink" width="34px" height="29px" xmlns="http://www.w3.org/2000/svg">
  <g transform="matrix(1 0 0 1 -548 -710 )">
    <path d="M 11.4313616071429 14.0842682622787  C 11.9056919642857 13.602260450428  12.1428571428571 13.0206376907948  12.1428571428571 12.339399983379  C 12.1428571428571 11.6581622759633  11.9056919642857 11.0765395163301  11.4313616071429 10.5945317044794  C 10.95703125 10.1125238926286  10.3846726190476 9.87151998670326  9.71428571428567 9.87151998670326  C 9.04389880952385 9.87151998670326  8.47154017857144 10.1125238926286  7.99720982142856 10.5945317044794  C 7.52287946428567 11.0765395163301  7.28571428571433 11.6581622759633  7.28571428571433 12.339399983379  C 7.28571428571433 13.0206376907948  7.52287946428567 13.602260450428  7.99720982142856 14.0842682622787  C 8.47154017857144 14.5662760741295  9.04389880952385 14.8072799800549  9.71428571428567 14.8072799800549  C 10.3846726190476 14.8072799800549  10.95703125 14.5662760741295  11.4313616071429 14.0842682622787  Z M 18.7170758928571 14.0842682622787  C 19.19140625 13.602260450428  19.4285714285714 13.0206376907948  19.4285714285714 12.339399983379  C 19.4285714285714 11.6581622759633  19.19140625 11.0765395163301  18.7170758928571 10.5945317044794  C 18.2427455357143 10.1125238926286  17.6703869047619 9.87151998670326  17 9.87151998670326  C 16.3296130952381 9.87151998670326  15.7572544642857 10.1125238926286  15.2829241071429 10.5945317044794  C 14.80859375 11.0765395163301  14.5714285714286 11.6581622759633  14.5714285714286 12.339399983379  C 14.5714285714286 13.0206376907948  14.80859375 13.602260450428  15.2829241071429 14.0842682622787  C 15.7572544642857 14.5662760741295  16.3296130952381 14.8072799800549  17 14.8072799800549  C 17.6703869047619 14.8072799800549  18.2427455357143 14.5662760741295  18.7170758928571 14.0842682622787  Z M 26.0027901785714 14.0842682622787  C 26.4771205357143 13.602260450428  26.7142857142857 13.0206376907948  26.7142857142857 12.339399983379  C 26.7142857142857 11.6581622759633  26.4771205357143 11.0765395163301  26.0027901785714 10.5945317044794  C 25.5284598214286 10.1125238926286  24.9561011904761 9.87151998670326  24.2857142857143 9.87151998670326  C 23.6153273809524 9.87151998670326  23.04296875 10.1125238926286  22.5686383928571 10.5945317044794  C 22.0943080357143 11.0765395163301  21.8571428571429 11.6581622759633  21.8571428571429 12.339399983379  C 21.8571428571429 13.0206376907948  22.0943080357143 13.602260450428  22.5686383928571 14.0842682622787  C 23.04296875 14.5662760741295  23.6153273809524 14.8072799800549  24.2857142857143 14.8072799800549  C 24.9561011904761 14.8072799800549  25.5284598214286 14.5662760741295  26.0027901785714 14.0842682622787  Z M 31.7232142857143 6.14077952297853  C 33.2410714285714 8.03667691625802  34 10.1028837363917  34 12.339399983379  C 34 14.5759162303665  33.2410714285714 16.6421230505  31.7232142857143 18.5380204437796  C 30.2053571428571 20.4339178370593  28.1436011904761 21.9313554392089  25.5379464285714 23.0303332502286  C 22.9322916666666 24.1293110612483  20.0863095238095 24.6787999667581  17 24.6787999667581  C 15.608630952381 24.6787999667581  14.274181547619 24.563118091914  12.9966517857143 24.3317543422255  C 10.8084077380952 26.5554170475636  8.05729166666663 28.0271475664147  4.74330357142856 28.7469458987784  C 4.08556547619048 28.8754813152719  3.54166666666663 28.9590293359928  3.11160714285711 28.9975899609408  C 2.95982142857144 29.0104435025901  2.82068452380952 28.9718828776421  2.69419642857144 28.8819080860966  C 2.56770833333337 28.7919332945512  2.48549107142856 28.676251419707  2.44754464285711 28.5348624615641  C 2.39694940476193 28.3420593368237  2.5234375 28.1042688163108  2.82700892857144 27.821490900025  C 2.89025297619048 27.7572231917782  3.03887648809524 27.6190476190477  3.27287946428567 27.4069641818334  C 3.50688244047615 27.194880744619  3.66815476190476 27.0438516302391  3.75669642857144 26.9538768386936  C 3.84523809523807 26.8639020471481  3.99386160714289 26.7000193911189  4.20256696428567 26.4622288706058  C 4.41127232142856 26.2244383500928  4.56305803571433 26.0219950691156  4.65792410714289 25.8548990276739  C 4.75279017857144 25.6878029862323  4.88244047619048 25.4500124657193  5.046875 25.1415274661348  C 5.21130952380952 24.8330424665504  5.33779761904759 24.5245574669659  5.42633928571433 24.2160724673814  C 5.51488095238096 23.9075874677969  5.60658482142856 23.538048145378  5.70145089285711 23.1074545001247  C 5.79631696428567 22.6768608548714  5.87537202380952 22.2109199700824  5.93861607142856 21.7096318457575  C 4.09188988095241 20.5528130973158  2.64043898809524 19.1614172137732  1.58426339285711 17.53544419513  C 0.528087797619037 15.909471176487  0 14.1774564392366  0 12.339399983379  C 0 10.1028837363917  0.758928571428555 8.03667691625802  2.27678571428567 6.14077952297853  C 3.79464285714289 4.24488212969892  5.85639880952385 2.7474445275492  8.46205357142856 1.64846671652959  C 11.0677083333334 0.549488905509863  13.9136904761905 0  17 0  C 20.0863095238095 0  22.9322916666666 0.549488905509863  25.5379464285714 1.64846671652959  C 28.1436011904761 2.7474445275492  30.2053571428571 4.24488212969892  31.7232142857143 6.14077952297853  Z " fill-rule="nonzero" fill="#666666" stroke="none" transform="matrix(1 0 0 1 548 710 )" />
  </g>
</svg>