<?xml version="1.0" encoding="utf-8"?>
<svg version="1.1" xmlns:xlink="http://www.w3.org/1999/xlink" width="34px" height="34px" xmlns="http://www.w3.org/2000/svg">
  <g transform="matrix(1 0 0 1 -617 -587 )">
    <path d="M 15.3841145833333 23.8841145833333  C 15.5169270833333 23.7513020833333  15.5833333333333 23.5815972222223  16 23.375  L 16 10.625  C 15.5833333333333 10.4184027777777  15.5169270833333 10.2486979166667  15.3841145833333 10.1158854166667  C 15.2513020833333 9.98307291666674  15.0815972222223 9.91666666666674  14.875 9.91666666666674  L 9.20833333333326 9.91666666666674  C 9.00173611111109 9.91666666666674  8.83203125 9.98307291666674  8.69921875 10.1158854166667  C 8.56640625 10.2486979166667  8.5 10.4184027777777  9 10.625  L 9 23.375  C 8.5 23.5815972222223  8.56640625 23.7513020833333  8.69921875 23.8841145833333  C 8.83203125 24.0169270833333  9.00173611111109 24.0833333333333  9.20833333333326 24.0833333333333  L 14.875 24.0833333333333  C 15.0815972222223 24.0833333333333  15.2513020833333 24.0169270833333  15.3841145833333 23.8841145833333  Z M 25.30078125 23.8841145833333  C 25.43359375 23.7513020833333  25.5 23.5815972222223  25 23.375  L 25 10.625  C 25.5 10.4184027777777  25.43359375 10.2486979166667  25.30078125 10.1158854166667  C 25.16796875 9.98307291666674  24.9982638888889 9.91666666666674  24.7916666666667 9.91666666666674  L 19.125 9.91666666666674  C 18.9184027777777 9.91666666666674  18.7486979166667 9.98307291666674  18.6158854166667 10.1158854166667  C 18.4830729166667 10.2486979166667  18.4166666666667 10.4184027777777  18 10.625  L 18 23.375  C 18.4166666666667 23.5815972222223  18.4830729166667 23.7513020833333  18.6158854166667 23.8841145833333  C 18.7486979166667 24.0169270833333  18.9184027777777 24.0833333333333  19.125 24.0833333333333  L 24.7916666666667 24.0833333333333  C 24.9982638888889 24.0833333333333  25.16796875 24.0169270833333  25.30078125 23.8841145833333  Z M 31.7200520833333 8.466796875  C 33.2400173611111 11.0713975694445  34 13.9157986111111  34 17  C 34 20.0842013888889  33.2400173611111 22.9286024305555  31.7200520833333 25.533203125  C 30.2000868055555 28.1378038194445  28.1378038194445 30.2000868055555  25.533203125 31.7200520833333  C 22.9286024305555 33.2400173611111  20.0842013888889 34  17 34  C 13.9157986111111 34  11.0713975694445 33.2400173611111  8.466796875 31.7200520833333  C 5.86219618055554 30.2000868055555  3.79991319444446 28.1378038194445  2.27994791666674 25.533203125  C 0.759982638888914 22.9286024305555  0 20.0842013888889  0 17  C 0 13.9157986111111  0.759982638888914 11.0713975694445  2.27994791666674 8.466796875  C 3.79991319444446 5.86219618055554  5.86219618055554 3.79991319444446  8.466796875 2.27994791666674  C 11.0713975694445 0.759982638888914  13.9157986111111 0  17 0  C 20.0842013888889 0  22.9286024305555 0.759982638888914  25.533203125 2.27994791666674  C 28.1378038194445 3.79991319444446  30.2000868055555 5.86219618055554  31.7200520833333 8.466796875  Z " fill-rule="nonzero" fill="#666666" stroke="none" transform="matrix(1 0 0 1 617 587 )" />
  </g>
</svg>