<?xml version="1.0" encoding="utf-8"?>
<svg version="1.1" xmlns:xlink="http://www.w3.org/1999/xlink" width="34px" height="34px" xmlns="http://www.w3.org/2000/svg">
  <g transform="matrix(1 0 0 1 -684 -939 )">
    <path d="M 14.1666666666667 15.5833333333335  L 14.1666666666667 21.25  L 19.8333333333333 18.4166666666665  L 14.1666666666667 15.5833333333335  Z M 12 13.8346354166665  L 22 8.16796875  L 22 20.1653645833335  L 12 25.83203125  L 12 13.8346354166665  Z M 27.42578125 23.04296875  C 28.5030381944445 21.1983506944446  29.0416666666667 19.1840277777778  29.0416666666667 17  C 29.0416666666667 14.8159722222222  28.5030381944445 12.8016493055554  27.42578125 10.95703125  C 26.3485243055555 9.11241319444457  24.8875868055555 7.65147569444457  23.04296875 6.57421875  C 21.1983506944445 5.49696180555543  19.1840277777777 4.95833333333348  17 4.95833333333348  C 14.8159722222223 4.95833333333348  12.8016493055555 5.49696180555543  10.95703125 6.57421875  C 9.11241319444446 7.65147569444457  7.65147569444446 9.11241319444457  6.57421875 10.95703125  C 5.49696180555554 12.8016493055554  4.95833333333326 14.8159722222222  4.95833333333326 17  C 4.95833333333326 19.1840277777778  5.49696180555554 21.1983506944446  6.57421875 23.04296875  C 7.65147569444446 24.8875868055554  9.11241319444446 26.3485243055554  10.95703125 27.42578125  C 12.8016493055555 28.5030381944446  14.8159722222223 29.0416666666665  17 29.0416666666665  C 19.1840277777777 29.0416666666665  21.1983506944445 28.5030381944446  23.04296875 27.42578125  C 24.8875868055555 26.3485243055554  26.3485243055555 24.8875868055554  27.42578125 23.04296875  Z M 31.7200520833333 8.466796875  C 33.2400173611111 11.0713975694446  34 13.9157986111111  34 17  C 34 20.0842013888889  33.2400173611111 22.9286024305554  31.7200520833333 25.533203125  C 30.2000868055555 28.1378038194446  28.1378038194445 30.2000868055554  25.533203125 31.7200520833335  C 22.9286024305555 33.2400173611111  20.0842013888889 34  17 34  C 13.9157986111111 34  11.0713975694445 33.2400173611111  8.466796875 31.7200520833335  C 5.86219618055554 30.2000868055554  3.79991319444446 28.1378038194446  2.27994791666674 25.533203125  C 0.759982638888914 22.9286024305554  0 20.0842013888889  0 17  C 0 13.9157986111111  0.759982638888914 11.0713975694446  2.27994791666674 8.466796875  C 3.79991319444446 5.86219618055543  5.86219618055554 3.79991319444457  8.466796875 2.27994791666652  C 11.0713975694445 0.759982638888914  13.9157986111111 0  17 0  C 20.0842013888889 0  22.9286024305555 0.759982638888914  25.533203125 2.27994791666652  C 28.1378038194445 3.79991319444457  30.2000868055555 5.86219618055543  31.7200520833333 8.466796875  Z " fill-rule="nonzero" fill="#666666" stroke="none" transform="matrix(1 0 0 1 684 939 )" />
  </g>
</svg>