<?xml version="1.0" encoding="utf-8"?>
<svg version="1.1" xmlns:xlink="http://www.w3.org/1999/xlink" width="34px" height="31px" xmlns="http://www.w3.org/2000/svg">
  <g transform="matrix(1 0 0 1 -747 -466 )">
    <path d="M 17 29.6160714285714  C 17.179621644719 29.6160714285714  17.2694324670784 29.5238095238095  17.2694324670784 29.3392857142858  C 17.2694324670784 29.1547619047619  17.179621644719 29.0625  17 29.0625  C 16.3376451850989 29.0625  15.767907780756 28.8174293154761  15.2907877869712 28.3272879464286  C 14.8136677931865 27.8371465773808  14.5751077962941 27.2518601190476  14.5751077962941 26.5714285714286  C 14.5751077962941 26.3869047619047  14.4852969739347 26.2946428571428  14.3056753292157 26.2946428571428  C 14.1260536844968 26.2946428571428  14.0362428621372 26.3869047619047  14.0362428621372 26.5714285714286  C 14.0362428621372 27.4133184523808  14.3253214466068 28.1312313988095  14.903478615546 28.7251674107142  C 15.4816357844851 29.3191034226192  16.1804762459698 29.6160714285714  17 29.6160714285714  Z M 10.5336207901178 9.96428571428578  C 10.5336207901178 14.3928571428572  9.76461562366467 18.1121651785714  8.22660529075858 21.1222098214286  L 22.994872392495 7.97488839285722  C 22.5233655751078 6.96000744047615  21.7796197024434 6.115234375  20.7636347745018 5.44056919642856  C 19.7476498465603 4.76590401785711  18.4931049217263 4.42857142857144  17 4.42857142857144  C 15.9559491900711 4.42857142857144  15.0045157907003 4.61021205357144  14.1456998018879 4.97349330357144  C 13.2868838130754 5.33677455357144  12.6048828807832 5.8009672619047  12.0996970050111 6.36607142857144  C 11.594511129239 6.93117559523807  11.2072019578137 7.52511160714278  10.9377694907354 8.14787946428578  C 10.6683370236569 8.77064732142856  10.5336207901178 9.37611607142856  10.5336207901178 9.96428571428578  Z M 25.9923085887426 14.7388392857142  C 26.6771161092336 18.8444940476192  28.3498426756789 22.0505952380953  31.0104882880784 24.3571428571428  C 31.0104882880784 24.9568452380953  30.7971875849745 25.4758184523808  30.3705861787671 25.9140625  C 29.9439847725595 26.3523065476192  29.4387988967875 26.5714285714286  28.8550285514509 26.5714285714286  L 21.3109194732549 26.5714285714286  C 21.3109194732549 27.7938988095239  20.8899312434448 28.8376116071428  20.0479547838248 29.7025669642858  C 19.2059783242047 30.5675223214286  18.1899933962632 31  17 31  C 15.8100066037368 31  14.7968282639941 30.5704055059524  13.9604649807715 29.7112165178572  C 13.1241016975488 28.8520275297619  12.70030687954 27.8111979166666  12.6890805267451 26.5887276785714  L 15.1981703764129 24  L 27.9456939750612 24  C 26.082119411102 22.2005208333334  24.807928368877 19.5537574404761  24.123120848386 16.4168526785714  L 25.9923085887426 14.7388392857142  Z M 32.0966379209882 0.0864955357142208  C 32.2481936837198 0.0980282738095184  32.3688769762654 0.161458333333371  32.458687798625 0.276785714285779  L 33.8732082507867 1.9375  C 33.9630190731461 2.05282738095241  34.0051178961271 2.18833705357144  33.9995047197297 2.34402901785711  C 33.9938915433322 2.49972098214289  33.9349531911588 2.62946428571422  33.8226896632094 2.73325892857144  L 2.29909101503313 30.7924107142858  C 2.18682748708386 30.8846726190476  2.05491784174342 30.9250372023808  1.9033620790118 30.9135044642858  C 1.75180631628018 30.9019717261905  1.63112302373463 30.8385416666666  1.54131220137504 30.7232142857142  L 0.126791749213339 29.0625  C 0.0369809268538575 28.9471726190476  -0.00511789612710345 28.8116629464286  0.000495280270342846 28.6559709821428  C 0.00610845666778914 28.5002790178572  0.0650468088412026 28.3763020833334  0.177310336790583 28.2840401785714  L 3.30946276657733 25.4988839285714  C 3.09616206347357 25.1298363095239  2.98951171192164 24.7492559523808  2.98951171192164 24.3571428571428  C 3.55082935166843 23.8727678571428  4.06162840383797 23.3653273809524  4.52190886843016 22.8348214285714  C 4.98218933302257 22.3043154761905  5.45930932680733 21.615234375  5.95326884978442 20.767578125  C 6.44722837276151 19.919921875  6.86541001437286 19.0059523809524  7.20781377461833 18.0256696428572  C 7.5502175348638 17.0453869047619  7.83087635473726 15.8575148809524  8.04979023423834 14.4620535714286  C 8.26870411373966 13.0665922619047  8.3781610534902 11.5673363095239  8.3781610534902 9.96428571428578  C 8.3781610534902 8.21130952380952  9.03490269199392 6.58231026785722  10.3483859690012 5.07728794642856  C 11.6618692460087 3.572265625  13.3851144000311 2.65829613095241  15.5181214310686 2.33537946428578  C 15.4283106087091 2.11625744047615  15.3834051975294 1.89136904761904  15.3834051975294 1.66071428571422  C 15.3834051975294 1.19940476190482  15.5405741366585 0.807291666666629  15.8549120149167 0.484375  C 16.1692498931748 0.161458333333371  16.5509458882026 0  17 0  C 17.4490541117974 0  17.8307501068252 0.161458333333371  18.1450879850833 0.484375  C 18.4594258633415 0.807291666666629  18.6165948024706 1.19940476190482  18.6165948024706 1.66071428571422  C 18.6165948024706 1.89136904761904  18.5716893912909 2.11625744047615  18.4818785689314 2.33537946428578  C 19.8739463155032 2.54296875  21.1032319465486 3.01869419642856  22.1697354620674 3.76255580357144  C 23.2362389775861 4.50641741071422  24.0669890844113 5.41462053571422  24.6619857825428 6.48716517857144  L 31.7009089849669 0.207589285714221  C 31.8131725129161 0.115327380952408  31.9450821582566 0.0749627976190368  32.0966379209882 0.0864955357142208  Z " fill-rule="nonzero" fill="#666666" stroke="none" transform="matrix(1 0 0 1 747 466 )" />
  </g>
</svg>