<?xml version="1.0" encoding="utf-8"?>
<svg version="1.1" xmlns:xlink="http://www.w3.org/1999/xlink" width="34px" height="34px" xmlns="http://www.w3.org/2000/svg">
  <g transform="matrix(1 0 0 1 -548 -587 )">
    <path d="M 33.5794270833334 0.420572916666742  C 33.8598090277778 0.700954861111086  34 1.03298611111109  34 1.41666666666674  L 34 32.5833333333333  C 34 32.9670138888889  33.8598090277778 33.2990451388889  33.5794270833334 33.5794270833333  C 33.2990451388889 33.8598090277777  32.9670138888889 34  32.5833333333334 34  L 21.25 34  C 20.8663194444445 34  20.5342881944445 33.8598090277777  20.25390625 33.5794270833333  C 19.9735243055555 33.2990451388889  19.8333333333334 32.9670138888889  19.8333333333334 32.5833333333333  L 19.8333333333334 1.41666666666674  C 19.8333333333334 1.03298611111109  19.9735243055555 0.700954861111086  20.25390625 0.420572916666742  C 20.5342881944445 0.140190972222285  20.8663194444445 0  21.25 0  L 32.5833333333334 0  C 32.9670138888889 0  33.2990451388889 0.140190972222285  33.5794270833334 0.420572916666742  Z M 13.74609375 0.420572916666742  C 14.0264756944445 0.700954861111086  14.1666666666666 1.03298611111109  14.1666666666666 1.41666666666674  L 14.1666666666666 32.5833333333333  C 14.1666666666666 32.9670138888889  14.0264756944445 33.2990451388889  13.74609375 33.5794270833333  C 13.4657118055555 33.8598090277777  13.1336805555555 34  12.75 34  L 1.41666666666663 34  C 1.03298611111114 34  0.700954861111143 33.8598090277777  0.420572916666629 33.5794270833333  C 0.140190972222229 33.2990451388889  0 32.9670138888889  0 32.5833333333333  L 0 1.41666666666674  C 0 1.03298611111109  0.140190972222229 0.700954861111086  0.420572916666629 0.420572916666742  C 0.700954861111143 0.140190972222285  1.03298611111114 0  1.41666666666663 0  L 12.75 0  C 13.1336805555555 0  13.4657118055555 0.140190972222285  13.74609375 0.420572916666742  Z " fill-rule="nonzero" fill="#666666" stroke="none" transform="matrix(1 0 0 1 548 587 )" />
  </g>
</svg>