<?xml version="1.0" encoding="utf-8"?>
<svg version="1.1" xmlns:xlink="http://www.w3.org/1999/xlink" width="34px" height="27px" xmlns="http://www.w3.org/2000/svg">
  <g transform="matrix(1 0 0 1 -752 -943 )">
    <path d="M 32.1026785714287 10.3742897727275  C 32.8236607142858 9.87571022727252  33.4561011904761 9.31960227272748  34 8.70596590909099  L 34 23.931818181818  C 34 24.775568181818  33.7027529761904 25.497869318182  33.1082589285713 26.098721590909  C 32.5137648809523 26.6995738636365  31.7991071428571 27  30.9642857142858 27  L 3.03571428571422 27  C 2.20089285714289 27  1.48623511904771 26.6995738636365  0.891741071428669 26.098721590909  C 0.297247023809518 25.497869318182  0 24.775568181818  0 23.931818181818  L 0 8.70596590909099  C 0.556547619047706 9.33238636363649  1.1953125 9.88849431818198  1.91629464285711 10.3742897727275  C 6.49516369047615 13.5191761363635  9.63839285714289 15.724431818182  11.3459821428571 16.990056818182  C 12.0669642857142 17.5269886363635  12.6519717261905 17.9456676136365  13.1010044642858 18.24609375  C 13.550037202381 18.5465198863635  14.147693452381 18.853338068182  14.8939732142858 19.1665482954545  C 15.6402529761905 19.4797585227275  16.3359375 19.6363636363635  16.9810267857142 19.6363636363635  L 17 19.6363636363635  L 17.0189732142858 19.6363636363635  C 17.6640625 19.6363636363635  18.3597470238095 19.4797585227275  19.1060267857142 19.1665482954545  C 19.852306547619 18.853338068182  20.449962797619 18.5465198863635  20.8989955357142 18.24609375  C 21.3480282738095 17.9456676136365  21.9330357142858 17.5269886363635  22.6540178571429 16.990056818182  C 24.8043154761905 15.4176136363635  27.953869047619 13.2123579545455  32.1026785714287 10.3742897727275  Z M 33.0987723214287 0.901278409090992  C 33.6995907738096 1.50213068181802  34 2.22443181818198  34 3.06818181818198  C 34 4.078125  33.6901041666667 5.04332386363649  33.0703125 5.96377840909099  C 32.4505208333333 6.8842329545455  31.678943452381 7.6704545454545  30.7555803571429 8.32244318181802  C 25.9996279761905 11.659090909091  23.039806547619 13.736505681818  21.8761160714287 14.5546875  C 21.7496279761905 14.6441761363635  21.4808407738095 14.8391335227273  21.0697544642858 15.139559659091  C 20.6586681547619 15.4399857954545  20.317150297619 15.6828835227273  20.0452008928571 15.868252840909  C 19.7732514880952 16.053622159091  19.4443824404761 16.2613636363635  19.05859375 16.4914772727275  C 18.6728050595239 16.721590909091  18.3091517857142 16.8941761363635  17.9676339285713 17.0092329545455  C 17.6261160714287 17.1242897727275  17.3098958333333 17.181818181818  17.0189732142858 17.181818181818  L 17 17.181818181818  L 16.9810267857142 17.181818181818  C 16.6901041666667 17.181818181818  16.3738839285713 17.1242897727275  16.0323660714287 17.0092329545455  C 15.6908482142858 16.8941761363635  15.3271949404761 16.721590909091  14.94140625 16.4914772727275  C 14.5556175595239 16.2613636363635  14.2267485119048 16.053622159091  13.9547991071429 15.868252840909  C 13.682849702381 15.6828835227273  13.3413318452381 15.4399857954545  12.9302455357142 15.139559659091  C 12.5191592261905 14.8391335227273  12.2503720238095 14.6441761363635  12.1238839285713 14.5546875  C 10.9728422619048 13.736505681818  9.31584821428578 12.5699573863635  7.15290178571422 11.0550426136365  C 4.98995535714289 9.54012784090901  3.69345238095229 8.62926136363649  3.26339285714289 8.32244318181802  C 2.47916666666674 7.78551136363649  1.73921130952385 7.04723011363649  1.04352678571422 6.10759943181802  C 0.347842261904816 5.16796875  0 4.2954545454545  0 3.49005681818198  C 0 2.49289772727252  0.262462797619037 1.66193181818198  0.78738839285711 0.997159090909008  C 1.31231398809518 0.332386363636488  2.06175595238096 0  3.03571428571422 0  L 30.9642857142858 0  C 31.7864583333333 0  32.4979538690477 0.300426136363512  33.0987723214287 0.901278409090992  Z " fill-rule="nonzero" fill="#666666" stroke="none" transform="matrix(1 0 0 1 752 943 )" />
  </g>
</svg>