<?xml version="1.0" encoding="utf-8"?>
<svg version="1.1" xmlns:xlink="http://www.w3.org/1999/xlink" width="34px" height="19px" xmlns="http://www.w3.org/2000/svg">
  <g transform="matrix(1 0 0 1 -478 -662 )">
    <path d="M 33.369140625 15.4045138888888  C 33.7897135416666 15.8223379629629  34 16.3171296296296  34 16.8888888888888  C 34 17.4606481481482  33.7897135416666 17.9554398148148  33.369140625 18.3732638888888  C 32.9485677083334 18.7910879629629  32.4505208333334 19  31.875 19  L 2.125 19  C 1.54947916666663 19  1.05143229166663 18.7910879629629  0.630859375 18.3732638888888  C 0.210286458333371 17.9554398148148  0 17.4606481481482  0 16.8888888888888  C 0 16.3171296296296  0.210286458333371 15.8223379629629  0.630859375 15.4045138888888  L 15.505859375 0.6267361111112  C 15.9264322916666 0.208912037037067  16.4244791666666 0  17 0  C 17.5755208333334 0  18.0735677083334 0.208912037037067  18.494140625 0.6267361111112  L 33.369140625 15.4045138888888  Z " fill-rule="nonzero" fill="#666666" stroke="none" transform="matrix(1 0 0 1 478 662 )" />
  </g>
</svg>