<?xml version="1.0" encoding="utf-8"?>
<svg version="1.1" xmlns:xlink="http://www.w3.org/1999/xlink" width="34px" height="34px" xmlns="http://www.w3.org/2000/svg">
  <g transform="matrix(1 0 0 1 -409 -942 )">
    <path d="M 21.0065104166666 21.0065104166665  C 22.11328125 19.8997395833335  22.6666666666666 18.5642361111111  22.6666666666666 17  C 22.6666666666666 15.4357638888889  22.11328125 14.1002604166665  21.0065104166666 12.9934895833335  C 19.8997395833334 11.88671875  18.5642361111111 11.3333333333335  17 11.3333333333335  C 15.4357638888889 11.3333333333335  14.1002604166666 11.88671875  12.9934895833334 12.9934895833335  C 11.88671875 14.1002604166665  11.3333333333334 15.4357638888889  11.3333333333334 17  C 11.3333333333334 18.5642361111111  11.88671875 19.8997395833335  12.9934895833334 21.0065104166665  C 14.1002604166666 22.11328125  15.4357638888889 22.6666666666665  17 22.6666666666665  C 18.5642361111111 22.6666666666665  19.8997395833334 22.11328125  21.0065104166666 21.0065104166665  Z M 33.8229166666666 14.0670572916665  C 33.9409722222222 14.2220052083335  34 14.3953993055554  34 14.5872395833335  L 34 19.5013020833335  C 34 19.6783854166665  33.9409722222222 19.8480902777778  33.8229166666666 20.0104166666665  C 33.7048611111111 20.1727430555554  33.5572916666666 20.2686631944446  33.3802083333334 20.2981770833335  L 29.28515625 20.91796875  C 29.0047743055555 21.71484375  28.7170138888889 22.3862847222222  28.421875 22.9322916666665  C 28.9383680555555 23.6701388888889  29.7278645833334 24.6883680555554  30.7903645833334 25.9869791666665  C 30.9379340277778 26.1640625  31.01171875 26.3485243055554  31.01171875 26.5403645833335  C 31.01171875 26.7322048611111  30.9453125 26.9019097222222  30.8125 27.0494791666665  C 30.4140625 27.5954861111111  29.68359375 28.3923611111111  28.62109375 29.4401041666665  C 27.55859375 30.4878472222222  26.8650173611111 31.01171875  26.5403645833334 31.01171875  C 26.36328125 31.01171875  26.1714409722222 30.9453125  25.96484375 30.8125  L 22.91015625 28.421875  C 22.2608506944445 28.7612847222222  21.5894097222222 29.0416666666665  20.8958333333334 29.2630208333335  C 20.6597222222222 31.2699652777778  20.4457465277778 32.6423611111111  20.25390625 33.3802083333335  C 20.1506076388889 33.7934027777778  19.8849826388889 34  19.45703125 34  L 14.54296875 34  C 14.3363715277778 34  14.1555989583334 33.9372829861111  14.0006510416666 33.8118489583335  C 13.845703125 33.6864149305554  13.7608506944445 33.5277777777778  13.74609375 33.3359375  L 13.1263020833334 29.2630208333335  C 12.4032118055555 29.0269097222222  11.7391493055555 28.75390625  11.1341145833334 28.4440104166665  L 8.01302083333337 30.8125  C 7.86545138888886 30.9453125  7.68098958333337 31.01171875  7.45963541666663 31.01171875  C 7.25303819444446 31.01171875  7.06857638888886 30.9305555555554  6.90625 30.7682291666665  C 5.046875 29.0859375  3.82942708333337 27.8463541666665  3.25390625 27.0494791666665  C 3.15060763888886 26.9019097222222  3.09895833333337 26.7322048611111  3.09895833333337 26.5403645833335  C 3.09895833333337 26.36328125  3.15798611111114 26.1935763888889  3.27604166666663 26.03125  C 3.49739583333337 25.7213541666665  3.87369791666663 25.2306857638889  4.40494791666663 24.5592447916665  C 4.93619791666663 23.8878038194446  5.33463541666663 23.3676215277778  5.60026041666663 22.9986979166665  C 5.20182291666663 22.2608506944446  4.89930555555554 21.5303819444446  4.69270833333337 20.8072916666665  L 0.641927083333371 20.2096354166665  C 0.450086805555543 20.1801215277778  0.295138888888857 20.087890625  0.177083333333371 19.9329427083335  C 0.0590277777777715 19.7779947916665  0 19.6046006944446  0 19.4127604166665  L 0 14.4986979166665  C 0 14.3216145833335  0.0590277777777715 14.1519097222222  0.177083333333371 13.9895833333335  C 0.295138888888857 13.8272569444446  0.435329861111143 13.7313368055554  0.59765625 13.7018229166665  L 4.71484375 13.08203125  C 4.92144097222223 12.4032118055554  5.20920138888886 11.7243923611111  5.578125 11.0455729166665  C 4.98784722222223 10.2044270833335  4.19835069444446 9.18619791666652  3.20963541666663 7.99088541666652  C 3.06206597222223 7.81380208333348  2.98828125 7.63671875  2.98828125 7.45963541666652  C 2.98828125 7.31206597222217  3.0546875 7.14236111111109  3.1875 6.95052083333348  C 3.57118055555554 6.41927083333348  4.29796006944446 5.62608506944457  5.36783854166663 4.57096354166652  C 6.43771701388886 3.51584201388891  7.13498263888886 2.98828125  7.45963541666663 2.98828125  C 7.65147569444446 2.98828125  7.84331597222223 3.06206597222217  8.03515625 3.20963541666652  L 11.08984375 5.578125  C 11.7391493055555 5.23871527777783  12.4105902777778 4.95833333333348  13.1041666666666 4.73697916666652  C 13.3402777777778 2.73003472222217  13.5542534722222 1.35763888888891  13.74609375 0.619791666666515  C 13.8493923611111 0.206597222222172  14.1150173611111 0  14.54296875 0  L 19.45703125 0  C 19.6636284722222 0  19.8444010416666 0.0627170138889142  19.9993489583334 0.188151041666515  C 20.154296875 0.313585069444571  20.2391493055555 0.472222222222172  20.25390625 0.6640625  L 20.8736979166666 4.73697916666652  C 21.5967881944445 4.97309027777783  22.2608506944445 5.24609375  22.8658854166666 5.55598958333348  L 26.0091145833334 3.1875  C 26.1419270833334 3.0546875  26.3190104166666 2.98828125  26.5403645833334 2.98828125  C 26.7322048611111 2.98828125  26.9166666666666 3.06206597222217  27.09375 3.20963541666652  C 28.9973958333334 4.96571180555543  30.21484375 6.22005208333348  30.74609375 6.97265625  C 30.8493923611111 7.09071180555543  30.9010416666666 7.25303819444457  30.9010416666666 7.45963541666652  C 30.9010416666666 7.63671875  30.8420138888889 7.80642361111109  30.7239583333334 7.96875  C 30.5026041666666 8.27864583333348  30.1263020833334 8.76931423611109  29.5950520833334 9.44075520833348  C 29.0638020833334 10.1121961805554  28.6653645833334 10.6323784722222  28.3997395833334 11.0013020833335  C 28.7834201388889 11.7391493055554  29.0859375 12.4622395833335  29.3072916666666 13.1705729166665  L 33.3580729166666 13.7903645833335  C 33.5499131944445 13.8198784722222  33.7048611111111 13.912109375  33.8229166666666 14.0670572916665  Z " fill-rule="nonzero" fill="#666666" stroke="none" transform="matrix(1 0 0 1 409 942 )" />
  </g>
</svg>