<?xml version="1.0" encoding="utf-8"?>
<svg version="1.1" xmlns:xlink="http://www.w3.org/1999/xlink" width="34px" height="30px" xmlns="http://www.w3.org/2000/svg">
  <g transform="matrix(1 0 0 1 -752 -530 )">
    <path d="M 17.8348214285713 29.6484375  C 17.6071428571429 29.8828125  17.328869047619 30  17 30  C 16.671130952381 30  16.3928571428571 29.8828125  16.1651785714287 29.6484375  L 4.32589285714289 17.890625  C 4.19940476190482 17.7864583333333  4.02548363095229 17.6171875  3.80412946428578 17.3828125  C 3.58277529761904 17.1484375  3.23177083333326 16.7220052083333  2.75111607142867 16.103515625  C 2.27046130952385 15.4850260416667  1.84040178571422 14.8502604166667  1.4609375 14.19921875  C 1.08147321428578 13.5481770833333  0.743117559523853 12.7604166666667  0.445870535714221 11.8359375  C 0.148623511904816 10.9114583333333  0 10.0130208333333  0 9.140625  C 0 6.27604166666674  0.803199404761926 4.03645833333326  2.40959821428578 2.421875  C 4.01599702380952 0.807291666666742  6.23586309523807 0  9.06919642857133 0  C 9.85342261904771 0  10.6534598214287 0.139973958333258  11.4693080357142 0.419921875  C 12.28515625 0.699869791666742  13.0440848214287 1.07747395833326  13.74609375 1.552734375  C 14.4481026785713 2.02799479166674  15.0520833333333 2.47395833333326  15.5580357142858 2.890625  C 16.0639880952381 3.30729166666674  16.5446428571429 3.75  17 4.21875  C 17.4553571428571 3.75  17.9360119047619 3.30729166666674  18.4419642857142 2.890625  C 18.9479166666667 2.47395833333326  19.5518973214287 2.02799479166674  20.25390625 1.552734375  C 20.9559151785713 1.07747395833326  21.71484375 0.699869791666742  22.5306919642858 0.419921875  C 23.3465401785713 0.139973958333258  24.1465773809523 0  24.9308035714287 0  C 27.7641369047619 0  29.9840029761905 0.807291666666742  31.5904017857142 2.421875  C 33.1968005952381 4.03645833333326  34 6.27604166666674  34 9.140625  C 34 12.0182291666667  32.5517113095239 14.9479166666667  29.6551339285713 17.9296875  L 17.8348214285713 29.6484375  Z " fill-rule="nonzero" fill="#666666" stroke="none" transform="matrix(1 0 0 1 752 530 )" />
  </g>
</svg>