<?xml version="1.0" encoding="utf-8"?>
<svg version="1.1" xmlns:xlink="http://www.w3.org/1999/xlink" width="34px" height="30px" xmlns="http://www.w3.org/2000/svg">
  <g transform="matrix(1 0 0 1 -752 -819 )">
    <path d="M 4.49665178571422 24.62890625  C 4.73697916666674 24.3815104166667  4.85714285714289 24.0885416666667  4.85714285714289 23.75  C 4.85714285714289 23.4114583333333  4.73697916666674 23.1184895833333  4.49665178571422 22.87109375  C 4.25632440476193 22.6236979166667  3.97172619047615 22.5  3.64285714285711 22.5  C 3.31398809523807 22.5  3.02938988095229 22.6236979166667  2.7890625 22.87109375  C 2.54873511904771 23.1184895833333  2.42857142857133 23.4114583333333  2.42857142857133 23.75  C 2.42857142857133 24.0885416666667  2.54873511904771 24.3815104166667  2.7890625 24.62890625  C 3.02938988095229 24.8763020833333  3.31398809523807 25  3.64285714285711 25  C 3.97172619047615 25  4.25632440476193 24.8763020833333  4.49665178571422 24.62890625  Z M 30.8504464285713 14.2578125  C 31.3311011904761 13.7630208333333  31.5714285714287 13.1770833333333  31.5714285714287 12.5  C 31.5714285714287 11.8359375  31.3247767857142 11.2532552083333  30.8314732142858 10.751953125  C 30.3381696428571 10.2506510416667  29.7752976190477 10  29.1428571428571 10  L 18.2142857142858 10  C 18.2142857142858 9.73958333333326  18.3091517857142 9.423828125  18.4988839285713 9.052734375  C 18.6886160714287 8.681640625  18.8973214285713 8.32356770833326  19.125 7.978515625  C 19.3526785714287 7.63346354166674  19.5613839285713 7.19075520833326  19.7511160714287 6.650390625  C 19.9408482142858 6.11002604166674  20.0357142857142 5.55989583333326  20.0357142857142 5  C 20.0357142857142 4.12760416666674  19.7542782738095 3.49283854166674  19.19140625 3.095703125  C 18.6285342261905 2.69856770833326  17.8980654761905 2.5  17 2.5  C 16.6964285714287 2.5  16.1272321428571 3.40494791666674  15.2924107142858 5.21484375  C 14.9888392857142 5.78776041666674  14.7548363095239 6.2109375  14.5904017857142 6.484375  C 14.0844494047619 7.31770833333326  13.3761160714287 8.26171875  12.4654017857142 9.31640625  C 11.5673363095239 10.37109375  10.9285714285713 11.0611979166667  10.5491071428571 11.38671875  C 9.67633928571422 12.12890625  8.79092261904771 12.5  7.89285714285711 12.5  L 7.28571428571422 12.5  L 7.28571428571422 25  L 7.89285714285711 25  C 8.80357142857133 25  9.85974702380952 25.2083333333333  11.0613839285713 25.625  C 12.2630208333333 26.0416666666667  13.4867931547619 26.4583333333333  14.7327008928571 26.875  C 15.9786086309523 27.2916666666667  17.1138392857142 27.5  18.1383928571429 27.5  C 20.5290178571429 27.5  21.7243303571429 26.4127604166667  21.7243303571429 24.23828125  C 21.7243303571429 23.8997395833333  21.6927083333333 23.53515625  21.6294642857142 23.14453125  C 22.0089285714287 22.9361979166667  22.309337797619 22.5944010416667  22.5306919642858 22.119140625  C 22.7520461309523 21.6438802083333  22.8627232142858 21.1653645833333  22.8627232142858 20.68359375  C 22.8627232142858 20.2018229166667  22.7488839285713 19.7526041666667  22.5212053571429 19.3359375  C 23.1915922619048 18.6848958333333  23.5267857142858 17.91015625  23.5267857142858 17.01171875  C 23.5267857142858 16.6861979166667  23.4635416666667 16.3248697916667  23.3370535714287 15.927734375  C 23.2105654761905 15.5305989583333  23.0524553571429 15.2213541666667  22.8627232142858 15  L 29.1428571428571 15  C 29.8005952380952 15  30.3697916666667 14.7526041666667  30.8504464285713 14.2578125  Z M 32.5580357142858 8.984375  C 33.5193452380952 9.97395833333326  34 11.1393229166667  34 12.48046875  C 34 13.84765625  33.5225074404761 15.0260416666667  32.5675223214287 16.015625  C 31.612537202381 17.0052083333333  30.4709821428571 17.5  29.1428571428571 17.5  L 25.9363839285713 17.5  C 25.8857886904761 18.3072916666667  25.6517857142858 19.08203125  25.234375 19.82421875  C 25.2723214285713 20.09765625  25.2912946428571 20.3776041666667  25.2912946428571 20.6640625  C 25.2912946428571 21.9791666666667  24.9118303571429 23.1380208333333  24.1529017857142 24.140625  C 24.1655505952381 25.9505208333333  23.6279761904761 27.3795572916667  22.5401785714287 28.427734375  C 21.452380952381 29.4759114583333  20.0167410714287 30  18.2332589285713 30  C 16.5509672619048 30  14.5145089285713 29.55078125  12.1238839285713 28.65234375  C 10.0494791666667 27.8841145833333  8.63913690476193 27.5  7.89285714285711 27.5  L 2.42857142857133 27.5  C 1.75818452380952 27.5  1.18582589285711 27.255859375  0.711495535714221 26.767578125  C 0.237165178571331 26.279296875  0 25.6901041666667  0 25  L 0 12.5  C 0 11.8098958333333  0.237165178571331 11.220703125  0.711495535714221 10.732421875  C 1.18582589285711 10.244140625  1.75818452380952 10  2.42857142857133 10  L 7.89285714285711 10  C 8.01934523809518 10  8.15531994047615 9.970703125  8.30078125 9.912109375  C 8.44624255952385 9.853515625  8.59486607142867 9.76236979166674  8.74665178571422 9.638671875  C 8.8984375 9.51497395833326  9.04073660714289 9.39778645833326  9.17354910714289 9.287109375  C 9.30636160714289 9.17643229166674  9.45814732142867 9.02994791666674  9.62890625 8.84765625  C 9.79966517857133 8.66536458333326  9.92931547619048 8.525390625  10.0178571428571 8.427734375  C 10.1063988095239 8.330078125  10.2265625 8.19010416666674  10.3783482142858 8.0078125  C 10.5301339285713 7.82552083333326  10.6186755952381 7.71484375  10.6439732142858 7.67578125  C 11.4661458333333 6.71223958333326  12.0985863095239 5.87239583333326  12.5412946428571 5.15625  C 12.7057291666667 4.8828125  12.9144345238095 4.47916666666674  13.1674107142858 3.9453125  C 13.4203869047619 3.41145833333326  13.6543898809523 2.94270833333326  13.8694196428571 2.5390625  C 14.0844494047619 2.13541666666674  14.340587797619 1.72526041666674  14.6378348214287 1.30859375  C 14.9350818452381 0.891927083333258  15.2829241071429 0.569661458333258  15.6813616071429 0.341796875  C 16.0797991071429 0.113932291666742  16.5193452380952 0  17 0  C 18.5811011904761 0  19.8870907738095 0.436197916666742  20.91796875 1.30859375  C 21.9488467261905 2.18098958333326  22.4642857142858 3.41145833333326  22.4642857142858 5  C 22.4642857142858 5.88541666666674  22.3251488095239 6.71875  22.046875 7.5  L 29.1428571428571 7.5  C 30.4583333333333 7.5  31.5967261904761 7.99479166666674  32.5580357142858 8.984375  Z " fill-rule="nonzero" fill="#666666" stroke="none" transform="matrix(1 0 0 1 752 819 )" />
  </g>
</svg>