<?xml version="1.0" encoding="utf-8"?>
<svg version="1.1" xmlns:xlink="http://www.w3.org/1999/xlink" width="33px" height="34px" xmlns="http://www.w3.org/2000/svg">
  <g transform="matrix(1 0 0 1 -340 -527 )">
    <path d="M 0 24.1339285714287  C 0 20.655505952381  1.57858769931664 17.7083333333333  4.73576309794987 15.2924107142858  C 4.6355353075171 15.0520833333333  4.58542141230066 14.7232142857142  4.58542141230066 14.3058035714287  C 4.58542141230066 14.0528273809523  4.65432801822323 13.742931547619  4.79214123006835 13.3761160714287  C 4.92995444191342 13.0093005952381  5.08029612756263 12.7247023809523  5.24316628701592 12.5223214285713  C 5.23063781321184 12.2440476190477  5.27761958997723 11.9088541666667  5.3841116173121 11.5167410714287  C 5.49060364464691 11.1246279761905  5.63154897494303 10.8526785714287  5.80694760820046 10.7008928571429  C 5.80694760820046 8.94270833333326  6.38638952164007 7.11811755952385  7.54527334851934 5.22712053571422  C 8.70415717539862 3.33612351190482  10.0666287015945 2.01116071428578  11.632687927107 1.25223214285711  C 13.374145785877 0.417410714285779  15.4037585421412 0  17.7215261958997 0  C 19.3878132118451 0  21.0541002277904 0.347842261904816  22.7203872437358 1.04352678571422  C 23.3342824601367 1.30915178571422  23.8980637813212 1.61272321428578  24.4117312072893 1.95424107142867  C 24.9253986332574 2.29575892857133  25.370159453303 2.64992559523807  25.746013667426 3.01674107142867  C 26.121867881549 3.38355654761904  26.4664009111617 3.81361607142867  26.7796127562642 4.30691964285711  C 27.0928246013668 4.80022321428578  27.3559225512528 5.26822916666674  27.5689066059225 5.7109375  C 27.7818906605922 6.15364583333326  27.9854783599089 6.68805803571422  28.1796697038724 7.31417410714289  C 28.373861047836 7.94029017857133  28.5335990888382 8.50632440476193  28.6588838268793 9.01227678571422  C 28.7841685649203 9.51822916666674  28.9219817767653 10.1380208333333  29.0723234624145 10.8716517857142  L 29.0911161731207 10.9665178571429  C 29.7801822323462 12.016369047619  30.124715261959 12.9650297619048  30.124715261959 13.8125  C 30.124715261959 13.9895833333333  30.0683371298406 14.2425595238095  29.9555808656036 14.5714285714287  C 29.8428246013667 14.9002976190477  29.7864464692483 15.140625  29.7864464692483 15.2924107142858  C 29.7864464692483 15.3050595238095  29.7958428246014 15.3271949404761  29.8146355353075 15.3588169642858  C 29.8334282460137 15.3904389880952  29.8553530751709 15.4220610119048  29.8804100227791 15.4536830357142  C 29.9054669703872 15.4853050595239  29.9179954441914 15.5074404761905  29.9179954441914 15.5200892857142  C 30.882687927107 16.9620535714287  31.6375284738041 18.3186383928571  32.1825170842825 19.58984375  C 32.7275056947608 20.8610491071429  33 22.1796875  33 23.5457589285713  C 33 24.0896577380952  32.87784738041 24.7220982142858  32.6335421412301 25.4430803571429  C 32.3892369020501 26.1640625  32.0415717539863 26.5245535714287  31.5905466970387 26.5245535714287  C 31.4777904328018 26.5245535714287  31.3556378132118 26.4771205357142  31.2240888382688 26.3822544642858  C 31.0925398633258 26.2873883928571  30.9735193621868 26.1767113095239  30.8670273348519 26.0502232142858  C 30.7605353075171 25.9237351190477  30.6415148063782 25.7593005952381  30.5099658314351 25.5569196428571  C 30.378416856492 25.3545386904761  30.2781890660592 25.1869419642858  30.2092824601367 25.0541294642858  C 30.1403758542141 24.9213169642858  30.0558086560364 24.7568824404761  29.9555808656036 24.5608258928571  C 29.8553530751709 24.3647693452381  29.7989749430524 24.2540922619048  29.7864464692483 24.2287946428571  C 29.7739179954442 24.2161458333333  29.755125284738 24.2098214285713  29.7300683371299 24.2098214285713  L 29.6361047835991 24.2857142857142  C 28.8969248291572 26.233630952381  28.0700455580866 27.6439732142858  27.1554669703872 28.5167410714287  C 27.4060364464693 28.7697172619048  27.7912870159454 29.0132068452381  28.3112186788155 29.2472098214287  C 28.8311503416857 29.481212797619  29.2633826879271 29.7436755952381  29.6079157175399 30.0345982142858  C 29.9524487471526 30.3255208333333  30.1748291571754 30.7366071428571  30.2750569476082 31.2678571428571  C 30.25 31.3184523809523  30.2249430523918 31.4196428571429  30.1998861047836 31.5714285714287  C 30.1748291571754 31.7232142857142  30.1309794988611 31.8370535714287  30.0683371298406 31.9129464285713  C 29.2665148063781 33.139880952381  27.374715261959 33.7533482142858  24.3929384965832 33.7533482142858  C 23.7289293849659 33.7533482142858  23.0367312072893 33.6964285714287  22.3163439635535 33.5825892857142  C 21.5959567198178 33.46875  20.9820615034168 33.3422619047619  20.4746583143508 33.203125  C 19.9672551252847 33.0639880952381  19.3126423690205 32.874255952381  18.5108200455581 32.6339285714287  C 18.3228929384966 32.5706845238096  18.1788154897494 32.5264136904761  18.0785876993166 32.5011160714287  C 17.9031890660592 32.4505208333333  17.6150341685649 32.4220610119048  17.2141230068337 32.4157366071429  C 16.8132118451025 32.409412202381  16.5626423690205 32.3999255952381  16.4624145785877 32.3872767857142  C 15.9487471526196 32.9564732142858  15.1500569476082 33.3675595238096  14.0663439635535 33.6205357142858  C 12.9826309794989 33.8735119047619  11.9271070615034 34  10.8997722095672 34  C 10.4612756264237 34  10.0290432801822 33.9905133928571  9.60307517084283 33.9715401785713  C 9.17710706150342 33.9525669642858  8.59453302961276 33.8956473214287  7.85535307517085 33.80078125  C 7.11617312072894 33.7059151785713  6.48348519362185 33.5762648809523  5.95728929384967 33.4118303571429  C 5.43109339407744 33.2473958333333  4.96440774487473 32.9944196428571  4.55723234624145 32.6529017857142  C 4.15005694760822 32.3113839285713  3.94646924829158 31.9066220238095  3.94646924829158 31.4386160714287  C 3.94646924829158 30.9326636904761  4.00911161731204 30.5563616071429  4.13439635535309 30.3097098214287  C 4.25968109339408 30.0630580357142  4.51651480637815 29.7563244047619  4.90489749430526 29.3895089285713  C 5.04271070615033 29.3642113095239  5.29641230068336 29.281994047619  5.66600227790434 29.1428571428571  C 6.03559225512527 29.0037202380952  6.34567198177677 28.9278273809523  6.59624145785875 28.9151785714287  C 6.64635535307519 28.9151785714287  6.73405466970388 28.9025297619048  6.85933940774487 28.8772321428571  C 6.88439635535309 28.8519345238095  6.89692482915717 28.8266369047619  6.89692482915717 28.8013392857142  L 6.85933940774487 28.7444196428571  C 6.25797266514803 28.6052827380952  5.58143507972665 27.9380580357142  4.82972665148066 26.7427455357142  C 4.07801822323461 25.5474330357142  3.620728929385 24.5576636904761  3.45785876993165 23.7734375  L 3.36389521640092 23.7165178571429  C 3.31378132118448 23.7165178571429  3.23861047835993 23.843005952381  3.13838268792711 24.0959821428571  C 2.91287015945329 24.6145833333333  2.57146924829158 25.0857514880952  2.11417995444191 25.5094866071429  C 1.65689066059224 25.9332217261905  1.17141230068336 26.1703869047619  0.657744874715263 26.2209821428571  L 0.63895216400914 26.2209821428571  C 0.588838268792699 26.2209821428571  0.551252847380397 26.1925223214287  0.526195899772176 26.1356026785713  C 0.501138952164013 26.0786830357142  0.469817767653751 26.0438988095239  0.432232346241449 26.03125  C 0.144077448747169 25.3482142857142  0 24.7157738095239  0 24.1339285714287  Z " fill-rule="nonzero" fill="#666666" stroke="none" transform="matrix(1 0 0 1 340 527 )" />
  </g>
</svg>