<?xml version="1.0" encoding="utf-8"?>
<svg version="1.1" xmlns:xlink="http://www.w3.org/1999/xlink" width="11px" height="34px" xmlns="http://www.w3.org/2000/svg">
  <g transform="matrix(1 0 0 1 -560 -395 )">
    <path d="M 9.78504618937653 25.9588068181818  C 10.0987875288684 26.264678030303  10.2556581986143 26.6268939393939  10.2556581986143 27.0454545454546  L 10.2556581986143 32.4545454545455  C 10.2556581986143 32.8731060606061  10.0987875288684 33.235321969697  9.78504618937653 33.5411931818181  C 9.47130484988462 33.8470643939394  9.09976905311792 34  8.67043879907627 34  L 2.32956120092384 34  C 1.90023094688225 34  1.5286951501155 33.8470643939394  1.21495381062358 33.5411931818181  C 0.901212471131724 33.235321969697  0.744341801385709 32.8731060606061  0.744341801385709 32.4545454545455  L 0.744341801385709 27.0454545454546  C 0.744341801385709 26.6268939393939  0.901212471131724 26.264678030303  1.21495381062358 25.9588068181818  C 1.5286951501155 25.6529356060606  1.90023094688225 25.5  2.32956120092384 25.5  L 8.67043879907627 25.5  C 9.09976905311792 25.5  9.47130484988462 25.6529356060606  9.78504618937653 25.9588068181818  Z M 10.5652713625867 0.458806818181813  C 10.8707563510394 0.764678030303003  11.0152424942264 1.12689393939394  10.9987297921479 1.54545454545456  L 10.3051963048499 20.0909090909091  C 10.2886836027715 20.5094696969697  10.1194284064666 20.8716856060606  9.79743071593542 21.1775568181818  C 9.47543302540428 21.483428030303  9.09976905311792 21.6363636363636  8.67043879907627 21.6363636363636  L 2.32956120092384 21.6363636363636  C 1.90023094688225 21.6363636363636  1.52456697459589 21.483428030303  1.20256928406469 21.1775568181818  C 0.880571593533555 20.8716856060606  0.71131639722865 20.5094696969697  0.694803695150149 20.0909090909091  L 0.00127020785220112 1.54545454545456  C -0.0152424942262998 1.12689393939394  0.129243648960768 0.764678030303003  0.434728637413461 0.458806818181813  C 0.740213625866098 0.152935606060566  1.10762124711318 0  1.53695150115478 0  L 9.46304849884539 0  C 9.89237875288687 0  10.259786374134 0.152935606060566  10.5652713625867 0.458806818181813  Z " fill-rule="nonzero" fill="#666666" stroke="none" transform="matrix(1 0 0 1 560 395 )" />
  </g>
</svg>