<?xml version="1.0" encoding="utf-8"?>
<svg version="1.1" xmlns:xlink="http://www.w3.org/1999/xlink" width="34px" height="34px" xmlns="http://www.w3.org/2000/svg">
  <g transform="matrix(1 0 0 1 -409 -328 )">
    <path d="M 27.6008522727273 15.671875  C 27.7457386363636 15.8167613636364  27.8181818181819 16.0018939393939  27.8181818181819 16.2272727272727  L 27.8181818181819 17.7727272727273  C 27.8181818181819 17.9981060606061  27.7457386363636 18.1832386363636  27.6008522727273 18.328125  C 27.4559659090909 18.4730113636364  27.2708333333334 18.5454545454546  27.0454545454546 18.5454545454546  L 18.5454545454546 18.5454545454546  L 18.5454545454546 27.0454545454546  C 18.5454545454546 27.2708333333334  18.4730113636364 27.4559659090909  18.328125 27.6008522727273  C 18.1832386363636 27.7457386363636  17.9981060606061 27.8181818181818  17.7727272727273 27.8181818181818  L 16.2272727272727 27.8181818181818  C 16.0018939393939 27.8181818181818  15.8167613636364 27.7457386363636  15.671875 27.6008522727273  C 15.5269886363636 27.4559659090909  15.4545454545454 27.2708333333334  15.4545454545454 27.0454545454546  L 15.4545454545454 18.5454545454546  L 6.95454545454544 18.5454545454546  C 6.72916666666663 18.5454545454546  6.54403409090907 18.4730113636364  6.39914772727269 18.328125  C 6.25426136363637 18.1832386363636  6.18181818181819 17.9981060606061  6.18181818181819 17.7727272727273  L 6.18181818181819 16.2272727272727  C 6.18181818181819 16.0018939393939  6.25426136363637 15.8167613636364  6.39914772727269 15.671875  C 6.54403409090907 15.5269886363636  6.72916666666663 15.4545454545454  6.95454545454544 15.4545454545454  L 15.4545454545454 15.4545454545454  L 15.4545454545454 6.95454545454544  C 15.4545454545454 6.72916666666663  15.5269886363636 6.54403409090907  15.671875 6.39914772727269  C 15.8167613636364 6.25426136363637  16.0018939393939 6.18181818181819  16.2272727272727 6.18181818181819  L 17.7727272727273 6.18181818181819  C 17.9981060606061 6.18181818181819  18.1832386363636 6.25426136363637  18.328125 6.39914772727269  C 18.4730113636364 6.54403409090907  18.5454545454546 6.72916666666663  18.5454545454546 6.95454545454544  L 18.5454545454546 15.4545454545454  L 27.0454545454546 15.4545454545454  C 27.2708333333334 15.4545454545454  27.4559659090909 15.5269886363636  27.6008522727273 15.671875  Z M 29.7741477272727 29.7741477272727  C 30.5307765151515 29.0175189393939  30.9090909090909 28.1079545454546  31 27.0454545454546  L 31 6.95454545454544  C 30.9090909090909 5.89204545454544  30.5307765151515 4.98248106060606  29.7741477272727 4.22585227272731  C 29.0175189393939 3.4692234848485  28.1079545454546 3.09090909090907  27.0454545454546 3  L 6.95454545454544 3  C 5.89204545454544 3.09090909090907  4.98248106060606 3.4692234848485  4.22585227272731 4.22585227272731  C 3.4692234848485 4.98248106060606  3.09090909090907 5.89204545454544  3 6.95454545454544  L 3 27.0454545454546  C 3.09090909090907 28.1079545454546  3.4692234848485 29.0175189393939  4.22585227272731 29.7741477272727  C 4.98248106060606 30.5307765151515  5.89204545454544 30.9090909090909  6.95454545454544 31  L 27.0454545454546 31  C 28.1079545454546 30.9090909090909  29.0175189393939 30.5307765151515  29.7741477272727 29.7741477272727  Z M 31.9595170454546 2.04048295454544  C 33.3198390151515 3.40080492424244  34 5.03882575757575  34 6.95454545454544  L 34 27.0454545454546  C 34 28.9611742424242  33.3198390151515 30.5991950757576  31.9595170454546 31.9595170454546  C 30.5991950757576 33.3198390151515  28.9611742424242 34  27.0454545454546 34  L 6.95454545454544 34  C 5.03882575757575 34  3.40080492424244 33.3198390151515  2.04048295454544 31.9595170454546  C 0.680160984848499 30.5991950757576  0 28.9611742424242  0 27.0454545454546  L 0 6.95454545454544  C 0 5.03882575757575  0.680160984848499 3.40080492424244  2.04048295454544 2.04048295454544  C 3.40080492424244 0.680160984848499  5.03882575757575 0  6.95454545454544 0  L 27.0454545454546 0  C 28.9611742424242 0  30.5991950757576 0.680160984848499  31.9595170454546 2.04048295454544  Z " fill-rule="nonzero" fill="#666666" stroke="none" transform="matrix(1 0 0 1 409 328 )" />
  </g>
</svg>