<?xml version="1.0" encoding="utf-8"?>
<svg version="1.1" xmlns:xlink="http://www.w3.org/1999/xlink" width="34px" height="30px" xmlns="http://www.w3.org/2000/svg">
  <g transform="matrix(1 0 0 1 -340 -657 )">
    <path d="M 19.6752232142857 14.1227386150968  L 33.1462053571429 0.281503431066768  C 33.3865327380952 0.0345705967977211  33.5889136904761 -0.0499064254522638  33.7533482142857 0.0280723643169268  C 33.9177827380952 0.106051154086117  34 0.313994593470626  34 0.651902682470338  L 34 29.3480973175298  C 34 29.6860054065295  33.9177827380952 29.893948845914  33.7533482142857 29.9719276356831  C 33.5889136904761 30.0499064254524  33.3865327380952 29.9654294032024  33.1462053571429 29.7184965689333  L 19.6752232142857 15.8772613849033  C 19.5613839285714 15.7602932002496  19.4791666666667 15.6368267831151  19 15.5068621334997  L 19 29.3480973175298  C 19.4285714285714 29.6860054065295  19.3463541666667 29.893948845914  19.1819196428571 29.9719276356831  C 19.0174851190476 30.0499064254524  18.8151041666667 29.9654294032024  18.5747767857143 29.7184965689333  L 5.10379464285717 15.8772613849033  C 4.98995535714283 15.7602932002496  4.90773809523807 15.6368267831151  5 15.5068621334997  L 5 28.7242669993762  C 4.85714285714283 29.062175088376  4.73697916666669 29.3545955500105  4.49665178571428 29.6015283842795  C 4.25632440476193 29.8484612185486  3.9717261904762 29.9719276356831  3.64285714285717 29.9719276356831  L 1.21428571428572 29.9719276356831  C 0.885416666666686 29.9719276356831  0.600818452380963 29.8484612185486  0.360491071428555 29.6015283842795  C 0.120163690476204 29.3545955500105  0 29.062175088376  0 28.7242669993762  L 0 1.27573300062386  C 0 0.937824911624038  0.120163690476204 0.645404449989658  0.360491071428555 0.398471615720611  C 0.600818452380963 0.151538781451564  0.885416666666686 0.0280723643169268  1.21428571428572 0.0280723643169268  L 3.64285714285717 0.0280723643169268  C 3.9717261904762 0.0280723643169268  4.25632440476193 0.151538781451564  4.49665178571428 0.398471615720611  C 4.73697916666669 0.645404449989658  4.85714285714283 0.937824911624038  5 1.27573300062386  L 5 14.4931378665004  C 4.90773809523807 14.3501767519236  4.98995535714283 14.2267103347889  5.10379464285717 14.1227386150968  L 18.5747767857143 0.281503431066768  C 18.8151041666667 0.0345705967977211  19.0174851190476 -0.0499064254522638  19.1819196428571 0.0280723643169268  C 19.3463541666667 0.106051154086117  19.4285714285714 0.313994593470626  19 0.651902682470338  L 19 14.4931378665004  C 19.4791666666667 14.3501767519236  19.5613839285714 14.2267103347889  19.6752232142857 14.1227386150968  Z " fill-rule="nonzero" fill="#666666" stroke="none" transform="matrix(1 0 0 1 340 657 )" />
  </g>
</svg>