<?xml version="1.0" encoding="utf-8"?>
<svg version="1.1" xmlns:xlink="http://www.w3.org/1999/xlink" width="34px" height="34px" xmlns="http://www.w3.org/2000/svg">
  <g transform="matrix(1 0 0 1 -617 -877 )">
    <path d="M 22.0911458333333 21.7369791666667  C 23.4487847222223 20.4678819444445  25.0572916666667 19.8333333333333  26.9166666666667 19.8333333333333  C 28.8793402777777 19.8333333333333  30.5505642361111 20.5232204861111  31.9303385416667 21.9029947916667  C 33.3101128472223 23.2827690972223  34 24.9539930555555  34 26.9166666666667  C 34 28.8793402777777  33.3101128472223 30.5505642361111  31.9303385416667 31.9303385416667  C 30.5505642361111 33.3101128472223  28.8793402777777 34  26.9166666666667 34  C 24.9539930555555 34  23.2827690972223 33.3101128472223  21.9029947916667 31.9303385416667  C 20.5232204861111 30.5505642361111  19.8333333333333 28.8793402777777  19.8333333333333 26.9166666666667  C 19.8333333333333 26.7395833333333  19.8480902777777 26.4887152777777  19.8776041666667 26.1640625  L 11.9088541666667 22.1796875  C 10.5512152777777 23.4487847222223  8.94270833333326 24.0833333333333  7.08333333333326 24.0833333333333  C 5.12065972222229 24.0833333333333  3.44943576388891 23.3934461805555  2.06966145833326 22.013671875  C 0.689887152777715 20.6338975694445  0 18.9626736111111  0 17  C 0 15.0373263888889  0.689887152777715 13.3661024305555  2.06966145833326 11.986328125  C 3.44943576388891 10.6065538194445  5.12065972222229 9.91666666666674  7.08333333333326 9.91666666666674  C 8.94270833333326 9.91666666666674  10.5512152777777 10.5512152777777  11.9088541666667 11.8203125  L 19.8776041666667 7.8359375  C 19.8480902777777 7.51128472222229  19.8333333333333 7.26041666666674  19.8333333333333 7.08333333333326  C 19.8333333333333 5.12065972222229  20.5232204861111 3.44943576388891  21.9029947916667 2.06966145833326  C 23.2827690972223 0.689887152777715  24.9539930555555 0  26.9166666666667 0  C 28.8793402777777 0  30.5505642361111 0.689887152777715  31.9303385416667 2.06966145833326  C 33.3101128472223 3.44943576388891  34 5.12065972222229  34 7.08333333333326  C 34 9.04600694444446  33.3101128472223 10.7172309027777  31.9303385416667 12.0970052083333  C 30.5505642361111 13.4767795138889  28.8793402777777 14.1666666666667  26.9166666666667 14.1666666666667  C 25.0572916666667 14.1666666666667  23.4487847222223 13.5321180555555  22.0911458333333 12.2630208333333  L 14.1223958333333 16.2473958333333  C 14.1519097222223 16.5720486111111  14.1666666666667 16.8229166666667  14.1666666666667 17  C 14.1666666666667 17.1770833333333  14.1519097222223 17.4279513888889  14.1223958333333 17.7526041666667  L 22.0911458333333 21.7369791666667  Z " fill-rule="nonzero" fill="#666666" stroke="none" transform="matrix(1 0 0 1 617 877 )" />
  </g>
</svg>