<?xml version="1.0" encoding="utf-8"?>
<svg version="1.1" xmlns:xlink="http://www.w3.org/1999/xlink" width="34px" height="34px" xmlns="http://www.w3.org/2000/svg">
  <g transform="matrix(1 0 0 1 -684 -587 )">
    <path d="M 8.466796875 2.27994791666674  C 11.0713975694445 0.759982638888914  13.9157986111111 0  17 0  C 20.0842013888889 0  22.9286024305555 0.759982638888914  25.533203125 2.27994791666674  C 28.1378038194445 3.79991319444446  30.2000868055555 5.86219618055554  31.7200520833333 8.466796875  C 33.2400173611111 11.0713975694445  34 13.9157986111111  34 17  C 34 20.0842013888889  33.2400173611111 22.9286024305555  31.7200520833333 25.533203125  C 30.2000868055555 28.1378038194445  28.1378038194445 30.2000868055555  25.533203125 31.7200520833333  C 22.9286024305555 33.2400173611111  20.0842013888889 34  17 34  C 13.9157986111111 34  11.0713975694445 33.2400173611111  8.466796875 31.7200520833333  C 5.86219618055554 30.2000868055555  3.79991319444446 28.1378038194445  2.27994791666674 25.533203125  C 0.759982638888914 22.9286024305555  0 20.0842013888889  0 17  C 0 13.9157986111111  0.759982638888914 11.0713975694445  2.27994791666674 8.466796875  C 3.79991319444446 5.86219618055554  5.86219618055554 3.79991319444446  8.466796875 2.27994791666674  Z M 10.95703125 27.42578125  C 12.8016493055555 28.5030381944445  14.8159722222223 29.0416666666667  17 29.0416666666667  C 19.1840277777777 29.0416666666667  21.1983506944445 28.5030381944445  23.04296875 27.42578125  C 24.8875868055555 26.3485243055555  26.3485243055555 24.8875868055555  27.42578125 23.04296875  C 28.5030381944445 21.1983506944445  29.0416666666667 19.1840277777777  29.0416666666667 17  C 29.0416666666667 14.8159722222223  28.5030381944445 12.8016493055555  27.42578125 10.95703125  C 26.3485243055555 9.11241319444446  24.8875868055555 7.65147569444446  23.04296875 6.57421875  C 21.1983506944445 5.49696180555554  19.1840277777777 4.95833333333326  17 4.95833333333326  C 14.8159722222223 4.95833333333326  12.8016493055555 5.49696180555554  10.95703125 6.57421875  C 9.11241319444446 7.65147569444446  7.65147569444446 9.11241319444446  6.57421875 10.95703125  C 5.49696180555554 12.8016493055555  4.95833333333326 14.8159722222223  4.95833333333326 17  C 4.95833333333326 19.1840277777777  5.49696180555554 21.1983506944445  6.57421875 23.04296875  C 7.65147569444446 24.8875868055555  9.11241319444446 26.3485243055555  10.95703125 27.42578125  Z M 23.375 24.0833333333333  L 19.125 24.0833333333333  C 18.9184027777777 24.0833333333333  18.7486979166667 24.0169270833333  18.6158854166667 23.8841145833333  C 18.4830729166667 23.7513020833333  18.4166666666667 23.5815972222223  18 23.375  L 18 10.625  C 18.4166666666667 10.4184027777777  18.4830729166667 10.2486979166667  18.6158854166667 10.1158854166667  C 18.7486979166667 9.98307291666674  18.9184027777777 9.91666666666674  19.125 9.91666666666674  L 23.375 9.91666666666674  C 23.5815972222223 9.91666666666674  23.7513020833333 9.98307291666674  23.8841145833333 10.1158854166667  C 24.0169270833333 10.2486979166667  24.0833333333333 10.4184027777777  24 10.625  L 24 23.375  C 24.0833333333333 23.5815972222223  24.0169270833333 23.7513020833333  23.8841145833333 23.8841145833333  C 23.7513020833333 24.0169270833333  23.5815972222223 24.0833333333333  23.375 24.0833333333333  Z M 14.875 24.0833333333333  L 10.625 24.0833333333333  C 10.4184027777777 24.0833333333333  10.2486979166667 24.0169270833333  10.1158854166667 23.8841145833333  C 9.98307291666674 23.7513020833333  9.91666666666674 23.5815972222223  10 23.375  L 10 10.625  C 9.91666666666674 10.4184027777777  9.98307291666674 10.2486979166667  10.1158854166667 10.1158854166667  C 10.2486979166667 9.98307291666674  10.4184027777777 9.91666666666674  10.625 9.91666666666674  L 14.875 9.91666666666674  C 15.0815972222223 9.91666666666674  15.2513020833333 9.98307291666674  15.3841145833333 10.1158854166667  C 15.5169270833333 10.2486979166667  15.5833333333333 10.4184027777777  16 10.625  L 16 23.375  C 15.5833333333333 23.5815972222223  15.5169270833333 23.7513020833333  15.3841145833333 23.8841145833333  C 15.2513020833333 24.0169270833333  15.0815972222223 24.0833333333333  14.875 24.0833333333333  Z " fill-rule="nonzero" fill="#666666" stroke="none" transform="matrix(1 0 0 1 684 587 )" />
  </g>
</svg>