<?xml version="1.0" encoding="utf-8"?>
<svg version="1.1" xmlns:xlink="http://www.w3.org/1999/xlink" width="34px" height="27px" xmlns="http://www.w3.org/2000/svg">
  <g transform="matrix(1 0 0 1 -409 -710 )">
    <path d="M 18.7834821428571 3.45143217864745  C 17.1011904761905 2.78671190720422  15.2924107142857 2.45435177148261  13.3571428571429 2.45435177148261  C 11.421875 2.45435177148261  9.61309523809524 2.78671190720422  7.93080357142856 3.45143217864745  C 6.24851190476193 4.11615245009068  4.91090029761904 5.01735974118196  3.91796875 6.15505405192141  C 2.92503720238096 7.29274836266074  2.42857142857144 8.51353270733046  2.42857142857144 9.81740708593077  C 2.42857142857144 10.8656198216681  2.76376488095241 11.8754833109761  3.43415178571433 12.8469975538546  C 4.10453869047615 13.8185117967332  5.046875 14.6621952181804  6.26116071428567 15.3780478181961  L 8.1015625 16.4518267182198  L 7.4375 18.0624950682553  C 7.86755952380952 17.8068334253926  8.25967261904759 17.5575633236014  8.61383928571433 17.3146847628817  L 9.44866071428567 16.7202714432257  L 10.4542410714286 16.9120176753728  C 11.4408482142857 17.0909808253768  12.4084821428571 17.1804624003787  13.3571428571429 17.1804624003787  C 15.2924107142857 17.1804624003787  17.1011904761905 16.8481022646571  18.7834821428571 16.1833819932139  C 20.4657738095239 15.5186617217706  21.8033854166666 14.6174544306793  22.7963169642857 13.47976011994  C 23.7892485119048 12.3420658092006  24.2857142857143 11.1212814645309  24.2857142857143 9.81740708593077  C 24.2857142857143 8.51353270733046  23.7892485119048 7.29274836266074  22.7963169642857 6.15505405192141  C 21.8033854166666 5.01735974118196  20.4657738095239 4.11615245009068  18.7834821428571 3.45143217864745  Z M 6.65011160714289 1.31346169020753  C 8.70554315476193 0.437820563402511  10.9412202380952 0  13.3571428571429 0  C 15.7730654761905 0  18.0087425595239 0.437820563402511  20.0641741071429 1.31346169020753  C 22.1196056547619 2.18910281701255  23.7418154761905 3.38112522686026  24.9308035714286 4.88952891975066  C 26.1197916666666 6.39793261264106  26.7142857142857 8.04055866803435  26.7142857142857 9.81740708593077  C 26.7142857142857 11.594255503827  26.1197916666666 13.2368815592204  24.9308035714286 14.7452852521108  C 23.7418154761905 16.2536889450012  22.1196056547619 17.4457113548489  20.0641741071429 18.3213524816539  C 18.0087425595239 19.1969936084589  15.7730654761905 19.6348141718614  13.3571428571429 19.6348141718614  C 12.2693452380952 19.6348141718614  11.15625 19.5325495147163  10.0178571428571 19.3280202004261  C 8.44940476190476 20.4529314290223  6.69122023809524 21.2710486861832  4.74330357142856 21.7823719719088  C 4.28794642857144 21.897419711197  3.74404761904759 21.9996843683422  3.11160714285711 22.0891659433441  L 3.0546875 22.0891659433441  C 2.91555059523807 22.0891659433441  2.78590029761904 22.0380336147715  2.66573660714289 21.9357689576265  C 2.54557291666663 21.8335043004813  2.47284226190476 21.6992819379784  2.44754464285711 21.5331018701175  C 2.43489583333337 21.4947526236881  2.42857142857144 21.4532076067229  2.42857142857144 21.408466819222  C 2.42857142857144 21.3637260317209  2.43173363095241 21.3221810147558  2.43805803571433 21.2838317683264  C 2.44438244047615 21.2454825218969  2.45703125 21.2071332754675  2.47600446428567 21.1687840290381  L 2.5234375 21.0729109129645  C 2.5234375 21.0729109129645  2.54557291666663 21.0377574370709  2.58984375 20.9674504852836  C 2.63411458333337 20.8971435334964  2.65941220238096 20.8651858281386  2.66573660714289 20.8715773692101  C 2.67206101190476 20.8779689102817  2.70052083333337 20.8460112049238  2.75111607142856 20.7757042531366  C 2.80171130952385 20.7053973013493  2.82700892857144 20.6766353665272  2.82700892857144 20.6894184486704  C 2.89025297619048 20.6127199558115  3.03571428571433 20.4529314290223  3.26339285714289 20.2100528683027  C 3.49107142857144 19.9671743075829  3.65550595238096 19.7786238459718  3.75669642857144 19.6444014834688  C 3.85788690476193 19.5101791209659  4.00018601190476 19.3248244298902  4.18359375 19.0883374102422  C 4.36700148809524 18.8518503905941  4.52511160714289 18.6057760593387  4.65792410714289 18.3501144164759  C 4.79073660714289 18.0944527736132  4.92038690476193 17.8132249664641  5.046875 17.5064309950288  C 3.47842261904759 16.5860490807228  2.24516369047615 15.4547463110549  1.34709821428567 14.1125226860254  C 0.449032738095241 12.7702990609957  0 11.3385938609642  0 9.81740708593077  C 0 8.04055866803435  0.594494047619037 6.39793261264106  1.78348214285711 4.88952891975066  C 2.97247023809524 3.38112522686026  4.59468005952385 2.18910281701255  6.65011160714289 1.31346169020753  Z M 32.6529017857143 19.0308135405982  C 31.7548363095239 20.3666456245561  30.5215773809524 21.4947526236881  28.953125 22.4151345379942  C 29.0796130952381 22.7219285094295  29.2092633928571 23.0031563165785  29.3420758928571 23.2588179594413  C 29.4748883928571 23.5144796023042  29.6329985119048 23.7605539335595  29.81640625 23.9970409532076  C 29.9998139880952 24.2335279728557  30.1421130952381 24.4188826639311  30.2433035714286 24.5531050264341  C 30.344494047619 24.6873273889371  30.5089285714286 24.8758778505484  30.7366071428571 25.118756411268  C 30.9642857142857 25.3616349719877  31.1097470238095 25.5214234987769  31.1729910714286 25.5981219916357  C 31.1856398809524 25.6109050737789  31.2109375 25.639667008601  31.2488839285714 25.6844077961018  C 31.2868303571429 25.7291485836029  31.3152901785714 25.7611062889607  31.3342633928571 25.7802809121754  C 31.3532366071429 25.7994555353902  31.3785342261905 25.831413240748  31.41015625 25.8761540282489  C 31.4417782738095 25.92089481575  31.4639136904761 25.9560482916436  31.4765625 25.98161445593  L 31.5239955357143 26.0774875720035  C 31.5239955357143 26.0774875720035  31.5366443452381 26.1158368184329  31.5619419642857 26.1925353112916  C 31.5872395833334 26.2692338041505  31.5904017857143 26.3107788211157  31.5714285714286 26.3171703621872  C 31.5524553571429 26.3235619032589  31.546130952381 26.3651069202241  31.5524553571429 26.4418054130829  C 31.5145089285714 26.6207685630868  31.4322916666666 26.7613824666614  31.3058035714286 26.8636471238065  C 31.1793154761905 26.9659117809516  31.0401785714286 27.0106525684527  30.8883928571429 26.9978694863095  C 30.2559523809524 26.9083879113074  29.7120535714286 26.8061232541623  29.2566964285714 26.6910755148741  C 27.3087797619048 26.1797522291486  25.5505952380952 25.3616349719877  23.9821428571429 24.2367237433914  C 22.84375 24.4412530576816  21.7306547619048 24.5435177148267  20.6428571428571 24.5435177148267  C 17.2150297619048 24.5435177148267  14.2299107142857 23.6998342933796  11.6875 22.0124674504852  C 12.421130952381 22.0635997790578  12.9776785714286 22.0891659433441  13.3571428571429 22.0891659433441  C 15.3936011904761 22.0891659433441  17.3478422619048 21.8015465951235  19.2198660714286 21.2263078986822  C 21.0918898809524 20.651069202241  22.7615327380952 19.8265604040085  24.2287946428571 18.7527815039849  C 25.8098958333334 17.576737946816  27.024181547619 16.2217312396433  27.8716517857143 14.6877613824666  C 28.7191220238095 13.15379152529  29.1428571428571 11.5303400931114  29.1428571428571 9.81740708593077  C 29.1428571428571 8.833109760909  28.9973958333334 7.86159551803041  28.7064732142857 6.90286435729502  C 30.3381696428571 7.81046318945789  31.6283482142857 8.94815750019734  32.5770089285714 10.3159472895131  C 33.5256696428571 11.683737078829  34 13.15379152529  34 14.7261106288961  C 34 16.2600804860728  33.5509672619048 17.69498145664  32.6529017857143 19.0308135405982  Z " fill-rule="nonzero" fill="#666666" stroke="none" transform="matrix(1 0 0 1 409 710 )" />
  </g>
</svg>