<?xml version="1.0" encoding="utf-8"?>
<svg version="1.1" xmlns:xlink="http://www.w3.org/1999/xlink" width="34px" height="34px" xmlns="http://www.w3.org/2000/svg">
  <g transform="matrix(1 0 0 1 -478 -587 )">
    <path d="M 25.5 15.7825520833333  C 25.9722222222222 16.0481770833333  26.2083333333334 16.4539930555555  26.2083333333334 17  C 26.2083333333334 17.5460069444445  25.9722222222222 17.9518229166667  25.5 18.2174479166667  L 13.4583333333334 25.30078125  C 13.2369791666666 25.43359375  13.0008680555555 25.5  12.75 25.5  C 12.5138888888889 25.5  12.2777777777778 25.4409722222223  12.0416666666666 25.3229166666667  C 11.5694444444445 25.0425347222223  11.3333333333334 24.6293402777777  12 24.0833333333333  L 12 9.91666666666674  C 11.3333333333334 9.37065972222229  11.5694444444445 8.95746527777771  12.0416666666666 8.67708333333326  C 12.5286458333334 8.41145833333326  13.0008680555555 8.41883680555554  13.4583333333334 8.69921875  L 25.5 15.7825520833333  Z M 27.42578125 23.04296875  C 28.5030381944445 21.1983506944445  29.0416666666666 19.1840277777777  29.0416666666666 17  C 29.0416666666666 14.8159722222223  28.5030381944445 12.8016493055555  27.42578125 10.95703125  C 26.3485243055555 9.11241319444446  24.8875868055555 7.65147569444446  23.04296875 6.57421875  C 21.1983506944445 5.49696180555554  19.1840277777778 4.95833333333326  17 4.95833333333326  C 14.8159722222222 4.95833333333326  12.8016493055555 5.49696180555554  10.95703125 6.57421875  C 9.11241319444446 7.65147569444446  7.65147569444446 9.11241319444446  6.57421875 10.95703125  C 5.49696180555554 12.8016493055555  4.95833333333337 14.8159722222223  4.95833333333337 17  C 4.95833333333337 19.1840277777777  5.49696180555554 21.1983506944445  6.57421875 23.04296875  C 7.65147569444446 24.8875868055555  9.11241319444446 26.3485243055555  10.95703125 27.42578125  C 12.8016493055555 28.5030381944445  14.8159722222222 29.0416666666667  17 29.0416666666667  C 19.1840277777778 29.0416666666667  21.1983506944445 28.5030381944445  23.04296875 27.42578125  C 24.8875868055555 26.3485243055555  26.3485243055555 24.8875868055555  27.42578125 23.04296875  Z M 31.7200520833334 8.466796875  C 33.2400173611111 11.0713975694445  34 13.9157986111111  34 17  C 34 20.0842013888889  33.2400173611111 22.9286024305555  31.7200520833334 25.533203125  C 30.2000868055555 28.1378038194445  28.1378038194445 30.2000868055555  25.533203125 31.7200520833333  C 22.9286024305555 33.2400173611111  20.0842013888889 34  17 34  C 13.9157986111111 34  11.0713975694445 33.2400173611111  8.466796875 31.7200520833333  C 5.86219618055554 30.2000868055555  3.79991319444446 28.1378038194445  2.27994791666663 25.533203125  C 0.759982638888857 22.9286024305555  0 20.0842013888889  0 17  C 0 13.9157986111111  0.759982638888857 11.0713975694445  2.27994791666663 8.466796875  C 3.79991319444446 5.86219618055554  5.86219618055554 3.79991319444446  8.466796875 2.27994791666674  C 11.0713975694445 0.759982638888914  13.9157986111111 0  17 0  C 20.0842013888889 0  22.9286024305555 0.759982638888914  25.533203125 2.27994791666674  C 28.1378038194445 3.79991319444446  30.2000868055555 5.86219618055554  31.7200520833334 8.466796875  Z " fill-rule="nonzero" fill="#666666" stroke="none" transform="matrix(1 0 0 1 478 587 )" />
  </g>
</svg>