<?xml version="1.0" encoding="utf-8"?>
<svg version="1.1" xmlns:xlink="http://www.w3.org/1999/xlink" width="34px" height="34px" xmlns="http://www.w3.org/2000/svg">
  <g transform="matrix(1 0 0 1 -617 -527 )">
    <path d="M 32.6497395833333 10.4036458333333  C 33.5499131944445 12.4991319444445  34 14.6979166666667  34 17  C 34 19.3020833333333  33.5499131944445 21.5008680555555  32.6497395833333 23.5963541666667  C 31.7495659722223 25.6918402777777  30.5394965277777 27.4995659722223  29.01953125 29.01953125  C 27.4995659722223 30.5394965277777  25.6918402777777 31.7495659722223  23.5963541666667 32.6497395833333  C 21.5008680555555 33.5499131944445  19.3020833333333 34  17 34  C 14.4618055555555 34  12.0490451388889 33.4650607638889  9.76171875 32.3951822916667  C 7.47439236111109 31.3253038194445  5.52647569444446 29.81640625  3.91796875 27.8684895833333  C 3.81467013888891 27.7209201388889  3.76671006944446 27.5549045138889  3.77408854166674 27.3704427083333  C 3.78146701388891 27.1859809027777  3.84418402777771 27.0347222222223  3.96223958333326 26.9166666666667  L 6.99479166666674 23.8619791666667  C 7.14236111111109 23.7291666666667  7.32682291666674 23.6627604166667  7.54817708333326 23.6627604166667  C 7.78428819444446 23.6922743055555  7.95399305555554 23.7808159722223  8.05729166666674 23.9283854166667  C 9.13454861111109 25.3302951388889  10.4552951388889 26.4149305555555  12.01953125 27.1822916666667  C 13.5837673611111 27.9496527777777  15.2439236111111 28.3333333333333  17 28.3333333333333  C 18.5347222222223 28.3333333333333  19.9993489583333 28.0345052083333  21.3938802083333 27.4368489583333  C 22.7884114583333 26.8391927083333  23.9947916666667 26.03125  25.0130208333333 25.0130208333333  C 26.03125 23.9947916666667  26.8391927083333 22.7884114583333  27.4368489583333 21.3938802083333  C 28.0345052083333 19.9993489583333  28.3333333333333 18.5347222222223  28.3333333333333 17  C 28.3333333333333 15.4652777777777  28.0345052083333 14.0006510416667  27.4368489583333 12.6061197916667  C 26.8391927083333 11.2115885416667  26.03125 10.0052083333333  25.0130208333333 8.98697916666674  C 23.9947916666667 7.96875  22.7884114583333 7.16080729166674  21.3938802083333 6.56315104166674  C 19.9993489583333 5.96549479166674  18.5347222222223 5.66666666666674  17 5.66666666666674  C 15.5538194444445 5.66666666666674  14.1666666666667 5.92860243055554  12.8385416666667 6.45247395833326  C 11.5104166666667 6.97634548611109  10.3298611111111 7.72526041666674  9.296875 8.69921875  L 12.3294270833333 11.75390625  C 12.7868923611111 12.1966145833333  12.8901909722223 12.7057291666667  12.6393229166667 13.28125  C 12.3884548611111 13.8715277777777  11.953125 14.1666666666667  11.3333333333333 14.1666666666667  L 1.41666666666674 14.1666666666667  C 1.03298611111109 14.1666666666667  0.700954861111086 14.0264756944445  0.420572916666742 13.74609375  C 0.140190972222285 13.4657118055555  0 13.1336805555555  0 12.75  L 0 2.83333333333326  C 0 2.21354166666674  0.295138888888914 1.77821180555554  0.885416666666742 1.52734375  C 1.4609375 1.27647569444446  1.97005208333326 1.37977430555554  2.41276041666674 1.83723958333326  L 5.29036458333326 4.69270833333326  C 6.86935763888891 3.20225694444446  8.67339409722229 2.04752604166674  10.7024739583333 1.228515625  C 12.7315538194445 0.409505208333258  14.8307291666667 0  17 0  C 19.3020833333333 0  21.5008680555555 0.450086805555543  23.5963541666667 1.35026041666674  C 25.6918402777777 2.25043402777771  27.4995659722223 3.46050347222229  29.01953125 4.98046875  C 30.5394965277777 6.50043402777771  31.7495659722223 8.30815972222229  32.6497395833333 10.4036458333333  Z " fill-rule="nonzero" fill="#666666" stroke="none" transform="matrix(1 0 0 1 617 527 )" />
  </g>
</svg>