<?xml version="1.0" encoding="utf-8"?>
<svg version="1.1" xmlns:xlink="http://www.w3.org/1999/xlink" width="34px" height="34px" xmlns="http://www.w3.org/2000/svg">
  <g transform="matrix(1 0 0 1 -340 -328 )">
    <path d="M 33.3238636363636 13.0397727272727  C 33.7746212121212 13.4905303030303  34 14.0378787878788  34 14.6818181818181  L 34 19.3181818181818  C 34 19.9621212121212  33.7746212121212 20.5094696969697  33.3238636363636 20.9602272727273  C 32.8731060606061 21.4109848484849  32.3257575757576 21.6363636363636  31.6818181818181 21  L 21 21  L 21 31.6818181818182  C 21.6363636363636 32.3257575757576  21.4109848484849 32.8731060606061  20.9602272727273 33.3238636363636  C 20.5094696969697 33.7746212121212  19.9621212121212 34  19.3181818181818 34  L 14.6818181818182 34  C 14.0378787878788 34  13.4905303030303 33.7746212121212  13.0397727272727 33.3238636363636  C 12.5890151515151 32.8731060606061  12.3636363636364 32.3257575757576  13 31.6818181818182  L 13 21  L 2.31818181818181 21  C 1.67424242424244 21.6363636363636  1.12689393939394 21.4109848484849  0.676136363636374 20.9602272727273  C 0.22537878787881 20.5094696969697  0 19.9621212121212  0 19.3181818181818  L 0 14.6818181818181  C 0 14.0378787878788  0.22537878787881 13.4905303030303  0.676136363636374 13.0397727272727  C 1.12689393939394 12.5890151515151  1.67424242424244 12.3636363636364  2.31818181818181 13  L 13 13  L 13 2.31818181818181  C 12.3636363636364 1.67424242424244  12.5890151515151 1.12689393939394  13.0397727272727 0.676136363636374  C 13.4905303030303 0.22537878787881  14.0378787878788 0  14.6818181818182 0  L 19.3181818181818 0  C 19.9621212121212 0  20.5094696969697 0.22537878787881  20.9602272727273 0.676136363636374  C 21.4109848484849 1.12689393939394  21.6363636363636 1.67424242424244  21 2.31818181818181  L 21 13  L 31.6818181818181 13  C 32.3257575757576 12.3636363636364  32.8731060606061 12.5890151515151  33.3238636363636 13.0397727272727  Z " fill-rule="nonzero" fill="#666666" stroke="none" transform="matrix(1 0 0 1 340 328 )" />
  </g>
</svg>