<?xml version="1.0" encoding="utf-8"?>
<svg version="1.1" xmlns:xlink="http://www.w3.org/1999/xlink" width="34px" height="34px" xmlns="http://www.w3.org/2000/svg">
  <g transform="matrix(1 0 0 1 -409 -395 )">
    <path d="M 20.7289663461539 13.2710336538461  C 20.8583733974359 13.4004407051282  20.9230769230769 13.5536858974359  20.9230769230769 13.7307692307692  L 20.9230769230769 15.0384615384615  C 20.9230769230769 15.2155448717949  20.8583733974359 15.3687900641025  20.7289663461539 15.4981971153846  C 20.5995592948718 15.6276041666666  20.4463141025641 15.6923076923077  20.2692307692308 16  L 8.5 16  C 8.32291666666663 15.6923076923077  8.16967147435901 15.6276041666666  8.04026442307691 15.4981971153846  C 7.91085737179486 15.3687900641025  7.84615384615387 15.2155448717949  7.84615384615387 15.0384615384615  L 7.84615384615387 13.7307692307692  C 7.84615384615387 13.5536858974359  7.91085737179486 13.4004407051282  8.04026442307691 13.2710336538461  C 8.16967147435901 13.1416266025641  8.32291666666663 13.0769230769231  8.5 13  L 20.2692307692308 13  C 20.4463141025641 13.0769230769231  20.5995592948718 13.1416266025641  20.7289663461539 13.2710336538461  Z M 20.8515625 20.8515625  C 22.6428285256411 19.0602964743589  23.5384615384615 16.9046474358975  23.5384615384615 14.3846153846154  C 23.5384615384615 11.8645833333334  22.6428285256411 9.70893429487182  20.8515625 7.91766826923077  C 19.060296474359 6.12640224358972  16.9046474358975 5.23076923076923  14.3846153846154 5.23076923076923  C 11.8645833333334 5.23076923076923  9.70893429487182 6.12640224358972  7.91766826923077 7.91766826923077  C 6.12640224358972 9.70893429487182  5.23076923076923 11.8645833333334  5.23076923076923 14.3846153846154  C 5.23076923076923 16.9046474358975  6.12640224358972 19.0602964743589  7.91766826923077 20.8515625  C 9.70893429487182 22.642828525641  11.8645833333334 23.5384615384615  14.3846153846154 23.5384615384615  C 16.9046474358975 23.5384615384615  19.060296474359 22.642828525641  20.8515625 20.8515625  Z M 33.2439903846154 29.5456730769231  C 33.7479967948718 30.0496794871794  34 30.6626602564103  34 31.3846153846154  C 34 32.1065705128206  33.7445913461539 32.7229567307693  33.2337740384615 33.2337740384615  C 32.7229567307692 33.7445913461538  32.1065705128205 34  31.3846153846154 34  C 30.6490384615385 34  30.0360576923077 33.7411858974359  29.5456730769231 33.2235576923077  L 22.5372596153846 26.2355769230769  C 20.0989583333334 27.9246794871794  17.3814102564103 28.7692307692307  14.3846153846154 28.7692307692307  C 12.4366987179487 28.7692307692307  10.5739182692308 28.3912259615385  8.79627403846155 27.6352163461538  C 7.01862980769232 26.8792067307693  5.48617788461542 25.8575721153846  4.19891826923077 24.5703125  C 2.91165865384613 23.2830528846154  1.89002403846155 21.7506009615385  1.13401442307691 19.9729567307692  C 0.378004807692321 18.1953125  0 16.332532051282  0 14.3846153846154  C 0 12.4366987179487  0.378004807692321 10.5739182692308  1.13401442307691 8.79627403846155  C 1.89002403846155 7.01862980769232  2.91165865384613 5.48617788461542  4.19891826923077 4.19891826923077  C 5.48617788461542 2.91165865384613  7.01862980769232 1.89002403846155  8.79627403846155 1.13401442307691  C 10.5739182692308 0.378004807692321  12.4366987179487 0  14.3846153846154 0  C 16.332532051282 0  18.1953125 0.378004807692321  19.9729567307692 1.13401442307691  C 21.7506009615385 1.89002403846155  23.2830528846154 2.91165865384613  24.5703125 4.19891826923077  C 25.8575721153846 5.48617788461542  26.8792067307692 7.01862980769232  27.6352163461539 8.79627403846155  C 28.3912259615385 10.5739182692308  28.7692307692308 12.4366987179487  28.7692307692308 14.3846153846154  C 28.7692307692308 17.3814102564103  27.9246794871795 20.0989583333334  26.2355769230769 22.5372596153846  L 33.2439903846154 29.5456730769231  Z " fill-rule="nonzero" fill="#666666" stroke="none" transform="matrix(1 0 0 1 409 395 )" />
  </g>
</svg>