<?xml version="1.0" encoding="utf-8"?>
<svg version="1.1" xmlns:xlink="http://www.w3.org/1999/xlink" width="32px" height="34px" xmlns="http://www.w3.org/2000/svg">
  <g transform="matrix(1 0 0 1 -550 -942 )">
    <path d="M 11.4318181818182 28.1341145833335  C 11.5681818181818 28.0013020833335  11.6363636363636 27.8315972222222  12 27.625  L 12 12.0416666666665  C 11.6363636363636 11.8350694444446  11.5681818181818 11.6653645833335  11.4318181818182 11.5325520833335  C 11.2954545454546 11.3997395833335  11.1212121212121 11.3333333333335  10.9090909090909 11.3333333333335  L 9.45454545454544 11.3333333333335  C 9.24242424242425 11.3333333333335  9.06818181818181 11.3997395833335  8.93181818181819 11.5325520833335  C 8.79545454545456 11.6653645833335  8.72727272727275 11.8350694444446  9 12.0416666666665  L 9 27.625  C 8.72727272727275 27.8315972222222  8.79545454545456 28.0013020833335  8.93181818181819 28.1341145833335  C 9.06818181818181 28.2669270833335  9.24242424242425 28.3333333333335  9.45454545454544 28.3333333333335  L 10.9090909090909 28.3333333333335  C 11.1212121212121 28.3333333333335  11.2954545454546 28.2669270833335  11.4318181818182 28.1341145833335  Z M 17.25 28.1341145833335  C 17.3863636363636 28.0013020833335  17.4545454545454 27.8315972222222  17 27.625  L 17 12.0416666666665  C 17.4545454545454 11.8350694444446  17.3863636363636 11.6653645833335  17.25 11.5325520833335  C 17.1136363636364 11.3997395833335  16.9393939393939 11.3333333333335  16.7272727272727 11.3333333333335  L 15.2727272727273 11.3333333333335  C 15.0606060606061 11.3333333333335  14.8863636363636 11.3997395833335  14.75 11.5325520833335  C 14.6136363636364 11.6653645833335  14.5454545454546 11.8350694444446  15 12.0416666666665  L 15 27.625  C 14.5454545454546 27.8315972222222  14.6136363636364 28.0013020833335  14.75 28.1341145833335  C 14.8863636363636 28.2669270833335  15.0606060606061 28.3333333333335  15.2727272727273 28.3333333333335  L 16.7272727272727 28.3333333333335  C 16.9393939393939 28.3333333333335  17.1136363636364 28.2669270833335  17.25 28.1341145833335  Z M 23.0681818181819 28.1341145833335  C 23.2045454545454 28.0013020833335  23.2727272727273 27.8315972222222  23 27.625  L 23 12.0416666666665  C 23.2727272727273 11.8350694444446  23.2045454545454 11.6653645833335  23.0681818181819 11.5325520833335  C 22.9318181818181 11.3997395833335  22.7575757575758 11.3333333333335  22.5454545454546 11.3333333333335  L 21.0909090909091 11.3333333333335  C 20.8787878787879 11.3333333333335  20.7045454545454 11.3997395833335  20.5681818181819 11.5325520833335  C 20.4318181818181 11.6653645833335  20.3636363636364 11.8350694444446  20 12.0416666666665  L 20 27.625  C 20.3636363636364 27.8315972222222  20.4318181818181 28.0013020833335  20.5681818181819 28.1341145833335  C 20.7045454545454 28.2669270833335  20.8787878787879 28.3333333333335  21.0909090909091 28.3333333333335  L 22.5454545454546 28.3333333333335  C 22.7575757575758 28.3333333333335  22.9318181818181 28.2669270833335  23.0681818181819 28.1341145833335  Z M 12.0227272727273 3.07682291666652  L 10.9090909090909 6  L 21.0909090909091 6  L 20 3.07682291666652  C 19.8939393939394 2.94401041666652  19.7651515151515 2.86284722222217  19.6136363636364 2.83333333333348  L 12.4090909090909 2.83333333333348  C 12.2575757575758 2.86284722222217  12.1287878787879 2.94401041666652  12.0227272727273 3.07682291666652  Z M 31.7954545454546 5.86588541666652  C 31.9318181818181 5.99869791666652  32 6.16840277777783  32 6.375  L 32 7.79166666666652  C 32 7.99826388888891  31.9318181818181 8.16796875  31.7954545454546 8.30078125  C 31.6590909090909 8.43359375  31.4848484848485 8.5  31.2727272727273 8.5  L 29 8.5  L 29 29.484375  C 29.0909090909091 30.7092013888889  28.7348484848485 31.7680121527778  28.0227272727273 32.6608072916665  C 27.310606060606 33.5536024305554  26.4545454545454 34  25.4545454545454 34  L 6.54545454545456 34  C 5.54545454545456 34  4.68939393939394 33.568359375  3.97727272727275 32.705078125  C 3.26515151515156 31.841796875  2.90909090909093 30.7977430555554  3 29.5729166666665  L 3 8.5  L 0.727272727272748 8.5  C 0.515151515151558 8.5  0.340909090909065 8.43359375  0.204545454545439 8.30078125  C 0.068181818181813 8.16796875  0 7.99826388888891  0 7.79166666666652  L 0 6.375  C 0 6.16840277777783  0.068181818181813 5.99869791666652  0.204545454545439 5.86588541666652  C 0.340909090909065 5.73307291666652  0.515151515151558 5.66666666666652  0.727272727272748 5.66666666666652  L 7.75 5.66666666666652  L 9.34090909090907 1.97005208333348  C 9.56818181818181 1.42404513888891  9.97727272727275 0.959201388888914  10.5681818181818 0.575520833333485  C 11.1590909090909 0.191840277777828  11.7575757575758 0  12.3636363636364 0  L 19.6363636363636 0  C 20.2424242424242 0  20.8409090909091 0.191840277777828  21.4318181818181 0.575520833333485  C 22.0227272727273 0.959201388888914  22.4318181818181 1.42404513888891  22.6590909090909 1.97005208333348  L 24.25 5.66666666666652  L 31.2727272727273 5.66666666666652  C 31.4848484848485 5.66666666666652  31.6590909090909 5.73307291666652  31.7954545454546 5.86588541666652  Z " fill-rule="nonzero" fill="#666666" stroke="none" transform="matrix(1 0 0 1 550 942 )" />
  </g>
</svg>