<?xml version="1.0" encoding="utf-8"?>
<svg version="1.1" xmlns:xlink="http://www.w3.org/1999/xlink" width="34px" height="34px" xmlns="http://www.w3.org/2000/svg">
  <g transform="matrix(1 0 0 1 -340 -80 )">
    <path d="M 28.0234375 18.0182291666667  C 28.2890625 17.7526041666667  28.421875 17.4205729166667  28.421875 17.0221354166667  C 28.421875 16.6236979166667  28.2890625 16.2916666666667  28.0234375 16.0260416666667  L 26.0091145833334 14.01171875  C 25.7434895833334 13.74609375  25.4114583333334 13.61328125  25.0130208333333 13.61328125  C 24.6145833333333 13.61328125  24.2825520833333 13.74609375  24.0169270833333 14.01171875  L 19.8333333333333 18.1953125  L 19.8333333333333 7.08333333333334  C 19.8333333333333 6.69965277777777  19.6931423611111 6.36762152777777  19.4127604166667 6.08723958333334  C 19.1323784722222 5.80685763888889  18.8003472222222 5.66666666666666  18.4166666666667 5.66666666666666  L 15.5833333333333 5.66666666666666  C 15.1996527777778 5.66666666666666  14.8676215277778 5.80685763888889  14.5872395833333 6.08723958333334  C 14.3068576388889 6.36762152777777  14.1666666666667 6.69965277777777  14.1666666666667 7.08333333333334  L 14.1666666666667 18.1953125  L 9.98307291666669 14.01171875  C 9.70269097222223 13.7313368055555  9.37065972222223 13.5911458333333  8.98697916666669 13.5911458333333  C 8.60329861111109 13.5911458333333  8.27126736111109 13.7313368055555  7.99088541666669 14.01171875  L 5.9765625 16.0260416666667  C 5.7109375 16.2916666666667  5.578125 16.6236979166667  5.578125 17.0221354166667  C 5.578125 17.4205729166667  5.7109375 17.7526041666667  5.9765625 18.0182291666667  L 13.9895833333333 26.03125  L 16.00390625 28.0455729166667  C 16.26953125 28.3111979166667  16.6015625 28.4440104166667  17 28.4440104166667  C 17.3984375 28.4440104166667  17.73046875 28.3111979166667  17.99609375 28.0455729166667  L 20.0104166666667 26.03125  L 28.0234375 18.0182291666667  Z M 31.7200520833334 8.466796875  C 33.2400173611111 11.0713975694445  34 13.9157986111111  34 17  C 34 20.0842013888889  33.2400173611111 22.9286024305555  31.7200520833334 25.533203125  C 30.2000868055555 28.1378038194445  28.1378038194445 30.2000868055555  25.533203125 31.7200520833333  C 22.9286024305555 33.2400173611111  20.0842013888889 34  17 34  C 13.9157986111111 34  11.0713975694445 33.2400173611111  8.466796875 31.7200520833333  C 5.86219618055554 30.2000868055555  3.79991319444446 28.1378038194445  2.27994791666669 25.533203125  C 0.759982638888914 22.9286024305555  0 20.0842013888889  0 17  C 0 13.9157986111111  0.759982638888914 11.0713975694445  2.27994791666669 8.466796875  C 3.79991319444446 5.86219618055554  5.86219618055554 3.79991319444446  8.466796875 2.27994791666666  C 11.0713975694445 0.759982638888886  13.9157986111111 0  17 0  C 20.0842013888889 0  22.9286024305555 0.759982638888886  25.533203125 2.27994791666666  C 28.1378038194445 3.79991319444446  30.2000868055555 5.86219618055554  31.7200520833334 8.466796875  Z " fill-rule="nonzero" fill="#666666" stroke="none" transform="matrix(1 0 0 1 340 80 )" />
  </g>
</svg>