<?xml version="1.0" encoding="utf-8"?>
<svg version="1.1" xmlns:xlink="http://www.w3.org/1999/xlink" width="34px" height="34px" xmlns="http://www.w3.org/2000/svg">
  <g transform="matrix(1 0 0 1 -340 -138 )">
    <path d="M 17 26.3411458333333  C 17.3836805555555 26.3411458333333  17.7157118055555 26.2009548611111  17.99609375 25.9205729166667  L 28.0455729166666 15.87109375  C 28.3259548611111 15.5907118055556  28.4661458333334 15.2586805555556  28.4661458333334 14.875  C 28.4661458333334 14.4913194444444  28.3259548611111 14.1592881944444  28.0455729166666 13.87890625  L 25.7877604166666 11.62109375  C 25.5073784722222 11.3407118055556  25.1753472222222 11.2005208333333  24.7916666666667 11.2005208333333  C 24.4079861111111 11.2005208333333  24.0759548611111 11.3407118055556  23.7955729166667 11.62109375  L 17 18.4166666666667  L 10.2044270833333 11.62109375  C 9.92404513888891 11.3407118055556  9.59201388888891 11.2005208333333  9.20833333333331 11.2005208333333  C 8.82465277777777 11.2005208333333  8.49262152777777 11.3407118055556  8.21223958333331 11.62109375  L 5.95442708333331 13.87890625  C 5.67404513888891 14.1592881944444  5.53385416666669 14.4913194444444  5.53385416666669 14.875  C 5.53385416666669 15.2586805555556  5.67404513888891 15.5907118055556  5.95442708333331 15.87109375  L 16.00390625 25.9205729166667  C 16.2842881944445 26.2009548611111  16.6163194444445 26.3411458333333  17 26.3411458333333  Z M 31.7200520833334 8.466796875  C 33.2400173611111 11.0713975694444  34 13.9157986111111  34 17  C 34 20.0842013888889  33.2400173611111 22.9286024305556  31.7200520833334 25.533203125  C 30.2000868055555 28.1378038194445  28.1378038194445 30.2000868055555  25.533203125 31.7200520833334  C 22.9286024305555 33.2400173611111  20.0842013888889 34  17 34  C 13.9157986111111 34  11.0713975694445 33.2400173611111  8.466796875 31.7200520833334  C 5.86219618055554 30.2000868055555  3.79991319444446 28.1378038194445  2.27994791666669 25.533203125  C 0.759982638888914 22.9286024305556  0 20.0842013888889  0 17  C 0 13.9157986111111  0.759982638888914 11.0713975694444  2.27994791666669 8.466796875  C 3.79991319444446 5.86219618055557  5.86219618055554 3.79991319444443  8.466796875 2.27994791666669  C 11.0713975694445 0.759982638888886  13.9157986111111 0  17 0  C 20.0842013888889 0  22.9286024305555 0.759982638888886  25.533203125 2.27994791666669  C 28.1378038194445 3.79991319444443  30.2000868055555 5.86219618055557  31.7200520833334 8.466796875  Z " fill-rule="nonzero" fill="#666666" stroke="none" transform="matrix(1 0 0 1 340 138 )" />
  </g>
</svg>