<?xml version="1.0" encoding="utf-8"?>
<svg version="1.1" xmlns:xlink="http://www.w3.org/1999/xlink" width="34px" height="34px" xmlns="http://www.w3.org/2000/svg">
  <g transform="matrix(1 0 0 1 -821 -527 )">
    <path d="M 9.38541666666674 15.5169270833333  L 17.1106770833333 25.9869791666667  L 24.8580729166667 15.5169270833333  C 25.0941840277777 15.1922743055555  25.2749565972223 14.7569444444445  25.400390625 14.2109375  C 25.5258246527777 13.6649305555555  25.4815538194445 13.0377604166667  25.267578125 12.3294270833333  C 25.0536024305555 11.62109375  24.5998263888889 11.0381944444445  23.90625 10.5807291666667  C 23.3159722222223 10.1970486111111  22.7035590277777 10.0088975694445  22.0690104166667 10.0162760416667  C 21.4344618055555 10.0236545138889  20.8921440972223 10.1527777777777  20.4420572916667 10.4036458333333  C 19.9919704861111 10.6545138888889  19.58984375 10.9865451388889  19.2356770833333 11.3997395833333  C 18.7044270833333 11.9900173611111  17.99609375 12.28515625  17.1106770833333 12.28515625  C 16.2400173611111 12.28515625  15.5390625 11.9900173611111  15.0078125 11.3997395833333  C 14.6536458333333 10.9865451388889  14.2515190972223 10.6545138888889  13.8014322916667 10.4036458333333  C 13.3513454861111 10.1527777777777  12.8090277777777 10.0236545138889  12.1744791666667 10.0162760416667  C 11.5399305555555 10.0088975694445  10.9201388888889 10.1970486111111  10.3151041666667 10.5807291666667  C 9.63628472222229 11.0381944444445  9.18988715277771 11.62109375  8.97591145833326 12.3294270833333  C 8.76193576388891 13.0377604166667  8.71766493055554 13.6649305555555  8.84309895833326 14.2109375  C 8.96853298611109 14.7569444444445  9.14930555555554 15.1922743055555  9.38541666666674 15.5169270833333  Z M 31.7200520833333 8.466796875  C 33.2400173611111 11.0713975694445  34 13.9157986111111  34 17  C 34 20.0842013888889  33.2400173611111 22.9286024305555  31.7200520833333 25.533203125  C 30.2000868055555 28.1378038194445  28.1378038194445 30.2000868055555  25.533203125 31.7200520833333  C 22.9286024305555 33.2400173611111  20.0842013888889 34  17 34  C 13.9157986111111 34  11.0713975694445 33.2400173611111  8.466796875 31.7200520833333  C 5.86219618055554 30.2000868055555  3.79991319444446 28.1378038194445  2.27994791666674 25.533203125  C 0.759982638888914 22.9286024305555  0 20.0842013888889  0 17  C 0 13.9157986111111  0.759982638888914 11.0713975694445  2.27994791666674 8.466796875  C 3.79991319444446 5.86219618055554  5.86219618055554 3.79991319444446  8.466796875 2.27994791666674  C 11.0713975694445 0.759982638888914  13.9157986111111 0  17 0  C 20.0842013888889 0  22.9286024305555 0.759982638888914  25.533203125 2.27994791666674  C 28.1378038194445 3.79991319444446  30.2000868055555 5.86219618055554  31.7200520833333 8.466796875  Z " fill-rule="nonzero" fill="#666666" stroke="none" transform="matrix(1 0 0 1 821 527 )" />
  </g>
</svg>