<?xml version="1.0" encoding="utf-8"?>
<svg version="1.1" xmlns:xlink="http://www.w3.org/1999/xlink" width="34px" height="28px" xmlns="http://www.w3.org/2000/svg">
  <g transform="matrix(1 0 0 1 -409 -885 )">
    <path d="M 29.1261199172984 15.9968823070927  C 29.1401791867677 16.025980774227  29.1472088215024 16.0696284749285  29 16.1278254091972  L 29 26.6032735775526  C 29.1472088215024 26.9815536502988  29.0136457615438 27.3089114055598  28.7465196416265 27.5853468433359  C 28.4793935217091 27.861782281112  28.1630599586492 28  27.7975189524466 28  L 19.6993797381116 28  L 19.6993797381116 19.6196414653157  L 14.3006202618884 19.6196414653157  L 14.3006202618884 28  L 6.20248104755342 28  C 5.83694004135077 28  5.52060647829086 27.861782281112  5.25348035837351 27.5853468433359  C 4.98635423845622 27.3089114055598  4.85279117849763 26.9815536502988  5 26.6032735775526  L 5 16.1278254091972  C 4.85279117849763 16.1132761756301  4.85630599586494 16.0914523252793  4.86333563059964 16.062353858145  C 4.87036526533421 16.0332553910107  4.87388008270153 16.0114315406599  4.87388008270153 15.9968823070927  L 17 5.65237724084182  L 29.1261199172984 15.9968823070927  Z M 33.9976567884218 14.1091192517537  C 34.0117160578911 14.3055339049104  33.9625086147485 14.4764873993246  33.8500344589938 14.6219797349961  L 32.542522398346 16.2369446609509  C 32.4300482425913 16.3678877630554  32.2824259131634 16.4479085476747  32.099655410062 16.477007014809  L 32.03638869745 16.477007014809  C 31.8536181943488 16.477007014809  31.7059958649207 16.426084697324  31.5935217091661 16.3242400623539  L 17 3.73187840997662  L 2.40647829083389 16.3242400623539  C 2.23776705720189 16.4406339308912  2.06905582356995 16.4915562483762  1.90034458993796 16.477007014809  C 1.71757408683663 16.4479085476747  1.56995175740866 16.3678877630554  1.45747760165403 16.2369446609509  L 0.149965541006225 14.6219797349961  C 0.0374913852515419 14.4764873993246  -0.0117160578910784 14.3055339049104  0.00234321157824979 14.1091192517537  C 0.0164024810475212 13.9127045985971  0.0937284631289117 13.7563003377501  0.234321157822194 13.6399064692127  L 15.3972432804962 0.567420109119325  C 15.8471399035149 0.189140036373146  16.3813921433494 0  17 0  C 17.6186078566506 0  18.1528600964851 0.189140036373146  18.6027567195038 0.567420109119325  L 23.7484493452791 5.01948558067033  L 23.7484493452791 0.763834762275906  C 23.7484493452791 0.560145492335664  23.8117160578911 0.392829306313388  23.9382494831151 0.261886204208849  C 24.0647829083391 0.130943102104425  24.2264645072364 0.0654715510522692  24.4232942798071 0.0654715510522692  L 28.4723638869745 0.0654715510522692  C 28.6691936595452 0.0654715510522692  28.8308752584425 0.130943102104425  28.9574086836665 0.261886204208849  C 29.0839421088904 0.392829306313388  29.1472088215024 0.560145492335664  29.1472088215024 0.763834762275906  L 29.1472088215024 9.66796570537792  L 33.7656788421778 13.6399064692127  C 33.9062715368711 13.7563003377501  33.9835975189525 13.9127045985971  33.9976567884218 14.1091192517537  Z " fill-rule="nonzero" fill="#666666" stroke="none" transform="matrix(1 0 0 1 409 885 )" />
  </g>
</svg>