<?xml version="1.0" encoding="utf-8"?>
<svg version="1.1" xmlns:xlink="http://www.w3.org/1999/xlink" width="34px" height="10px" xmlns="http://www.w3.org/2000/svg">
  <g transform="matrix(1 0 0 1 -617 -341 )">
    <path d="M 33.3238636363636 0.729166666666629  C 33.7746212121211 1.21527777777777  34 1.80555555555554  34 2.5  L 34 7.5  C 34 8.19444444444446  33.7746212121211 8.78472222222223  33.3238636363636 9.27083333333337  C 32.873106060606 9.75694444444446  32.3257575757576 10  31.6818181818181 10  L 2.31818181818187 10  C 1.67424242424238 10  1.12689393939399 9.75694444444446  0.676136363636374 9.27083333333337  C 0.225378787878867 8.78472222222223  0 8.19444444444446  0 7.5  L 0 2.5  C 0 1.80555555555554  0.225378787878867 1.21527777777777  0.676136363636374 0.729166666666629  C 1.12689393939399 0.243055555555543  1.67424242424238 0  2.31818181818187 0  L 31.6818181818181 0  C 32.3257575757576 0  32.873106060606 0.243055555555543  33.3238636363636 0.729166666666629  Z " fill-rule="nonzero" fill="#666666" stroke="none" transform="matrix(1 0 0 1 617 341 )" />
  </g>
</svg>