<?xml version="1.0" encoding="utf-8"?>
<svg version="1.1" xmlns:xlink="http://www.w3.org/1999/xlink" width="34px" height="32px" xmlns="http://www.w3.org/2000/svg">
  <g transform="matrix(1 0 0 1 -548 -883 )">
    <path d="M 28.3401442307693 20  C 28.6262019230769 20.125  28.7692307692307 20.3263888888888  28.7692307692307 20.6041666666666  L 28.7692307692307 26  C 28.7692307692307 27.6527777777778  28.1937099358975 29.0659722222222  27.0426682692307 30.2395833333334  C 25.8916266025641 31.4131944444445  24.505608974359 32  22.8846153846154 32  L 5.88461538461542 32  C 4.26362179487182 32  2.87760416666663 31.4131944444445  1.7265625 30.2395833333334  C 0.575520833333371 29.0659722222222  0 27.6527777777778  0 26  L 0 8.66666666666663  C 0 7.0138888888888  0.575520833333371 5.60069444444446  1.7265625 4.42708333333337  C 2.87760416666663 3.25347222222217  4.26362179487182 2.66666666666663  5.88461538461542 2.66666666666663  L 11.0949519230769 2.66666666666663  C 11.2720352564103 2.66666666666663  11.425280448718 2.7326388888888  11.5546875 2.86458333333337  C 11.684094551282 2.99652777777783  11.7487980769231 3.15277777777783  11.7487980769231 3.33333333333337  C 11.7487980769231 3.70833333333337  11.5717147435897 3.93055555555554  11.2175480769231 4  C 10.1686698717949 4.3611111111112  9.2628205128205 4.77777777777783  8.5 5.25  C 8.36378205128204 5.30555555555554  8.25480769230768 5.33333333333337  8.17307692307691 5.33333333333337  L 5.88461538461542 5.33333333333337  C 4.98557692307691 5.33333333333337  4.2159455128205 5.65972222222217  3.57572115384613 6.3125  C 2.93549679487182 6.96527777777783  2.61538461538458 7.75  3 8.66666666666663  L 3 26  C 2.61538461538458 26.9166666666666  2.93549679487182 27.7013888888888  3.57572115384613 28.3541666666666  C 4.2159455128205 29.0069444444445  4.98557692307691 29.3333333333334  5.88461538461542 29  L 22.8846153846154 29  C 23.7836538461538 29.3333333333334  24.5532852564103 29.0069444444445  25.1935096153846 28.3541666666666  C 25.833733974359 27.7013888888888  26.1538461538462 26.9166666666666  26.1538461538462 26  L 26.1538461538462 21.5416666666666  C 26.1538461538462 21.2777777777778  26.2764423076923 21.0763888888888  26.5216346153846 20.9375  C 26.9030448717948 20.7569444444445  27.2708333333334 20.5  27.625 20.1666666666666  C 27.8429487179487 19.9444444444445  28.0813301282052 19.8888888888888  28.3401442307693 20  Z M 34 9.33333333333337  C 34 9.69444444444446  33.8705929487179 10.0069444444445  33.6117788461538 10.2708333333334  L 25.765625 18.2708333333334  C 25.5204326923077 18.5347222222222  25.2139423076923 18.6666666666666  24.8461538461538 18.6666666666666  C 24.6826923076923 18.6666666666666  24.5124198717948 18.6319444444445  24.3353365384615 18.5625  C 23.8040865384615 18.3263888888888  23.5384615384615 17.9166666666666  23.5384615384615 17.3333333333334  L 23.5384615384615 13.3333333333334  L 20.2692307692308 13.3333333333334  C 15.8693910256411 13.3333333333334  12.886217948718 14.2430555555555  11.3197115384615 16.0625  C 9.69871794871796 17.9652777777778  9.19471153846155 21.25  9.80769230769232 25.9166666666666  C 9.84855769230768 26.2361111111112  9.71233974358972 26.4722222222222  9.39903846153845 26.625  C 9.29006410256409 26.6527777777778  9.20833333333337 26.6666666666666  9.15384615384613 26.6666666666666  C 8.93589743589746 26.6666666666666  8.75881410256409 26.5763888888888  8.62259615384613 26.3958333333334  C 8.48637820512818 26.2013888888888  8.34334935897436 25.9861111111112  8.19350961538458 25.75  C 8.04366987179486 25.5138888888888  7.77463942307691 25.0381944444445  7.38641826923077 24.3229166666666  C 6.99819711538458 23.6076388888888  6.66105769230768 22.9166666666666  6.375 22.25  C 6.08894230769232 21.5833333333334  5.82672275641028 20.7916666666666  5.58834134615387 19.875  C 5.34995993589746 18.9583333333334  5.23076923076923 18.1111111111112  5.23076923076923 17.3333333333334  C 5.23076923076923 16.6527777777778  5.25460737179486 16.0208333333334  5.30228365384613 15.4375  C 5.34995993589746 14.8541666666666  5.4453125 14.2291666666666  5.58834134615387 13.5625  C 5.73137019230768 12.8958333333334  5.92207532051282 12.2847222222222  6.16045673076923 11.7291666666666  C 6.39883814102564 11.1736111111112  6.71895032051282 10.6076388888888  7.12079326923077 10.03125  C 7.52263621794867 9.4548611111112  7.98918269230768 8.94097222222217  8.52043269230768 8.48958333333337  C 9.05168269230768 8.03819444444446  9.6953125 7.6111111111112  10.4513221153846 7.20833333333337  C 11.2073317307692 6.80555555555554  12.0552884615385 6.46875  12.9951923076923 6.19791666666663  C 13.9350961538461 5.92708333333337  15.0214342948718 5.71527777777783  16.2542067307692 5.5625  C 17.4869791666666 5.40972222222217  18.8253205128205 5.33333333333337  20.2692307692308 5.33333333333337  L 23.5384615384615 5.33333333333337  L 23.5384615384615 1.33333333333337  C 23.5384615384615 0.75  23.8040865384615 0.340277777777828  24.3353365384615 0.104166666666629  C 24.5124198717948 0.0347222222221717  24.6826923076923 0  24.8461538461538 0  C 25.2003205128206 0  25.5068108974359 0.131944444444457  25.765625 0.395833333333371  L 33.6117788461538 8.39583333333337  C 33.8705929487179 8.65972222222217  34 8.97222222222217  34 9.33333333333337  Z " fill-rule="nonzero" fill="#666666" stroke="none" transform="matrix(1 0 0 1 548 883 )" />
  </g>
</svg>