<?xml version="1.0" encoding="utf-8"?>
<svg version="1.1" xmlns:xlink="http://www.w3.org/1999/xlink" width="34px" height="30px" xmlns="http://www.w3.org/2000/svg">
  <g transform="matrix(1 0 0 1 -617 -709 )">
    <path d="M 11.4313616071429 10.732421875  C 11.9056919642858 11.220703125  12.1428571428571 11.8098958333333  12.1428571428571 12.5  C 12.1428571428571 13.1901041666667  11.9056919642858 13.779296875  11.4313616071429 14.267578125  C 10.95703125 14.755859375  10.3846726190477 15  9.71428571428578 15  C 9.04389880952385 15  8.47154017857133 14.755859375  7.99720982142867 14.267578125  C 7.52287946428578 13.779296875  7.28571428571422 13.1901041666667  7.28571428571422 12.5  C 7.28571428571422 11.8098958333333  7.52287946428578 11.220703125  7.99720982142867 10.732421875  C 8.47154017857133 10.244140625  9.04389880952385 10  9.71428571428578 10  C 10.3846726190477 10  10.95703125 10.244140625  11.4313616071429 10.732421875  Z M 18.7170758928571 10.732421875  C 19.19140625 11.220703125  19.4285714285713 11.8098958333333  19.4285714285713 12.5  C 19.4285714285713 13.1901041666667  19.19140625 13.779296875  18.7170758928571 14.267578125  C 18.2427455357142 14.755859375  17.6703869047619 15  17 15  C 16.3296130952381 15  15.7572544642858 14.755859375  15.2829241071429 14.267578125  C 14.80859375 13.779296875  14.5714285714287 13.1901041666667  14.5714285714287 12.5  C 14.5714285714287 11.8098958333333  14.80859375 11.220703125  15.2829241071429 10.732421875  C 15.7572544642858 10.244140625  16.3296130952381 10  17 10  C 17.6703869047619 10  18.2427455357142 10.244140625  18.7170758928571 10.732421875  Z M 26.0027901785713 10.732421875  C 26.4771205357142 11.220703125  26.7142857142858 11.8098958333333  26.7142857142858 12.5  C 26.7142857142858 13.1901041666667  26.4771205357142 13.779296875  26.0027901785713 14.267578125  C 25.5284598214287 14.755859375  24.9561011904761 15  24.2857142857142 15  C 23.6153273809523 15  23.04296875 14.755859375  22.5686383928571 14.267578125  C 22.0943080357142 13.779296875  21.8571428571429 13.1901041666667  21.8571428571429 12.5  C 21.8571428571429 11.8098958333333  22.0943080357142 11.220703125  22.5686383928571 10.732421875  C 23.04296875 10.244140625  23.6153273809523 10  24.2857142857142 10  C 24.9561011904761 10  25.5284598214287 10.244140625  26.0027901785713 10.732421875  Z M 24.23828125 3.857421875  C 21.9931175595239 2.95247395833326  19.5803571428571 2.5  17 2.5  C 14.4196428571429 2.5  12.0068824404761 2.95247395833326  9.76171875 3.857421875  C 7.51655505952385 4.76236979166674  5.73307291666674 5.98307291666674  4.41127232142867 7.51953125  C 3.08947172619048 9.05598958333326  2.42857142857133 10.7161458333333  2.42857142857133 12.5  C 2.42857142857133 13.9583333333333  2.88076636904771 15.3483072916667  3.78515625 16.669921875  C 4.68954613095229 17.9915364583333  5.96391369047615 19.1341145833333  7.60825892857133 20.09765625  L 9.25892857142867 21.07421875  L 8.74665178571422 22.94921875  C 8.44308035714289 24.1341145833333  8.00037202380952 25.25390625  7.41852678571422 26.30859375  C 9.34114583333326 25.48828125  11.0803571428571 24.375  12.6361607142858 22.96875  L 13.4520089285713 22.2265625  L 14.5334821428571 22.34375  C 15.40625 22.4479166666667  16.2284226190477 22.5  17 22.5  C 19.5803571428571 22.5  21.9931175595239 22.0475260416667  24.23828125 21.142578125  C 26.4834449404761 20.2376302083333  28.2669270833333 19.0169270833333  29.5887276785713 17.48046875  C 30.9105282738095 15.9440104166667  31.5714285714287 14.2838541666667  31.5714285714287 12.5  C 31.5714285714287 10.7161458333333  30.9105282738095 9.05598958333326  29.5887276785713 7.51953125  C 28.2669270833333 5.98307291666674  26.4834449404761 4.76236979166674  24.23828125 3.857421875  Z M 32.6529017857142 7.646484375  C 33.5509672619048 9.189453125  34 10.8072916666667  34 12.5  C 34 14.765625  33.2410714285713 16.8587239583333  31.7232142857142 18.779296875  C 30.2053571428571 20.6998697916667  28.1436011904761 22.216796875  25.5379464285713 23.330078125  C 22.9322916666667 24.443359375  20.0863095238095 25  17 25  C 16.1145833333333 25  15.1975446428571 24.9479166666667  14.2488839285713 24.84375  C 11.7444196428571 27.1223958333333  8.83519345238096 28.6979166666667  5.52120535714289 29.5703125  C 4.90141369047615 29.7526041666667  4.18043154761904 29.8958333333333  3.35825892857133 30  L 3.26339285714289 30  C 3.07366071428578 30  2.90290178571422 29.931640625  2.75111607142867 29.794921875  C 2.59933035714289 29.658203125  2.49813988095229 29.4791666666667  2.44754464285711 29.2578125  L 2.44754464285711 29.23828125  C 2.40959821428578 29.1861979166667  2.40643601190482 29.1080729166667  2.43805803571422 29.00390625  C 2.46968005952385 28.8997395833333  2.48232886904771 28.8346354166667  2.47600446428578 28.80859375  C 2.46968005952385 28.7825520833333  2.49813988095229 28.720703125  2.56138392857133 28.623046875  L 2.67522321428578 28.447265625  C 2.67522321428578 28.447265625  2.71949404761904 28.3919270833333  2.80803571428578 28.28125  C 2.89657738095229 28.1705729166667  2.94717261904771 28.1119791666667  2.95982142857133 28.10546875  C 3.04836309523807 28.0013020833333  3.24441964285711 27.7766927083333  3.54799107142867 27.431640625  C 3.8515625 27.0865885416667  4.06975446428578 26.8391927083333  4.20256696428578 26.689453125  C 4.33537946428578 26.5397135416667  4.53143601190482 26.2825520833333  4.79073660714289 25.91796875  C 5.05003720238096 25.5533854166667  5.25558035714289 25.2213541666667  5.40736607142867 24.921875  C 5.55915178571422 24.6223958333333  5.72991071428578 24.23828125  5.91964285714289 23.76953125  C 6.109375 23.30078125  6.27380952380952 22.8059895833333  6.41294642857133 22.28515625  C 4.42708333333326 21.1263020833333  2.86179315476193 19.6940104166667  1.71707589285711 17.98828125  C 0.572358630952294 16.2825520833333  0 14.453125  0 12.5  C 0 10.8072916666667  0.449032738095184 9.189453125  1.34709821428578 7.646484375  C 2.24516369047615 6.103515625  3.453125 4.77213541666674  4.97098214285711 3.65234375  C 6.48883928571422 2.53255208333326  8.29761904761904 1.64388020833326  10.3973214285713 0.986328125  C 12.4970238095239 0.328776041666742  14.6979166666667 0  17 0  C 19.3020833333333 0  21.5029761904761 0.328776041666742  23.6026785714287 0.986328125  C 25.702380952381 1.64388020833326  27.5111607142858 2.53255208333326  29.0290178571429 3.65234375  C 30.546875 4.77213541666674  31.7548363095239 6.103515625  32.6529017857142 7.646484375  Z " fill-rule="nonzero" fill="#666666" stroke="none" transform="matrix(1 0 0 1 617 709 )" />
  </g>
</svg>