<?xml version="1.0" encoding="utf-8"?>
<svg version="1.1" xmlns:xlink="http://www.w3.org/1999/xlink" width="34px" height="29px" xmlns="http://www.w3.org/2000/svg">
  <g transform="matrix(1 0 0 1 -617 -766 )">
    <path d="M 14.9158653846154 16.6008522727274  C 15.4334935897436 17.1226325757575  15.6923076923077 17.7405303030304  15.6923076923077 18.4545454545455  L 15.6923076923077 26.3636363636364  C 15.6923076923077 27.0776515151515  15.4334935897436 27.6955492424242  14.9158653846154 28.2173295454545  C 14.3982371794872 28.7391098484849  13.7852564102564 29  13.0769230769231 29  L 2.61538461538464 29  C 1.90705128205127 29  1.29407051282055 28.7391098484849  0.776442307692264 28.2173295454545  C 0.258814102564088 27.6955492424242  0 27.0776515151515  0 26.3636363636364  L 0 18.4545454545455  C 0 17.7405303030304  0.258814102564088 17.1226325757575  0.776442307692264 16.6008522727274  C 1.29407051282055 16.079071969697  1.90705128205127 15.8181818181819  2.61538461538464 15.8181818181819  L 13.0769230769231 15.8181818181819  C 13.7852564102564 15.8181818181819  14.3982371794872 16.079071969697  14.9158653846154 16.6008522727274  Z M 14.9158653846154 0.782670454545496  C 15.4334935897436 1.30445075757575  15.6923076923077 1.9223484848485  15.6923076923077 2.63636363636363  L 15.6923076923077 10.5454545454545  C 15.6923076923077 11.2594696969696  15.4334935897436 11.8773674242425  14.9158653846154 12.3991477272726  C 14.3982371794872 12.920928030303  13.7852564102564 13.1818181818181  13.0769230769231 13.1818181818181  L 2.61538461538464 13.1818181818181  C 1.90705128205127 13.1818181818181  1.29407051282055 12.920928030303  0.776442307692264 12.3991477272726  C 0.258814102564088 11.8773674242425  0 11.2594696969696  0 10.5454545454545  L 0 2.63636363636363  C 0 1.9223484848485  0.258814102564088 1.30445075757575  0.776442307692264 0.782670454545496  C 1.29407051282055 0.260890151515127  1.90705128205127 0  2.61538461538464 0  L 13.0769230769231 0  C 13.7852564102564 0  14.3982371794872 0.260890151515127  14.9158653846154 0.782670454545496  Z M 33.2235576923077 16.6008522727274  C 33.7411858974359 17.1226325757575  34 17.7405303030304  34 18.4545454545455  L 34 26.3636363636364  C 34 27.0776515151515  33.7411858974359 27.6955492424242  33.2235576923077 28.2173295454545  C 32.7059294871794 28.7391098484849  32.0929487179487 29  31.3846153846154 29  L 20.9230769230769 29  C 20.2147435897436 29  19.6017628205128 28.7391098484849  19.0841346153846 28.2173295454545  C 18.5665064102564 27.6955492424242  18.3076923076923 27.0776515151515  18.3076923076923 26.3636363636364  L 18.3076923076923 18.4545454545455  C 18.3076923076923 17.7405303030304  18.5665064102564 17.1226325757575  19.0841346153846 16.6008522727274  C 19.6017628205128 16.079071969697  20.2147435897436 15.8181818181819  20.9230769230769 15.8181818181819  L 31.3846153846154 15.8181818181819  C 32.0929487179487 15.8181818181819  32.7059294871794 16.079071969697  33.2235576923077 16.6008522727274  Z M 33.2235576923077 0.782670454545496  C 33.7411858974359 1.30445075757575  34 1.9223484848485  34 2.63636363636363  L 34 10.5454545454545  C 34 11.2594696969696  33.7411858974359 11.8773674242425  33.2235576923077 12.3991477272726  C 32.7059294871794 12.920928030303  32.0929487179487 13.1818181818181  31.3846153846154 13.1818181818181  L 20.9230769230769 13.1818181818181  C 20.2147435897436 13.1818181818181  19.6017628205128 12.920928030303  19.0841346153846 12.3991477272726  C 18.5665064102564 11.8773674242425  18.3076923076923 11.2594696969696  18.3076923076923 10.5454545454545  L 18.3076923076923 2.63636363636363  C 18.3076923076923 1.9223484848485  18.5665064102564 1.30445075757575  19.0841346153846 0.782670454545496  C 19.6017628205128 0.260890151515127  20.2147435897436 0  20.9230769230769 0  L 31.3846153846154 0  C 32.0929487179487 0  32.7059294871794 0.260890151515127  33.2235576923077 0.782670454545496  Z " fill-rule="nonzero" fill="#666666" stroke="none" transform="matrix(1 0 0 1 617 766 )" />
  </g>
</svg>