<?xml version="1.0" encoding="utf-8"?>
<svg version="1.1" xmlns:xlink="http://www.w3.org/1999/xlink" width="34px" height="34px" xmlns="http://www.w3.org/2000/svg">
  <g transform="matrix(1 0 0 1 -409 -80 )">
    <path d="M 27.9127604166666 19.4127604166667  C 28.1931423611111 19.1323784722222  28.3333333333334 18.8003472222222  28.3333333333334 18.4166666666667  L 28.3333333333334 15.5833333333333  C 28.3333333333334 15.1996527777778  28.1931423611111 14.8676215277778  27.9127604166666 14.5872395833333  C 27.6323784722222 14.3068576388889  27.3003472222222 14.1666666666667  26.9166666666666 14.1666666666667  L 15.8046875 14.1666666666667  L 19.98828125 9.98307291666666  C 20.2686631944445 9.70269097222223  20.4088541666666 9.37065972222223  20.4088541666666 8.98697916666666  C 20.4088541666666 8.60329861111111  20.2686631944445 8.27126736111111  19.98828125 7.99088541666666  L 17.9739583333334 5.9765625  C 17.7083333333334 5.7109375  17.3763020833334 5.578125  16.9778645833334 5.578125  C 16.5794270833334 5.578125  16.2473958333334 5.7109375  15.9817708333334 5.9765625  L 7.96875 13.9895833333333  L 5.95442708333337 16.00390625  C 5.68880208333337 16.26953125  5.55598958333337 16.6015625  5.55598958333337 17  C 5.55598958333337 17.3984375  5.68880208333337 17.73046875  5.95442708333337 17.99609375  L 7.96875 20.0104166666667  L 15.9817708333334 28.0234375  C 16.2473958333334 28.2890625  16.5794270833334 28.421875  16.9778645833334 28.421875  C 17.3763020833334 28.421875  17.7083333333334 28.2890625  17.9739583333334 28.0234375  L 19.98828125 26.0091145833333  C 20.25390625 25.7434895833333  20.38671875 25.4114583333333  20.38671875 25.0130208333333  C 20.38671875 24.6145833333333  20.25390625 24.2825520833333  19.98828125 24.0169270833333  L 15.8046875 19.8333333333333  L 26.9166666666666 19.8333333333333  C 27.3003472222222 19.8333333333333  27.6323784722222 19.6931423611111  27.9127604166666 19.4127604166667  Z M 31.7200520833334 8.466796875  C 33.2400173611111 11.0713975694445  34 13.9157986111111  34 17  C 34 20.0842013888889  33.2400173611111 22.9286024305555  31.7200520833334 25.533203125  C 30.2000868055555 28.1378038194445  28.1378038194445 30.2000868055555  25.533203125 31.7200520833333  C 22.9286024305555 33.2400173611111  20.0842013888889 34  17 34  C 13.9157986111111 34  11.0713975694445 33.2400173611111  8.466796875 31.7200520833333  C 5.86219618055554 30.2000868055555  3.79991319444446 28.1378038194445  2.27994791666663 25.533203125  C 0.759982638888857 22.9286024305555  0 20.0842013888889  0 17  C 0 13.9157986111111  0.759982638888857 11.0713975694445  2.27994791666663 8.466796875  C 3.79991319444446 5.86219618055554  5.86219618055554 3.79991319444446  8.466796875 2.27994791666666  C 11.0713975694445 0.759982638888886  13.9157986111111 0  17 0  C 20.0842013888889 0  22.9286024305555 0.759982638888886  25.533203125 2.27994791666666  C 28.1378038194445 3.79991319444446  30.2000868055555 5.86219618055554  31.7200520833334 8.466796875  Z " fill-rule="nonzero" fill="#666666" stroke="none" transform="matrix(1 0 0 1 409 80 )" />
  </g>
</svg>