<?xml version="1.0" encoding="utf-8"?>
<svg version="1.1" xmlns:xlink="http://www.w3.org/1999/xlink" width="34px" height="33px" xmlns="http://www.w3.org/2000/svg">
  <g transform="matrix(1 0 0 1 -617 -138 )">
    <path d="M 33.1925545571246 13.6405933917735  C 33.7308515190416 14.2191503708699  34 14.894133513149  34 15.6655428186109  C 34 16.4517869184086  33.7308515190416 17.1193526635199  33.1925545571246 17.6682400539447  L 18.9858793324776 32.1766689143628  C 18.418485237484 32.7255563047876  17.7565254599915 33  17 33  C 16.2289259734703 33  15.5742404792469 32.7255563047876  15.0359435173299 32.1766689143628  L 0.829268292682855 17.6682400539447  C 0.276422764227618 17.1341874578557  0 16.4666217127444  0 15.6655428186109  C 0 14.8792987188132  0.276422764227618 14.204315576534  0.829268292682855 13.6405933917735  L 2.44415917843389 11.9716790289953  C 3.01155327342747 11.4227916385705  3.67351305091995 11.1483479433581  4.43003851091146 11.1483479433581  C 5.20111253744119 11.1483479433581  5.85579803166445 11.4227916385705  6.39409499358146 11.9716790289953  L 13 18.5138233310856  L 13 2.8482805124747  C 12.8100128369705 2.0768712070128  13.0864356011981 1.40930546190157  13.6392811296535 0.845583277140918  C 14.1921266581087 0.281861092380296  14.8468121523321 0  15.6033376123236 0  L 18.3966623876764 0  C 19.1531878476679 0  19.8078733418913 0.281861092380296  20.3607188703465 0.845583277140918  C 20.9135643988019 1.40930546190157  21.1899871630295 2.0768712070128  21 2.8482805124747  L 21 18.5138233310856  L 27.6059050064185 11.9716790289953  C 28.1442019683356 11.4227916385705  28.7988874625589 11.1483479433581  29.5699614890885 11.1483479433581  C 30.32648694908 11.1483479433581  30.9884467265725 11.4227916385705  31.5558408215661 11.9716790289953  L 33.1925545571246 13.6405933917735  Z " fill-rule="nonzero" fill="#666666" stroke="none" transform="matrix(1 0 0 1 617 138 )" />
  </g>
</svg>