<?xml version="1.0" encoding="utf-8"?>
<svg version="1.1" xmlns:xlink="http://www.w3.org/1999/xlink" width="22px" height="34px" xmlns="http://www.w3.org/2000/svg">
  <g transform="matrix(1 0 0 1 -759 -198 )">
    <path d="M 22 17  C 22 17.3655913978495  21.8655083655084 17.6819685690654  21.5965250965252 17.9491315136477  L 5.83976833976828 33.5992555831265  C 5.57078507078506 33.8664185277088  5.25225225225222 34  4.88416988416986 34  C 4.51608751608751 34  4.19755469755466 33.8664185277088  3.92857142857144 33.5992555831265  L 0.40347490347483 30.0980148883374  C 0.13449163449161 29.8308519437552  0 29.5144747725393  0 29.1488833746898  C 0 28.7832919768404  0.13449163449161 28.4669148056245  0.40347490347483 28.1997518610422  L 11.6795366795367 17  L 0.40347490347483 5.80024813895784  C 0.13449163449161 5.53308519437553  0 5.21670802315964  0 4.85111662531017  C 0 4.4855252274607  0.13449163449161 4.16914805624481  0.40347490347483 3.90198511166255  L 3.92857142857144 0.400744416873465  C 4.19755469755466 0.133581472291155  4.51608751608751 0  4.88416988416986 0  C 5.25225225225222 0  5.57078507078506 0.133581472291155  5.83976833976828 0.400744416873465  L 21.5965250965252 16.0508684863523  C 21.8655083655084 16.3180314309346  22 16.6344086021505  22 17  Z " fill-rule="nonzero" fill="#666666" stroke="none" transform="matrix(1 0 0 1 759 198 )" />
  </g>
</svg>