<?xml version="1.0" encoding="utf-8"?>
<svg version="1.1" xmlns:xlink="http://www.w3.org/1999/xlink" width="34px" height="34px" xmlns="http://www.w3.org/2000/svg">
  <g transform="matrix(1 0 0 1 -684 -877 )">
    <path d="M 16.4908854166667 20.0325520833333  C 16.6384548611111 20.1801215277777  16.7122395833333 20.3498263888889  16.7122395833333 20.5416666666667  C 16.7122395833333 20.7335069444445  16.6384548611111 20.9032118055555  16.4908854166667 21.05078125  L 9.14192708333326 28.3997395833333  L 12.3294270833333 31.5872395833333  C 12.6098090277777 31.8676215277777  12.75 32.1996527777777  12.75 32.5833333333333  C 12.75 32.9670138888889  12.6098090277777 33.2990451388889  12.3294270833333 33.5794270833333  C 12.0490451388889 33.8598090277777  11.7170138888889 34  11.3333333333333 34  L 1.41666666666674 34  C 1.03298611111109 34  0.700954861111086 33.8598090277777  0.420572916666742 33.5794270833333  C 0.140190972222285 33.2990451388889  0 32.9670138888889  0 32.5833333333333  L 0 22.6666666666667  C 0 22.2829861111111  0.140190972222285 21.9509548611111  0.420572916666742 21.6705729166667  C 0.700954861111086 21.3901909722223  1.03298611111109 21.25  1.41666666666674 21.25  C 1.80034722222229 21.25  2.13237847222229 21.3901909722223  2.41276041666674 21.6705729166667  L 5.60026041666674 24.8580729166667  L 12.94921875 17.5091145833333  C 13.0967881944445 17.3615451388889  13.2664930555555 17.2877604166667  13.4583333333333 17.2877604166667  C 13.6501736111111 17.2877604166667  13.8198784722223 17.3615451388889  13.9674479166667 17.5091145833333  L 16.4908854166667 20.0325520833333  Z M 33.5794270833333 0.420572916666742  C 33.8598090277777 0.700954861111086  34 1.03298611111109  34 1.41666666666674  L 34 11.3333333333333  C 34 11.7170138888889  33.8598090277777 12.0490451388889  33.5794270833333 12.3294270833333  C 33.2990451388889 12.6098090277777  32.9670138888889 12.75  32.5833333333333 12.75  C 32.1996527777777 12.75  31.8676215277777 12.6098090277777  31.5872395833333 12.3294270833333  L 28.3997395833333 9.14192708333326  L 21.05078125 16.4908854166667  C 20.9032118055555 16.6384548611111  20.7335069444445 16.7122395833333  20.5416666666667 16.7122395833333  C 20.3498263888889 16.7122395833333  20.1801215277777 16.6384548611111  20.0325520833333 16.4908854166667  L 17.5091145833333 13.9674479166667  C 17.3615451388889 13.8198784722223  17.2877604166667 13.6501736111111  17.2877604166667 13.4583333333333  C 17.2877604166667 13.2664930555555  17.3615451388889 13.0967881944445  17.5091145833333 12.94921875  L 24.8580729166667 5.60026041666674  L 21.6705729166667 2.41276041666674  C 21.3901909722223 2.13237847222229  21.25 1.80034722222229  21.25 1.41666666666674  C 21.25 1.03298611111109  21.3901909722223 0.700954861111086  21.6705729166667 0.420572916666742  C 21.9509548611111 0.140190972222285  22.2829861111111 0  22.6666666666667 0  L 32.5833333333333 0  C 32.9670138888889 0  33.2990451388889 0.140190972222285  33.5794270833333 0.420572916666742  Z " fill-rule="nonzero" fill="#666666" stroke="none" transform="matrix(1 0 0 1 684 877 )" />
  </g>
</svg>