<?xml version="1.0" encoding="utf-8"?>
<svg version="1.1" xmlns:xlink="http://www.w3.org/1999/xlink" width="34px" height="30px" xmlns="http://www.w3.org/2000/svg">
  <g transform="matrix(1 0 0 1 -478 -464 )">
    <path d="M 15.3040865384615 2.57383966244731  C 15.5629006410256 2.84106891701822  15.6923076923077 3.15752461322086  16 3.52320675105489  L 16 26.4767932489451  C 15.6923076923077 26.8424753867791  15.5629006410256 27.1589310829818  15.3040865384615 27.4261603375527  C 15.0452724358975 27.6933895921237  14.738782051282 27.8270042194092  14.3846153846154 27.8270042194092  C 14.0304487179487 27.8270042194092  13.7239583333334 27.6933895921237  13.4651442307692 27.4261603375527  L 6.66105769230768 20.4008438818565  L 1.30769230769232 20.4008438818565  C 0.953525641025635 20.4008438818565  0.647035256410277 20.267229254571  0.388221153846132 20  C 0.129407051282044 19.732770745429  0 19.4163150492265  0 19.0506329113924  L 0 10.9493670886076  C 0 10.5836849507735  0.129407051282044 10.267229254571  0.388221153846132 10  C 0.647035256410277 9.73277074542898  0.953525641025635 9.59915611814347  1.30769230769232 9.59915611814347  L 6.66105769230768 9.59915611814347  L 13.4651442307692 2.57383966244731  C 13.7239583333334 2.30661040787618  14.0304487179487 2.17299578059067  14.3846153846154 2.17299578059067  C 14.738782051282 2.17299578059067  15.0452724358975 2.30661040787618  15.3040865384615 2.57383966244731  Z M 22.6700721153846 12.0042194092827  C 23.2489983974359 12.9324894514768  23.5384615384615 13.9310829817159  23.5384615384615 15  C 23.5384615384615 16.0689170182841  23.2489983974359 17.063994374121  22.6700721153846 17.9852320675105  C 22.0911458333334 18.9064697609001  21.3249198717949 19.563994374121  20.3713942307692 19.957805907173  C 20.2351762820513 20.028129395218  20.0649038461539 20.0632911392405  19.8605769230769 20.0632911392405  C 19.5064102564103 20.0632911392405  19.1999198717949 19.9331926863573  18.9411057692308 19.6729957805908  C 18.6822916666666 19.4127988748241  18.5528846153846 19.0928270042194  18.5528846153846 18.7130801687764  C 18.5528846153846 18.4177215189874  18.6346153846154 18.1680731364276  18.7980769230769 17.9641350210971  C 18.9615384615385 17.7601969057665  19.1590544871795 17.584388185654  19.390625 17.4367088607595  C 19.6221955128205 17.289029535865  19.8537660256411 17.1272855133615  20.0853365384615 16.951476793249  C 20.316907051282 16.7756680731364  20.5144230769231 16.5260196905767  20.6778846153846 16.2025316455696  C 20.8413461538461 15.8790436005626  20.9230769230769 15.478199718706  20.9230769230769 15  C 20.9230769230769 14.521800281294  20.8413461538461 14.1209563994374  20.6778846153846 13.7974683544304  C 20.5144230769231 13.4739803094233  20.316907051282 13.2243319268636  20.0853365384615 13.048523206751  C 19.8537660256411 12.8727144866385  19.6221955128205 12.710970464135  19.390625 12.5632911392405  C 19.1590544871795 12.415611814346  18.9615384615385 12.2398030942335  18.7980769230769 12.0358649789029  C 18.6346153846154 11.8319268635724  18.5528846153846 11.5822784810126  18.5528846153846 11.2869198312236  C 18.5528846153846 10.9071729957806  18.6822916666666 10.5872011251759  18.9411057692308 10.3270042194092  C 19.1999198717949 10.0668073136427  19.5064102564103 9.9367088607595  19.8605769230769 9.9367088607595  C 20.0649038461539 9.9367088607595  20.2351762820513 9.971870604782  20.3713942307692 10.042194092827  C 21.3249198717949 10.42194092827  22.0911458333334 11.0759493670886  22.6700721153846 12.0042194092827  Z M 27.0324519230769 9.04008438818562  C 28.1903044871795 10.8614627285514  28.7692307692308 12.8481012658227  28.7692307692308 15  C 28.7692307692308 17.1518987341773  28.1903044871795 19.1385372714486  27.0324519230769 20.9599156118144  C 25.8745993589744 22.78129395218  24.3421474358975 24.1068917018283  22.4350961538461 24.9367088607595  C 22.2580128205128 25.0070323488045  22.0877403846154 25.042194092827  21.9242788461539 25.042194092827  C 21.5564903846154 25.042194092827  21.2431891025641 24.9085794655415  20.984375 24.6413502109705  C 20.7255608974359 24.3741209563995  20.5961538461539 24.0576652601969  20.5961538461539 23.6919831223628  C 20.5961538461539 23.1434599156119  20.8617788461539 22.7285513361463  21.3930288461539 22.4472573839663  C 22.1558493589744 22.0393811533052  22.6734775641025 21.7299578059072  22.9459134615385 21.5189873417722  C 23.9539262820513 20.7594936708861  24.7405849358975 19.8066104078763  25.3058894230769 18.6603375527426  C 25.8711939102564 17.514064697609  26.1538461538461 16.2939521800281  26.1538461538461 15  C 26.1538461538461 13.7060478199719  25.8711939102564 12.485935302391  25.3058894230769 11.3396624472574  C 24.7405849358975 10.1933895921237  23.9539262820513 9.24050632911394  22.9459134615385 8.48101265822777  C 22.6734775641025 8.27004219409275  22.1558493589744 7.96061884669484  21.3930288461539 7.5527426160337  C 20.8617788461539 7.27144866385368  20.5961538461539 6.85654008438814  20.5961538461539 6.3080168776371  C 20.5961538461539 5.94233473980307  20.7255608974359 5.62587904360055  20.984375 5.35864978902953  C 21.2431891025641 5.09142053445851  21.5496794871795 4.957805907173  21.9038461538461 4.957805907173  C 22.0809294871795 4.957805907173  22.2580128205128 4.9929676511955  22.4350961538461 5.0632911392405  C 24.3421474358975 5.89310829817157  25.8745993589744 7.21870604781998  27.0324519230769 9.04008438818562  Z M 31.4050480769231 6.08649789029539  C 33.135016025641 8.7939521800281  34 11.7651195499296  34 15  C 34 18.2348804500704  33.135016025641 21.2060478199719  31.4050480769231 23.9135021097046  C 29.6750801282051 26.6209563994374  27.3729967948718 28.6146272855133  24.4987980769231 29.8945147679325  C 24.3217147435897 29.9648382559775  24.1446314102564 30  23.9675480769231 30  C 23.6133814102564 30  23.3068910256411 29.8663853727145  23.0480769230769 29.5991561181435  C 22.7892628205128 29.3319268635724  22.6598557692308 29.0154711673699  22.6598557692308 28.6497890295359  C 22.6598557692308 28.1434599156119  22.9254807692308 27.7285513361463  23.4567307692308 27.4050632911392  C 23.5520833333334 27.3488045007032  23.7053285256411 27.274964838256  23.9164663461539 27.1835443037975  C 24.1276041666666 27.092123769339  24.2808493589744 27.0182841068918  24.3762019230769 26.9620253164558  C 25.0028044871795 26.6104078762306  25.5612980769231 26.2517580872011  26.0516826923077 25.8860759493672  C 27.7271634615385 24.606188466948  29.0348557692308 23.0098452883263  29.9747596153846 21.0970464135022  C 30.9146634615385 19.1842475386778  31.3846153846154 17.1518987341773  31.3846153846154 15  C 31.3846153846154 12.8481012658227  30.9146634615385 10.8157524613222  29.9747596153846 8.9029535864978  C 29.0348557692308 6.99015471167365  27.7271634615385 5.39381153305203  26.0516826923077 4.11392405063293  C 25.5612980769231 3.7482419127989  25.0028044871795 3.38959212376938  24.3762019230769 3.03797468354435  C 24.2808493589744 2.98171589310823  24.1276041666666 2.90787623066103  23.9164663461539 2.81645569620252  C 23.7053285256411 2.72503516174402  23.5520833333334 2.65119549929682  23.4567307692308 2.5949367088607  C 22.9254807692308 2.27144866385368  22.6598557692308 1.85654008438814  22.6598557692308 1.3502109704641  C 22.6598557692308 0.984528832630076  22.7892628205128 0.668073136427552  23.0480769230769 0.400843881856531  C 23.3068910256411 0.13361462728551  23.6133814102564 0  23.9675480769231 0  C 24.1446314102564 0  24.3217147435897 0.0351617440225027  24.4987980769231 0.105485232067508  C 27.3729967948718 1.38537271448661  29.6750801282051 3.37904360056257  31.4050480769231 6.08649789029539  Z " fill-rule="nonzero" fill="#666666" stroke="none" transform="matrix(1 0 0 1 478 464 )" />
  </g>
</svg>