<?xml version="1.0" encoding="utf-8"?>
<svg version="1.1" xmlns:xlink="http://www.w3.org/1999/xlink" width="34px" height="34px" xmlns="http://www.w3.org/2000/svg">
  <g transform="matrix(1 0 0 1 -821 -80 )">
    <path d="M 24.5924479166667 15.7825520833333  C 24.8138020833333 16.0186631944445  24.8654513888889 16.2769097222222  24.7473958333333 16.5572916666667  C 24.6293402777777 16.8524305555555  24.4079861111111 17  24.0833333333333 17  L 19.8333333333333 17  L 19.8333333333333 24.7916666666667  C 19.8333333333333 24.9982638888889  19.7669270833333 25.16796875  19.6341145833333 25.30078125  C 19.5013020833333 25.43359375  19.3315972222223 25.5  19.125 25.5  L 14.875 25.5  C 14.6684027777777 25.5  14.4986979166667 25.43359375  14.3658854166667 25.30078125  C 14.2330729166667 25.16796875  14.1666666666667 24.9982638888889  14.1666666666667 24.7916666666667  L 14.1666666666667 17  L 9.91666666666674 17  C 9.71006944444446 17  9.54036458333326 16.93359375  9.40755208333326 16.80078125  C 9.27473958333326 16.66796875  9.20833333333326 16.4982638888889  9.20833333333326 16.2916666666667  C 9.20833333333326 16.1145833333333  9.28211805555554 15.9375  9.4296875 15.7604166666667  L 16.4908854166667 8.69921875  C 16.6532118055555 8.56640625  16.8229166666667 8.5  17 8.5  C 17.1770833333333 8.5  17.3467881944445 8.56640625  17.5091145833333 8.69921875  L 24.5924479166667 15.7825520833333  Z M 23.04296875 6.57421875  C 21.1983506944445 5.49696180555554  19.1840277777777 4.95833333333334  17 4.95833333333334  C 14.8159722222223 4.95833333333334  12.8016493055555 5.49696180555554  10.95703125 6.57421875  C 9.11241319444446 7.65147569444446  7.65147569444446 9.11241319444446  6.57421875 10.95703125  C 5.49696180555554 12.8016493055555  4.95833333333326 14.8159722222222  4.95833333333326 17  C 4.95833333333326 19.1840277777778  5.49696180555554 21.1983506944444  6.57421875 23.04296875  C 7.65147569444446 24.8875868055555  9.11241319444446 26.3485243055555  10.95703125 27.42578125  C 12.8016493055555 28.5030381944445  14.8159722222223 29.0416666666667  17 29.0416666666667  C 19.1840277777777 29.0416666666667  21.1983506944445 28.5030381944445  23.04296875 27.42578125  C 24.8875868055555 26.3485243055555  26.3485243055555 24.8875868055555  27.42578125 23.04296875  C 28.5030381944445 21.1983506944444  29.0416666666667 19.1840277777778  29.0416666666667 17  C 29.0416666666667 14.8159722222222  28.5030381944445 12.8016493055555  27.42578125 10.95703125  C 26.3485243055555 9.11241319444446  24.8875868055555 7.65147569444446  23.04296875 6.57421875  Z M 31.7200520833333 8.466796875  C 33.2400173611111 11.0713975694445  34 13.9157986111111  34 17  C 34 20.0842013888889  33.2400173611111 22.9286024305555  31.7200520833333 25.533203125  C 30.2000868055555 28.1378038194445  28.1378038194445 30.2000868055555  25.533203125 31.7200520833333  C 22.9286024305555 33.2400173611111  20.0842013888889 34  17 34  C 13.9157986111111 34  11.0713975694445 33.2400173611111  8.466796875 31.7200520833333  C 5.86219618055554 30.2000868055555  3.79991319444446 28.1378038194445  2.27994791666674 25.533203125  C 0.759982638888914 22.9286024305555  0 20.0842013888889  0 17  C 0 13.9157986111111  0.759982638888914 11.0713975694445  2.27994791666674 8.466796875  C 3.79991319444446 5.86219618055554  5.86219618055554 3.79991319444446  8.466796875 2.27994791666666  C 11.0713975694445 0.759982638888886  13.9157986111111 0  17 0  C 20.0842013888889 0  22.9286024305555 0.759982638888886  25.533203125 2.27994791666666  C 28.1378038194445 3.79991319444446  30.2000868055555 5.86219618055554  31.7200520833333 8.466796875  Z " fill-rule="nonzero" fill="#666666" stroke="none" transform="matrix(1 0 0 1 821 80 )" />
  </g>
</svg>