<?xml version="1.0" encoding="utf-8"?>
<svg version="1.1" xmlns:xlink="http://www.w3.org/1999/xlink" width="34px" height="34px" xmlns="http://www.w3.org/2000/svg">
  <g transform="matrix(1 0 0 1 -478 -80 )">
    <path d="M 28.0455729166666 17.99609375  C 28.3111979166666 17.73046875  28.4440104166666 17.3984375  28.4440104166666 17  C 28.4440104166666 16.6015625  28.3111979166666 16.26953125  28.0455729166666 16.00390625  L 26.03125 13.9895833333333  L 18.0182291666666 5.9765625  C 17.7526041666666 5.7109375  17.4205729166666 5.578125  17.0221354166666 5.578125  C 16.6236979166666 5.578125  16.2916666666666 5.7109375  16.0260416666666 5.9765625  L 14.01171875 7.99088541666666  C 13.74609375 8.25651041666666  13.61328125 8.58854166666666  13.61328125 8.98697916666666  C 13.61328125 9.38541666666666  13.74609375 9.71744791666666  14.01171875 9.98307291666666  L 18.1953125 14.1666666666667  L 7.08333333333337 14.1666666666667  C 6.69965277777777 14.1666666666667  6.36762152777777 14.3068576388889  6.08723958333337 14.5872395833333  C 5.80685763888886 14.8676215277778  5.66666666666663 15.1996527777778  5.66666666666663 15.5833333333333  L 5.66666666666663 18.4166666666667  C 5.66666666666663 18.8003472222222  5.80685763888886 19.1323784722222  6.08723958333337 19.4127604166667  C 6.36762152777777 19.6931423611111  6.69965277777777 19.8333333333333  7.08333333333337 19.8333333333333  L 18.1953125 19.8333333333333  L 14.01171875 24.0169270833333  C 13.7313368055555 24.2973090277778  13.5911458333334 24.6293402777778  13.5911458333334 25.0130208333333  C 13.5911458333334 25.3967013888889  13.7313368055555 25.7287326388889  14.01171875 26.0091145833333  L 16.0260416666666 28.0234375  C 16.2916666666666 28.2890625  16.6236979166666 28.421875  17.0221354166666 28.421875  C 17.4205729166666 28.421875  17.7526041666666 28.2890625  18.0182291666666 28.0234375  L 26.03125 20.0104166666667  L 28.0455729166666 17.99609375  Z M 31.7200520833334 8.466796875  C 33.2400173611111 11.0713975694445  34 13.9157986111111  34 17  C 34 20.0842013888889  33.2400173611111 22.9286024305555  31.7200520833334 25.533203125  C 30.2000868055555 28.1378038194445  28.1378038194445 30.2000868055555  25.533203125 31.7200520833333  C 22.9286024305555 33.2400173611111  20.0842013888889 34  17 34  C 13.9157986111111 34  11.0713975694445 33.2400173611111  8.466796875 31.7200520833333  C 5.86219618055554 30.2000868055555  3.79991319444446 28.1378038194445  2.27994791666663 25.533203125  C 0.759982638888857 22.9286024305555  0 20.0842013888889  0 17  C 0 13.9157986111111  0.759982638888857 11.0713975694445  2.27994791666663 8.466796875  C 3.79991319444446 5.86219618055554  5.86219618055554 3.79991319444446  8.466796875 2.27994791666666  C 11.0713975694445 0.759982638888886  13.9157986111111 0  17 0  C 20.0842013888889 0  22.9286024305555 0.759982638888886  25.533203125 2.27994791666666  C 28.1378038194445 3.79991319444446  30.2000868055555 5.86219618055554  31.7200520833334 8.466796875  Z " fill-rule="nonzero" fill="#666666" stroke="none" transform="matrix(1 0 0 1 478 80 )" />
  </g>
</svg>