<?xml version="1.0" encoding="utf-8"?>
<svg version="1.1" xmlns:xlink="http://www.w3.org/1999/xlink" width="34px" height="34px" xmlns="http://www.w3.org/2000/svg">
  <g transform="matrix(1 0 0 1 -409 -261 )">
    <path d="M 26.3411458333334 14.1666666666666  C 26.3411458333334 14.5503472222222  26.2009548611111 14.8823784722222  25.9205729166666 15.1627604166666  L 16.5794270833334 24.50390625  C 16.2990451388889 24.7842881944445  15.9670138888889 24.9244791666666  15.5833333333334 24.9244791666666  C 15.1996527777778 24.9244791666666  14.8676215277778 24.7842881944445  14.5872395833334 24.50390625  L 8.07942708333337 17.99609375  C 7.79904513888886 17.7157118055555  7.65885416666663 17.3836805555555  7.65885416666663 17  C 7.65885416666663 16.6163194444445  7.79904513888886 16.2842881944445  8.07942708333337 16.00390625  L 10.3372395833334 13.74609375  C 10.6176215277778 13.4657118055555  10.9496527777778 13.3255208333334  11.3333333333334 13.3255208333334  C 11.7170138888889 13.3255208333334  12.0490451388889 13.4657118055555  12.3294270833334 13.74609375  L 15.5833333333334 17  L 21.6705729166666 10.9127604166666  C 21.9509548611111 10.6323784722222  22.2829861111111 10.4921875  22.6666666666666 10.4921875  C 23.0503472222222 10.4921875  23.3823784722222 10.6323784722222  23.6627604166666 10.9127604166666  L 25.9205729166666 13.1705729166666  C 26.2009548611111 13.4509548611111  26.3411458333334 13.7829861111111  26.3411458333334 14.1666666666666  Z M 27.42578125 23.04296875  C 28.5030381944445 21.1983506944445  29.0416666666666 19.1840277777778  29.0416666666666 17  C 29.0416666666666 14.8159722222222  28.5030381944445 12.8016493055555  27.42578125 10.95703125  C 26.3485243055555 9.11241319444446  24.8875868055555 7.65147569444446  23.04296875 6.57421875  C 21.1983506944445 5.49696180555554  19.1840277777778 4.95833333333337  17 4.95833333333337  C 14.8159722222222 4.95833333333337  12.8016493055555 5.49696180555554  10.95703125 6.57421875  C 9.11241319444446 7.65147569444446  7.65147569444446 9.11241319444446  6.57421875 10.95703125  C 5.49696180555554 12.8016493055555  4.95833333333337 14.8159722222222  4.95833333333337 17  C 4.95833333333337 19.1840277777778  5.49696180555554 21.1983506944445  6.57421875 23.04296875  C 7.65147569444446 24.8875868055555  9.11241319444446 26.3485243055555  10.95703125 27.42578125  C 12.8016493055555 28.5030381944445  14.8159722222222 29.0416666666666  17 29.0416666666666  C 19.1840277777778 29.0416666666666  21.1983506944445 28.5030381944445  23.04296875 27.42578125  C 24.8875868055555 26.3485243055555  26.3485243055555 24.8875868055555  27.42578125 23.04296875  Z M 31.7200520833334 8.466796875  C 33.2400173611111 11.0713975694445  34 13.9157986111111  34 17  C 34 20.0842013888889  33.2400173611111 22.9286024305555  31.7200520833334 25.533203125  C 30.2000868055555 28.1378038194445  28.1378038194445 30.2000868055555  25.533203125 31.7200520833334  C 22.9286024305555 33.2400173611111  20.0842013888889 34  17 34  C 13.9157986111111 34  11.0713975694445 33.2400173611111  8.466796875 31.7200520833334  C 5.86219618055554 30.2000868055555  3.79991319444446 28.1378038194445  2.27994791666663 25.533203125  C 0.759982638888857 22.9286024305555  0 20.0842013888889  0 17  C 0 13.9157986111111  0.759982638888857 11.0713975694445  2.27994791666663 8.466796875  C 3.79991319444446 5.86219618055554  5.86219618055554 3.79991319444446  8.466796875 2.27994791666663  C 11.0713975694445 0.759982638888857  13.9157986111111 0  17 0  C 20.0842013888889 0  22.9286024305555 0.759982638888857  25.533203125 2.27994791666663  C 28.1378038194445 3.79991319444446  30.2000868055555 5.86219618055554  31.7200520833334 8.466796875  Z " fill-rule="nonzero" fill="#666666" stroke="none" transform="matrix(1 0 0 1 409 261 )" />
  </g>
</svg>