<?xml version="1.0" encoding="utf-8"?>
<svg version="1.1" xmlns:xlink="http://www.w3.org/1999/xlink" width="34px" height="29px" xmlns="http://www.w3.org/2000/svg">
  <g transform="matrix(1 0 0 1 -821 -657 )">
    <path d="M 25.7877604166667 13.48046875  C 26.0681423611111 13.7674479166667  26.2083333333333 14.1072916666667  26.2083333333333 14.5  C 26.2083333333333 14.8927083333333  26.0681423611111 15.2325520833333  25.7877604166667 15.51953125  L 13.74609375 27.84453125  C 13.4657118055555 28.1315104166666  13.1336805555555 28.2750000000001  12.75 28.2750000000001  C 12.3663194444445 28.2750000000001  12.0342881944445 28.1315104166666  11.75390625 27.84453125  C 11.4735243055555 27.5575520833333  11.3333333333333 27.2177083333333  11.3333333333333 26.825  L 11.3333333333333 20.3  L 1.41666666666674 20.3  C 1.03298611111109 20.3  0.700954861111086 20.1565104166667  0.420572916666742 19.8695312499999  C 0.140190972222285 19.5825520833333  0 19.2427083333333  0 18.8499999999999  L 0 10.1500000000001  C 0 9.75729166666667  0.140190972222285 9.41744791666667  0.420572916666742 9.13046875000009  C 0.700954861111086 8.84348958333328  1.03298611111109 8.70000000000005  1.41666666666674 8.70000000000005  L 11.3333333333333 8.70000000000005  L 11.3333333333333 2.17499999999995  C 11.3333333333333 1.78229166666665  11.4735243055555 1.44244791666665  11.75390625 1.15546874999995  C 12.0342881944445 0.868489583333371  12.3663194444445 0.724999999999909  12.75 0.724999999999909  C 13.1336805555555 0.724999999999909  13.4657118055555 0.868489583333371  13.74609375 1.15546874999995  L 25.7877604166667 13.48046875  Z M 32.1295572916667 1.91445312499991  C 33.3765190972223 3.19075520833337  34 4.72760416666665  34 6.52500000000009  L 34 22.4749999999999  C 34 24.2723958333333  33.3765190972223 25.8092447916666  32.1295572916667 27.0855468750001  C 30.8825954861111 28.3618489583333  29.3810763888889 29  27.625 29  L 20.5416666666667 29  C 20.3498263888889 29  20.1838107638889 28.9282552083333  20.0436197916667 28.7847656250001  C 19.9034288194445 28.6412760416666  19.8333333333333 28.4713541666666  19.8333333333333 28.2750000000001  C 19.8333333333333 28.2145833333333  19.8259548611111 28.0635416666667  19.8111979166667 27.8218750000001  C 19.7964409722223 27.5802083333333  19.7927517361111 27.380078125  19.8001302083333 27.221484375  C 19.8075086805555 27.0628906249999  19.8296440972223 26.8854166666666  19.8665364583333 26.6890625000001  C 19.9034288194445 26.4927083333333  19.9772135416667 26.3454427083333  20.087890625 26.247265625  C 20.1985677083333 26.1490885416666  20.3498263888889 26.0999999999999  20.5416666666667 26.0999999999999  L 27.625 26.0999999999999  C 28.5989583333333 26.0999999999999  29.4327256944445 25.7450520833333  30.1263020833333 25.03515625  C 30.8198784722223 24.3252604166667  31.1666666666667 23.471875  31 22.4749999999999  L 31 6.52500000000009  C 31.1666666666667 5.52812500000005  30.8198784722223 4.67473958333335  30.1263020833333 3.96484375  C 29.4327256944445 3.25494791666665  28.5989583333333 2.90000000000009  27.625 2.90000000000009  L 21.25 2.90000000000009  L 21.0065104166667 2.90000000000009  L 20.71875 2.90000000000009  C 20.71875 2.90000000000009  20.6338975694445 2.89244791666658  20.4641927083333 2.87734374999991  C 20.2944878472223 2.86223958333335  20.2096354166667 2.83958333333328  20.2096354166667 2.80937500000005  C 20.2096354166667 2.77916666666658  20.1506076388889 2.73763020833337  20.0325520833333 2.68476562499995  C 19.9144965277777 2.63190104166665  19.8628472222223 2.56393229166667  19.8776041666667 2.48085937499991  C 19.8923611111111 2.39778645833337  19.8776041666667 2.29583333333335  19.8333333333333 2.17499999999995  C 19.8333333333333 2.11458333333337  19.8259548611111 1.96354166666663  19.8111979166667 1.72187499999995  C 19.7964409722223 1.48020833333328  19.7927517361111 1.28007812500005  19.8001302083333 1.12148437499991  C 19.8075086805555 0.962890625  19.8296440972223 0.78541666666672  19.8665364583333 0.589062499999955  C 19.9034288194445 0.392708333333303  19.9772135416667 0.245442708333371  20.087890625 0.147265625000045  C 20.1985677083333 0.0490885416667197  20.3498263888889 0  20.5416666666667 0  L 27.625 0  C 29.3810763888889 0  30.8825954861111 0.638151041666674  32.1295572916667 1.91445312499991  Z " fill-rule="nonzero" fill="#666666" stroke="none" transform="matrix(1 0 0 1 821 657 )" />
  </g>
</svg>