<?xml version="1.0" encoding="utf-8"?>
<svg version="1.1" xmlns:xlink="http://www.w3.org/1999/xlink" width="34px" height="20px" xmlns="http://www.w3.org/2000/svg">
  <g transform="matrix(1 0 0 1 -548 -205 )">
    <path d="M 33.6593186372745 16.3573883161512  C 33.8864395457582 16.5864833906071  34 16.8499427262314  34 17.147766323024  C 34 17.4455899198167  33.8864395457582 17.709049255441  33.6593186372745 17.9381443298969  L 31.9559118236473 19.6563573883162  C 31.7287909151637 19.885452462772  31.4676018704075 20  31.1723446893787 20  C 30.8770875083501 20  30.6158984635938 19.885452462772  30.3887775551102 19.6563573883162  L 17 6.15120274914091  L 3.61122244488979 19.6563573883162  C 3.38410153640615 19.885452462772  3.12291249164997 20  2.82765531062125 20  C 2.53239812959254 20  2.2712090848363 19.885452462772  2.04408817635272 19.6563573883162  L 0.340681362725434 17.9381443298969  C 0.113560454241792 17.709049255441  0 17.4455899198167  0 17.147766323024  C 0 16.8499427262314  0.113560454241792 16.5864833906071  0.340681362725434 16.3573883161512  L 16.2164328657315 0.343642611683833  C 16.4435537742151 0.114547537227963  16.7047428189713 0  17 0  C 17.2952571810287 0  17.5564462257849 0.114547537227963  17.7835671342685 0.343642611683833  L 33.6593186372745 16.3573883161512  Z " fill-rule="nonzero" fill="#666666" stroke="none" transform="matrix(1 0 0 1 548 205 )" />
  </g>
</svg>