<?xml version="1.0" encoding="utf-8"?>
<svg version="1.1" xmlns:xlink="http://www.w3.org/1999/xlink" width="34px" height="33px" xmlns="http://www.w3.org/2000/svg">
  <g transform="matrix(1 0 0 1 -821 -138 )">
    <path d="M 33.1925545571246 15.4239130434783  C 33.7308515190416 16.0067934782609  34 16.6868206521739  34 17.4639945652174  C 34 18.2262228260869  33.7308515190416 18.8987771739131  33.1925545571246 19.4816576086957  L 31.5558408215661 21.1630434782609  C 31.0029952931108 21.7309782608696  30.3410355156183 22.0149456521739  29.5699614890885 22.0149456521739  C 28.7843388960205 22.0149456521739  28.1296534017972 21.7309782608696  27.6059050064185 21.1630434782609  L 21 14.5944293478261  L 21 30.3770380434783  C 21.1899871630295 31.1542119565217  20.9172015404365 31.7856657608696  20.3716302952503 32.2713994565217  C 19.8260590500641 32.7571331521739  19.1677364142062 33  18.3966623876764 33  L 15.6033376123236 33  C 14.8322635857938 33  14.1739409499359 32.7571331521739  13.6283697047497 32.2713994565217  C 13.0827984595635 31.7856657608696  12.8100128369705 31.1542119565217  13 30.3770380434783  L 13 14.5944293478261  L 6.39409499358146 21.1630434782609  C 5.87034659820279 21.7309782608696  5.21566110397953 22.0149456521739  4.43003851091146 22.0149456521739  C 3.64441591784339 22.0149456521739  2.98973042362002 21.7309782608696  2.46598202824134 21.1630434782609  L 0.829268292682855 19.4816576086957  C 0.276422764227618 18.9137228260869  0 18.2411684782609  0 17.4639945652174  C 0 16.671875  0.276422764227618 15.9918478260869  0.829268292682855 15.4239130434783  L 15.0359435173299 0.829483695652158  C 15.5451433461703 0.276494565217376  16.1998288403937 0  17 0  C 17.7856225930681 0  18.4475823705606 0.276494565217376  18.9858793324776 0.829483695652158  L 33.1925545571246 15.4239130434783  Z " fill-rule="nonzero" fill="#666666" stroke="none" transform="matrix(1 0 0 1 821 138 )" />
  </g>
</svg>