<?xml version="1.0" encoding="utf-8"?>
<svg version="1.1" xmlns:xlink="http://www.w3.org/1999/xlink" width="29px" height="34px" xmlns="http://www.w3.org/2000/svg">
  <g transform="matrix(1 0 0 1 -478 -817 )">
    <path d="M 26 30.7865168539327  L 26 3  L 3 3  L 3 30.7865168539327  L 12.48359375 21.6629213483145  L 14.5 19.7528089887641  L 16.51640625 21.6629213483145  L 26 30.7865168539327  Z M 2.62812499999995 0  L 26.371875 0  C 26.7192708333333 0  27.0515625 0.0674157303370748  27.36875 0.202247191011224  C 27.8671875 0.397003745318329  28.263671875 0.704119850187226  28.558203125 1.12359550561803  C 28.852734375 1.54307116104872  29 2.00749063670412  29 2.51685393258424  L 29 31.4831460674158  C 29 31.9925093632959  28.852734375 32.4569288389513  28.558203125 32.876404494382  C 28.263671875 33.2958801498128  27.8671875 33.6029962546817  27.36875 33.7977528089887  C 27.0817708333333 33.9176029962547  26.7494791666667 33.9775280898876  26.371875 33.9775280898876  C 25.646875 33.9775280898876  25.0200520833333 33.7378277153558  24.49140625 33.2584269662922  L 14.5 23.7303370786517  L 4.50859375000005 33.2584269662922  C 3.96484375 33.7528089887639  3.33802083333336 34  2.62812499999995 34  C 2.28072916666667 34  1.94843749999995 33.9325842696629  1.63125000000002 33.7977528089887  C 1.1328125 33.6029962546817  0.736328125 33.2958801498128  0.441796875000023 32.876404494382  C 0.147265625000045 32.4569288389513  0 31.9925093632959  0 31.4831460674158  L 0 2.51685393258424  C 0 2.00749063670412  0.147265625000045 1.54307116104872  0.441796875000023 1.12359550561803  C 0.736328125 0.704119850187226  1.1328125 0.397003745318329  1.63125000000002 0.202247191011224  C 1.94843749999995 0.0674157303370748  2.28072916666667 0  2.62812499999995 0  Z " fill-rule="nonzero" fill="#666666" stroke="none" transform="matrix(1 0 0 1 478 817 )" />
  </g>
</svg>