<?xml version="1.0" encoding="utf-8"?>
<svg version="1.1" xmlns:xlink="http://www.w3.org/1999/xlink" width="30px" height="34px" xmlns="http://www.w3.org/2000/svg">
  <g transform="matrix(1 0 0 1 -620 -817 )">
    <path d="M 26.69921875 20.78515625  C 27.2330729166667 20.1716889880952  27.5 19.3147321428571  27.5 18.2142857142858  C 27.5 17.1517857142858  27.2916666666667 15.9944196428571  26.875 14.7421875  C 26.4583333333333 13.4899553571429  26.0416666666667 12.2630208333333  25.625 11.0613839285713  C 25.2083333333333 9.85974702380952  25 8.80357142857133  25 7.89285714285711  L 25 7.28571428571422  L 12.5 7.28571428571422  L 12.5 7.89285714285711  C 12.5 8.33556547619048  12.421875 8.76246279761904  12.265625 9.17354910714289  C 12.109375 9.58463541666674  11.8684895833333 9.97991071428578  11.54296875 10.359375  C 11.2174479166667 10.7388392857142  10.91796875 11.0550595238095  10.64453125 11.3080357142858  C 10.37109375 11.5610119047619  10.01953125 11.8709077380952  9.58984375 12.2377232142858  C 9.47265625 12.3389136904761  9.38151041666674 12.414806547619  9.31640625 12.4654017857142  C 8.26171875 13.3761160714287  7.31770833333326 14.0844494047619  6.484375 14.5904017857142  C 6.19791666666674 14.7674851190477  5.75520833333326 15.0078125  5.15625 15.3113839285713  C 5.1171875 15.3240327380952  4.970703125 15.3904389880952  4.716796875 15.5106026785713  C 4.462890625 15.6307663690477  4.228515625 15.7477678571429  4.013671875 15.8616071428571  C 3.798828125 15.9754464285713  3.56770833333326 16.1019345238095  3.3203125 16.2410714285713  C 3.07291666666674 16.3802083333333  2.87434895833326 16.5161830357142  2.724609375 16.6489955357142  C 2.57486979166674 16.7818080357142  2.5 16.8988095238095  2.5 17  C 2.5 17.8980654761905  2.69856770833326 18.6285342261905  3.095703125 19.19140625  C 3.49283854166674 19.7542782738095  4.12760416666674 20.0357142857142  5 20.0357142857142  C 5.55989583333326 20.0357142857142  6.11002604166674 19.9408482142858  6.650390625 19.7511160714287  C 7.19075520833326 19.5613839285713  7.63346354166674 19.3526785714287  7.978515625 19.125  C 8.32356770833326 18.8973214285713  8.681640625 18.6886160714287  9.052734375 18.4988839285713  C 9.423828125 18.3091517857142  9.73958333333326 18.2142857142858  10 18.2142857142858  L 10 29.1428571428571  C 10 29.7752976190477  10.2506510416667 30.3381696428571  10.751953125 30.8314732142858  C 11.2532552083333 31.3247767857142  11.8359375 31.5714285714287  12.5 31.5714285714287  C 13.1770833333333 31.5714285714287  13.7630208333333 31.3311011904761  14.2578125 30.8504464285713  C 14.7526041666667 30.3697916666667  15 29.8005952380952  15 29.1428571428571  L 15 22.8627232142858  C 15.5989583333333 23.305431547619  16.26953125 23.5267857142858  17.01171875 23.5267857142858  C 17.91015625 23.5267857142858  18.6848958333333 23.1915922619048  19.3359375 22.5212053571429  C 19.7526041666667 22.7488839285713  20.2018229166667 22.8627232142858  20.68359375 22.8627232142858  C 21.1653645833333 22.8627232142858  21.6438802083333 22.7520461309523  22.119140625 22.5306919642858  C 22.5944010416667 22.309337797619  22.9361979166667 22.0089285714287  23.14453125 21.6294642857142  C 23.45703125 21.6800595238095  23.8216145833333 21.7053571428571  24.23828125 21.7053571428571  C 25.3450520833333 21.7053571428571  26.1653645833333 21.3986235119048  26.69921875 20.78515625  Z M 24.62890625 4.49665178571422  C 24.8763020833333 4.25632440476193  25 3.97172619047615  25 3.64285714285711  C 25 3.31398809523807  24.8763020833333 3.02938988095229  24.62890625 2.7890625  C 24.3815104166667 2.54873511904771  24.0885416666667 2.42857142857133  23.75 2.42857142857133  C 23.4114583333333 2.42857142857133  23.1184895833333 2.54873511904771  22.87109375 2.7890625  C 22.6236979166667 3.02938988095229  22.5 3.31398809523807  22.5 3.64285714285711  C 22.5 3.97172619047615  22.6236979166667 4.25632440476193  22.87109375 4.49665178571422  C 23.1184895833333 4.73697916666674  23.4114583333333 4.85714285714289  23.75 4.85714285714289  C 24.0885416666667 4.85714285714289  24.3815104166667 4.73697916666674  24.62890625 4.49665178571422  Z M 28.65234375 12.1238839285713  C 29.55078125 14.5271577380952  30 16.531994047619  30 18.1383928571429  C 30 19.9345238095239  29.4954427083333 21.3891369047619  28.486328125 22.5022321428571  C 27.4772135416667 23.6153273809523  26.0611979166667 24.1655505952381  24.23828125 24.1529017857142  L 24.140625 24.1339285714287  C 23.1510416666667 24.905505952381  21.9921875 25.2912946428571  20.6640625 25.2912946428571  C 20.3776041666667 25.2912946428571  20.09765625 25.2723214285713  19.82421875 25.234375  C 19.12109375 25.6138392857142  18.3463541666667 25.8478422619048  17.5 25.9363839285713  L 17.5 29.1428571428571  C 17.5 30.4709821428571  17.0052083333333 31.612537202381  16.015625 32.5675223214287  C 15.0260416666667 33.5225074404761  13.84765625 34  12.48046875 34  C 11.1393229166667 34  9.97395833333326 33.5193452380952  8.984375 32.5580357142858  C 7.99479166666674 31.5967261904761  7.5 30.4583333333333  7.5 29.1428571428571  L 7.5 22.046875  C 6.796875 22.3251488095239  5.96354166666674 22.4642857142858  5 22.4642857142858  C 3.42447916666674 22.4642857142858  2.197265625 21.9488467261905  1.318359375 20.91796875  C 0.439453125 19.8870907738095  0 18.5811011904761  0 17  C 0 16.5193452380952  0.113932291666742 16.0797991071429  0.341796875 15.6813616071429  C 0.569661458333258 15.2829241071429  0.891927083333258 14.9350818452381  1.30859375 14.6378348214287  C 1.72526041666674 14.340587797619  2.13541666666674 14.0844494047619  2.5390625 13.8694196428571  C 2.94270833333326 13.6543898809523  3.41145833333326 13.4203869047619  3.9453125 13.1674107142858  C 4.47916666666674 12.9144345238095  4.8828125 12.7057291666667  5.15625 12.5412946428571  C 5.87239583333326 12.0985863095239  6.71223958333326 11.4661458333333  7.67578125 10.6439732142858  C 7.71484375 10.6186755952381  7.82552083333326 10.5301339285713  8.0078125 10.3783482142858  C 8.19010416666674 10.2265625  8.330078125 10.1063988095239  8.427734375 10.0178571428571  C 8.525390625 9.92931547619048  8.66536458333326 9.79966517857133  8.84765625 9.62890625  C 9.02994791666674 9.45814732142867  9.17643229166674 9.30636160714289  9.287109375 9.17354910714289  C 9.39778645833326 9.04073660714289  9.51497395833326 8.8984375  9.638671875 8.74665178571422  C 9.76236979166674 8.59486607142867  9.853515625 8.44624255952385  9.912109375 8.30078125  C 9.970703125 8.15531994047615  10 8.01934523809518  10 7.89285714285711  L 10 2.42857142857133  C 10 1.75818452380952  10.244140625 1.18582589285711  10.732421875 0.711495535714221  C 11.220703125 0.237165178571331  11.8098958333333 0  12.5 0  L 25 0  C 25.6901041666667 0  26.279296875 0.237165178571331  26.767578125 0.711495535714221  C 27.255859375 1.18582589285711  27.5 1.75818452380952  27.5 2.42857142857133  L 27.5 7.89285714285711  C 27.5 8.63913690476193  27.8841145833333 10.0494791666667  28.65234375 12.1238839285713  Z " fill-rule="nonzero" fill="#666666" stroke="none" transform="matrix(1 0 0 1 620 817 )" />
  </g>
</svg>