<?xml version="1.0" encoding="utf-8"?>
<svg version="1.1" xmlns:xlink="http://www.w3.org/1999/xlink" width="30px" height="34px" xmlns="http://www.w3.org/2000/svg">
  <g transform="matrix(1 0 0 1 -826 -817 )">
    <path d="M 24.62890625 31.2109375  C 24.8763020833333 30.9706101190477  25 30.6860119047619  25 30.3571428571429  C 25 30.0282738095239  24.8763020833333 29.7436755952381  24.62890625 29.5033482142858  C 24.3815104166667 29.2630208333333  24.0885416666667 29.1428571428571  23.75 29.1428571428571  C 23.4114583333333 29.1428571428571  23.1184895833333 29.2630208333333  22.87109375 29.5033482142858  C 22.6236979166667 29.7436755952381  22.5 30.0282738095239  22.5 30.3571428571429  C 22.5 30.6860119047619  22.6236979166667 30.9706101190477  22.87109375 31.2109375  C 23.1184895833333 31.4512648809523  23.4114583333333 31.5714285714287  23.75 31.5714285714287  C 24.0885416666667 31.5714285714287  24.3815104166667 31.4512648809523  24.62890625 31.2109375  Z M 26.875 19.2672991071429  C 27.2916666666667 18.0213913690477  27.5 16.8861607142858  27.5 15.8616071428571  C 27.5 13.4709821428571  26.4127604166667 12.2756696428571  24.23828125 12.2756696428571  C 23.8997395833333 12.2756696428571  23.53515625 12.3072916666667  23.14453125 12.3705357142858  C 22.9361979166667 11.9910714285713  22.5944010416667 11.690662202381  22.119140625 11.4693080357142  C 21.6438802083333 11.2479538690477  21.1653645833333 11.1372767857142  20.68359375 11.1372767857142  C 20.2018229166667 11.1372767857142  19.7526041666667 11.2511160714287  19.3359375 11.4787946428571  C 18.6848958333333 10.8084077380952  17.91015625 10.4732142857142  17.01171875 10.4732142857142  C 16.6861979166667 10.4732142857142  16.3248697916667 10.5364583333333  15.927734375 10.6629464285713  C 15.5305989583333 10.7894345238095  15.2213541666667 10.9475446428571  15 11.1372767857142  L 15 4.85714285714289  C 15 4.19940476190482  14.7526041666667 3.63020833333326  14.2578125 3.14955357142867  C 13.7630208333333 2.66889880952385  13.1770833333333 2.42857142857133  12.5 2.42857142857133  C 11.8359375 2.42857142857133  11.2532552083333 2.67522321428578  10.751953125 3.16852678571422  C 10.2506510416667 3.66183035714289  10 4.22470238095229  10 4.85714285714289  L 10 15.7857142857142  C 9.73958333333326 15.7857142857142  9.423828125 15.6908482142858  9.052734375 15.5011160714287  C 8.681640625 15.3113839285713  8.32356770833326 15.1026785714287  7.978515625 14.875  C 7.63346354166674 14.6473214285713  7.19075520833326 14.4386160714287  6.650390625 14.2488839285713  C 6.11002604166674 14.0591517857142  5.55989583333326 13.9642857142858  5 13.9642857142858  C 4.12760416666674 13.9642857142858  3.49283854166674 14.2457217261905  3.095703125 14.80859375  C 2.69856770833326 15.3714657738095  2.5 16.1019345238095  2.5 17  C 2.5 17.3035714285713  3.40494791666674 17.8727678571429  5.21484375 18.7075892857142  C 5.78776041666674 19.0111607142858  6.2109375 19.2451636904761  6.484375 19.4095982142858  C 7.31770833333326 19.9155505952381  8.26171875 20.6238839285713  9.31640625 21.5345982142858  C 10.37109375 22.4326636904761  11.0611979166667 23.0714285714287  11.38671875 23.4508928571429  C 12.12890625 24.3236607142858  12.5 25.2090773809523  12.5 26.1071428571429  L 12.5 26.7142857142858  L 25 26.7142857142858  L 25 26.1071428571429  C 25 25.1964285714287  25.2083333333333 24.1402529761905  25.625 22.9386160714287  C 26.0416666666667 21.7369791666667  26.4583333333333 20.5132068452381  26.875 19.2672991071429  Z M 28.427734375 11.4598214285713  C 29.4759114583333 12.547619047619  30 13.9832589285713  30 15.7667410714287  C 30 17.4490327380952  29.55078125 19.4854910714287  28.65234375 21.8761160714287  C 27.8841145833333 23.9505208333333  27.5 25.3608630952381  27.5 26.1071428571429  L 27.5 31.5714285714287  C 27.5 32.2418154761904  27.255859375 32.8141741071429  26.767578125 33.2885044642858  C 26.279296875 33.7628348214287  25.6901041666667 34  25 34  L 12.5 34  C 11.8098958333333 34  11.220703125 33.7628348214287  10.732421875 33.2885044642858  C 10.244140625 32.8141741071429  10 32.2418154761904  10 31.5714285714287  L 10 26.1071428571429  C 10 25.9806547619048  9.970703125 25.8446800595239  9.912109375 25.69921875  C 9.853515625 25.5537574404761  9.76236979166674 25.4051339285713  9.638671875 25.2533482142858  C 9.51497395833326 25.1015625  9.39778645833326 24.9592633928571  9.287109375 24.8264508928571  C 9.17643229166674 24.6936383928571  9.02994791666674 24.5418526785713  8.84765625 24.37109375  C 8.66536458333326 24.2003348214287  8.525390625 24.0706845238095  8.427734375 23.9821428571429  C 8.330078125 23.8936011904761  8.19010416666674 23.7734375  8.0078125 23.6216517857142  C 7.82552083333326 23.4698660714287  7.71484375 23.3813244047619  7.67578125 23.3560267857142  C 6.71223958333326 22.5338541666667  5.87239583333326 21.9014136904761  5.15625 21.4587053571429  C 4.8828125 21.2942708333333  4.47916666666674 21.0855654761905  3.9453125 20.8325892857142  C 3.41145833333326 20.5796130952381  2.94270833333326 20.3456101190477  2.5390625 20.1305803571429  C 2.13541666666674 19.9155505952381  1.72526041666674 19.659412202381  1.30859375 19.3621651785713  C 0.891927083333258 19.0649181547619  0.569661458333258 18.7170758928571  0.341796875 18.3186383928571  C 0.113932291666742 17.9202008928571  0 17.4806547619048  0 17  C 0 15.4188988095239  0.436197916666742 14.1129092261905  1.30859375 13.08203125  C 2.18098958333326 12.0511532738095  3.41145833333326 11.5357142857142  5 11.5357142857142  C 5.88541666666674 11.5357142857142  6.71875 11.6748511904761  7.5 11.953125  L 7.5 4.85714285714289  C 7.5 3.54166666666674  7.99479166666674 2.40327380952385  8.984375 1.44196428571422  C 9.97395833333326 0.480654761904816  11.1393229166667 0  12.48046875 0  C 13.84765625 0  15.0260416666667 0.477492559523853  16.015625 1.43247767857133  C 17.0052083333333 2.38746279761904  17.5 3.52901785714289  17.5 4.85714285714289  L 17.5 8.06361607142867  C 18.3072916666667 8.11421130952385  19.08203125 8.34821428571422  19.82421875 8.765625  C 20.09765625 8.72767857142867  20.3776041666667 8.70870535714289  20.6640625 8.70870535714289  C 21.9791666666667 8.70870535714289  23.1380208333333 9.08816964285711  24.140625 9.84709821428578  C 25.9505208333333 9.83444940476193  27.3795572916667 10.3720238095239  28.427734375 11.4598214285713  Z " fill-rule="nonzero" fill="#666666" stroke="none" transform="matrix(1 0 0 1 826 817 )" />
  </g>
</svg>