<?xml version="1.0" encoding="utf-8"?>
<svg version="1.1" xmlns:xlink="http://www.w3.org/1999/xlink" width="34px" height="28px" xmlns="http://www.w3.org/2000/svg">
  <g transform="matrix(1 0 0 1 -478 -885 )">
    <path d="M 10.3416666666667 5.6875  C 11.0027777777778 6.36805555555554  11.3333333333334 7.19444444444446  11.3333333333334 8.16666666666663  C 11.3333333333334 9.13888888888891  11.0027777777778 9.96527777777771  10.3416666666667 10.6458333333334  C 9.68055555555554 11.3263888888889  8.87777777777779 11.6666666666666  7.93333333333334 11.6666666666666  C 6.98888888888888 11.6666666666666  6.18611111111113 11.3263888888889  5.52500000000003 10.6458333333334  C 4.86388888888888 9.96527777777771  4.5333333333333 9.13888888888891  4.5333333333333 8.16666666666663  C 4.5333333333333 7.19444444444446  4.86388888888888 6.36805555555554  5.52500000000003 5.6875  C 6.18611111111113 5.00694444444446  6.98888888888888 4.66666666666663  7.93333333333334 4.66666666666663  C 8.87777777777779 4.66666666666663  9.68055555555554 5.00694444444446  10.3416666666667 5.6875  Z M 22.1 7.58333333333337  L 29.4666666666667 15.1666666666666  L 29.4666666666667 23  L 4.5333333333333 23  L 4.5333333333333 19.8333333333334  L 10.2 14  L 13.0333333333333 16.9166666666666  L 22.1 7.58333333333337  Z M 31.5651041666666 2.50651041666663  C 31.4529513888889 2.39105902777771  31.3201388888889 2.33333333333337  31.1666666666666 2.33333333333337  L 2.83333333333337 2.33333333333337  C 2.67986111111111 2.33333333333337  2.54704861111111 2.39105902777771  2.43489583333337 2.50651041666663  C 2.32274305555558 2.62196180555554  2.26666666666671 2.75868055555554  2.26666666666671 2.91666666666663  L 2.26666666666671 25.0833333333334  C 2.26666666666671 25.2413194444445  2.32274305555558 25.3780381944445  2.43489583333337 25.4934895833334  C 2.54704861111111 25.6089409722223  2.67986111111111 25.6666666666666  2.83333333333337 25.6666666666666  L 31.1666666666666 25.6666666666666  C 31.3201388888889 25.6666666666666  31.4529513888889 25.6089409722223  31.5651041666666 25.4934895833334  C 31.6772569444445 25.3780381944445  31.7333333333333 25.2413194444445  31.7333333333333 25.0833333333334  L 31.7333333333333 2.91666666666663  C 31.7333333333333 2.75868055555554  31.6772569444445 2.62196180555554  31.5651041666666 2.50651041666663  Z M 33.1677083333333 0.856770833333371  C 33.7225694444444 1.42795138888891  34 2.11458333333337  34 2.91666666666663  L 34 25.0833333333334  C 34 25.8854166666666  33.7225694444444 26.5720486111111  33.1677083333333 27.1432291666666  C 32.6128472222222 27.7144097222223  31.9458333333333 28  31.1666666666666 28  L 2.83333333333337 28  C 2.05416666666667 28  1.38715277777777 27.7144097222223  0.832291666666663 27.1432291666666  C 0.277430555555554 26.5720486111111  0 25.8854166666666  0 25.0833333333334  L 0 2.91666666666663  C 0 2.11458333333337  0.277430555555554 1.42795138888891  0.832291666666663 0.856770833333371  C 1.38715277777777 0.285590277777715  2.05416666666667 0  2.83333333333337 0  L 31.1666666666666 0  C 31.9458333333333 0  32.6128472222222 0.285590277777715  33.1677083333333 0.856770833333371  Z " fill-rule="nonzero" fill="#666666" stroke="none" transform="matrix(1 0 0 1 478 885 )" />
  </g>
</svg>