<?xml version="1.0" encoding="utf-8"?>
<svg version="1.1" xmlns:xlink="http://www.w3.org/1999/xlink" width="34px" height="34px" xmlns="http://www.w3.org/2000/svg">
  <g transform="matrix(1 0 0 1 -548 -527 )">
    <path d="M 33.13671875 1.52734375  C 33.7122395833334 1.77821180555554  34 2.21354166666674  34 2.83333333333326  L 34 12.75  C 34 13.1336805555555  33.8598090277778 13.4657118055555  33.5794270833334 13.74609375  C 33.2990451388889 14.0264756944445  32.9670138888889 14.1666666666667  32.5833333333334 14.1666666666667  L 22.6666666666666 14.1666666666667  C 22.046875 14.1666666666667  21.6115451388889 13.8715277777777  21.3606770833334 13.28125  C 21.1098090277778 12.7057291666667  21.2131076388889 12.1966145833333  21.6705729166666 11.75390625  L 24.7252604166666 8.69921875  C 22.5412326388889 6.67751736111109  19.9661458333334 5.66666666666674  17 5.66666666666674  C 15.4652777777778 5.66666666666674  14.0006510416666 5.96549479166674  12.6061197916666 6.56315104166674  C 11.2115885416666 7.16080729166674  10.0052083333334 7.96875  8.98697916666663 8.98697916666674  C 7.96875 10.0052083333333  7.16080729166663 11.2115885416667  6.56315104166663 12.6061197916667  C 5.96549479166663 14.0006510416667  5.66666666666663 15.4652777777777  5.66666666666663 17  C 5.66666666666663 18.5347222222223  5.96549479166663 19.9993489583333  6.56315104166663 21.3938802083333  C 7.16080729166663 22.7884114583333  7.96875 23.9947916666667  8.98697916666663 25.0130208333333  C 10.0052083333334 26.03125  11.2115885416666 26.8391927083333  12.6061197916666 27.4368489583333  C 14.0006510416666 28.0345052083333  15.4652777777778 28.3333333333333  17 28.3333333333333  C 18.7560763888889 28.3333333333333  20.4162326388889 27.9496527777777  21.98046875 27.1822916666667  C 23.5447048611111 26.4149305555555  24.8654513888889 25.3302951388889  25.9427083333334 23.9283854166667  C 26.0460069444445 23.7808159722223  26.2157118055555 23.6922743055555  26.4518229166666 23.6627604166667  C 26.6584201388889 23.6627604166667  26.8428819444445 23.7291666666667  27.0052083333334 23.8619791666667  L 30.0377604166666 26.9166666666667  C 30.1705729166666 27.0347222222223  30.2406684027778 27.1859809027777  30.248046875 27.3704427083333  C 30.2554253472222 27.5549045138889  30.2000868055555 27.7209201388889  30.08203125 27.8684895833333  C 28.4735243055555 29.81640625  26.5256076388889 31.3253038194445  24.23828125 32.3951822916667  C 21.9509548611111 33.4650607638889  19.5381944444445 34  17 34  C 14.6979166666666 34  12.4991319444445 33.5499131944445  10.4036458333334 32.6497395833333  C 8.30815972222223 31.7495659722223  6.50043402777777 30.5394965277777  4.98046875 29.01953125  C 3.46050347222223 27.4995659722223  2.25043402777777 25.6918402777777  1.35026041666663 23.5963541666667  C 0.450086805555543 21.5008680555555  0 19.3020833333333  0 17  C 0 14.6979166666667  0.450086805555543 12.4991319444445  1.35026041666663 10.4036458333333  C 2.25043402777777 8.30815972222229  3.46050347222223 6.50043402777771  4.98046875 4.98046875  C 6.50043402777777 3.46050347222229  8.30815972222223 2.25043402777771  10.4036458333334 1.35026041666674  C 12.4991319444445 0.450086805555543  14.6979166666666 0  17 0  C 19.1692708333334 0  21.2684461805555 0.409505208333258  23.2975260416666 1.228515625  C 25.3266059027778 2.04752604166674  27.1306423611111 3.20225694444446  28.7096354166666 4.69270833333326  L 31.5872395833334 1.83723958333326  C 32.0151909722222 1.37977430555554  32.5316840277778 1.27647569444446  33.13671875 1.52734375  Z " fill-rule="nonzero" fill="#666666" stroke="none" transform="matrix(1 0 0 1 548 527 )" />
  </g>
</svg>