<?xml version="1.0" encoding="utf-8"?>
<svg version="1.1" xmlns:xlink="http://www.w3.org/1999/xlink" width="33px" height="34px" xmlns="http://www.w3.org/2000/svg">
  <g transform="matrix(1 0 0 1 -410 -461 )">
    <path d="M 21.4557291666667 0.53125  C 21.8185763888889 0.885416666666629  22 1.30482456140351  22 1.78947368421052  L 22 32.2105263157895  C 22 32.6951754385965  21.8185763888889 33.1145833333333  21.4557291666667 33.46875  C 21.0928819444445 33.8229166666667  20.6631944444445 34  20.1666666666667 34  C 19.6701388888889 34  19.2404513888889 33.8229166666667  18.8776041666667 33.46875  L 9.33854166666669 24.1578947368421  L 1.83333333333331 24.1578947368421  C 1.33680555555554 24.1578947368421  0.907118055555543 23.9808114035088  0.544270833333314 23.6266447368421  C 0.181423611111143 23.2724780701755  0 22.8530701754386  0 22.3684210526316  L 0 11.6315789473684  C 0 11.1469298245614  0.181423611111143 10.7275219298245  0.544270833333314 10.3733552631579  C 0.907118055555543 10.0191885964912  1.33680555555554 9.84210526315792  1.83333333333331 9.84210526315792  L 9.33854166666669 9.84210526315792  L 18.8776041666667 0.53125  C 19.2404513888889 0.177083333333371  19.6701388888889 0  20.1666666666667 0  C 20.6631944444445 0  21.0928819444445 0.177083333333371  21.4557291666667 0.53125  Z M 31.7825520833333 13.0296052631579  C 32.5941840277778 14.2598684210526  33 15.5833333333333  33 17  C 33 18.4166666666667  32.5941840277778 19.7354714912281  31.7825520833333 20.9564144736842  C 30.9709201388889 22.1773574561404  29.8967013888889 23.0487938596491  28.5598958333333 23.5707236842105  C 28.3689236111111 23.6639254385965  28.1302083333333 23.7105263157895  27.84375 23.7105263157895  C 27.3472222222222 23.7105263157895  26.9175347222222 23.5381030701755  26.5546875 23.1932565789474  C 26.1918402777778 22.8484100877193  26.0104166666667 22.4243421052631  26.0104166666667 21.921052631579  C 26.0104166666667 21.5296052631579  26.125 21.1987390350878  26.3541666666667 20.9284539473684  C 26.5833333333333 20.6581688596491  26.8602430555555 20.4251644736842  27.1848958333333 20.2294407894736  C 27.5095486111111 20.0337171052631  27.8342013888889 19.8193530701755  28.1588541666667 19.5863486842105  C 28.4835069444445 19.3533442982457  28.7604166666667 19.0224780701755  28.9895833333333 18.59375  C 29.21875 18.1650219298245  29.3333333333333 17.6337719298245  29.3333333333333 17  C 29.3333333333333 16.3662280701755  29.21875 15.8349780701755  28.9895833333333 15.40625  C 28.7604166666667 14.9775219298245  28.4835069444445 14.6466557017543  28.1588541666667 14.4136513157895  C 27.8342013888889 14.1806469298245  27.5095486111111 13.9662828947369  27.1848958333333 13.7705592105264  C 26.8602430555555 13.5748355263158  26.5833333333333 13.3418311403509  26.3541666666667 13.0715460526316  C 26.125 12.8012609649122  26.0104166666667 12.4703947368421  26.0104166666667 12.078947368421  C 26.0104166666667 11.5756578947369  26.1918402777778 11.1515899122807  26.5546875 10.8067434210526  C 26.9175347222222 10.4618969298245  27.3472222222222 10.2894736842105  27.84375 10.2894736842105  C 28.1302083333333 10.2894736842105  28.3689236111111 10.3360745614035  28.5598958333333 10.4292763157895  C 29.8967013888889 10.9325657894736  30.9709201388889 11.7993421052631  31.7825520833333 13.0296052631579  Z " fill-rule="nonzero" fill="#666666" stroke="none" transform="matrix(1 0 0 1 410 461 )" />
  </g>
</svg>