<?xml version="1.0" encoding="utf-8"?>
<svg version="1.1" xmlns:xlink="http://www.w3.org/1999/xlink" width="34px" height="28px" xmlns="http://www.w3.org/2000/svg">
  <g transform="matrix(1 0 0 1 -409 -531 )">
    <path d="M 11.6173246325294 22.3967042563694  C 12.1294352693919 22.2231081748112  12.5245823657365 21.9177076609586  12.802765921563 21.4805027148119  C 13.0683047703066 21.0432977686651  13.1378506592632 20.5996633380162  13.011403588433 20.1495994228651  C 12.8849565176027 19.6995355077141  12.6004506082347 19.3780612826062  12.1578858603288 19.1851767475414  C 11.7279658195059 19.0051511814811  11.2664340109755 18.9987216969789  10.7732904347375 19.165888294035  C 10.2801468584995 19.3330548910911  9.90080564600879 19.6288111781903  9.63526679726522 20.0531571553328  C 9.35708324143866 20.4903621014796  9.27489264539901 20.9307817898773  9.38869500914626 21.3744162205262  C 9.50249737289346 21.8180506511752  9.7743585751785 22.1427396185342  10.2042786160014 22.3484831226033  C 10.6341986568242 22.5542266266722  11.1052139956669 22.5703003379276  11.6173246325294 22.3967042563694  Z M 14.1683942865298 19.5034362303983  C 14.3580648927751 19.4327119008746  14.4971566706884 19.3137664375846  14.5856696202696 19.1465998405286  C 14.6868272769338 18.9794332434725  14.7089555143291 18.8090519041652  14.6520543324555 18.635455822607  C 14.5951531505819 18.4618597410487  14.4845119636054 18.3429142777588  14.3201307715261 18.2786194327373  C 14.1431048723637 18.2143245877156  13.9629177964306 18.2175393299667  13.7795695437268 18.2882636594904  C 13.5962212910229 18.3589879890143  13.4602906898804 18.4779334523041  13.3717777402992 18.6451000493602  C 13.1568177198877 19.043728088494  13.2390083159274 19.3330548910911  13.6183495284182 19.5130804571515  C 13.7953754275806 19.5773753021731  13.9787236802844 19.5741605599221  14.1683942865298 19.5034362303983  Z M 17.8385205173778 17.5360139727379  C 18.4391441038215 18.6997506676286  18.4549499876753 19.9245674652897  17.8859381689392 21.2104643657212  C 17.3169263502031 22.5220792041614  16.3179944906441 23.4865018794851  14.8891425902622 24.1037323916923  C 13.4602906898804 24.7209629038994  12.0440834965815 24.7981167179254  10.6405210103657 24.3351938337699  C 9.28753735248199 23.8979888876232  8.35499020510895 23.0846590981002  7.84287956824642 21.895204465201  C 7.33076893138389 20.7057498323018  7.37186422940374 19.5002214881472  7.96616546230587 18.2786194327373  C 8.56046669520805 17.0827353153359  9.51830325674723 16.1890369695359  10.8396751469234 15.5975243953374  C 12.1610470370995 15.0060118211388  13.4919024575879 14.8838516155979  14.8322414083886 15.2310437787144  C 16.2358038946044 15.6039538798395  17.2378969309341 16.3722772778474  17.8385205173778 17.5360139727379  Z M 21.2905255510437 23.2261077571478  C 23.142975138707 21.7023199301362  23.9806869829573 20.0017212793156  23.803661083795 18.1243118046854  C 23.6898587200478 16.8898507802711  23.1271692548531 15.7968384149042  22.1155926882111 14.845274708585  C 21.1040161215691 13.8937110022656  19.7858054081637 13.1928971915303  18.160960547995 12.7428332763793  C 16.5361156878262 12.2927693612282  14.800629640681 12.1577501866828  12.9545024065594 12.3377757527433  C 10.1347327270447 12.6335320398425  7.79862309345583 13.5433040968979  5.94617350579261 15.0670919239093  C 4.0937239181294 16.5908797509207  3.25601207387899 18.2914784017415  3.43303797304134 20.1688878763717  C 3.54684033678859 21.403348900786  4.10952980198317 22.4963612661528  5.12110636862525 23.4479249724722  C 6.13268293526727 24.3994886787915  7.4508936486726 25.1003024895268  9.07573850884137 25.5503664046778  C 10.7005833690101 26.0004303198289  12.4360694161553 26.1354494943741  14.282196650277 25.9554239283138  C 17.1019663297916 25.6596676412145  19.4380759633805 24.7498955841592  21.2905255510437 23.2261077571478  Z M 29.0006356949183 15.9543607852072  C 29.4305557357412 16.6294566579337  29.6455157561526 17.3784916024351  29.6455157561526 18.2014656187113  C 29.6455157561526 19.0758755110048  29.4115886751167 19.9727885990558  28.9437345130448 20.8922048828645  C 28.4758803509728 21.811621166673  27.786743814948 22.6924605434687  26.8763249049701 23.5347230132513  C 25.9659059949923 24.376985483034  24.9005894232474 25.1324499120376  23.6803751897355 25.801116300262  C 22.4601609562235 26.4697826884865  21.0313090558417 27.0034299021655  19.3938194885899 27.4020579412994  C 17.7563299213382 27.8006859804331  16.046133288359 28  14.2632295896524 28  C 12.4803258909459 28  10.7416786670299 27.7846122691777  9.04728791790455 27.3538368075332  C 7.35289716877918 26.9230613458885  5.83237114204542 26.3251192871879  4.48570983770321 25.5600106314311  C 3.13904853336101 24.7949019756743  2.05476490099159 23.8240498158484  1.23285894059495 22.6474541519535  C 0.410952980198317 21.4708584880585  0 20.1881763298782  0 18.799407677412  C 0 17.3206262419158  0.439403571135131 15.745402538887  1.31821071340539 14.0737365683259  C 2.1970178556756 12.4020705977648  3.44568268012438 10.7432635962081  5.06420518675162 9.09731556365568  C 7.20116068378292 6.92414980192632  9.36024441820939 5.40679145941704  11.5414563900313 4.54524053612795  C 13.7226683618531 3.68368961283875  15.281128509836 3.72869600435376  16.2168368339799 4.68025971067311  C 17.0387427943765 5.50323372694947  17.1651898652067 6.84699598790041  16.5961780464706 8.71154649352616  C 16.5455992181385 8.89157205958668  16.539276864597 9.02016174962978  16.5772109858461 9.09731556365568  C 16.6151451070951 9.17446937768159  16.6783686425102 9.21947576919672  16.7668815920915 9.23233473820096  C 16.8553945416726 9.24519370720532  16.9470686680246 9.24197896495423  17.0419039711472 9.22269051144781  C 17.1367392742699 9.20340205794139  17.2220910470804 9.18089886218377  17.2979592895785 9.15518092417517  L 17.4117616533258 9.11660401716222  C 19.1693759378663 8.35792484590752  20.7246749090783 7.97858526028017  22.077658566962 7.97858526028017  C 23.4306422248458 7.97858526028017  24.3979623166971 8.37078381491187  24.9796188425163 9.15518092417517  C 25.5486306612524 9.96529597144695  25.5486306612524 11.1097442128312  24.9796188425163 12.5885256483274  C 24.9543294283503 12.7556922453836  24.9258788374135 12.8842819354267  24.8942670697059 12.9742947184569  C 24.8626553019984 13.0643075014872  24.8911058929352 13.1446760577641  24.9796188425163 13.2154003872878  C 25.0681317920975 13.2861247168116  25.1440000345957 13.3343458505777  25.2072235700108 13.3600637885863  C 25.2704471054259 13.385781726595  25.3779271156316 13.424358633608  25.5296636006279 13.4757945096253  C 26.2504119043604 13.7072559517029  26.9016143191362 14.0094417233043  27.4832708449553 14.3823518244295  C 28.0649273707745 14.7552619255547  28.5707156540955 15.2792649124806  29.0006356949183 15.9543607852072  Z M 26.3262801468585 4.90207692599768  C 27.072317864757 5.13996785257746  27.7108755724498 5.56109908746885  28.2419532699369 6.16547063067173  C 28.7730309674239 6.76984217387451  29.1175992354363 7.46744124235863  29.2756580739741 8.25826783612411  C 29.433716912512 9.04909442988946  29.3926216144922 9.80455885889307  29.1523721799147 10.5246611231348  C 29.0512145232505 10.8204174102341  28.8647050937759 11.0390198833074  28.5928438914908 11.1804685423548  C 28.3209826892058 11.3219172014024  28.0396379566084 11.347635139411  27.7488096936989 11.2576223563808  C 27.4579814307893 11.1547506043462  27.2430214103779 10.9650808115326  27.1039296324646 10.6886129779398  C 26.9648378545513 10.4121451443471  26.9395484403853 10.1260330840009  27.0280613899664 9.83027679690167  C 27.2809555316269 9.02016174962978  27.1292190466306 8.30648896989021  26.5728519349775 7.68925845768308  C 26.0164848233244 7.07202794547595  25.3399929943826 6.84699598790041  24.543376448152 7.01416258495647  C 24.2399034781594 7.07845742997802  23.9553975687913 7.02702155396082  23.6898587200478 6.85985495690466  C 23.4243198713042 6.6926883598486  23.2662610327664 6.45479743326882  23.2156822044343 6.1461821771652  C 23.1524586690192 5.83756692106158  23.2030374973513 5.55145486071558  23.3674186894306 5.28784599612709  C 23.5317998815099 5.0242371315386  23.7657269625459 4.86028527673363  24.0691999325385 4.79599043171208  C 24.82788235752 4.62882383465592  25.58024242896 4.66418599941778  26.3262801468585 4.90207692599768  Z M 27.7298426330743 0.427155712495733  C 29.2598521901204 0.909367050157584  30.574901726755 1.77413271569776  31.6749912429782 3.02145270911649  C 32.7750807592014 4.25591373353086  33.4863455326216 5.68647403526086  33.8087855632386 7.31313361430694  C 34.1312255938558 8.9397931933529  34.0458738210454 10.4925137006239  33.5527302448074 11.9712951361204  C 33.4389278810602 12.3184872992368  33.2239678606488 12.5756666793231  32.9078501835731 12.7428332763793  C 32.5917325064975 12.9099998734353  32.2629701223389 12.935717811444  31.9215630310972 12.8199870904051  C 31.5801559398555 12.7042563693664  31.327261798195 12.485653896293  31.1628806061157 12.164179671185  C 30.9984994140364 11.8427054460772  30.9668876463288 11.5083722519649  31.068045302993 11.1611800888484  C 31.4220971013177 10.1067446304945  31.4853206367328 9.00087329612325  31.2577159092384 7.84356608573501  C 31.0301111817439 6.68625887534654  30.5243228984229 5.67040032400541  29.7403510592753 4.79599043171208  C 28.9563792201278 3.90872157041417  28.0206708959839 3.29470580045813  26.9332260868438 2.95394312184385  C 25.8457812777036 2.61318044322934  24.7520141150219 2.55852982496117  23.6519245987987 2.78999126703877  C 23.297872800474 2.86714508106468  22.9691104163153 2.8060649782941  22.6656374463228 2.60675095872728  C 22.3621644763301 2.40743693916033  22.1724938700847 2.12775436331651  22.0966256275865 1.76770323119558  C 22.0207573850885 1.40765209907488  22.0808197437328 1.07653364721364  22.2768127035197 0.774347875612307  C 22.4728056633066 0.472162104010749  22.7478280423624 0.282492311197188  23.1018798406871 0.205338497171283  C 24.6571788118992 -0.128994696940936  26.1998330760283 -0.0550556251661192  27.7298426330743 0.427155712495733  Z " fill-rule="nonzero" fill="#666666" stroke="none" transform="matrix(1 0 0 1 409 531 )" />
  </g>
</svg>