<?xml version="1.0" encoding="utf-8"?>
<svg version="1.1" xmlns:xlink="http://www.w3.org/1999/xlink" width="34px" height="34px" xmlns="http://www.w3.org/2000/svg">
  <g transform="matrix(1 0 0 1 -821 -328 )">
    <path d="M 27.9127604166667 19.4127604166666  C 28.1931423611111 19.1323784722222  28.3333333333333 18.8003472222222  28.3333333333333 18.4166666666666  L 28.3333333333333 15.5833333333334  C 28.3333333333333 15.1996527777778  28.1931423611111 14.8676215277778  27.9127604166667 14.5872395833334  C 27.6323784722223 14.3068576388889  27.3003472222223 14.1666666666666  26.9166666666667 14.1666666666666  L 7.08333333333326 14.1666666666666  C 6.69965277777771 14.1666666666666  6.36762152777771 14.3068576388889  6.08723958333326 14.5872395833334  C 5.80685763888891 14.8676215277778  5.66666666666674 15.1996527777778  5.66666666666674 15.5833333333334  L 5.66666666666674 18.4166666666666  C 5.66666666666674 18.8003472222222  5.80685763888891 19.1323784722222  6.08723958333326 19.4127604166666  C 6.36762152777771 19.6931423611111  6.69965277777771 19.8333333333334  7.08333333333326 19.8333333333334  L 26.9166666666667 19.8333333333334  C 27.3003472222223 19.8333333333334  27.6323784722223 19.6931423611111  27.9127604166667 19.4127604166666  Z M 32.1295572916667 1.87044270833337  C 33.3765190972223 3.11740451388886  34 4.61892361111109  34 6.375  L 34 27.625  C 34 29.3810763888889  33.3765190972223 30.8825954861111  32.1295572916667 32.1295572916666  C 30.8825954861111 33.3765190972222  29.3810763888889 34  27.625 34  L 6.375 34  C 4.61892361111109 34  3.11740451388891 33.3765190972222  1.87044270833326 32.1295572916666  C 0.623480902777715 30.8825954861111  0 29.3810763888889  0 27.625  L 0 6.375  C 0 4.61892361111109  0.623480902777715 3.11740451388886  1.87044270833326 1.87044270833337  C 3.11740451388891 0.623480902777771  4.61892361111109 0  6.375 0  L 27.625 0  C 29.3810763888889 0  30.8825954861111 0.623480902777771  32.1295572916667 1.87044270833337  Z " fill-rule="nonzero" fill="#666666" stroke="none" transform="matrix(1 0 0 1 821 328 )" />
  </g>
</svg>