<?xml version="1.0" encoding="utf-8"?>
<svg version="1.1" xmlns:xlink="http://www.w3.org/1999/xlink" width="34px" height="26px" xmlns="http://www.w3.org/2000/svg">
  <g transform="matrix(1 0 0 1 -479 -945 )">
    <path d="M 29.4568965517241 9.60227272727275  C 30.1408045977012 8.91287878787898  30.4827586206897 8.07575757575751  30.4827586206897 7.09090909090924  C 30.4827586206897 6.10606060606051  30.1408045977012 5.26893939393949  29.4568965517241 4.5795454545455  C 28.7729885057472 3.8901515151515  27.9425287356322 3.5454545454545  26.9655172413794 3.5454545454545  L 25.7931034482759 3.5454545454545  L 25.7931034482759 10.6363636363635  L 26.9655172413794 10.6363636363635  C 27.9425287356322 10.6363636363635  28.7729885057472 10.2916666666667  29.4568965517241 9.60227272727275  Z M 1.37392241379308 24.615056818182  C 0.457974137931046 23.6917613636365  0 22.5776515151515  0 21  L 32.8275862068965 21  C 32.8275862068965 22.5776515151515  32.3696120689655 23.6917613636365  31.4536637931035 24.615056818182  C 30.5377155172414 25.5383522727273  29.4324712643678 26  28.1379310344827 26  L 4.68965517241378 26  C 3.39511494252872 26  2.28987068965517 25.5383522727273  1.37392241379308 24.615056818182  Z M 31.9391163793103 2.07741477272725  C 33.3130387931035 3.4623579545455  34 5.13352272727275  34 7.09090909090924  C 34 9.0482954545455  33.3130387931035 10.7194602272727  31.9391163793103 12.1044034090908  C 30.5651939655173 13.4893465909092  28.9073275862069 14.181818181818  26.9655172413794 14.181818181818  L 25.7931034482759 14.181818181818  L 25.7931034482759 14.7727272727273  C 25.7931034482759 15.905303030303  25.3900862068965 16.8778409090908  24.5840517241379 17.6903409090908  C 23.7780172413794 18.5028409090908  22.8132183908046 18.9090909090908  21.6896551724138 19  L 8.79310344827587 19  C 7.66954022988506 18.9090909090908  6.70474137931035 18.5028409090908  5.89870689655169 17.6903409090908  C 5.09267241379308 16.8778409090908  4.68965517241378 15.905303030303  5 14.7727272727273  L 5 1.18181818181802  C 4.68965517241378 0.861742424242493  4.80567528735634 0.584753787878753  5.03771551724139 0.350852272727252  C 5.26975574712645 0.116950757575751  5.54454022988506 0  5.86206896551727 0  L 26.9655172413794 0  C 28.9073275862069 0  30.5651939655173 0.692471590909236  31.9391163793103 2.07741477272725  Z " fill-rule="nonzero" fill="#666666" stroke="none" transform="matrix(1 0 0 1 479 945 )" />
  </g>
</svg>