<?xml version="1.0" encoding="utf-8"?>
<svg version="1.1" xmlns:xlink="http://www.w3.org/1999/xlink" width="34px" height="27px" xmlns="http://www.w3.org/2000/svg">
  <g transform="matrix(1 0 0 1 -409 -767 )">
    <path d="M 9.18303571428567 20.1732954545455  C 9.53720238095241 20.53125  9.71428571428567 20.965909090909  9.71428571428567 21.4772727272727  L 9.71428571428567 25.159090909091  C 9.71428571428567 25.6704545454545  9.53720238095241 26.1051136363637  9.18303571428567 26.4630681818182  C 8.82886904761904 26.8210227272727  8.39880952380952 27  7.89285714285711 27  L 1.82142857142856 27  C 1.31547619047615 27  0.885416666666629 26.8210227272727  0.53125 26.4630681818182  C 0.177083333333371 26.1051136363637  0 25.6704545454545  0 25.159090909091  L 0 21.4772727272727  C 0 20.965909090909  0.177083333333371 20.53125  0.53125 20.1732954545455  C 0.885416666666629 19.815340909091  1.31547619047615 19.6363636363637  1.82142857142856 19.6363636363637  L 7.89285714285711 19.6363636363637  C 8.39880952380952 19.6363636363637  8.82886904761904 19.815340909091  9.18303571428567 20.1732954545455  Z M 9.18303571428567 10.3551136363637  C 9.53720238095241 10.7130681818182  9.71428571428567 11.1477272727273  9.71428571428567 11.659090909091  L 9.71428571428567 15.340909090909  C 9.71428571428567 15.8522727272727  9.53720238095241 16.2869318181818  9.18303571428567 16.6448863636363  C 8.82886904761904 17.002840909091  8.39880952380952 17.1818181818182  7.89285714285711 17.1818181818182  L 1.82142857142856 17.1818181818182  C 1.31547619047615 17.1818181818182  0.885416666666629 17.002840909091  0.53125 16.6448863636363  C 0.177083333333371 16.2869318181818  0 15.8522727272727  0 15.340909090909  L 0 11.659090909091  C 0 11.1477272727273  0.177083333333371 10.7130681818182  0.53125 10.3551136363637  C 0.885416666666629 9.99715909090901  1.31547619047615 9.81818181818176  1.82142857142856 9.81818181818176  L 7.89285714285711 9.81818181818176  C 8.39880952380952 9.81818181818176  8.82886904761904 9.99715909090901  9.18303571428567 10.3551136363637  Z M 21.3258928571429 20.1732954545455  C 21.6800595238095 20.53125  21.8571428571429 20.965909090909  21.8571428571429 21.4772727272727  L 21.8571428571429 25.159090909091  C 21.8571428571429 25.6704545454545  21.6800595238095 26.1051136363637  21.3258928571429 26.4630681818182  C 20.9717261904761 26.8210227272727  20.5416666666666 27  20.0357142857143 27  L 13.9642857142857 27  C 13.4583333333334 27  13.0282738095239 26.8210227272727  12.6741071428571 26.4630681818182  C 12.3199404761905 26.1051136363637  12.1428571428571 25.6704545454545  12.1428571428571 25.159090909091  L 12.1428571428571 21.4772727272727  C 12.1428571428571 20.965909090909  12.3199404761905 20.53125  12.6741071428571 20.1732954545455  C 13.0282738095239 19.815340909091  13.4583333333334 19.6363636363637  13.9642857142857 19.6363636363637  L 20.0357142857143 19.6363636363637  C 20.5416666666666 19.6363636363637  20.9717261904761 19.815340909091  21.3258928571429 20.1732954545455  Z M 9.18303571428567 0.536931818181756  C 9.53720238095241 0.89488636363626  9.71428571428567 1.3295454545455  9.71428571428567 1.84090909090901  L 9.71428571428567 5.52272727272725  C 9.71428571428567 6.03409090909099  9.53720238095241 6.46875  9.18303571428567 6.8267045454545  C 8.82886904761904 7.18465909090901  8.39880952380952 7.36363636363626  7.89285714285711 7.36363636363626  L 1.82142857142856 7.36363636363626  C 1.31547619047615 7.36363636363626  0.885416666666629 7.18465909090901  0.53125 6.8267045454545  C 0.177083333333371 6.46875  0 6.03409090909099  0 5.52272727272725  L 0 1.84090909090901  C 0 1.3295454545455  0.177083333333371 0.89488636363626  0.53125 0.536931818181756  C 0.885416666666629 0.178977272727252  1.31547619047615 0  1.82142857142856 0  L 7.89285714285711 0  C 8.39880952380952 0  8.82886904761904 0.178977272727252  9.18303571428567 0.536931818181756  Z M 21.3258928571429 10.3551136363637  C 21.6800595238095 10.7130681818182  21.8571428571429 11.1477272727273  21.8571428571429 11.659090909091  L 21.8571428571429 15.340909090909  C 21.8571428571429 15.8522727272727  21.6800595238095 16.2869318181818  21.3258928571429 16.6448863636363  C 20.9717261904761 17.002840909091  20.5416666666666 17.1818181818182  20.0357142857143 17.1818181818182  L 13.9642857142857 17.1818181818182  C 13.4583333333334 17.1818181818182  13.0282738095239 17.002840909091  12.6741071428571 16.6448863636363  C 12.3199404761905 16.2869318181818  12.1428571428571 15.8522727272727  12.1428571428571 15.340909090909  L 12.1428571428571 11.659090909091  C 12.1428571428571 11.1477272727273  12.3199404761905 10.7130681818182  12.6741071428571 10.3551136363637  C 13.0282738095239 9.99715909090901  13.4583333333334 9.81818181818176  13.9642857142857 9.81818181818176  L 20.0357142857143 9.81818181818176  C 20.5416666666666 9.81818181818176  20.9717261904761 9.99715909090901  21.3258928571429 10.3551136363637  Z M 33.46875 20.1732954545455  C 33.8229166666666 20.53125  34 20.965909090909  34 21.4772727272727  L 34 25.159090909091  C 34 25.6704545454545  33.8229166666666 26.1051136363637  33.46875 26.4630681818182  C 33.1145833333334 26.8210227272727  32.6845238095239 27  32.1785714285714 27  L 26.1071428571429 27  C 25.6011904761905 27  25.171130952381 26.8210227272727  24.8169642857143 26.4630681818182  C 24.4627976190476 26.1051136363637  24.2857142857143 25.6704545454545  24.2857142857143 25.159090909091  L 24.2857142857143 21.4772727272727  C 24.2857142857143 20.965909090909  24.4627976190476 20.53125  24.8169642857143 20.1732954545455  C 25.171130952381 19.815340909091  25.6011904761905 19.6363636363637  26.1071428571429 19.6363636363637  L 32.1785714285714 19.6363636363637  C 32.6845238095239 19.6363636363637  33.1145833333334 19.815340909091  33.46875 20.1732954545455  Z M 21.3258928571429 0.536931818181756  C 21.6800595238095 0.89488636363626  21.8571428571429 1.3295454545455  21.8571428571429 1.84090909090901  L 21.8571428571429 5.52272727272725  C 21.8571428571429 6.03409090909099  21.6800595238095 6.46875  21.3258928571429 6.8267045454545  C 20.9717261904761 7.18465909090901  20.5416666666666 7.36363636363626  20.0357142857143 7.36363636363626  L 13.9642857142857 7.36363636363626  C 13.4583333333334 7.36363636363626  13.0282738095239 7.18465909090901  12.6741071428571 6.8267045454545  C 12.3199404761905 6.46875  12.1428571428571 6.03409090909099  12.1428571428571 5.52272727272725  L 12.1428571428571 1.84090909090901  C 12.1428571428571 1.3295454545455  12.3199404761905 0.89488636363626  12.6741071428571 0.536931818181756  C 13.0282738095239 0.178977272727252  13.4583333333334 0  13.9642857142857 0  L 20.0357142857143 0  C 20.5416666666666 0  20.9717261904761 0.178977272727252  21.3258928571429 0.536931818181756  Z M 33.46875 10.3551136363637  C 33.8229166666666 10.7130681818182  34 11.1477272727273  34 11.659090909091  L 34 15.340909090909  C 34 15.8522727272727  33.8229166666666 16.2869318181818  33.46875 16.6448863636363  C 33.1145833333334 17.002840909091  32.6845238095239 17.1818181818182  32.1785714285714 17.1818181818182  L 26.1071428571429 17.1818181818182  C 25.6011904761905 17.1818181818182  25.171130952381 17.002840909091  24.8169642857143 16.6448863636363  C 24.4627976190476 16.2869318181818  24.2857142857143 15.8522727272727  24.2857142857143 15.340909090909  L 24.2857142857143 11.659090909091  C 24.2857142857143 11.1477272727273  24.4627976190476 10.7130681818182  24.8169642857143 10.3551136363637  C 25.171130952381 9.99715909090901  25.6011904761905 9.81818181818176  26.1071428571429 9.81818181818176  L 32.1785714285714 9.81818181818176  C 32.6845238095239 9.81818181818176  33.1145833333334 9.99715909090901  33.46875 10.3551136363637  Z M 33.46875 0.536931818181756  C 33.8229166666666 0.89488636363626  34 1.3295454545455  34 1.84090909090901  L 34 5.52272727272725  C 34 6.03409090909099  33.8229166666666 6.46875  33.46875 6.8267045454545  C 33.1145833333334 7.18465909090901  32.6845238095239 7.36363636363626  32.1785714285714 7.36363636363626  L 26.1071428571429 7.36363636363626  C 25.6011904761905 7.36363636363626  25.171130952381 7.18465909090901  24.8169642857143 6.8267045454545  C 24.4627976190476 6.46875  24.2857142857143 6.03409090909099  24.2857142857143 5.52272727272725  L 24.2857142857143 1.84090909090901  C 24.2857142857143 1.3295454545455  24.4627976190476 0.89488636363626  24.8169642857143 0.536931818181756  C 25.171130952381 0.178977272727252  25.6011904761905 0  26.1071428571429 0  L 32.1785714285714 0  C 32.6845238095239 0  33.1145833333334 0.178977272727252  33.46875 0.536931818181756  Z " fill-rule="nonzero" fill="#666666" stroke="none" transform="matrix(1 0 0 1 409 767 )" />
  </g>
</svg>