<?xml version="1.0" encoding="utf-8"?>
<svg version="1.1" xmlns:xlink="http://www.w3.org/1999/xlink" width="23px" height="34px" xmlns="http://www.w3.org/2000/svg">
  <g transform="matrix(1 0 0 1 -833 -587 )">
    <path d="M 16.9580078125 17.9942295695571  L 1.0107421875 33.6809627781244  C 0.726236979166743 33.9608199902959  0.486653645833258 34.0565606155126  0.2919921875 33.9681846537741  C 0.0973307291667425 33.8798086920357  0 33.6441394607333  0 33.2611769598668  L 0 0.738823040133184  C 0 0.3558605392667  0.0973307291667425 0.120191307964319  0.2919921875 0.0318153462259261  C 0.486653645833258 -0.0565606155125806  0.726236979166743 0.0391800097040687  1.0107421875 0.319037221875647  L 16.9580078125 16.0057704304429  C 17.0777994791667 16.1236050460941  17.1751302083333 16.2635336521799  17 16.4255562487003  L 17 1.44583073404033  C 17.25 1.06286823317396  17.3922526041667 0.731458376654928  17.6767578125 0.45160116448335  C 17.9612630208333 0.171743952311658  18.2981770833333 0.0318153462259261  18.6875 0.0318153462259261  L 21.5625 0.0318153462259261  C 21.9518229166667 0.0318153462259261  22.2887369791667 0.171743952311658  22.5732421875 0.45160116448335  C 22.8577473958333 0.731458376654928  23 1.06286823317396  23 1.44583073404033  L 23 32.5541692659597  C 23 32.937131766826  22.8577473958333 33.2685416233451  22.5732421875 33.5483988355167  C 22.2887369791667 33.8282560476883  21.9518229166667 33.9681846537741  21.5625 33.9681846537741  L 18.6875 33.9681846537741  C 18.2981770833333 33.9681846537741  17.9612630208333 33.8282560476883  17.6767578125 33.5483988355167  C 17.3922526041667 33.2685416233451  17.25 32.937131766826  17 32.5541692659597  L 17 17.5744437512997  C 17.1751302083333 17.7217370208637  17.0777994791667 17.8616656269494  16.9580078125 17.9942295695571  Z " fill-rule="nonzero" fill="#666666" stroke="none" transform="matrix(1 0 0 1 833 587 )" />
  </g>
</svg>