<?xml version="1.0" encoding="utf-8"?>
<svg version="1.1" xmlns:xlink="http://www.w3.org/1999/xlink" width="34px" height="27px" xmlns="http://www.w3.org/2000/svg">
  <g transform="matrix(1 0 0 1 -826 -943 )">
    <path d="M 31.3911830357142 24.36328125  C 31.5113467261905 24.2418323863635  31.5714285714287 24.0980113636365  31 23.931818181818  L 31 9.2045454545455  C 31.1666666666667 9.66477272727252  30.7302827380952 10.0866477272725  30.2622767857142 10.4701704545455  C 26.8723958333333 13.103693181818  24.1781994047619 15.2642045454545  22.1796875 16.9517045454545  C 21.5345982142858 17.5014204545455  21.0096726190477 17.9296875  20.6049107142858 18.236505681818  C 20.2001488095239 18.5433238636365  19.653087797619 18.853338068182  18.9637276785713 19.1665482954545  C 18.2743675595239 19.4797585227275  17.6261160714287 19.6363636363635  17.0189732142858 19.6363636363635  L 17 19.6363636363635  L 16.9810267857142 19.6363636363635  C 16.3738839285713 19.6363636363635  15.7256324404761 19.4797585227275  15.0362723214287 19.1665482954545  C 14.346912202381 18.853338068182  13.7998511904761 18.5433238636365  13.3950892857142 18.236505681818  C 12.9903273809523 17.9296875  12.4654017857142 17.5014204545455  11.8203125 16.9517045454545  C 9.82180059523807 15.2642045454545  7.12760416666674 13.103693181818  3.73772321428578 10.4701704545455  C 3.26971726190482 10.0866477272725  2.83333333333326 9.66477272727252  3 9.2045454545455  L 3 23.931818181818  C 2.42857142857133 24.0980113636365  2.48865327380952 24.2418323863635  2.60881696428578 24.36328125  C 2.72898065476193 24.4847301136365  2.87127976190482 24.5454545454545  3.03571428571422 24.5454545454545  L 30.9642857142858 24.5454545454545  C 31.1287202380952 24.5454545454545  31.2710193452381 24.4847301136365  31.3911830357142 24.36328125  Z M 30.6891741071429 6.2993607954545  C 31.27734375 5.3725142045455  31.5714285714287 4.53196022727252  31.5714285714287 3.77769886363649  L 31.5714285714287 3.56676136363649  L 31.5714285714287 3.30788352272748  C 31.5714285714287 3.30788352272748  31.5682663690477 3.22478693181802  31.5619419642858 3.05859375  C 31.5556175595239 2.89240056818198  31.5366443452381 2.8125  31.5050223214287 2.8188920454545  C 31.473400297619 2.82528409090901  31.4386160714287 2.76775568181802  31.4006696428571 2.64630681818198  C 31.3627232142858 2.5248579545455  31.3058035714287 2.47691761363649  31.2299107142858 2.5024857954545  C 31.1540178571429 2.52805397727252  31.0654761904761 2.51207386363649  30.9642857142858 2.4545454545455  L 3.03571428571422 2.4545454545455  C 2.87127976190482 2.4545454545455  2.72898065476193 2.51526988636351  2.60881696428578 2.63671875  C 2.48865327380952 2.75816761363649  2.42857142857133 2.90198863636351  2.42857142857133 3.06818181818198  C 2.42857142857133 5.21590909090901  3.35825892857133 7.03125  5.21763392857133 8.5142045454545  C 7.65885416666674 10.4573863636365  10.1949404761905 12.4836647727275  12.8258928571429 14.5930397727275  C 12.9017857142858 14.6569602272725  13.1231398809523 14.845525568182  13.4899553571429 15.1587357954545  C 13.8567708333333 15.4719460227273  14.147693452381 15.7116477272725  14.3627232142858 15.877840909091  C 14.5777529761905 16.044034090909  14.8591889880952 16.2453835227275  15.20703125 16.4818892045455  C 15.5548735119048 16.7183948863635  15.874255952381 16.8941761363635  16.1651785714287 17.0092329545455  C 16.4561011904761 17.1242897727275  16.7280505952381 17.181818181818  16.9810267857142 17.181818181818  L 17 17.181818181818  L 17.0189732142858 17.181818181818  C 17.2719494047619 17.181818181818  17.5438988095239 17.1242897727275  17.8348214285713 17.0092329545455  C 18.125744047619 16.8941761363635  18.4451264880952 16.7183948863635  18.79296875 16.4818892045455  C 19.1408110119048 16.2453835227275  19.4222470238095 16.044034090909  19.6372767857142 15.877840909091  C 19.852306547619 15.7116477272725  20.1432291666667 15.4719460227273  20.5100446428571 15.1587357954545  C 20.8768601190477 14.845525568182  21.0982142857142 14.6569602272725  21.1741071428571 14.5930397727275  C 23.8050595238095 12.4836647727275  26.3411458333333 10.4573863636365  28.7823660714287 8.5142045454545  C 29.4654017857142 7.96448863636351  30.1010044642858 7.22620738636351  30.6891741071429 6.2993607954545  Z M 33.1082589285713 0.901278409090992  C 33.7027529761904 1.50213068181802  34 2.22443181818198  34 3.06818181818198  L 34 23.931818181818  C 34 24.775568181818  33.7027529761904 25.497869318182  33.1082589285713 26.098721590909  C 32.5137648809523 26.6995738636365  31.7991071428571 27  30.9642857142858 27  L 3.03571428571422 27  C 2.20089285714289 27  1.48623511904771 26.6995738636365  0.891741071428669 26.098721590909  C 0.297247023809518 25.497869318182  0 24.775568181818  0 23.931818181818  L 0 3.06818181818198  C 0 2.22443181818198  0.297247023809518 1.50213068181802  0.891741071428669 0.901278409090992  C 1.48623511904771 0.300426136363512  2.20089285714289 0  3.03571428571422 0  L 30.9642857142858 0  C 31.7991071428571 0  32.5137648809523 0.300426136363512  33.1082589285713 0.901278409090992  Z " fill-rule="nonzero" fill="#666666" stroke="none" transform="matrix(1 0 0 1 826 943 )" />
  </g>
</svg>